<?xml version="1.0" standalone="no"?>
<!DOCTYPE svg PUBLIC "-//W3C//DTD SVG 1.1//EN" "http://www.w3.org/Graphics/SVG/1.1/DTD/svg11.dtd" >
<svg xmlns="http://www.w3.org/2000/svg">
<metadata></metadata>
<defs>
<font id="american_purpose_casual_02Rg" horiz-adv-x="1583" >
<font-face units-per-em="2048" ascent="1536" descent="-512" />
<missing-glyph horiz-adv-x="337" />
<glyph horiz-adv-x="0" />
<glyph unicode="&#xd;" horiz-adv-x="471" />
<glyph unicode=" "  horiz-adv-x="337" />
<glyph unicode="&#x09;" horiz-adv-x="337" />
<glyph unicode="&#xa0;" horiz-adv-x="337" />
<glyph unicode="!" horiz-adv-x="528" d="M125 127q18 68 81.5 111t135.5 43q66 0 98.5 -39t16.5 -103q-10 -35 -32 -63.5t-52.5 -49t-65.5 -32.5t-71 -12q-66 0 -96.5 39.5t-14.5 105.5zM264 399q20 61 35.5 152.5t31 196t34 212t43.5 203.5q12 45 28.5 97.5t44 96.5t70.5 72.5t104 28.5q74 0 102.5 -27.5 t31 -70.5t-16 -97.5t-37.5 -107.5q-84 -223 -159.5 -408.5t-112.5 -349.5q-20 -14 -56 -22t-71 -8q-49 0 -72 32z" />
<glyph unicode="&#x22;" horiz-adv-x="702" d="M364 951.5q3 76.5 16 162.5t36.5 170t50.5 139q20 6 54 11.5t67 5.5t59.5 -8.5t36.5 -28.5q-23 -43 -49.5 -118t-53 -154.5t-47 -151.5t-30.5 -111q-59 -33 -131 -32q-12 39 -9 115.5zM670 957.5q8 74.5 26.5 159.5t43 168t42.5 136q23 8 57.5 15.5t68.5 7.5t62 -9.5 t36 -29.5q-6 -23 -19.5 -56.5t-38 -94t-63.5 -155.5t-99 -241q-43 -8 -67.5 -10t-44.5 -2q-12 37 -4 111.5z" />
<glyph unicode="#" d="M68 731q0 150 56 282t154.5 230t230.5 155.5t282 57.5t281.5 -57.5t230 -155.5t156 -230t57.5 -282t-57.5 -282t-156 -230t-230 -155.5t-281.5 -57.5t-282 57.5t-230.5 155.5t-154.5 230.5t-56 281.5zM164 731q0 -129 49 -242.5t135 -199.5t200 -135.5t243 -49.5 q131 0 244.5 49.5t197.5 135.5t133 199.5t49 242.5t-49 242.5t-133 198.5t-197.5 134.5t-244.5 49.5q-129 0 -243 -49.5t-200 -134.5t-135 -198.5t-49 -242.5zM207 731q0 119 46 224.5t126 184.5t185.5 124t226.5 45q119 0 225 -45t185 -124t125 -184.5t46 -224.5 q0 -121 -46 -227.5t-125 -185t-185 -125t-225 -46.5q-121 0 -226.5 46.5t-185.5 125t-126 185t-46 227.5zM330 664l112 -177q346 -80 699 0l110 177h-921zM451 1063l151 -189q4 -4 15.5 -0.5t23.5 9.5t20.5 12t8.5 8q-29 57 -47.5 118.5t-53.5 111.5q-6 8 -26.5 -0.5 t-42 -22.5t-38 -28.5t-11.5 -18.5zM463 457q20 -35 51 -74t73 -70.5t92.5 -53t111.5 -21.5q59 0 110 21.5t92 53t73 70.5t52 74q-164 -43 -326.5 -42t-328.5 42zM715 731h155l-77 187zM918 903q-4 -2 4 -8t19 -12t23.5 -9.5t18.5 0.5l147 189q4 4 -11 18.5t-36.5 28.5 t-42 22.5t-26.5 0.5q-39 -49 -55.5 -110.5t-40.5 -119.5zM1290 102v23h84v-23h-31v-77h-22v77h-31zM1384 25v100h31l19 -78l18 78h29v-100h-19v77l-20 -77h-19l-20 77v-77h-19z" />
<glyph unicode="$" d="M68 731q0 150 56 282t154.5 230t230.5 155.5t282 57.5t281.5 -57.5t230 -155.5t156 -230t57.5 -282t-57.5 -282t-156 -230t-230 -155.5t-281.5 -57.5t-282 57.5t-230.5 155.5t-154.5 230.5t-56 281.5zM164 731q0 -129 49 -242.5t135 -199.5t200 -135.5t243 -49.5 q131 0 244.5 49.5t197.5 135.5t133 199.5t49 242.5t-49 242.5t-133 198.5t-197.5 134.5t-244.5 49.5q-129 0 -243 -49.5t-200 -134.5t-135 -198.5t-49 -242.5zM207 731q0 119 46 224.5t126 184.5t185.5 124t226.5 45q119 0 225 -45t185 -124t125 -184.5t46 -224.5 q0 -121 -46 -227.5t-125 -185t-185 -125t-225 -46.5q-121 0 -226.5 46.5t-185.5 125t-126 185t-46 227.5zM330 664l112 -177q346 -80 699 0l110 177h-921zM451 1063l151 -189q4 -4 15.5 -0.5t23.5 9.5t20.5 12t8.5 8q-29 57 -47.5 118.5t-53.5 111.5q-6 8 -26.5 -0.5 t-42 -22.5t-38 -28.5t-11.5 -18.5zM463 457q20 -35 51 -74t73 -70.5t92.5 -53t111.5 -21.5q59 0 110 21.5t92 53t73 70.5t52 74q-164 -43 -326.5 -42t-328.5 42zM715 731h155l-77 187zM918 903q-4 -2 4 -8t19 -12t23.5 -9.5t18.5 0.5l147 189q4 4 -11 18.5t-36.5 28.5 t-42 22.5t-26.5 0.5q-39 -49 -55.5 -110.5t-40.5 -119.5zM1290 102v23h84v-23h-31v-77h-22v77h-31zM1384 25v100h31l19 -78l18 78h29v-100h-19v77l-20 -77h-19l-20 77v-77h-19z" />
<glyph unicode="%" d="M68 731q0 150 56 282t154.5 230t230.5 155.5t282 57.5t281.5 -57.5t230 -155.5t156 -230t57.5 -282t-57.5 -282t-156 -230t-230 -155.5t-281.5 -57.5t-282 57.5t-230.5 155.5t-154.5 230.5t-56 281.5zM164 731q0 -129 49 -242.5t135 -199.5t200 -135.5t243 -49.5 q131 0 244.5 49.5t197.5 135.5t133 199.5t49 242.5t-49 242.5t-133 198.5t-197.5 134.5t-244.5 49.5q-129 0 -243 -49.5t-200 -134.5t-135 -198.5t-49 -242.5zM207 731q0 119 46 224.5t126 184.5t185.5 124t226.5 45q119 0 225 -45t185 -124t125 -184.5t46 -224.5 q0 -121 -46 -227.5t-125 -185t-185 -125t-225 -46.5q-121 0 -226.5 46.5t-185.5 125t-126 185t-46 227.5zM330 664l112 -177q346 -80 699 0l110 177h-921zM451 1063l151 -189q4 -4 15.5 -0.5t23.5 9.5t20.5 12t8.5 8q-29 57 -47.5 118.5t-53.5 111.5q-6 8 -26.5 -0.5 t-42 -22.5t-38 -28.5t-11.5 -18.5zM463 457q20 -35 51 -74t73 -70.5t92.5 -53t111.5 -21.5q59 0 110 21.5t92 53t73 70.5t52 74q-164 -43 -326.5 -42t-328.5 42zM715 731h155l-77 187zM918 903q-4 -2 4 -8t19 -12t23.5 -9.5t18.5 0.5l147 189q4 4 -11 18.5t-36.5 28.5 t-42 22.5t-26.5 0.5q-39 -49 -55.5 -110.5t-40.5 -119.5zM1290 102v23h84v-23h-31v-77h-22v77h-31zM1384 25v100h31l19 -78l18 78h29v-100h-19v77l-20 -77h-19l-20 77v-77h-19z" />
<glyph unicode="&#x26;" horiz-adv-x="1280" d="M125 328q14 205 137 341t324 191q-25 111 -21 204t53 181q59 104 156.5 153.5t214.5 55.5q63 4 126 -6t110 -33q47 -25 76 -70t45 -100q-16 -23 -44 -47t-60 -48t-65.5 -42t-60.5 -29q-10 80 -32.5 124t-92.5 42q-72 -4 -110.5 -56t-42.5 -118t7 -145.5t31.5 -159.5 t46 -153.5t52.5 -129.5q33 27 64.5 72t53 96t28.5 104.5t-9 96.5q57 12 129 20.5t129 8.5q20 -78 -5.5 -166t-74.5 -171t-109.5 -152.5t-109.5 -112.5q8 -33 27.5 -50.5t44 -23.5t54.5 -5t63 5q-2 -37 -5.5 -76t-11.5 -74q-55 -35 -115.5 -44t-123.5 -9q-63 4 -99.5 32.5 t-62.5 84.5q-92 -74 -187.5 -105.5t-212.5 -31.5q-70 0 -130 24.5t-104 68.5t-66.5 108.5t-16.5 144.5zM399 332q2 -47 34 -81t85 -38q55 -2 121 21.5t117 76.5q-35 78 -68 165t-49 177q-51 -8 -96 -40.5t-79 -79t-52.5 -99.5t-12.5 -102z" />
<glyph unicode="'" horiz-adv-x="393" d="M364 951.5q3 76.5 16 162.5t36.5 170t50.5 139q20 6 54 11.5t67 5.5t59.5 -8.5t36.5 -28.5q-23 -43 -49.5 -118t-53 -154.5t-47 -151.5t-30.5 -111q-59 -33 -131 -32q-12 39 -9 115.5z" />
<glyph unicode="(" d="M68 731q0 150 56 282t154.5 230t230.5 155.5t282 57.5t281.5 -57.5t230 -155.5t156 -230t57.5 -282t-57.5 -282t-156 -230t-230 -155.5t-281.5 -57.5t-282 57.5t-230.5 155.5t-154.5 230.5t-56 281.5zM164 731q0 -129 49 -242.5t135 -199.5t200 -135.5t243 -49.5 q131 0 244.5 49.5t197.5 135.5t133 199.5t49 242.5t-49 242.5t-133 198.5t-197.5 134.5t-244.5 49.5q-129 0 -243 -49.5t-200 -134.5t-135 -198.5t-49 -242.5zM207 731q0 119 46 224.5t126 184.5t185.5 124t226.5 45q119 0 225 -45t185 -124t125 -184.5t46 -224.5 q0 -121 -46 -227.5t-125 -185t-185 -125t-225 -46.5q-121 0 -226.5 46.5t-185.5 125t-126 185t-46 227.5zM330 664l112 -177q346 -80 699 0l110 177h-921zM451 1063l151 -189q4 -4 15.5 -0.5t23.5 9.5t20.5 12t8.5 8q-29 57 -47.5 118.5t-53.5 111.5q-6 8 -26.5 -0.5 t-42 -22.5t-38 -28.5t-11.5 -18.5zM463 457q20 -35 51 -74t73 -70.5t92.5 -53t111.5 -21.5q59 0 110 21.5t92 53t73 70.5t52 74q-164 -43 -326.5 -42t-328.5 42zM715 731h155l-77 187zM918 903q-4 -2 4 -8t19 -12t23.5 -9.5t18.5 0.5l147 189q4 4 -11 18.5t-36.5 28.5 t-42 22.5t-26.5 0.5q-39 -49 -55.5 -110.5t-40.5 -119.5zM1290 102v23h84v-23h-31v-77h-22v77h-31zM1384 25v100h31l19 -78l18 78h29v-100h-19v77l-20 -77h-19l-20 77v-77h-19z" />
<glyph unicode=")" d="M68 731q0 150 56 282t154.5 230t230.5 155.5t282 57.5t281.5 -57.5t230 -155.5t156 -230t57.5 -282t-57.5 -282t-156 -230t-230 -155.5t-281.5 -57.5t-282 57.5t-230.5 155.5t-154.5 230.5t-56 281.5zM164 731q0 -129 49 -242.5t135 -199.5t200 -135.5t243 -49.5 q131 0 244.5 49.5t197.5 135.5t133 199.5t49 242.5t-49 242.5t-133 198.5t-197.5 134.5t-244.5 49.5q-129 0 -243 -49.5t-200 -134.5t-135 -198.5t-49 -242.5zM207 731q0 119 46 224.5t126 184.5t185.5 124t226.5 45q119 0 225 -45t185 -124t125 -184.5t46 -224.5 q0 -121 -46 -227.5t-125 -185t-185 -125t-225 -46.5q-121 0 -226.5 46.5t-185.5 125t-126 185t-46 227.5zM330 664l112 -177q346 -80 699 0l110 177h-921zM451 1063l151 -189q4 -4 15.5 -0.5t23.5 9.5t20.5 12t8.5 8q-29 57 -47.5 118.5t-53.5 111.5q-6 8 -26.5 -0.5 t-42 -22.5t-38 -28.5t-11.5 -18.5zM463 457q20 -35 51 -74t73 -70.5t92.5 -53t111.5 -21.5q59 0 110 21.5t92 53t73 70.5t52 74q-164 -43 -326.5 -42t-328.5 42zM715 731h155l-77 187zM918 903q-4 -2 4 -8t19 -12t23.5 -9.5t18.5 0.5l147 189q4 4 -11 18.5t-36.5 28.5 t-42 22.5t-26.5 0.5q-39 -49 -55.5 -110.5t-40.5 -119.5zM1290 102v23h84v-23h-31v-77h-22v77h-31zM1384 25v100h31l19 -78l18 78h29v-100h-19v77l-20 -77h-19l-20 77v-77h-19z" />
<glyph unicode="*" d="M68 731q0 150 56 282t154.5 230t230.5 155.5t282 57.5t281.5 -57.5t230 -155.5t156 -230t57.5 -282t-57.5 -282t-156 -230t-230 -155.5t-281.5 -57.5t-282 57.5t-230.5 155.5t-154.5 230.5t-56 281.5zM164 731q0 -129 49 -242.5t135 -199.5t200 -135.5t243 -49.5 q131 0 244.5 49.5t197.5 135.5t133 199.5t49 242.5t-49 242.5t-133 198.5t-197.5 134.5t-244.5 49.5q-129 0 -243 -49.5t-200 -134.5t-135 -198.5t-49 -242.5zM207 731q0 119 46 224.5t126 184.5t185.5 124t226.5 45q119 0 225 -45t185 -124t125 -184.5t46 -224.5 q0 -121 -46 -227.5t-125 -185t-185 -125t-225 -46.5q-121 0 -226.5 46.5t-185.5 125t-126 185t-46 227.5zM330 664l112 -177q346 -80 699 0l110 177h-921zM451 1063l151 -189q4 -4 15.5 -0.5t23.5 9.5t20.5 12t8.5 8q-29 57 -47.5 118.5t-53.5 111.5q-6 8 -26.5 -0.5 t-42 -22.5t-38 -28.5t-11.5 -18.5zM463 457q20 -35 51 -74t73 -70.5t92.5 -53t111.5 -21.5q59 0 110 21.5t92 53t73 70.5t52 74q-164 -43 -326.5 -42t-328.5 42zM715 731h155l-77 187zM918 903q-4 -2 4 -8t19 -12t23.5 -9.5t18.5 0.5l147 189q4 4 -11 18.5t-36.5 28.5 t-42 22.5t-26.5 0.5q-39 -49 -55.5 -110.5t-40.5 -119.5zM1290 102v23h84v-23h-31v-77h-22v77h-31zM1384 25v100h31l19 -78l18 78h29v-100h-19v77l-20 -77h-19l-20 77v-77h-19z" />
<glyph unicode="+" d="M68 731q0 150 56 282t154.5 230t230.5 155.5t282 57.5t281.5 -57.5t230 -155.5t156 -230t57.5 -282t-57.5 -282t-156 -230t-230 -155.5t-281.5 -57.5t-282 57.5t-230.5 155.5t-154.5 230.5t-56 281.5zM164 731q0 -129 49 -242.5t135 -199.5t200 -135.5t243 -49.5 q131 0 244.5 49.5t197.5 135.5t133 199.5t49 242.5t-49 242.5t-133 198.5t-197.5 134.5t-244.5 49.5q-129 0 -243 -49.5t-200 -134.5t-135 -198.5t-49 -242.5zM207 731q0 119 46 224.5t126 184.5t185.5 124t226.5 45q119 0 225 -45t185 -124t125 -184.5t46 -224.5 q0 -121 -46 -227.5t-125 -185t-185 -125t-225 -46.5q-121 0 -226.5 46.5t-185.5 125t-126 185t-46 227.5zM330 664l112 -177q346 -80 699 0l110 177h-921zM451 1063l151 -189q4 -4 15.5 -0.5t23.5 9.5t20.5 12t8.5 8q-29 57 -47.5 118.5t-53.5 111.5q-6 8 -26.5 -0.5 t-42 -22.5t-38 -28.5t-11.5 -18.5zM463 457q20 -35 51 -74t73 -70.5t92.5 -53t111.5 -21.5q59 0 110 21.5t92 53t73 70.5t52 74q-164 -43 -326.5 -42t-328.5 42zM715 731h155l-77 187zM918 903q-4 -2 4 -8t19 -12t23.5 -9.5t18.5 0.5l147 189q4 4 -11 18.5t-36.5 28.5 t-42 22.5t-26.5 0.5q-39 -49 -55.5 -110.5t-40.5 -119.5zM1290 102v23h84v-23h-31v-77h-22v77h-31zM1384 25v100h31l19 -78l18 78h29v-100h-19v77l-20 -77h-19l-20 77v-77h-19z" />
<glyph unicode="," horiz-adv-x="473" d="M103.5 68.5q-7.5 31.5 9.5 83.5q25 72 85 106.5t121 34.5q72 0 104 -44t13 -116q-8 -31 -26.5 -68.5t-49 -77.5t-76.5 -80t-110 -75q-39 0 -47 18q35 29 70 67t39 83q-27 -4 -55.5 -1t-49 20.5t-28 49z" />
<glyph unicode="-" horiz-adv-x="647" d="M247 573q3 39 13 74q4 14 12.5 34.5t23.5 40t37.5 35t55.5 17.5q45 4 97.5 6t101.5 1t91 -5t66 -10q16 -33 13.5 -67.5t-15.5 -82.5q-8 -29 -22 -57.5t-31 -40.5q-41 6 -99.5 9t-119.5 3t-119.5 -4t-97.5 -10q-10 18 -7 57z" />
<glyph unicode="." horiz-adv-x="471" d="M104 117q16 70 75.5 116t131.5 50q66 4 102 -32t23 -101q-16 -70 -77.5 -119t-133.5 -54q-66 -4 -99.5 34t-21.5 106z" />
<glyph unicode="/" d="M68 731q0 150 56 282t154.5 230t230.5 155.5t282 57.5t281.5 -57.5t230 -155.5t156 -230t57.5 -282t-57.5 -282t-156 -230t-230 -155.5t-281.5 -57.5t-282 57.5t-230.5 155.5t-154.5 230.5t-56 281.5zM164 731q0 -129 49 -242.5t135 -199.5t200 -135.5t243 -49.5 q131 0 244.5 49.5t197.5 135.5t133 199.5t49 242.5t-49 242.5t-133 198.5t-197.5 134.5t-244.5 49.5q-129 0 -243 -49.5t-200 -134.5t-135 -198.5t-49 -242.5zM207 731q0 119 46 224.5t126 184.5t185.5 124t226.5 45q119 0 225 -45t185 -124t125 -184.5t46 -224.5 q0 -121 -46 -227.5t-125 -185t-185 -125t-225 -46.5q-121 0 -226.5 46.5t-185.5 125t-126 185t-46 227.5zM330 664l112 -177q346 -80 699 0l110 177h-921zM451 1063l151 -189q4 -4 15.5 -0.5t23.5 9.5t20.5 12t8.5 8q-29 57 -47.5 118.5t-53.5 111.5q-6 8 -26.5 -0.5 t-42 -22.5t-38 -28.5t-11.5 -18.5zM463 457q20 -35 51 -74t73 -70.5t92.5 -53t111.5 -21.5q59 0 110 21.5t92 53t73 70.5t52 74q-164 -43 -326.5 -42t-328.5 42zM715 731h155l-77 187zM918 903q-4 -2 4 -8t19 -12t23.5 -9.5t18.5 0.5l147 189q4 4 -11 18.5t-36.5 28.5 t-42 22.5t-26.5 0.5q-39 -49 -55.5 -110.5t-40.5 -119.5zM1290 102v23h84v-23h-31v-77h-22v77h-31zM1384 25v100h31l19 -78l18 78h29v-100h-19v77l-20 -77h-19l-20 77v-77h-19z" />
<glyph unicode="0" horiz-adv-x="1091" d="M190.5 427q8.5 126 42.5 259q43 162 115 315.5t180 264.5q84 84 191.5 131t222.5 47q111 0 185.5 -24.5t111.5 -96.5q37 -53 49 -121.5t8 -145.5t-21.5 -161t-39.5 -168q-37 -137 -99.5 -270t-149.5 -237.5t-200.5 -169t-255.5 -64.5q-133 0 -208.5 59t-107.5 157.5 t-23.5 224.5zM483.5 349.5q24.5 -111.5 122.5 -111.5q104 0 195.5 132t154.5 365q59 223 33.5 326.5t-123.5 103.5q-94 0 -188 -120.5t-160 -360.5q-59 -223 -34.5 -334.5z" />
<glyph unicode="1" horiz-adv-x="532" d="M184 0q0 27 2 56.5t8.5 68.5t17.5 89t30 116q12 49 28.5 105.5t44 148.5t71.5 231t112 352q-31 2 -71 7.5t-56 19.5q12 16 38.5 54t58.5 78t62.5 69.5t47.5 29.5q25 2 57.5 2t66 -1t67.5 -3t58 -6q-4 -37 -12 -79t-18 -76q-8 -31 -18.5 -69t-32 -107.5t-57.5 -184.5 t-93 -299q-41 -135 -75 -271t-68 -296q-53 -18 -130 -26.5t-139 -8.5z" />
<glyph unicode="2" horiz-adv-x="933" d="M99.5 76q-3.5 47 6.5 92q53 55 145.5 133t193 172t195.5 197.5t157 208.5q27 47 51 97t24 107q-2 59 -27.5 87t-66.5 28q-53 0 -106.5 -20.5t-103.5 -54t-97 -74.5t-88 -84q-10 27 -17.5 60.5t-8.5 67t4.5 67.5t17.5 61q45 51 103.5 94t123 72.5t133 46t133.5 16.5 q59 0 113.5 -17.5t94.5 -52t63.5 -87t21.5 -126.5q-4 -100 -53 -226t-135 -241q-96 -129 -212 -250.5t-233 -211.5q41 4 102.5 4t124 -6.5t115 -17.5t74.5 -28q-23 -109 -74 -180q-78 10 -185 13.5t-217 2.5t-206 -8.5t-153 -17.5q-10 29 -13.5 76z" />
<glyph unicode="3" horiz-adv-x="960" d="M96 172q10 33 30.5 64.5t44.5 57t48.5 42t40.5 20.5q29 -66 78 -102.5t123 -36.5q102 0 183 51t104 152q8 47 -4.5 79.5t-40 52t-65.5 29t-79 9.5q-43 0 -76.5 -6t-85.5 -11q-23 41 -15.5 96.5t26.5 114.5q98 18 181 42t146.5 58t103.5 82t54 117q2 63 -21.5 94t-64.5 31 q-74 0 -175.5 -54t-217.5 -153q-16 41 -28.5 96.5t-8.5 121.5q27 33 84 72.5t129 73.5t149.5 57.5t145.5 23.5q59 0 118.5 -19.5t103.5 -59.5t64.5 -100.5t4.5 -144.5q-10 -53 -37 -107t-70 -105.5t-100.5 -93.5t-130.5 -68q104 -31 150 -123.5t22 -210.5q-23 -115 -78 -197 t-132 -135t-169 -77.5t-191 -24.5q-143 0 -235 53t-109 139z" />
<glyph unicode="4" horiz-adv-x="1093" d="M165 392.5q-1 56.5 11 109.5q0 6 5 13t12 15q63 94 158 218t203 250t218.5 242t204.5 196q37 2 81 4t88 1t86 -5.5t75 -12.5q-31 -94 -67 -203.5t-70.5 -223t-67.5 -224t-60 -205.5q45 -2 88.5 -6t65.5 -14q-10 -47 -28.5 -106.5t-34.5 -100.5q-41 -4 -74 -4t-84 -2 q-23 -82 -42.5 -153.5t-25.5 -157.5q-92 -20 -163.5 -21.5t-106.5 -1.5q0 29 6 71t16.5 87t22.5 90t23 82q-131 0 -262.5 -7.5t-260.5 -21.5q-16 35 -17 91.5zM498 563q70 4 137 7t133 1q10 41 34.5 120t52.5 165t54.5 163t42.5 116q-61 -66 -123.5 -139.5t-123 -148.5 t-113.5 -147.5t-94 -136.5z" />
<glyph unicode="5" horiz-adv-x="962" d="M125 162q18 68 57 134t80 110q23 -55 48.5 -91t55 -57.5t66.5 -33t84 -13.5q86 4 162 60.5t102 168.5q23 96 -27.5 147.5t-134.5 51.5q-117 0 -266 -90q-35 10 -68.5 37.5t-43.5 58.5q20 68 53 159t70.5 189.5t77.5 195.5t75 175q8 14 19.5 29.5t50.5 19.5q59 6 136 9 t156.5 4t157.5 -1t138 -8q0 -37 -4.5 -91t-20.5 -124q-39 4 -98.5 5t-122 1t-119.5 -3t-90 -9q-41 -80 -81 -174t-69 -180q43 23 99.5 34t101.5 11q86 0 153.5 -22.5t108.5 -75t50.5 -135.5t-19.5 -203q-27 -111 -82 -197t-132 -146.5t-171 -91t-201 -30.5q-59 0 -115.5 11 t-104.5 33.5t-83 55.5t-49 76z" />
<glyph unicode="6" horiz-adv-x="1044" d="M191.5 401q3.5 84 22.5 174.5t48 178.5q39 123 101.5 245.5t145.5 222t185.5 163t220.5 67.5q35 2 79 -4t87 -19.5t83 -35t69 -47.5q-12 -43 -39 -110t-51 -116q-53 55 -106.5 73.5t-106.5 18.5q-96 0 -186.5 -79.5t-141.5 -251.5q53 39 119.5 54t118.5 15 q84 0 148.5 -29.5t105.5 -86t54 -137.5t-5 -183q-31 -139 -88.5 -240.5t-136 -167t-174 -95t-199.5 -25.5t-174 37.5t-111 89t-56.5 130t-12 158.5zM456 368q1 -44 16 -78t46 -55.5t78 -21.5q111 0 178.5 77t89.5 187q23 111 -5 181.5t-126 70.5q-55 0 -100 -21.5t-78 -58.5 t-55.5 -86t-34.5 -104q-10 -47 -9 -91z" />
<glyph unicode="7" horiz-adv-x="944" d="M197 -23q-4 37 11 80t32 82q37 84 91 181.5t116.5 199t128 200.5t124 187t105.5 159t74 116q-123 -4 -264.5 -8.5t-268.5 4.5q8 27 24.5 62.5t35 70.5t37 65.5t30.5 48.5q172 -10 338 -4t324 11q51 2 90 0t63 -29q-8 -18 -19.5 -46t-35 -71t-62 -106.5t-102.5 -151.5 q-184 -262 -337.5 -520t-258.5 -483q-25 -10 -58.5 -18.5t-71.5 -14.5t-76 -10.5t-70 -4.5z" />
<glyph unicode="8" horiz-adv-x="1032" d="M134.5 154.5q-19.5 66.5 2.5 164.5q27 117 106 213.5t195 169.5q-61 49 -88.5 118t-23.5 144.5t39.5 154.5t99.5 149q80 86 196.5 133t282.5 51q80 2 167 -15.5t136 -52.5q-2 -10 -6 -25.5t-8 -27.5q47 -70 48 -155.5t-40 -171.5t-121 -164t-196 -127q49 -31 80.5 -74 t47 -93t15.5 -104.5t-14 -107.5q-25 -88 -80 -153.5t-128 -109.5t-158 -68t-171 -26q-98 -2 -178 14.5t-132 56.5t-71.5 106.5zM426 356q-20 -80 18.5 -121.5t124.5 -39.5q63 4 124 44t79 111q23 86 -13 145.5t-108 86.5q-35 -10 -69.5 -30t-65.5 -49.5t-55.5 -66.5 t-34.5 -80zM614 1014q-4 -27 1.5 -56.5t18.5 -56.5t36.5 -48.5t54.5 -31.5q109 37 186.5 115t96.5 190q-4 20 -10.5 40t-21.5 35.5t-40 23.5t-64 8q-63 0 -109 -20.5t-77 -52.5t-48 -70.5t-24 -75.5z" />
<glyph unicode="9" horiz-adv-x="1048" d="M221 70q8 47 28.5 112.5t41.5 116.5q41 -41 101.5 -62.5t115.5 -25.5q72 -4 131 21.5t104 73.5t78 115.5t51 149.5q-78 -86 -161.5 -117.5t-165.5 -23.5q-86 8 -147.5 49t-94.5 109.5t-36 160t26 199.5q33 119 90 213t133 159.5t167 98.5t189 31t174 -29.5t125 -97.5 q39 -53 55.5 -123t14.5 -151.5t-17.5 -173t-39.5 -183.5q-37 -141 -99.5 -271t-150.5 -228.5t-199.5 -154.5t-247.5 -48q-88 4 -157.5 25.5t-108.5 54.5zM547 735q29 -80 123 -86q51 0 96 24.5t82 63.5t64.5 88t39.5 99q14 51 16.5 101t-11 90t-42 65.5t-73.5 27.5 q-55 2 -100.5 -19.5t-80 -57t-60.5 -81.5t-40 -94q-43 -141 -14 -221z" />
<glyph unicode=":" horiz-adv-x="471" d="M104 127q18 68 82 111t136 43q66 0 98.5 -39t15.5 -103q-10 -35 -31.5 -63.5t-52 -49t-65.5 -32.5t-72 -12q-66 0 -96.5 39.5t-14.5 105.5zM295 834q8 33 29.5 61.5t51.5 49t64.5 31.5t71.5 11q66 0 97.5 -39t15.5 -102q-10 -35 -32 -63.5t-51.5 -49t-64.5 -33t-71 -12.5 q-66 0 -98 40t-13 106z" />
<glyph unicode=";" horiz-adv-x="473" d="M103.5 68.5q-7.5 31.5 9.5 83.5q25 72 85 106.5t121 34.5q72 0 104 -44t13 -116q-8 -31 -26.5 -68.5t-49 -77.5t-76.5 -80t-110 -75q-39 0 -47 18q35 29 70 67t39 83q-27 -4 -55.5 -1t-49 20.5t-28 49zM293 831q18 68 81.5 111t135.5 43q66 0 98.5 -39t16.5 -102 q-10 -35 -32 -63.5t-52.5 -49t-65.5 -33t-72 -12.5q-66 0 -96.5 40t-13.5 105z" />
<glyph unicode="&#x3c;" d="M68 731q0 150 56 282t154.5 230t230.5 155.5t282 57.5t281.5 -57.5t230 -155.5t156 -230t57.5 -282t-57.5 -282t-156 -230t-230 -155.5t-281.5 -57.5t-282 57.5t-230.5 155.5t-154.5 230.5t-56 281.5zM164 731q0 -129 49 -242.5t135 -199.5t200 -135.5t243 -49.5 q131 0 244.5 49.5t197.5 135.5t133 199.5t49 242.5t-49 242.5t-133 198.5t-197.5 134.5t-244.5 49.5q-129 0 -243 -49.5t-200 -134.5t-135 -198.5t-49 -242.5zM207 731q0 119 46 224.5t126 184.5t185.5 124t226.5 45q119 0 225 -45t185 -124t125 -184.5t46 -224.5 q0 -121 -46 -227.5t-125 -185t-185 -125t-225 -46.5q-121 0 -226.5 46.5t-185.5 125t-126 185t-46 227.5zM330 664l112 -177q346 -80 699 0l110 177h-921zM451 1063l151 -189q4 -4 15.5 -0.5t23.5 9.5t20.5 12t8.5 8q-29 57 -47.5 118.5t-53.5 111.5q-6 8 -26.5 -0.5 t-42 -22.5t-38 -28.5t-11.5 -18.5zM463 457q20 -35 51 -74t73 -70.5t92.5 -53t111.5 -21.5q59 0 110 21.5t92 53t73 70.5t52 74q-164 -43 -326.5 -42t-328.5 42zM715 731h155l-77 187zM918 903q-4 -2 4 -8t19 -12t23.5 -9.5t18.5 0.5l147 189q4 4 -11 18.5t-36.5 28.5 t-42 22.5t-26.5 0.5q-39 -49 -55.5 -110.5t-40.5 -119.5zM1290 102v23h84v-23h-31v-77h-22v77h-31zM1384 25v100h31l19 -78l18 78h29v-100h-19v77l-20 -77h-19l-20 77v-77h-19z" />
<glyph unicode="=" d="M68 731q0 150 56 282t154.5 230t230.5 155.5t282 57.5t281.5 -57.5t230 -155.5t156 -230t57.5 -282t-57.5 -282t-156 -230t-230 -155.5t-281.5 -57.5t-282 57.5t-230.5 155.5t-154.5 230.5t-56 281.5zM164 731q0 -129 49 -242.5t135 -199.5t200 -135.5t243 -49.5 q131 0 244.5 49.5t197.5 135.5t133 199.5t49 242.5t-49 242.5t-133 198.5t-197.5 134.5t-244.5 49.5q-129 0 -243 -49.5t-200 -134.5t-135 -198.5t-49 -242.5zM207 731q0 119 46 224.5t126 184.5t185.5 124t226.5 45q119 0 225 -45t185 -124t125 -184.5t46 -224.5 q0 -121 -46 -227.5t-125 -185t-185 -125t-225 -46.5q-121 0 -226.5 46.5t-185.5 125t-126 185t-46 227.5zM330 664l112 -177q346 -80 699 0l110 177h-921zM451 1063l151 -189q4 -4 15.5 -0.5t23.5 9.5t20.5 12t8.5 8q-29 57 -47.5 118.5t-53.5 111.5q-6 8 -26.5 -0.5 t-42 -22.5t-38 -28.5t-11.5 -18.5zM463 457q20 -35 51 -74t73 -70.5t92.5 -53t111.5 -21.5q59 0 110 21.5t92 53t73 70.5t52 74q-164 -43 -326.5 -42t-328.5 42zM715 731h155l-77 187zM918 903q-4 -2 4 -8t19 -12t23.5 -9.5t18.5 0.5l147 189q4 4 -11 18.5t-36.5 28.5 t-42 22.5t-26.5 0.5q-39 -49 -55.5 -110.5t-40.5 -119.5zM1290 102v23h84v-23h-31v-77h-22v77h-31zM1384 25v100h31l19 -78l18 78h29v-100h-19v77l-20 -77h-19l-20 77v-77h-19z" />
<glyph unicode="&#x3e;" d="M68 731q0 150 56 282t154.5 230t230.5 155.5t282 57.5t281.5 -57.5t230 -155.5t156 -230t57.5 -282t-57.5 -282t-156 -230t-230 -155.5t-281.5 -57.5t-282 57.5t-230.5 155.5t-154.5 230.5t-56 281.5zM164 731q0 -129 49 -242.5t135 -199.5t200 -135.5t243 -49.5 q131 0 244.5 49.5t197.5 135.5t133 199.5t49 242.5t-49 242.5t-133 198.5t-197.5 134.5t-244.5 49.5q-129 0 -243 -49.5t-200 -134.5t-135 -198.5t-49 -242.5zM207 731q0 119 46 224.5t126 184.5t185.5 124t226.5 45q119 0 225 -45t185 -124t125 -184.5t46 -224.5 q0 -121 -46 -227.5t-125 -185t-185 -125t-225 -46.5q-121 0 -226.5 46.5t-185.5 125t-126 185t-46 227.5zM330 664l112 -177q346 -80 699 0l110 177h-921zM451 1063l151 -189q4 -4 15.5 -0.5t23.5 9.5t20.5 12t8.5 8q-29 57 -47.5 118.5t-53.5 111.5q-6 8 -26.5 -0.5 t-42 -22.5t-38 -28.5t-11.5 -18.5zM463 457q20 -35 51 -74t73 -70.5t92.5 -53t111.5 -21.5q59 0 110 21.5t92 53t73 70.5t52 74q-164 -43 -326.5 -42t-328.5 42zM715 731h155l-77 187zM918 903q-4 -2 4 -8t19 -12t23.5 -9.5t18.5 0.5l147 189q4 4 -11 18.5t-36.5 28.5 t-42 22.5t-26.5 0.5q-39 -49 -55.5 -110.5t-40.5 -119.5zM1290 102v23h84v-23h-31v-77h-22v77h-31zM1384 25v100h31l19 -78l18 78h29v-100h-19v77l-20 -77h-19l-20 77v-77h-19z" />
<glyph unicode="?" horiz-adv-x="903" d="M195 127q18 68 81.5 111t135.5 43q66 0 98.5 -39t15.5 -103q-10 -35 -31.5 -63.5t-52 -49t-65.5 -32.5t-72 -12q-66 0 -96.5 39.5t-13.5 105.5zM330 487.5q14 55.5 51 105.5t89 95t112 84q100 68 166.5 134.5t89.5 148.5q16 57 -11.5 95t-91.5 38q-82 0 -168 -51.5 t-157 -122.5q-37 59 -37 133t30 158q104 72 217 107.5t220 35.5q180 0 264 -95.5t37 -269.5q-27 -102 -96.5 -203.5t-210.5 -185.5q-92 -55 -166 -102t-109 -100q-14 -23 -23.5 -47.5t-11.5 -47.5q-47 -12 -97 -20t-93 -6q-18 61 -4 116.5z" />
<glyph unicode="@" horiz-adv-x="1527" d="M188.5 333.5q-18.5 112.5 20.5 258.5q47 176 143.5 331.5t231.5 271.5t305 183.5t366 67.5q141 0 242.5 -34t160 -105.5t72 -181t-23.5 -259.5q-23 -86 -69 -192.5t-115.5 -198.5t-162.5 -154.5t-208 -62.5q-59 0 -93 34t-26 93q-68 -72 -151.5 -109.5t-153.5 -37.5 q-125 0 -169 78.5t-15 207.5q27 113 87 215.5t138 179t166 121.5t168 45q31 0 57.5 -14t36.5 -41q2 12 3 23.5t5 23.5q16 6 45 7t58.5 -2t55.5 -8t34 -7q-6 -35 -31 -114t-56.5 -172t-66.5 -185t-59 -156q-10 -29 -1 -40t27 -11q59 0 109.5 53.5t88.5 126t64.5 147.5 t36.5 115q59 217 -23.5 318.5t-297.5 101.5q-160 0 -291 -66.5t-230.5 -168t-165 -220t-91.5 -223.5q-31 -115 -14.5 -203.5t67.5 -149t132 -92.5t177 -32q100 0 185 23.5t151 73.5q16 -2 45 -10.5t45 -28.5q-74 -78 -194.5 -122t-266.5 -44q-158 0 -274.5 40t-186 116.5 t-88 189zM755 497q-1 -22 4 -39.5t18.5 -28.5t37.5 -11q74 0 130 55t97 130t66 150.5t35 116.5q-8 14 -27.5 21.5t-40.5 7.5q-55 0 -106 -39t-93 -94t-72 -117.5t-42 -109.5q-6 -20 -7 -42z" />
<glyph unicode="A" horiz-adv-x="1052" d="M55 59q27 76 78 189.5t117.5 245t139.5 269.5t141.5 263t127 225.5t95.5 157.5q53 8 106 12t109 4q35 0 69.5 -5t63.5 -19q-14 -131 -33.5 -300t-34 -351.5t-20.5 -365.5q-2 -55 -2 -108q0 -123 10 -235q-47 -18 -112.5 -28.5t-127.5 -10.5q-18 14 -28.5 34.5t-14.5 54.5 q-3 23 -3 53q0 15 1 32q2 51 6 127q-12 2 -50 2t-86 -1t-97 -3t-84 -4q-29 -47 -57.5 -122t-53.5 -155q-14 -4 -42.5 -5t-61.5 -1t-66.5 3t-56.5 8q-16 4 -24.5 14t-8.5 20zM539 537q59 4 113 5h37q37 0 75 -1q4 51 11 122.5t16.5 151.5t20 163t22.5 159 q-82 -160 -158 -310.5t-137 -289.5z" />
<glyph unicode="B" horiz-adv-x="1044" d="M104 125q49 170 89 307t78 265t78 258t93 286q-4 29 -5 63v14q0 27 3 54q86 33 189.5 50.5t201.5 17.5q117 -2 204 -31t141 -78t72 -115q8 -30 8 -63q0 -39 -11 -82q-12 -43 -38.5 -90t-67.5 -91t-97.5 -80t-126.5 -56q129 -29 175 -124q26 -54 26 -120q0 -51 -16 -111 q-35 -125 -107.5 -205.5t-167 -129t-201 -66.5t-204.5 -18q-59 0 -113.5 6t-97.5 21.5t-70.5 43t-34.5 74.5zM410 238q41 -16 112 -17q117 0 194 57.5t99 141.5q9 30 9 56q0 17 -4 31q-9 38 -37.5 63.5t-72.5 40t-102 16.5q-23 0 -47 -2.5t-53 -6.5q-12 -39 -27.5 -89 t-30 -102t-25.5 -101.5t-15 -87.5zM578 836h19q62 0 118 11q65 13 118.5 39.5t90.5 67.5t51 95q6 22 6 41q-1 24 -11 44q-18 34 -59 53t-99 21h-17q-51 0 -105 -10q-29 -80 -59.5 -181.5t-52.5 -180.5z" />
<glyph unicode="C" horiz-adv-x="958" d="M176 315q-1 18 -1 37q1 53 9 110q12 77 31 154q20 80 49 162t66 163t85 158t111 144q90 92 200 145.5t243 53.5q94 0 149.5 -30t82 -75t29.5 -97q1 -12 1 -24q0 -38 -8 -71q-37 -49 -92.5 -97.5t-102.5 -82.5q-4 57 -18.5 96t-34 62.5t-40 34.5t-36.5 11 q-61 -8 -120.5 -58t-113 -130t-96.5 -180.5t-71 -206.5q-20 -74 -26 -142q-3 -27 -3 -52q0 -38 6 -69q10 -52 39 -85t80 -37q14 -1 28 -1q44 0 82 10q50 13 90 38t72.5 59.5t63.5 75.5q12 -47 15 -111q2 -38 2 -70q0 -22 -1 -42q-49 -59 -105.5 -95t-112.5 -57.5 t-109.5 -28.5t-98.5 -7q-158 0 -248 91t-96 244z" />
<glyph unicode="D" horiz-adv-x="1042" d="M98 49q63 293 155.5 589t186.5 601q-4 39 -5 63v11q0 23 3 59q27 12 75 24.5t103.5 21.5t109.5 15.5t95 6.5q145 0 236.5 -48.5t131.5 -141.5q35 -81 34 -197v-35q-6 -139 -56 -320q-39 -147 -105.5 -274t-161.5 -223.5t-222 -153.5t-289 -63q-12 -1 -24 -1q-30 0 -60 4 q-43 5 -83 14t-73 21.5t-51 26.5zM410 238q25 -8 53 -9q88 0 158.5 45t124 116t91 157t58.5 170q27 103 37 197q3 32 3 60q-1 56 -13 100q-20 66 -74 98q-32 18 -81 17q-35 0 -79 -9q-76 -229 -146.5 -467.5t-131.5 -474.5z" />
<glyph unicode="E" horiz-adv-x="862" d="M117 64.5q0 31.5 4 64.5t11 70t20 86q57 229 122.5 449t143.5 450q4 41 8 96t14 102q29 10 85.5 20.5t126.5 16.5q69 5 148 9q46 2 90 3q32 1 62 -1q72 -2 134.5 -9.5t99.5 -19.5q-6 -23 -18.5 -53.5t-26 -62.5t-27.5 -58.5t-24 -38.5q-86 14 -196 18q-17 1 -33 1 q-91 0 -171 -19q-12 -29 -30.5 -84t-37 -114.5t-35 -116t-24.5 -87.5q37 0 94.5 3.5t118 3.5t115.5 -4.5t86 -14.5q-14 -53 -39 -114.5t-53 -100.5q-73 8 -157 8h-34q-102 -2 -196 -12q-8 -33 -19.5 -73t-23 -81t-19.5 -80.5t-12 -72.5q37 0 100.5 1t128 1t119.5 -1t78 -3 q1 -12 1 -25q1 -40 -9 -87q-12 -63 -29 -122q-168 -2 -346 -7t-346 -11q-4 39 -4 70.5z" />
<glyph unicode="F" horiz-adv-x="864" d="M113 39q18 147 50 288.5t72.5 283t89 284.5t101.5 293q0 43 4 98t16 98q25 10 84.5 20.5t134 18t157.5 10.5q50 2 97 2q31 0 61 -1q75 -2 130 -11.5t76 -25.5q-14 -51 -40 -107.5t-50 -91.5q-92 12 -190 14h-22q-88 0 -184 -14q-8 -18 -24.5 -68.5t-37 -112t-39.5 -125 t-32 -108.5q51 4 114.5 7.5t122 3.5t106.5 -5.5t71 -17.5q-16 -53 -37.5 -113.5t-48.5 -99.5q-75 8 -150 8q-23 0 -45 -1q-96 -3 -200 -11q-29 -94 -44.5 -155.5t-24.5 -115t-19.5 -111.5t-28.5 -144q-29 -14 -75 -22.5t-91 -8.5q-35 0 -61.5 9t-42.5 32z" />
<glyph unicode="G" horiz-adv-x="1064" d="M176 322q-1 17 -1 34q0 55 9 112q13 77 33 155q20 80 48 159.5t65 158.5t85 153.5t111 142.5q90 92 201 148.5t244 56.5q33 0 81 -10.5t93 -39t75 -82.5q29 -50 29 -130v-11q2 -4 -13 -22.5t-45 -44t-69 -58t-82 -65.5q-4 45 -17 79t-31.5 57.5t-40 34.5t-42.5 11 q-59 0 -119.5 -43t-114.5 -119.5t-101.5 -183t-81.5 -235.5q-20 -74 -28 -140q-3 -31 -3 -58q0 -32 5 -60q9 -50 35.5 -79.5t76.5 -29.5q29 0 62.5 6t67 20.5t63.5 37t50 57.5q10 18 19.5 42.5t15.5 52.5t8 52.5t0 42.5q-4 14 -28.5 22.5t-56 11.5t-60.5 3h-41q8 39 17.5 79 t23.5 79q53 18 126 28.5t141 12.5h30q51 0 91 -5q52 -7 69 -24q-12 -74 -35 -166t-50.5 -189t-59.5 -192.5t-64 -175.5q-14 -4 -43 -7t-59.5 -3t-55.5 2t-31 6q-4 8 -2 27.5t2 29.5q-70 -49 -144.5 -68.5t-137.5 -19.5q-158 0 -236 96.5t-84 250.5z" />
<glyph unicode="H" horiz-adv-x="1085" d="M84 4q31 156 79 335t101 363.5t106.5 363.5t94.5 335q49 14 107.5 19t117.5 5q25 0 44.5 -4t10.5 -28q-49 -158 -95 -320t-93 -315q89 6 183 7q19 0 37 1q73 0 138 -4q51 166 103.5 337t91.5 318q23 5 83 15q50 8 99 8h21q35 -2 59 -8q19 -5 18 -18q0 -3 -1 -7 q-106 -338 -212 -677t-190 -697q-23 -8 -56.5 -13.5t-70.5 -6.5h-25q-25 0 -49 1q-36 2 -65 9q20 111 53 241.5t70 255.5q-42 3 -99 3q-29 0 -61 -1q-96 -2 -201 -6q-35 -117 -70.5 -247t-64.5 -255q-23 -8 -56.5 -12t-70.5 -6q-18 -1 -36.5 -1t-36.5 1q-36 2 -64 8z" />
<glyph unicode="I" horiz-adv-x="454" d="M90 16q27 156 76 333t104.5 359.5t109.5 359.5t95 333q45 16 101.5 20t115.5 4q26 0 48 -4q17 -3 16 -17q0 -5 -2 -11q-106 -336 -212 -673t-188 -693q-23 -8 -56.5 -12.5t-70.5 -6.5q-18 -1 -36.5 -1t-36.5 1q-36 2 -64 8z" />
<glyph unicode="J" horiz-adv-x="833" d="M68 180q6 25 24.5 62t41 75.5t46 72.5t41.5 52q16 -111 57 -180.5t119 -71.5h4q59 0 105 54q47 57 82 140t60.5 178t43.5 169q45 172 76 341t72 325q59 29 129 29q11 0 22 -1q43 0 77 -9t56 -34q-23 -55 -46 -147t-50 -203.5t-56.5 -234.5t-63.5 -239t-74.5 -216 t-90.5 -168q-72 -100 -177 -148q-99 -46 -194 -46h-12q-70 2 -122 19t-87.5 45t-56 63.5t-26.5 72.5z" />
<glyph unicode="K" horiz-adv-x="1013" d="M88 16q20 104 51 230.5t68 259.5t76 266t73.5 252t63.5 215t45 158q33 14 85 21q40 5 80 5h23q31 -2 57.5 -6t43.5 -18q-12 -41 -32 -101.5t-42.5 -128t-44 -137t-35.5 -125.5q78 88 160 170t156.5 149.5t134 118t94.5 72.5q70 0 127 -17.5t94 -45.5q-31 -33 -98.5 -93.5 t-152.5 -139.5t-177 -169t-174 -182q18 -92 51 -202.5t69 -209t68.5 -169t48.5 -83.5q-12 -14 -38.5 -37.5t-61.5 -43t-76 -28.5q-18 -4 -35 -4l-47 7q-49 49 -82.5 110.5t-58 130t-42 142.5t-36.5 147l-80 -147q-35 -123 -52 -209t-27 -141q-75 -17 -143 -23q-24 -2 -48 -2 q-43 0 -86 8z" />
<glyph unicode="L" horiz-adv-x="823" d="M98 31q2 51 13.5 107.5t25.5 109.5q37 133 81 283.5t89 301t88 295t76 267.5q45 10 103.5 18t115.5 8q27 0 48.5 -5t15.5 -30q-31 -121 -74 -265t-90 -295.5t-92 -299t-78 -272.5q71 1 142 1h72q108 -1 189 -13q0 -23 -3 -54.5t-10 -65.5t-15.5 -65t-16.5 -49 q-135 -2 -283.5 -3t-289.5 -5h-23q-32 0 -44 4q-18 6 -40 27z" />
<glyph unicode="M" horiz-adv-x="1312" d="M88 12q27 156 76 335t105.5 364.5t111.5 364.5t94 335q35 6 83 8q32 1 65 1h33q50 -1 93.5 -6t69.5 -15q2 -109 4 -190t5 -149.5t8.5 -131t13.5 -133.5q113 168 229.5 321.5t255.5 310.5q33 0 72 -2t77 -7t71.5 -12t56.5 -20q-115 -324 -213.5 -665.5t-171.5 -683.5 q-23 -8 -55.5 -13.5t-70.5 -7.5t-76 -3h-25q-24 0 -44 1q10 80 23.5 159t34 171t51.5 206t76 265q-33 -41 -73 -92t-91 -123t-115.5 -167t-146.5 -224q-12 -16 -29.5 -18.5t-26.5 8.5q-16 31 -30.5 95t-25.5 149t-16 180.5t-5 187.5q-74 -199 -119 -390.5t-86 -393.5 q-23 -8 -59.5 -13.5t-77.5 -6.5q-20 -1 -41 -1l-41 1q-41 1 -70 5z" />
<glyph unicode="N" horiz-adv-x="1048" d="M94 10q14 90 46 222.5t71 278.5t81 294.5t80 272.5t68.5 211t44.5 112q23 6 53.5 10t63.5 6q22 1 43 1h21q32 -1 57 -5q8 -100 20.5 -190t27.5 -181.5t36.5 -188.5t52.5 -212q14 70 42 175.5t61.5 216t67.5 212t61 162.5q59 16 132.5 16t131.5 -4q-49 -156 -100.5 -323.5 t-100.5 -344t-95 -360.5t-83 -371q-37 -12 -88 -18t-98 -6q-27 41 -63 124t-70.5 190.5t-63.5 230.5t-39 243q-59 -186 -104 -368t-82 -387q-25 -8 -60 -13.5t-73.5 -7.5t-75.5 -2t-66 4z" />
<glyph unicode="O" horiz-adv-x="1130" d="M190 417q6 126 41 261q41 156 113 296t166 246.5t210 171t247 66.5q12 -16 16 -39q115 0 190.5 -47t113.5 -132q37 -83 37 -196v-6q-1 -118 -38 -260q-43 -160 -113.5 -304t-167 -254.5t-215 -175t-255.5 -64.5q-131 0 -208 58t-110 156q-28 81 -28 182q0 20 1 41z M484 346q10 -60 40.5 -94.5t87.5 -36.5q59 0 115.5 45t106 120t90.5 173t69 207q39 147 39 244q0 28 -3 52q-15 106 -126 111q-63 -6 -122.5 -55t-109.5 -121.5t-89 -161t-62 -172.5q-25 -91 -35 -171q-5 -41 -6 -77q0 -34 5 -63z" />
<glyph unicode="P" horiz-adv-x="1005" d="M106 23q2 55 17.5 137t48.5 205q4 18 10 39.5t15.5 57.5t27 92t45 147.5t68.5 221.5t100 314q1 23 1 46v23q-1 34 -1 68q86 33 179.5 49.5t183.5 16.5q106 0 198.5 -27t152.5 -85t80 -150q8 -35 8 -76q0 -67 -21 -148q-31 -117 -95.5 -212t-151.5 -161.5t-189.5 -103.5 t-209.5 -37q-25 0 -51 2t-51 7q-16 -57 -31.5 -107.5t-28 -102t-23.5 -103.5t-19 -113q-25 -8 -57.5 -14.5t-68.5 -8.5q-10 -1 -21 -1l-51 4q-36 5 -65 20zM547 698q31 -10 63 -10q57 0 110.5 13.5t98.5 44t80 84t55 133.5q11 40 11 74q0 55 -29 93q-47 62 -160 62 q-33 0 -80 -10q-41 -129 -67.5 -212t-43 -135.5t-24.5 -82t-14 -54.5z" />
<glyph unicode="Q" horiz-adv-x="1134" d="M192 406q7 124 37 262q41 156 113 296t166 246.5t210 171t247 66.5q6 -8 9 -18.5t7 -20.5q115 0 191.5 -47t114.5 -132t38 -203t-37 -259q-33 -123 -83 -234.5t-114.5 -206t-143.5 -168t-169 -116.5q4 -66 9.5 -112t9.5 -74q-55 -57 -146 -58q-35 27 -56.5 76t-31.5 113 q-145 0 -228 54t-117 148q-28 76 -28 173q0 21 2 43zM480 360q14 -114 79 -133v29q0 65 7 128q9 77 20 126q20 12 53 23.5t68.5 19.5t71.5 13t61 5q-16 -68 -31.5 -141.5t-24.5 -128.5q31 37 64 88t61.5 110.5t54 125t42.5 131.5q36 134 36 227q0 39 -6 71q-22 109 -133 113 q-63 -6 -123.5 -55t-112 -121.5t-90 -161t-61.5 -172.5q-38 -144 -38 -245q0 -28 2 -52z" />
<glyph unicode="R" horiz-adv-x="999" d="M104 25q25 150 66 317.5t89 330.5t96 309t85 255q-4 29 -5 66.5t1 62.5q66 33 151 52.5t208 19.5q119 0 210 -26t146 -82t71 -145q5 -28 5 -61q0 -68 -23 -153q-43 -156 -160.5 -260.5t-273.5 -151.5q41 -125 93 -255t114 -232q-35 -18 -106.5 -46t-149.5 -28 q-35 20 -67.5 69.5t-63.5 118t-57.5 149.5t-49.5 165q-37 -117 -62.5 -233.5t-47.5 -237.5q-29 -16 -69 -23.5t-77 -7.5q-78 0 -123 27zM549 739q12 -2 23.5 -3t23.5 -1q59 0 118.5 30t111 73t86 91t44.5 85q8 28 8 52q0 48 -31 79q-46 47 -194 47q-12 0 -24.5 -1t-22.5 -1 q-27 -82 -47 -145.5t-37.5 -115.5t-32 -98.5t-26.5 -91.5z" />
<glyph unicode="S" horiz-adv-x="933" d="M98 117q20 66 54 130t75 111q31 -82 96.5 -127t147.5 -45q72 0 124 28t69 91q3 14 3 27q0 38 -26 70q-35 42 -88 75t-108.5 59.5t-82.5 51.5q-62 49 -90 126q-15 42 -15 92q0 42 11 89q29 109 86.5 200t136 160.5t176 115.5t205.5 65q36 6 75 6q15 0 31 -1 q56 -3 105.5 -18.5t85 -47.5t41.5 -81q0 -78 -36.5 -161.5t-90.5 -151.5q-14 -16 -49 -28.5t-77 -21.5q-41 -9 -81 -13q-27 -3 -48 -4q-9 0 -17 1q29 35 55.5 87.5t46.5 95.5q7 19 7 34q0 26 -20.5 37t-46.5 11q-15 0 -32 -4q-53 -14 -98 -43t-79 -66t-55.5 -79t-27.5 -85 q-2 -12 -2 -25q0 -46 31 -90q39 -54 106 -92q70 -35 129.5 -70.5t97.5 -80.5t51 -103q5 -24 5 -51q0 -38 -10 -84q-25 -98 -82.5 -163.5t-134 -103.5t-163.5 -52q-76 -13 -149 -13h-20q-129 4 -205 43.5t-117 98.5z" />
<glyph unicode="T" horiz-adv-x="917" d="M313 14q31 152 73 307.5t86 308t85 295t72 265.5q-66 0 -124.5 -2t-135.5 -8q2 20 11 52t20.5 65.5t23.5 65.5t20 52q61 6 164 11q104 4 216 5h49q87 -1 173 -3q110 -4 185 -9q-4 -43 -18.5 -109.5t-30.5 -119.5q-57 0 -135 3q-33 1 -65 1q-42 0 -79 -2 q-94 -301 -166.5 -585.5t-134.5 -575.5q-31 -12 -68.5 -18.5t-76.5 -8.5q-16 -1 -31 -1q-23 0 -46 2q-38 3 -67 9z" />
<glyph unicode="U" horiz-adv-x="1011" d="M163 184q-2 22 -2 44q0 40 6 84q9 68 27.5 142t38.5 144q29 104 66 212t74 214t69.5 206.5t55.5 190.5q31 2 70 4q38 1 76 3q14 1 28 1q23 1 43 -1q33 -2 53 -5q-39 -139 -84 -268t-89 -255t-81 -252t-59 -257q-5 -29 -5 -53q0 -43 16 -69q26 -40 71 -41h3q44 0 99 34 q57 35 109 100q23 68 52 158t66 215t80 287t92 373q29 6 71 9t79 5q14 1 27 1q21 0 39 -2q30 -3 59 -7q-53 -197 -109.5 -387.5t-109 -366.5t-96 -333.5t-70.5 -288.5q-25 -10 -64 -14.5t-79 -4.5t-73.5 4t-45.5 13q4 23 14 57.5t12 52.5q-43 -59 -118.5 -100t-149.5 -45 q-13 -1 -25 -1q-73 -1 -121 21q-56 24 -83 70t-32 106z" />
<glyph unicode="V" horiz-adv-x="1056" d="M328 402q-1 33 -1 67q0 67 3 137q4 182 26.5 394t63.5 417q66 11 134 13q8 0 16 1q59 0 116 -10q-6 -25 -16.5 -77t-22.5 -123.5t-24.5 -158.5t-20.5 -181q-8 -70 -13 -142.5t-9.5 -141.5t-5.5 -131.5t-1 -111.5q31 76 69 161t81 174t90 180.5t94 177.5q53 98 112.5 195 t119.5 183q20 1 40 1q49 0 101 -7q72 -10 109 -35q-86 -137 -157 -251.5t-122 -206.5q-61 -104 -106.5 -186.5t-80 -149t-62 -119.5t-52.5 -100q-51 -98 -92 -187.5t-70 -163.5q-53 -16 -124.5 -19t-141.5 -3q-16 23 -26.5 82t-17.5 140.5t-9 181.5z" />
<glyph unicode="W" horiz-adv-x="1517" d="M285 168q2 106 11 239.5t22.5 283t30 289.5t36 260t39.5 194q62 7 130 7h18q78 -1 122 -26q-16 -59 -32.5 -125.5t-33 -162t-35 -227.5t-38.5 -322q55 119 128 255t143.5 258.5t129 216t86.5 126.5q37 4 69 4q21 0 41 -2q50 -4 91 -31q-31 -164 -52.5 -309.5t-34.5 -261 t-18 -195.5q-3 -44 -3 -74q0 -23 2 -37q33 84 75.5 177.5t89 186.5t93.5 181t88 160t73.5 124t51.5 73q72 0 135 -15.5t100 -44.5q-61 -98 -146 -242.5t-177.5 -321.5t-184.5 -378t-172 -410q-89 -17 -140 -17h-15q-52 3 -78 3q-10 61 -20 133q-9 73 -12 171q-1 30 -1 62 q0 76 5 170q7 134 30 318q-98 -186 -202.5 -394t-211.5 -458q-56 -6 -114 -7h-9q-53 0 -106 11q-5 40 -5 109q0 23 1 49z" />
<glyph unicode="X" horiz-adv-x="1038" d="M41 41q31 57 82 137t113.5 172t134 192.5t143.5 198.5q-18 86 -32.5 178.5t-27 179.5t-19.5 165.5t-9 140.5q57 29 138 40q42 6 80 6q34 0 65 -5q0 -25 2 -86.5t7 -134t12 -147t18 -128.5q92 131 184 257t182 237q68 0 132.5 -16.5t101.5 -41.5q-41 -53 -90.5 -115.5 t-107.5 -139t-130 -172t-158 -216.5q12 -72 27.5 -140t34 -147t43 -174.5t57.5 -218.5q-51 -23 -118.5 -34t-133.5 -11q-12 10 -30.5 54.5t-39 112t-40 152.5t-33.5 179q-41 -51 -90.5 -122.5t-99.5 -145.5t-96 -141.5t-79 -112.5q-68 0 -126 12t-97 35z" />
<glyph unicode="Y" horiz-adv-x="1136" d="M410 1376q29 12 63.5 24.5t71.5 22t72.5 15.5t66.5 6q12 -37 29.5 -101.5t36 -152.5t34 -193.5t23.5 -222.5q80 141 136 235.5t102.5 167t89.5 134t96 135.5q72 0 133 -17.5t102 -42.5q-61 -86 -123.5 -176t-132 -198.5t-151.5 -243.5t-187 -309q-12 -41 -29.5 -98.5 t-37 -119t-40 -121t-40.5 -106.5q-37 -4 -76 -7q-23 -2 -46 -2q-14 0 -29 1q-35 2 -65 8t-48 21q35 84 67.5 192.5t63.5 231.5q-6 100 -25.5 219t-46 241.5t-55.5 240.5t-55 216z" />
<glyph unicode="Z" horiz-adv-x="970" d="M84 72q-1 11 -1 22q0 33 9 68q43 74 103.5 162t152.5 209.5t225.5 285.5t321.5 385q-86 4 -180 4h-63q-128 -2 -251 -18q14 53 41 112.5t60 100.5q82 10 174 16t188 7h39q77 0 154 -3q96 -4 184 -16q15 -28 15 -59q0 -9 -1 -19q-6 -41 -29.5 -81t-56 -81t-63.5 -77 q-25 -29 -75 -89.5t-113.5 -137.5t-134 -165t-136 -173t-122 -161.5t-91.5 -130.5q40 -1 110 1q18 0 35 1q53 1 108 -3q73 -4 136.5 -15.5t89.5 -36.5q-12 -53 -26.5 -93t-38.5 -75q-145 8 -284 8q-42 0 -82 -1q-178 -3 -378 -13q-16 23 -20 66z" />
<glyph unicode="[" d="M68 731q0 150 56 282t154.5 230t230.5 155.5t282 57.5t281.5 -57.5t230 -155.5t156 -230t57.5 -282t-57.5 -282t-156 -230t-230 -155.5t-281.5 -57.5t-282 57.5t-230.5 155.5t-154.5 230.5t-56 281.5zM164 731q0 -129 49 -242.5t135 -199.5t200 -135.5t243 -49.5 q131 0 244.5 49.5t197.5 135.5t133 199.5t49 242.5t-49 242.5t-133 198.5t-197.5 134.5t-244.5 49.5q-129 0 -243 -49.5t-200 -134.5t-135 -198.5t-49 -242.5zM207 731q0 119 46 224.5t126 184.5t185.5 124t226.5 45q119 0 225 -45t185 -124t125 -184.5t46 -224.5 q0 -121 -46 -227.5t-125 -185t-185 -125t-225 -46.5q-121 0 -226.5 46.5t-185.5 125t-126 185t-46 227.5zM330 664l112 -177q346 -80 699 0l110 177h-921zM451 1063l151 -189q4 -4 15.5 -0.5t23.5 9.5t20.5 12t8.5 8q-29 57 -47.5 118.5t-53.5 111.5q-6 8 -26.5 -0.5 t-42 -22.5t-38 -28.5t-11.5 -18.5zM463 457q20 -35 51 -74t73 -70.5t92.5 -53t111.5 -21.5q59 0 110 21.5t92 53t73 70.5t52 74q-164 -43 -326.5 -42t-328.5 42zM715 731h155l-77 187zM918 903q-4 -2 4 -8t19 -12t23.5 -9.5t18.5 0.5l147 189q4 4 -11 18.5t-36.5 28.5 t-42 22.5t-26.5 0.5q-39 -49 -55.5 -110.5t-40.5 -119.5zM1290 102v23h84v-23h-31v-77h-22v77h-31zM1384 25v100h31l19 -78l18 78h29v-100h-19v77l-20 -77h-19l-20 77v-77h-19z" />
<glyph unicode="\" d="M68 731q0 150 56 282t154.5 230t230.5 155.5t282 57.5t281.5 -57.5t230 -155.5t156 -230t57.5 -282t-57.5 -282t-156 -230t-230 -155.5t-281.5 -57.5t-282 57.5t-230.5 155.5t-154.5 230.5t-56 281.5zM164 731q0 -129 49 -242.5t135 -199.5t200 -135.5t243 -49.5 q131 0 244.5 49.5t197.5 135.5t133 199.5t49 242.5t-49 242.5t-133 198.5t-197.5 134.5t-244.5 49.5q-129 0 -243 -49.5t-200 -134.5t-135 -198.5t-49 -242.5zM207 731q0 119 46 224.5t126 184.5t185.5 124t226.5 45q119 0 225 -45t185 -124t125 -184.5t46 -224.5 q0 -121 -46 -227.5t-125 -185t-185 -125t-225 -46.5q-121 0 -226.5 46.5t-185.5 125t-126 185t-46 227.5zM330 664l112 -177q346 -80 699 0l110 177h-921zM451 1063l151 -189q4 -4 15.5 -0.5t23.5 9.5t20.5 12t8.5 8q-29 57 -47.5 118.5t-53.5 111.5q-6 8 -26.5 -0.5 t-42 -22.5t-38 -28.5t-11.5 -18.5zM463 457q20 -35 51 -74t73 -70.5t92.5 -53t111.5 -21.5q59 0 110 21.5t92 53t73 70.5t52 74q-164 -43 -326.5 -42t-328.5 42zM715 731h155l-77 187zM918 903q-4 -2 4 -8t19 -12t23.5 -9.5t18.5 0.5l147 189q4 4 -11 18.5t-36.5 28.5 t-42 22.5t-26.5 0.5q-39 -49 -55.5 -110.5t-40.5 -119.5zM1290 102v23h84v-23h-31v-77h-22v77h-31zM1384 25v100h31l19 -78l18 78h29v-100h-19v77l-20 -77h-19l-20 77v-77h-19z" />
<glyph unicode="]" d="M68 731q0 150 56 282t154.5 230t230.5 155.5t282 57.5t281.5 -57.5t230 -155.5t156 -230t57.5 -282t-57.5 -282t-156 -230t-230 -155.5t-281.5 -57.5t-282 57.5t-230.5 155.5t-154.5 230.5t-56 281.5zM164 731q0 -129 49 -242.5t135 -199.5t200 -135.5t243 -49.5 q131 0 244.5 49.5t197.5 135.5t133 199.5t49 242.5t-49 242.5t-133 198.5t-197.5 134.5t-244.5 49.5q-129 0 -243 -49.5t-200 -134.5t-135 -198.5t-49 -242.5zM207 731q0 119 46 224.5t126 184.5t185.5 124t226.5 45q119 0 225 -45t185 -124t125 -184.5t46 -224.5 q0 -121 -46 -227.5t-125 -185t-185 -125t-225 -46.5q-121 0 -226.5 46.5t-185.5 125t-126 185t-46 227.5zM330 664l112 -177q346 -80 699 0l110 177h-921zM451 1063l151 -189q4 -4 15.5 -0.5t23.5 9.5t20.5 12t8.5 8q-29 57 -47.5 118.5t-53.5 111.5q-6 8 -26.5 -0.5 t-42 -22.5t-38 -28.5t-11.5 -18.5zM463 457q20 -35 51 -74t73 -70.5t92.5 -53t111.5 -21.5q59 0 110 21.5t92 53t73 70.5t52 74q-164 -43 -326.5 -42t-328.5 42zM715 731h155l-77 187zM918 903q-4 -2 4 -8t19 -12t23.5 -9.5t18.5 0.5l147 189q4 4 -11 18.5t-36.5 28.5 t-42 22.5t-26.5 0.5q-39 -49 -55.5 -110.5t-40.5 -119.5zM1290 102v23h84v-23h-31v-77h-22v77h-31zM1384 25v100h31l19 -78l18 78h29v-100h-19v77l-20 -77h-19l-20 77v-77h-19z" />
<glyph unicode="^" d="M68 731q0 150 56 282t154.5 230t230.5 155.5t282 57.5t281.5 -57.5t230 -155.5t156 -230t57.5 -282t-57.5 -282t-156 -230t-230 -155.5t-281.5 -57.5t-282 57.5t-230.5 155.5t-154.5 230.5t-56 281.5zM164 731q0 -129 49 -242.5t135 -199.5t200 -135.5t243 -49.5 q131 0 244.5 49.5t197.5 135.5t133 199.5t49 242.5t-49 242.5t-133 198.5t-197.5 134.5t-244.5 49.5q-129 0 -243 -49.5t-200 -134.5t-135 -198.5t-49 -242.5zM207 731q0 119 46 224.5t126 184.5t185.5 124t226.5 45q119 0 225 -45t185 -124t125 -184.5t46 -224.5 q0 -121 -46 -227.5t-125 -185t-185 -125t-225 -46.5q-121 0 -226.5 46.5t-185.5 125t-126 185t-46 227.5zM330 664l112 -177q346 -80 699 0l110 177h-921zM451 1063l151 -189q4 -4 15.5 -0.5t23.5 9.5t20.5 12t8.5 8q-29 57 -47.5 118.5t-53.5 111.5q-6 8 -26.5 -0.5 t-42 -22.5t-38 -28.5t-11.5 -18.5zM463 457q20 -35 51 -74t73 -70.5t92.5 -53t111.5 -21.5q59 0 110 21.5t92 53t73 70.5t52 74q-164 -43 -326.5 -42t-328.5 42zM715 731h155l-77 187zM918 903q-4 -2 4 -8t19 -12t23.5 -9.5t18.5 0.5l147 189q4 4 -11 18.5t-36.5 28.5 t-42 22.5t-26.5 0.5q-39 -49 -55.5 -110.5t-40.5 -119.5zM1290 102v23h84v-23h-31v-77h-22v77h-31zM1384 25v100h31l19 -78l18 78h29v-100h-19v77l-20 -77h-19l-20 77v-77h-19z" />
<glyph unicode="_" horiz-adv-x="921" d="M-1 -148q19 56 54 85q74 12 193 16t239.5 1t221 -15.5t137.5 -30.5q-12 -47 -32.5 -100.5t-47.5 -81.5q-72 0 -144.5 4t-161.5 7t-200 2t-258 -11q-20 68 -1 124z" />
<glyph unicode="`" d="M68 731q0 150 56 282t154.5 230t230.5 155.5t282 57.5t281.5 -57.5t230 -155.5t156 -230t57.5 -282t-57.5 -282t-156 -230t-230 -155.5t-281.5 -57.5t-282 57.5t-230.5 155.5t-154.5 230.5t-56 281.5zM164 731q0 -129 49 -242.5t135 -199.5t200 -135.5t243 -49.5 q131 0 244.5 49.5t197.5 135.5t133 199.5t49 242.5t-49 242.5t-133 198.5t-197.5 134.5t-244.5 49.5q-129 0 -243 -49.5t-200 -134.5t-135 -198.5t-49 -242.5zM207 731q0 119 46 224.5t126 184.5t185.5 124t226.5 45q119 0 225 -45t185 -124t125 -184.5t46 -224.5 q0 -121 -46 -227.5t-125 -185t-185 -125t-225 -46.5q-121 0 -226.5 46.5t-185.5 125t-126 185t-46 227.5zM330 664l112 -177q346 -80 699 0l110 177h-921zM451 1063l151 -189q4 -4 15.5 -0.5t23.5 9.5t20.5 12t8.5 8q-29 57 -47.5 118.5t-53.5 111.5q-6 8 -26.5 -0.5 t-42 -22.5t-38 -28.5t-11.5 -18.5zM463 457q20 -35 51 -74t73 -70.5t92.5 -53t111.5 -21.5q59 0 110 21.5t92 53t73 70.5t52 74q-164 -43 -326.5 -42t-328.5 42zM715 731h155l-77 187zM918 903q-4 -2 4 -8t19 -12t23.5 -9.5t18.5 0.5l147 189q4 4 -11 18.5t-36.5 28.5 t-42 22.5t-26.5 0.5q-39 -49 -55.5 -110.5t-40.5 -119.5zM1290 102v23h84v-23h-31v-77h-22v77h-31zM1384 25v100h31l19 -78l18 78h29v-100h-19v77l-20 -77h-19l-20 77v-77h-19z" />
<glyph unicode="a" horiz-adv-x="1052" d="M55 59q27 76 78 189.5t117.5 245t139.5 269.5t141.5 263t127 225.5t95.5 157.5q53 8 106 12t109 4q35 0 69.5 -5t63.5 -19q-14 -131 -33.5 -300t-34 -351.5t-20.5 -365.5q-2 -55 -2 -108q0 -123 10 -235q-47 -18 -112.5 -28.5t-127.5 -10.5q-18 14 -28.5 34.5t-14.5 54.5 q-3 23 -3 53q0 15 1 32q2 51 6 127q-12 2 -50 2t-86 -1t-97 -3t-84 -4q-29 -47 -57.5 -122t-53.5 -155q-14 -4 -42.5 -5t-61.5 -1t-66.5 3t-56.5 8q-16 4 -24.5 14t-8.5 20zM539 537q59 4 113 5h37q37 0 75 -1q4 51 11 122.5t16.5 151.5t20 163t22.5 159 q-82 -160 -158 -310.5t-137 -289.5z" />
<glyph unicode="b" horiz-adv-x="1044" d="M104 125q49 170 89 307t78 265t78 258t93 286q-4 29 -5 63v14q0 27 3 54q86 33 189.5 50.5t201.5 17.5q117 -2 204 -31t141 -78t72 -115q8 -30 8 -63q0 -39 -11 -82q-12 -43 -38.5 -90t-67.5 -91t-97.5 -80t-126.5 -56q129 -29 175 -124q26 -54 26 -120q0 -51 -16 -111 q-35 -125 -107.5 -205.5t-167 -129t-201 -66.5t-204.5 -18q-59 0 -113.5 6t-97.5 21.5t-70.5 43t-34.5 74.5zM410 238q41 -16 112 -17q117 0 194 57.5t99 141.5q9 30 9 56q0 17 -4 31q-9 38 -37.5 63.5t-72.5 40t-102 16.5q-23 0 -47 -2.5t-53 -6.5q-12 -39 -27.5 -89 t-30 -102t-25.5 -101.5t-15 -87.5zM578 836h19q62 0 118 11q65 13 118.5 39.5t90.5 67.5t51 95q6 22 6 41q-1 24 -11 44q-18 34 -59 53t-99 21h-17q-51 0 -105 -10q-29 -80 -59.5 -181.5t-52.5 -180.5z" />
<glyph unicode="c" horiz-adv-x="958" d="M176 315q-1 18 -1 37q1 53 9 110q12 77 31 154q20 80 49 162t66 163t85 158t111 144q90 92 200 145.5t243 53.5q94 0 149.5 -30t82 -75t29.5 -97q1 -12 1 -24q0 -38 -8 -71q-37 -49 -92.5 -97.5t-102.5 -82.5q-4 57 -18.5 96t-34 62.5t-40 34.5t-36.5 11 q-61 -8 -120.5 -58t-113 -130t-96.5 -180.5t-71 -206.5q-20 -74 -26 -142q-3 -27 -3 -52q0 -38 6 -69q10 -52 39 -85t80 -37q14 -1 28 -1q44 0 82 10q50 13 90 38t72.5 59.5t63.5 75.5q12 -47 15 -111q2 -38 2 -70q0 -22 -1 -42q-49 -59 -105.5 -95t-112.5 -57.5 t-109.5 -28.5t-98.5 -7q-158 0 -248 91t-96 244z" />
<glyph unicode="d" horiz-adv-x="1042" d="M98 49q63 293 155.5 589t186.5 601q-4 39 -5 63v11q0 23 3 59q27 12 75 24.5t103.5 21.5t109.5 15.5t95 6.5q145 0 236.5 -48.5t131.5 -141.5q35 -81 34 -197v-35q-6 -139 -56 -320q-39 -147 -105.5 -274t-161.5 -223.5t-222 -153.5t-289 -63q-12 -1 -24 -1q-30 0 -60 4 q-43 5 -83 14t-73 21.5t-51 26.5zM410 238q25 -8 53 -9q88 0 158.5 45t124 116t91 157t58.5 170q27 103 37 197q3 32 3 60q-1 56 -13 100q-20 66 -74 98q-32 18 -81 17q-35 0 -79 -9q-76 -229 -146.5 -467.5t-131.5 -474.5z" />
<glyph unicode="e" horiz-adv-x="862" d="M117 64.5q0 31.5 4 64.5t11 70t20 86q57 229 122.5 449t143.5 450q4 41 8 96t14 102q29 10 85.5 20.5t126.5 16.5q69 5 148 9q46 2 90 3q32 1 62 -1q72 -2 134.5 -9.5t99.5 -19.5q-6 -23 -18.5 -53.5t-26 -62.5t-27.5 -58.5t-24 -38.5q-86 14 -196 18q-17 1 -33 1 q-91 0 -171 -19q-12 -29 -30.5 -84t-37 -114.5t-35 -116t-24.5 -87.5q37 0 94.5 3.5t118 3.5t115.5 -4.5t86 -14.5q-14 -53 -39 -114.5t-53 -100.5q-73 8 -157 8h-34q-102 -2 -196 -12q-8 -33 -19.5 -73t-23 -81t-19.5 -80.5t-12 -72.5q37 0 100.5 1t128 1t119.5 -1t78 -3 q1 -12 1 -25q1 -40 -9 -87q-12 -63 -29 -122q-168 -2 -346 -7t-346 -11q-4 39 -4 70.5z" />
<glyph unicode="f" horiz-adv-x="864" d="M113 39q18 147 50 288.5t72.5 283t89 284.5t101.5 293q0 43 4 98t16 98q25 10 84.5 20.5t134 18t157.5 10.5q50 2 97 2q31 0 61 -1q75 -2 130 -11.5t76 -25.5q-14 -51 -40 -107.5t-50 -91.5q-92 12 -190 14h-22q-89 0 -184 -14q-8 -18 -24.5 -68.5t-37 -112t-39.5 -125 t-32 -108.5q51 4 114.5 7.5t122 3.5t106.5 -5.5t71 -17.5q-16 -53 -37.5 -113.5t-48.5 -99.5q-75 8 -150 8q-22 0 -45 -1q-96 -3 -200 -11q-29 -94 -44.5 -155.5t-24.5 -115t-19.5 -111.5t-28.5 -144q-29 -14 -75 -22.5t-91 -8.5q-35 0 -61.5 9t-42.5 32z" />
<glyph unicode="g" horiz-adv-x="1064" d="M176 322q-1 17 -1 34q0 55 9 112q13 77 33 155q20 80 48 159.5t65 158.5t85 153.5t111 142.5q90 92 201 148.5t244 56.5q33 0 81 -10.5t93 -39t75 -82.5q29 -50 29 -130v-11q2 -4 -13 -22.5t-45 -44t-69 -58t-82 -65.5q-4 45 -17 79t-31.5 57.5t-40 34.5t-42.5 11 q-59 0 -119.5 -43t-114.5 -119.5t-101.5 -183t-81.5 -235.5q-20 -74 -28 -140q-3 -31 -3 -58q0 -32 5 -60q9 -50 35.5 -79.5t76.5 -29.5q29 0 62.5 6t67 20.5t63.5 37t50 57.5q10 18 19.5 42.5t15.5 52.5t8 52.5t0 42.5q-4 14 -28.5 22.5t-56 11.5t-60.5 3h-41q8 39 17.5 79 t23.5 79q53 18 126 28.5t141 12.5h30q51 0 91 -5q52 -7 69 -24q-12 -74 -35 -166t-50.5 -189t-59.5 -192.5t-64 -175.5q-14 -4 -43 -7t-59.5 -3t-55.5 2t-31 6q-4 8 -2 27.5t2 29.5q-70 -49 -144.5 -68.5t-137.5 -19.5q-158 0 -236 96.5t-84 250.5z" />
<glyph unicode="h" horiz-adv-x="1085" d="M84 4q31 156 79 335t101 363.5t106.5 363.5t94.5 335q49 14 107.5 19t117.5 5q25 0 44.5 -4t10.5 -28q-49 -158 -95 -320t-93 -315q89 6 183 7q19 0 37 1q73 0 138 -4q51 166 103.5 337t91.5 318q23 5 83 15q50 8 99 8h21q35 -2 59 -8q19 -5 18 -18q0 -3 -1 -7 q-106 -338 -212 -677t-190 -697q-23 -8 -56.5 -13.5t-70.5 -6.5h-25q-25 0 -49 1q-36 2 -65 9q20 111 53 241.5t70 255.5q-42 3 -99 3q-29 0 -61 -1q-96 -2 -201 -6q-35 -117 -70.5 -247t-64.5 -255q-23 -8 -56.5 -12t-70.5 -6q-18 -1 -36.5 -1t-36.5 1q-36 2 -64 8z" />
<glyph unicode="i" horiz-adv-x="454" d="M90 16q27 156 76 333t104.5 359.5t109.5 359.5t95 333q45 16 101.5 20t115.5 4q26 0 48 -4q17 -3 16 -17q0 -5 -2 -11q-106 -336 -212 -673t-188 -693q-23 -8 -56.5 -12.5t-70.5 -6.5q-18 -1 -36.5 -1t-36.5 1q-36 2 -64 8z" />
<glyph unicode="j" horiz-adv-x="833" d="M68 180q6 25 24.5 62t41 75.5t46 72.5t41.5 52q16 -111 57 -180.5t119 -71.5h4q59 0 105 54q47 57 82 140t60.5 178t43.5 169q45 172 76 341t72 325q59 29 129 29q11 0 22 -1q43 0 77 -9t56 -34q-23 -55 -46 -147t-50 -203.5t-56.5 -234.5t-63.5 -239t-74.5 -216 t-90.5 -168q-72 -100 -177 -148q-99 -46 -194 -46h-12q-70 2 -122 19t-87.5 45t-56 63.5t-26.5 72.5z" />
<glyph unicode="k" horiz-adv-x="1013" d="M88 16q20 104 51 230.5t68 259.5t76 266t73.5 252t63.5 215t45 158q33 14 85 21q40 5 80 5h23q31 -2 57.5 -6t43.5 -18q-12 -41 -32 -101.5t-42.5 -128t-44 -137t-35.5 -125.5q78 88 160 170t156.5 149.5t134 118t94.5 72.5q70 0 127 -17.5t94 -45.5q-31 -33 -98.5 -93.5 t-152.5 -139.5t-177 -169t-174 -182q18 -92 51 -202.5t69 -209t68.5 -169t48.5 -83.5q-12 -14 -38.5 -37.5t-61.5 -43t-76 -28.5q-18 -4 -35 -4l-47 7q-49 49 -82.5 110.5t-58 130t-42 142.5t-36.5 147l-80 -147q-35 -123 -52 -209t-27 -141q-75 -17 -143 -23q-24 -2 -48 -2 q-43 0 -86 8z" />
<glyph unicode="l" horiz-adv-x="823" d="M98 31q2 51 13.5 107.5t25.5 109.5q37 133 81 283.5t89 301t88 295t76 267.5q45 10 103.5 18t115.5 8q27 0 48.5 -5t15.5 -30q-31 -121 -74 -265t-90 -295.5t-92 -299t-78 -272.5q71 1 142 1h72q108 -1 189 -13q0 -23 -3 -54.5t-10 -65.5t-15.5 -65t-16.5 -49 q-135 -2 -283.5 -3t-289.5 -5h-23q-32 0 -44 4q-18 6 -40 27z" />
<glyph unicode="m" horiz-adv-x="1312" d="M88 12q27 156 76 335t105.5 364.5t111.5 364.5t94 335q35 6 83 8q32 1 65 1h33q50 -1 93.5 -6t69.5 -15q2 -109 4 -190t5 -149.5t8.5 -131t13.5 -133.5q113 168 229.5 321.5t255.5 310.5q33 0 72 -2t77 -7t71.5 -12t56.5 -20q-115 -324 -213.5 -665.5t-171.5 -683.5 q-23 -8 -55.5 -13.5t-70.5 -7.5t-76 -3h-25q-24 0 -44 1q10 80 23.5 159t34 171t51.5 206t76 265q-33 -41 -73 -92t-91 -123t-115.5 -167t-146.5 -224q-12 -16 -29.5 -18.5t-26.5 8.5q-16 31 -30.5 95t-25.5 149t-16 180.5t-5 187.5q-74 -199 -119 -390.5t-86 -393.5 q-23 -8 -59.5 -13.5t-77.5 -6.5q-20 -1 -41 -1l-41 1q-41 1 -70 5z" />
<glyph unicode="n" horiz-adv-x="1048" d="M94 10q14 90 46 222.5t71 278.5t81 294.5t80 272.5t68.5 211t44.5 112q23 6 53.5 10t63.5 6q22 1 43 1h21q32 -1 57 -5q8 -100 20.5 -190t27.5 -181.5t36.5 -188.5t52.5 -212q14 70 42 175.5t61.5 216t67.5 212t61 162.5q59 16 132.5 16t131.5 -4q-49 -156 -100.5 -323.5 t-100.5 -344t-95 -360.5t-83 -371q-37 -12 -88 -18t-98 -6q-27 41 -63 124t-70.5 190.5t-63.5 230.5t-39 243q-59 -186 -104 -368t-82 -387q-25 -8 -60 -13.5t-73.5 -7.5t-75.5 -2t-66 4z" />
<glyph unicode="o" horiz-adv-x="1130" d="M190 417q6 126 41 261q41 156 113 296t166 246.5t210 171t247 66.5q12 -16 16 -39q115 0 190.5 -47t113.5 -132q37 -83 37 -196v-6q-1 -118 -38 -260q-43 -160 -113.5 -304t-167 -254.5t-215 -175t-255.5 -64.5q-131 0 -208 58t-110 156q-28 81 -28 182q0 20 1 41z M484 346q10 -60 40.5 -94.5t87.5 -36.5q59 0 115.5 45t106 120t90.5 173t69 207q39 147 39 244q0 28 -3 52q-15 106 -126 111q-63 -6 -122.5 -55t-109.5 -121.5t-89 -161t-62 -172.5q-25 -91 -35 -171q-5 -41 -6 -77q0 -34 5 -63z" />
<glyph unicode="p" horiz-adv-x="1005" d="M106 23q2 55 17.5 137t48.5 205q4 18 10 39.5t15.5 57.5t27 92t45 147.5t68.5 221.5t100 314q1 23 1 46v23q-1 35 -1 68q86 33 179.5 49.5t183.5 16.5q106 0 198.5 -27t152.5 -85t80 -150q8 -35 8 -76q0 -66 -21 -148q-31 -117 -95.5 -212t-151.5 -161.5t-189.5 -103.5 t-209.5 -37q-25 0 -51 2t-51 7q-16 -57 -31.5 -107.5t-28 -102t-23.5 -103.5t-19 -113q-25 -8 -57.5 -14.5t-68.5 -8.5q-10 -1 -21 -1l-51 4q-36 5 -65 20zM547 698q31 -10 63 -10q57 0 110.5 13.5t98.5 44t80 84t55 133.5q11 40 11 74q0 55 -29 93q-47 62 -160 62 q-33 0 -80 -10q-41 -129 -67.5 -212t-43 -135.5t-24.5 -82t-14 -54.5z" />
<glyph unicode="q" horiz-adv-x="1134" d="M192 406q7 124 37 262q41 156 113 296t166 246.5t210 171t247 66.5q6 -8 9 -18.5t7 -20.5q115 0 191.5 -47t114.5 -132t38 -203t-37 -259q-33 -123 -83 -234.5t-114.5 -206t-143.5 -168t-169 -116.5q4 -66 9.5 -112t9.5 -74q-55 -57 -146 -58q-35 27 -56.5 76t-31.5 113 q-145 0 -228 54t-117 148q-28 76 -28 173q0 21 2 43zM480 360q14 -114 79 -133v29q0 65 7 128q9 77 20 126q20 12 53 23.5t68.5 19.5t71.5 13t61 5q-16 -68 -31.5 -141.5t-24.5 -128.5q31 37 64 88t61.5 110.5t54 125t42.5 131.5q36 134 36 227q0 39 -6 71q-22 109 -133 113 q-63 -6 -123.5 -55t-112 -121.5t-90 -161t-61.5 -172.5q-38 -144 -38 -245q0 -28 2 -52z" />
<glyph unicode="r" horiz-adv-x="999" d="M104 25q25 150 66 317.5t89 330.5t96 309t85 255q-4 29 -5 66.5t1 62.5q66 33 151 52.5t208 19.5q119 0 210 -26t146 -82t71 -145q5 -28 5 -61q0 -68 -23 -153q-43 -156 -160.5 -260.5t-273.5 -151.5q41 -125 93 -255t114 -232q-35 -18 -106.5 -46t-149.5 -28 q-35 20 -67.5 69.5t-63.5 118t-57.5 149.5t-49.5 165q-37 -117 -62.5 -233.5t-47.5 -237.5q-29 -16 -69 -23.5t-77 -7.5q-78 0 -123 27zM549 739q12 -2 23.5 -3t23.5 -1q59 0 118.5 30t111 73t86 91t44.5 85q8 28 8 52q0 48 -31 79q-46 47 -194 47q-12 0 -24.5 -1t-22.5 -1 q-27 -82 -47 -145.5t-37.5 -115.5t-32 -98.5t-26.5 -91.5z" />
<glyph unicode="s" horiz-adv-x="933" d="M98 117q20 66 54 130t75 111q31 -82 96.5 -127t147.5 -45q72 0 124 28t69 91q3 14 3 27q0 38 -26 70q-35 42 -88 75t-108.5 59.5t-82.5 51.5q-62 49 -90 126q-15 42 -15 92q0 42 11 89q29 109 86.5 200t136 160.5t176 115.5t205.5 65q36 6 75 6q15 0 31 -1 q56 -3 105.5 -18.5t85 -47.5t41.5 -81q0 -78 -36.5 -161.5t-90.5 -151.5q-14 -16 -49 -28.5t-77 -21.5q-41 -9 -81 -13q-27 -3 -48 -4q-9 0 -17 1q29 35 55.5 87.5t46.5 95.5q7 19 7 34q0 26 -20.5 37t-46.5 11q-15 0 -32 -4q-53 -14 -98 -43t-79 -66t-55.5 -79t-27.5 -85 q-2 -12 -2 -25q0 -46 31 -90q39 -54 106 -92q70 -35 129.5 -70.5t97.5 -80.5t51 -103q5 -24 5 -51q0 -38 -10 -84q-25 -98 -82.5 -163.5t-134 -103.5t-163.5 -52q-76 -13 -149 -13h-20q-129 4 -205 43.5t-117 98.5z" />
<glyph unicode="t" horiz-adv-x="917" d="M313 14q31 152 73 307.5t86 308t85 295t72 265.5q-66 0 -124.5 -2t-135.5 -8q2 20 11 52t20.5 65.5t23.5 65.5t20 52q61 6 164 11q104 4 216 5h49q87 -1 173 -3q110 -4 185 -9q-4 -43 -18.5 -109.5t-30.5 -119.5q-57 0 -135 3q-33 1 -65 1q-42 0 -79 -2 q-94 -301 -166.5 -585.5t-134.5 -575.5q-31 -12 -68.5 -18.5t-76.5 -8.5q-16 -1 -31 -1q-23 0 -46 2q-38 3 -67 9z" />
<glyph unicode="u" horiz-adv-x="1011" d="M163 184q-2 22 -2 44q0 40 6 84q9 68 27.5 142t38.5 144q29 104 66 212t74 214t69.5 206.5t55.5 190.5q31 2 70 4q38 1 76 3q14 1 28 1q23 1 43 -1q33 -2 53 -5q-39 -139 -84 -268t-89 -255t-81 -252t-59 -257q-5 -29 -5 -53q0 -43 16 -69q26 -40 71 -41h3q44 0 99 34 q57 35 109 100q23 68 52 158t66 215t80 287t92 373q29 6 71 9t79 5q14 1 27 1q21 0 39 -2q30 -3 59 -7q-53 -197 -109.5 -387.5t-109 -366.5t-96 -333.5t-70.5 -288.5q-25 -10 -64 -14.5t-79 -4.5t-73.5 4t-45.5 13q4 23 14 57.5t12 52.5q-43 -59 -118.5 -100t-149.5 -45 q-13 -1 -25 -1q-73 -1 -121 21q-56 24 -83 70t-32 106z" />
<glyph unicode="v" horiz-adv-x="1056" d="M328 402q-1 33 -1 67q0 67 3 137q4 182 26.5 394t63.5 417q66 11 134 13q8 0 16 1q59 0 116 -10q-6 -25 -16.5 -77t-22.5 -123.5t-24.5 -158.5t-20.5 -181q-8 -70 -13 -142.5t-9.5 -141.5t-5.5 -131.5t-1 -111.5q31 76 69 161t81 174t90 180.5t94 177.5q53 98 112.5 195 t119.5 183q20 1 40 1q49 0 101 -7q72 -10 109 -35q-86 -137 -157 -251.5t-122 -206.5q-61 -104 -106.5 -186.5t-80 -149t-62 -119.5t-52.5 -100q-51 -98 -92 -187.5t-70 -163.5q-53 -16 -124.5 -19t-141.5 -3q-16 23 -26.5 82t-17.5 140.5t-9 181.5z" />
<glyph unicode="w" horiz-adv-x="1517" d="M285 168q2 106 11 239.5t22.5 283t30 289.5t36 260t39.5 194q62 7 130 7h18q78 -1 122 -26q-16 -59 -32.5 -125.5t-33 -162t-35 -227.5t-38.5 -322q55 119 128 255t143.5 258.5t129 216t86.5 126.5q37 4 69 4q21 0 41 -2q50 -4 91 -31q-31 -164 -52.5 -309.5t-34.5 -261 t-18 -195.5q-3 -44 -3 -74q0 -23 2 -37q33 84 75.5 177.5t89 186.5t93.5 181t88 160t73.5 124t51.5 73q72 0 135 -15.5t100 -44.5q-61 -98 -146 -242.5t-177.5 -321.5t-184.5 -378t-172 -410q-89 -17 -140 -17h-15q-52 3 -78 3q-10 61 -20 133q-9 73 -12 171q-1 30 -1 62 q0 76 5 170q7 134 30 318q-98 -186 -202.5 -394t-211.5 -458q-56 -6 -114 -7h-9q-53 0 -106 11q-5 40 -5 109q0 23 1 49z" />
<glyph unicode="x" horiz-adv-x="1038" d="M41 41q31 57 82 137t113.5 172t134 192.5t143.5 198.5q-18 86 -32.5 178.5t-27 179.5t-19.5 165.5t-9 140.5q57 29 138 40q42 6 80 6q34 0 65 -5q0 -25 2 -86.5t7 -134t12 -147t18 -128.5q92 131 184 257t182 237q68 0 132.5 -16.5t101.5 -41.5q-41 -53 -90.5 -115.5 t-107.5 -139t-130 -172t-158 -216.5q12 -72 27.5 -140t34 -147t43 -174.5t57.5 -218.5q-51 -23 -118.5 -34t-133.5 -11q-12 10 -30.5 54.5t-39 112t-40 152.5t-33.5 179q-41 -51 -90.5 -122.5t-99.5 -145.5t-96 -141.5t-79 -112.5q-68 0 -126 12t-97 35z" />
<glyph unicode="y" horiz-adv-x="1136" d="M410 1376q29 12 63.5 24.5t71.5 22t72.5 15.5t66.5 6q12 -37 29.5 -101.5t36 -152.5t34 -193.5t23.5 -222.5q80 141 136 235.5t102.5 167t89.5 134t96 135.5q72 0 133 -17.5t102 -42.5q-61 -86 -123.5 -176t-132 -198.5t-151.5 -243.5t-187 -309q-12 -41 -29.5 -98.5 t-37 -119t-40 -121t-40.5 -106.5q-37 -4 -76 -7q-23 -2 -46 -2q-14 0 -29 1q-35 2 -65 8t-48 21q35 84 67.5 192.5t63.5 231.5q-6 100 -25.5 219t-46 241.5t-55.5 240.5t-55 216z" />
<glyph unicode="z" horiz-adv-x="970" d="M84 72q-1 11 -1 22q0 33 9 68q43 74 103.5 162t152.5 209.5t225.5 285.5t321.5 385q-86 4 -180 4h-63q-128 -2 -251 -18q14 53 41 112.5t60 100.5q82 10 174 16t188 7h39q77 0 154 -3q96 -4 184 -16q15 -28 15 -59q0 -9 -1 -19q-6 -41 -29.5 -81t-56 -81t-63.5 -77 q-25 -29 -75 -89.5t-113.5 -137.5t-134 -165t-136 -173t-122 -161.5t-91.5 -130.5q40 -1 110 1q18 0 35 1q53 1 108 -3q73 -4 136.5 -15.5t89.5 -36.5q-12 -53 -26.5 -93t-38.5 -75q-145 8 -284 8q-42 0 -82 -1q-178 -3 -378 -13q-16 23 -20 66z" />
<glyph unicode="{" d="M68 731q0 150 56 282t154.5 230t230.5 155.5t282 57.5t281.5 -57.5t230 -155.5t156 -230t57.5 -282t-57.5 -282t-156 -230t-230 -155.5t-281.5 -57.5t-282 57.5t-230.5 155.5t-154.5 230.5t-56 281.5zM164 731q0 -129 49 -242.5t135 -199.5t200 -135.5t243 -49.5 q131 0 244.5 49.5t197.5 135.5t133 199.5t49 242.5t-49 242.5t-133 198.5t-197.5 134.5t-244.5 49.5q-129 0 -243 -49.5t-200 -134.5t-135 -198.5t-49 -242.5zM207 731q0 119 46 224.5t126 184.5t185.5 124t226.5 45q119 0 225 -45t185 -124t125 -184.5t46 -224.5 q0 -121 -46 -227.5t-125 -185t-185 -125t-225 -46.5q-121 0 -226.5 46.5t-185.5 125t-126 185t-46 227.5zM330 664l112 -177q346 -80 699 0l110 177h-921zM451 1063l151 -189q4 -4 15.5 -0.5t23.5 9.5t20.5 12t8.5 8q-29 57 -47.5 118.5t-53.5 111.5q-6 8 -26.5 -0.5 t-42 -22.5t-38 -28.5t-11.5 -18.5zM463 457q20 -35 51 -74t73 -70.5t92.5 -53t111.5 -21.5q59 0 110 21.5t92 53t73 70.5t52 74q-164 -43 -326.5 -42t-328.5 42zM715 731h155l-77 187zM918 903q-4 -2 4 -8t19 -12t23.5 -9.5t18.5 0.5l147 189q4 4 -11 18.5t-36.5 28.5 t-42 22.5t-26.5 0.5q-39 -49 -55.5 -110.5t-40.5 -119.5zM1290 102v23h84v-23h-31v-77h-22v77h-31zM1384 25v100h31l19 -78l18 78h29v-100h-19v77l-20 -77h-19l-20 77v-77h-19z" />
<glyph unicode="|" d="M68 731q0 150 56 282t154.5 230t230.5 155.5t282 57.5t281.5 -57.5t230 -155.5t156 -230t57.5 -282t-57.5 -282t-156 -230t-230 -155.5t-281.5 -57.5t-282 57.5t-230.5 155.5t-154.5 230.5t-56 281.5zM164 731q0 -129 49 -242.5t135 -199.5t200 -135.5t243 -49.5 q131 0 244.5 49.5t197.5 135.5t133 199.5t49 242.5t-49 242.5t-133 198.5t-197.5 134.5t-244.5 49.5q-129 0 -243 -49.5t-200 -134.5t-135 -198.5t-49 -242.5zM207 731q0 119 46 224.5t126 184.5t185.5 124t226.5 45q119 0 225 -45t185 -124t125 -184.5t46 -224.5 q0 -121 -46 -227.5t-125 -185t-185 -125t-225 -46.5q-121 0 -226.5 46.5t-185.5 125t-126 185t-46 227.5zM330 664l112 -177q346 -80 699 0l110 177h-921zM451 1063l151 -189q4 -4 15.5 -0.5t23.5 9.5t20.5 12t8.5 8q-29 57 -47.5 118.5t-53.5 111.5q-6 8 -26.5 -0.5 t-42 -22.5t-38 -28.5t-11.5 -18.5zM463 457q20 -35 51 -74t73 -70.5t92.5 -53t111.5 -21.5q59 0 110 21.5t92 53t73 70.5t52 74q-164 -43 -326.5 -42t-328.5 42zM715 731h155l-77 187zM918 903q-4 -2 4 -8t19 -12t23.5 -9.5t18.5 0.5l147 189q4 4 -11 18.5t-36.5 28.5 t-42 22.5t-26.5 0.5q-39 -49 -55.5 -110.5t-40.5 -119.5zM1290 102v23h84v-23h-31v-77h-22v77h-31zM1384 25v100h31l19 -78l18 78h29v-100h-19v77l-20 -77h-19l-20 77v-77h-19z" />
<glyph unicode="}" d="M68 731q0 150 56 282t154.5 230t230.5 155.5t282 57.5t281.5 -57.5t230 -155.5t156 -230t57.5 -282t-57.5 -282t-156 -230t-230 -155.5t-281.5 -57.5t-282 57.5t-230.5 155.5t-154.5 230.5t-56 281.5zM164 731q0 -129 49 -242.5t135 -199.5t200 -135.5t243 -49.5 q131 0 244.5 49.5t197.5 135.5t133 199.5t49 242.5t-49 242.5t-133 198.5t-197.5 134.5t-244.5 49.5q-129 0 -243 -49.5t-200 -134.5t-135 -198.5t-49 -242.5zM207 731q0 119 46 224.5t126 184.5t185.5 124t226.5 45q119 0 225 -45t185 -124t125 -184.5t46 -224.5 q0 -121 -46 -227.5t-125 -185t-185 -125t-225 -46.5q-121 0 -226.5 46.5t-185.5 125t-126 185t-46 227.5zM330 664l112 -177q346 -80 699 0l110 177h-921zM451 1063l151 -189q4 -4 15.5 -0.5t23.5 9.5t20.5 12t8.5 8q-29 57 -47.5 118.5t-53.5 111.5q-6 8 -26.5 -0.5 t-42 -22.5t-38 -28.5t-11.5 -18.5zM463 457q20 -35 51 -74t73 -70.5t92.5 -53t111.5 -21.5q59 0 110 21.5t92 53t73 70.5t52 74q-164 -43 -326.5 -42t-328.5 42zM715 731h155l-77 187zM918 903q-4 -2 4 -8t19 -12t23.5 -9.5t18.5 0.5l147 189q4 4 -11 18.5t-36.5 28.5 t-42 22.5t-26.5 0.5q-39 -49 -55.5 -110.5t-40.5 -119.5zM1290 102v23h84v-23h-31v-77h-22v77h-31zM1384 25v100h31l19 -78l18 78h29v-100h-19v77l-20 -77h-19l-20 77v-77h-19z" />
<glyph unicode="~" d="M68 731q0 150 56 282t154.5 230t230.5 155.5t282 57.5t281.5 -57.5t230 -155.5t156 -230t57.5 -282t-57.5 -282t-156 -230t-230 -155.5t-281.5 -57.5t-282 57.5t-230.5 155.5t-154.5 230.5t-56 281.5zM164 731q0 -129 49 -242.5t135 -199.5t200 -135.5t243 -49.5 q131 0 244.5 49.5t197.5 135.5t133 199.5t49 242.5t-49 242.5t-133 198.5t-197.5 134.5t-244.5 49.5q-129 0 -243 -49.5t-200 -134.5t-135 -198.5t-49 -242.5zM207 731q0 119 46 224.5t126 184.5t185.5 124t226.5 45q119 0 225 -45t185 -124t125 -184.5t46 -224.5 q0 -121 -46 -227.5t-125 -185t-185 -125t-225 -46.5q-121 0 -226.5 46.5t-185.5 125t-126 185t-46 227.5zM330 664l112 -177q346 -80 699 0l110 177h-921zM451 1063l151 -189q4 -4 15.5 -0.5t23.5 9.5t20.5 12t8.5 8q-29 57 -47.5 118.5t-53.5 111.5q-6 8 -26.5 -0.5 t-42 -22.5t-38 -28.5t-11.5 -18.5zM463 457q20 -35 51 -74t73 -70.5t92.5 -53t111.5 -21.5q59 0 110 21.5t92 53t73 70.5t52 74q-164 -43 -326.5 -42t-328.5 42zM715 731h155l-77 187zM918 903q-4 -2 4 -8t19 -12t23.5 -9.5t18.5 0.5l147 189q4 4 -11 18.5t-36.5 28.5 t-42 22.5t-26.5 0.5q-39 -49 -55.5 -110.5t-40.5 -119.5zM1290 102v23h84v-23h-31v-77h-22v77h-31zM1384 25v100h31l19 -78l18 78h29v-100h-19v77l-20 -77h-19l-20 77v-77h-19z" />
<glyph unicode="&#xa1;" d="M68 731q0 150 56 282t154.5 230t230.5 155.5t282 57.5t281.5 -57.5t230 -155.5t156 -230t57.5 -282t-57.5 -282t-156 -230t-230 -155.5t-281.5 -57.5t-282 57.5t-230.5 155.5t-154.5 230.5t-56 281.5zM164 731q0 -129 49 -242.5t135 -199.5t200 -135.5t243 -49.5 q131 0 244.5 49.5t197.5 135.5t133 199.5t49 242.5t-49 242.5t-133 198.5t-197.5 134.5t-244.5 49.5q-129 0 -243 -49.5t-200 -134.5t-135 -198.5t-49 -242.5zM207 731q0 119 46 224.5t126 184.5t185.5 124t226.5 45q119 0 225 -45t185 -124t125 -184.5t46 -224.5 q0 -121 -46 -227.5t-125 -185t-185 -125t-225 -46.5q-121 0 -226.5 46.5t-185.5 125t-126 185t-46 227.5zM330 664l112 -177q346 -80 699 0l110 177h-921zM451 1063l151 -189q4 -4 15.5 -0.5t23.5 9.5t20.5 12t8.5 8q-29 57 -47.5 118.5t-53.5 111.5q-6 8 -26.5 -0.5 t-42 -22.5t-38 -28.5t-11.5 -18.5zM463 457q20 -35 51 -74t73 -70.5t92.5 -53t111.5 -21.5q59 0 110 21.5t92 53t73 70.5t52 74q-164 -43 -326.5 -42t-328.5 42zM715 731h155l-77 187zM918 903q-4 -2 4 -8t19 -12t23.5 -9.5t18.5 0.5l147 189q4 4 -11 18.5t-36.5 28.5 t-42 22.5t-26.5 0.5q-39 -49 -55.5 -110.5t-40.5 -119.5zM1290 102v23h84v-23h-31v-77h-22v77h-31zM1384 25v100h31l19 -78l18 78h29v-100h-19v77l-20 -77h-19l-20 77v-77h-19z" />
<glyph unicode="&#xa2;" d="M68 731q0 150 56 282t154.5 230t230.5 155.5t282 57.5t281.5 -57.5t230 -155.5t156 -230t57.5 -282t-57.5 -282t-156 -230t-230 -155.5t-281.5 -57.5t-282 57.5t-230.5 155.5t-154.5 230.5t-56 281.5zM164 731q0 -129 49 -242.5t135 -199.5t200 -135.5t243 -49.5 q131 0 244.5 49.5t197.5 135.5t133 199.5t49 242.5t-49 242.5t-133 198.5t-197.5 134.5t-244.5 49.5q-129 0 -243 -49.5t-200 -134.5t-135 -198.5t-49 -242.5zM207 731q0 119 46 224.5t126 184.5t185.5 124t226.5 45q119 0 225 -45t185 -124t125 -184.5t46 -224.5 q0 -121 -46 -227.5t-125 -185t-185 -125t-225 -46.5q-121 0 -226.5 46.5t-185.5 125t-126 185t-46 227.5zM330 664l112 -177q346 -80 699 0l110 177h-921zM451 1063l151 -189q4 -4 15.5 -0.5t23.5 9.5t20.5 12t8.5 8q-29 57 -47.5 118.5t-53.5 111.5q-6 8 -26.5 -0.5 t-42 -22.5t-38 -28.5t-11.5 -18.5zM463 457q20 -35 51 -74t73 -70.5t92.5 -53t111.5 -21.5q59 0 110 21.5t92 53t73 70.5t52 74q-164 -43 -326.5 -42t-328.5 42zM715 731h155l-77 187zM918 903q-4 -2 4 -8t19 -12t23.5 -9.5t18.5 0.5l147 189q4 4 -11 18.5t-36.5 28.5 t-42 22.5t-26.5 0.5q-39 -49 -55.5 -110.5t-40.5 -119.5zM1290 102v23h84v-23h-31v-77h-22v77h-31zM1384 25v100h31l19 -78l18 78h29v-100h-19v77l-20 -77h-19l-20 77v-77h-19z" />
<glyph unicode="&#xa3;" d="M68 731q0 150 56 282t154.5 230t230.5 155.5t282 57.5t281.5 -57.5t230 -155.5t156 -230t57.5 -282t-57.5 -282t-156 -230t-230 -155.5t-281.5 -57.5t-282 57.5t-230.5 155.5t-154.5 230.5t-56 281.5zM164 731q0 -129 49 -242.5t135 -199.5t200 -135.5t243 -49.5 q131 0 244.5 49.5t197.5 135.5t133 199.5t49 242.5t-49 242.5t-133 198.5t-197.5 134.5t-244.5 49.5q-129 0 -243 -49.5t-200 -134.5t-135 -198.5t-49 -242.5zM207 731q0 119 46 224.5t126 184.5t185.5 124t226.5 45q119 0 225 -45t185 -124t125 -184.5t46 -224.5 q0 -121 -46 -227.5t-125 -185t-185 -125t-225 -46.5q-121 0 -226.5 46.5t-185.5 125t-126 185t-46 227.5zM330 664l112 -177q346 -80 699 0l110 177h-921zM451 1063l151 -189q4 -4 15.5 -0.5t23.5 9.5t20.5 12t8.5 8q-29 57 -47.5 118.5t-53.5 111.5q-6 8 -26.5 -0.5 t-42 -22.5t-38 -28.5t-11.5 -18.5zM463 457q20 -35 51 -74t73 -70.5t92.5 -53t111.5 -21.5q59 0 110 21.5t92 53t73 70.5t52 74q-164 -43 -326.5 -42t-328.5 42zM715 731h155l-77 187zM918 903q-4 -2 4 -8t19 -12t23.5 -9.5t18.5 0.5l147 189q4 4 -11 18.5t-36.5 28.5 t-42 22.5t-26.5 0.5q-39 -49 -55.5 -110.5t-40.5 -119.5zM1290 102v23h84v-23h-31v-77h-22v77h-31zM1384 25v100h31l19 -78l18 78h29v-100h-19v77l-20 -77h-19l-20 77v-77h-19z" />
<glyph unicode="&#xa4;" d="M68 731q0 150 56 282t154.5 230t230.5 155.5t282 57.5t281.5 -57.5t230 -155.5t156 -230t57.5 -282t-57.5 -282t-156 -230t-230 -155.5t-281.5 -57.5t-282 57.5t-230.5 155.5t-154.5 230.5t-56 281.5zM164 731q0 -129 49 -242.5t135 -199.5t200 -135.5t243 -49.5 q131 0 244.5 49.5t197.5 135.5t133 199.5t49 242.5t-49 242.5t-133 198.5t-197.5 134.5t-244.5 49.5q-129 0 -243 -49.5t-200 -134.5t-135 -198.5t-49 -242.5zM207 731q0 119 46 224.5t126 184.5t185.5 124t226.5 45q119 0 225 -45t185 -124t125 -184.5t46 -224.5 q0 -121 -46 -227.5t-125 -185t-185 -125t-225 -46.5q-121 0 -226.5 46.5t-185.5 125t-126 185t-46 227.5zM330 664l112 -177q346 -80 699 0l110 177h-921zM451 1063l151 -189q4 -4 15.5 -0.5t23.5 9.5t20.5 12t8.5 8q-29 57 -47.5 118.5t-53.5 111.5q-6 8 -26.5 -0.5 t-42 -22.5t-38 -28.5t-11.5 -18.5zM463 457q20 -35 51 -74t73 -70.5t92.5 -53t111.5 -21.5q59 0 110 21.5t92 53t73 70.5t52 74q-164 -43 -326.5 -42t-328.5 42zM715 731h155l-77 187zM918 903q-4 -2 4 -8t19 -12t23.5 -9.5t18.5 0.5l147 189q4 4 -11 18.5t-36.5 28.5 t-42 22.5t-26.5 0.5q-39 -49 -55.5 -110.5t-40.5 -119.5zM1290 102v23h84v-23h-31v-77h-22v77h-31zM1384 25v100h31l19 -78l18 78h29v-100h-19v77l-20 -77h-19l-20 77v-77h-19z" />
<glyph unicode="&#xa5;" d="M68 731q0 150 56 282t154.5 230t230.5 155.5t282 57.5t281.5 -57.5t230 -155.5t156 -230t57.5 -282t-57.5 -282t-156 -230t-230 -155.5t-281.5 -57.5t-282 57.5t-230.5 155.5t-154.5 230.5t-56 281.5zM164 731q0 -129 49 -242.5t135 -199.5t200 -135.5t243 -49.5 q131 0 244.5 49.5t197.5 135.5t133 199.5t49 242.5t-49 242.5t-133 198.5t-197.5 134.5t-244.5 49.5q-129 0 -243 -49.5t-200 -134.5t-135 -198.5t-49 -242.5zM207 731q0 119 46 224.5t126 184.5t185.5 124t226.5 45q119 0 225 -45t185 -124t125 -184.5t46 -224.5 q0 -121 -46 -227.5t-125 -185t-185 -125t-225 -46.5q-121 0 -226.5 46.5t-185.5 125t-126 185t-46 227.5zM330 664l112 -177q346 -80 699 0l110 177h-921zM451 1063l151 -189q4 -4 15.5 -0.5t23.5 9.5t20.5 12t8.5 8q-29 57 -47.5 118.5t-53.5 111.5q-6 8 -26.5 -0.5 t-42 -22.5t-38 -28.5t-11.5 -18.5zM463 457q20 -35 51 -74t73 -70.5t92.5 -53t111.5 -21.5q59 0 110 21.5t92 53t73 70.5t52 74q-164 -43 -326.5 -42t-328.5 42zM715 731h155l-77 187zM918 903q-4 -2 4 -8t19 -12t23.5 -9.5t18.5 0.5l147 189q4 4 -11 18.5t-36.5 28.5 t-42 22.5t-26.5 0.5q-39 -49 -55.5 -110.5t-40.5 -119.5zM1290 102v23h84v-23h-31v-77h-22v77h-31zM1384 25v100h31l19 -78l18 78h29v-100h-19v77l-20 -77h-19l-20 77v-77h-19z" />
<glyph unicode="&#xa6;" d="M68 731q0 150 56 282t154.5 230t230.5 155.5t282 57.5t281.5 -57.5t230 -155.5t156 -230t57.5 -282t-57.5 -282t-156 -230t-230 -155.5t-281.5 -57.5t-282 57.5t-230.5 155.5t-154.5 230.5t-56 281.5zM164 731q0 -129 49 -242.5t135 -199.5t200 -135.5t243 -49.5 q131 0 244.5 49.5t197.5 135.5t133 199.5t49 242.5t-49 242.5t-133 198.5t-197.5 134.5t-244.5 49.5q-129 0 -243 -49.5t-200 -134.5t-135 -198.5t-49 -242.5zM207 731q0 119 46 224.5t126 184.5t185.5 124t226.5 45q119 0 225 -45t185 -124t125 -184.5t46 -224.5 q0 -121 -46 -227.5t-125 -185t-185 -125t-225 -46.5q-121 0 -226.5 46.5t-185.5 125t-126 185t-46 227.5zM330 664l112 -177q346 -80 699 0l110 177h-921zM451 1063l151 -189q4 -4 15.5 -0.5t23.5 9.5t20.5 12t8.5 8q-29 57 -47.5 118.5t-53.5 111.5q-6 8 -26.5 -0.5 t-42 -22.5t-38 -28.5t-11.5 -18.5zM463 457q20 -35 51 -74t73 -70.5t92.5 -53t111.5 -21.5q59 0 110 21.5t92 53t73 70.5t52 74q-164 -43 -326.5 -42t-328.5 42zM715 731h155l-77 187zM918 903q-4 -2 4 -8t19 -12t23.5 -9.5t18.5 0.5l147 189q4 4 -11 18.5t-36.5 28.5 t-42 22.5t-26.5 0.5q-39 -49 -55.5 -110.5t-40.5 -119.5zM1290 102v23h84v-23h-31v-77h-22v77h-31zM1384 25v100h31l19 -78l18 78h29v-100h-19v77l-20 -77h-19l-20 77v-77h-19z" />
<glyph unicode="&#xa7;" d="M68 731q0 150 56 282t154.5 230t230.5 155.5t282 57.5t281.5 -57.5t230 -155.5t156 -230t57.5 -282t-57.5 -282t-156 -230t-230 -155.5t-281.5 -57.5t-282 57.5t-230.5 155.5t-154.5 230.5t-56 281.5zM164 731q0 -129 49 -242.5t135 -199.5t200 -135.5t243 -49.5 q131 0 244.5 49.5t197.5 135.5t133 199.5t49 242.5t-49 242.5t-133 198.5t-197.5 134.5t-244.5 49.5q-129 0 -243 -49.5t-200 -134.5t-135 -198.5t-49 -242.5zM207 731q0 119 46 224.5t126 184.5t185.5 124t226.5 45q119 0 225 -45t185 -124t125 -184.5t46 -224.5 q0 -121 -46 -227.5t-125 -185t-185 -125t-225 -46.5q-121 0 -226.5 46.5t-185.5 125t-126 185t-46 227.5zM330 664l112 -177q346 -80 699 0l110 177h-921zM451 1063l151 -189q4 -4 15.5 -0.5t23.5 9.5t20.5 12t8.5 8q-29 57 -47.5 118.5t-53.5 111.5q-6 8 -26.5 -0.5 t-42 -22.5t-38 -28.5t-11.5 -18.5zM463 457q20 -35 51 -74t73 -70.5t92.5 -53t111.5 -21.5q59 0 110 21.5t92 53t73 70.5t52 74q-164 -43 -326.5 -42t-328.5 42zM715 731h155l-77 187zM918 903q-4 -2 4 -8t19 -12t23.5 -9.5t18.5 0.5l147 189q4 4 -11 18.5t-36.5 28.5 t-42 22.5t-26.5 0.5q-39 -49 -55.5 -110.5t-40.5 -119.5zM1290 102v23h84v-23h-31v-77h-22v77h-31zM1384 25v100h31l19 -78l18 78h29v-100h-19v77l-20 -77h-19l-20 77v-77h-19z" />
<glyph unicode="&#xa8;" d="M68 731q0 150 56 282t154.5 230t230.5 155.5t282 57.5t281.5 -57.5t230 -155.5t156 -230t57.5 -282t-57.5 -282t-156 -230t-230 -155.5t-281.5 -57.5t-282 57.5t-230.5 155.5t-154.5 230.5t-56 281.5zM164 731q0 -129 49 -242.5t135 -199.5t200 -135.5t243 -49.5 q131 0 244.5 49.5t197.5 135.5t133 199.5t49 242.5t-49 242.5t-133 198.5t-197.5 134.5t-244.5 49.5q-129 0 -243 -49.5t-200 -134.5t-135 -198.5t-49 -242.5zM207 731q0 119 46 224.5t126 184.5t185.5 124t226.5 45q119 0 225 -45t185 -124t125 -184.5t46 -224.5 q0 -121 -46 -227.5t-125 -185t-185 -125t-225 -46.5q-121 0 -226.5 46.5t-185.5 125t-126 185t-46 227.5zM330 664l112 -177q346 -80 699 0l110 177h-921zM451 1063l151 -189q4 -4 15.5 -0.5t23.5 9.5t20.5 12t8.5 8q-29 57 -47.5 118.5t-53.5 111.5q-6 8 -26.5 -0.5 t-42 -22.5t-38 -28.5t-11.5 -18.5zM463 457q20 -35 51 -74t73 -70.5t92.5 -53t111.5 -21.5q59 0 110 21.5t92 53t73 70.5t52 74q-164 -43 -326.5 -42t-328.5 42zM715 731h155l-77 187zM918 903q-4 -2 4 -8t19 -12t23.5 -9.5t18.5 0.5l147 189q4 4 -11 18.5t-36.5 28.5 t-42 22.5t-26.5 0.5q-39 -49 -55.5 -110.5t-40.5 -119.5zM1290 102v23h84v-23h-31v-77h-22v77h-31zM1384 25v100h31l19 -78l18 78h29v-100h-19v77l-20 -77h-19l-20 77v-77h-19z" />
<glyph unicode="&#xa9;" d="M68 731q0 150 56 282t154.5 230t230.5 155.5t282 57.5t281.5 -57.5t230 -155.5t156 -230t57.5 -282t-57.5 -282t-156 -230t-230 -155.5t-281.5 -57.5t-282 57.5t-230.5 155.5t-154.5 230.5t-56 281.5zM164 731q0 -129 49 -242.5t135 -199.5t200 -135.5t243 -49.5 q131 0 244.5 49.5t197.5 135.5t133 199.5t49 242.5t-49 242.5t-133 198.5t-197.5 134.5t-244.5 49.5q-129 0 -243 -49.5t-200 -134.5t-135 -198.5t-49 -242.5zM207 731q0 119 46 224.5t126 184.5t185.5 124t226.5 45q119 0 225 -45t185 -124t125 -184.5t46 -224.5 q0 -121 -46 -227.5t-125 -185t-185 -125t-225 -46.5q-121 0 -226.5 46.5t-185.5 125t-126 185t-46 227.5zM330 664l112 -177q346 -80 699 0l110 177h-921zM451 1063l151 -189q4 -4 15.5 -0.5t23.5 9.5t20.5 12t8.5 8q-29 57 -47.5 118.5t-53.5 111.5q-6 8 -26.5 -0.5 t-42 -22.5t-38 -28.5t-11.5 -18.5zM463 457q20 -35 51 -74t73 -70.5t92.5 -53t111.5 -21.5q59 0 110 21.5t92 53t73 70.5t52 74q-164 -43 -326.5 -42t-328.5 42zM715 731h155l-77 187zM918 903q-4 -2 4 -8t19 -12t23.5 -9.5t18.5 0.5l147 189q4 4 -11 18.5t-36.5 28.5 t-42 22.5t-26.5 0.5q-39 -49 -55.5 -110.5t-40.5 -119.5zM1290 102v23h84v-23h-31v-77h-22v77h-31zM1384 25v100h31l19 -78l18 78h29v-100h-19v77l-20 -77h-19l-20 77v-77h-19z" />
<glyph unicode="&#xaa;" d="M68 731q0 150 56 282t154.5 230t230.5 155.5t282 57.5t281.5 -57.5t230 -155.5t156 -230t57.5 -282t-57.5 -282t-156 -230t-230 -155.5t-281.5 -57.5t-282 57.5t-230.5 155.5t-154.5 230.5t-56 281.5zM164 731q0 -129 49 -242.5t135 -199.5t200 -135.5t243 -49.5 q131 0 244.5 49.5t197.5 135.5t133 199.5t49 242.5t-49 242.5t-133 198.5t-197.5 134.5t-244.5 49.5q-129 0 -243 -49.5t-200 -134.5t-135 -198.5t-49 -242.5zM207 731q0 119 46 224.5t126 184.5t185.5 124t226.5 45q119 0 225 -45t185 -124t125 -184.5t46 -224.5 q0 -121 -46 -227.5t-125 -185t-185 -125t-225 -46.5q-121 0 -226.5 46.5t-185.5 125t-126 185t-46 227.5zM330 664l112 -177q346 -80 699 0l110 177h-921zM451 1063l151 -189q4 -4 15.5 -0.5t23.5 9.5t20.5 12t8.5 8q-29 57 -47.5 118.5t-53.5 111.5q-6 8 -26.5 -0.5 t-42 -22.5t-38 -28.5t-11.5 -18.5zM463 457q20 -35 51 -74t73 -70.5t92.5 -53t111.5 -21.5q59 0 110 21.5t92 53t73 70.5t52 74q-164 -43 -326.5 -42t-328.5 42zM715 731h155l-77 187zM918 903q-4 -2 4 -8t19 -12t23.5 -9.5t18.5 0.5l147 189q4 4 -11 18.5t-36.5 28.5 t-42 22.5t-26.5 0.5q-39 -49 -55.5 -110.5t-40.5 -119.5zM1290 102v23h84v-23h-31v-77h-22v77h-31zM1384 25v100h31l19 -78l18 78h29v-100h-19v77l-20 -77h-19l-20 77v-77h-19z" />
<glyph unicode="&#xab;" d="M68 731q0 150 56 282t154.5 230t230.5 155.5t282 57.5t281.5 -57.5t230 -155.5t156 -230t57.5 -282t-57.5 -282t-156 -230t-230 -155.5t-281.5 -57.5t-282 57.5t-230.5 155.5t-154.5 230.5t-56 281.5zM164 731q0 -129 49 -242.5t135 -199.5t200 -135.5t243 -49.5 q131 0 244.5 49.5t197.5 135.5t133 199.5t49 242.5t-49 242.5t-133 198.5t-197.5 134.5t-244.5 49.5q-129 0 -243 -49.5t-200 -134.5t-135 -198.5t-49 -242.5zM207 731q0 119 46 224.5t126 184.5t185.5 124t226.5 45q119 0 225 -45t185 -124t125 -184.5t46 -224.5 q0 -121 -46 -227.5t-125 -185t-185 -125t-225 -46.5q-121 0 -226.5 46.5t-185.5 125t-126 185t-46 227.5zM330 664l112 -177q346 -80 699 0l110 177h-921zM451 1063l151 -189q4 -4 15.5 -0.5t23.5 9.5t20.5 12t8.5 8q-29 57 -47.5 118.5t-53.5 111.5q-6 8 -26.5 -0.5 t-42 -22.5t-38 -28.5t-11.5 -18.5zM463 457q20 -35 51 -74t73 -70.5t92.5 -53t111.5 -21.5q59 0 110 21.5t92 53t73 70.5t52 74q-164 -43 -326.5 -42t-328.5 42zM715 731h155l-77 187zM918 903q-4 -2 4 -8t19 -12t23.5 -9.5t18.5 0.5l147 189q4 4 -11 18.5t-36.5 28.5 t-42 22.5t-26.5 0.5q-39 -49 -55.5 -110.5t-40.5 -119.5zM1290 102v23h84v-23h-31v-77h-22v77h-31zM1384 25v100h31l19 -78l18 78h29v-100h-19v77l-20 -77h-19l-20 77v-77h-19z" />
<glyph unicode="&#xac;" d="M68 731q0 150 56 282t154.5 230t230.5 155.5t282 57.5t281.5 -57.5t230 -155.5t156 -230t57.5 -282t-57.5 -282t-156 -230t-230 -155.5t-281.5 -57.5t-282 57.5t-230.5 155.5t-154.5 230.5t-56 281.5zM164 731q0 -129 49 -242.5t135 -199.5t200 -135.5t243 -49.5 q131 0 244.5 49.5t197.5 135.5t133 199.5t49 242.5t-49 242.5t-133 198.5t-197.5 134.5t-244.5 49.5q-129 0 -243 -49.5t-200 -134.5t-135 -198.5t-49 -242.5zM207 731q0 119 46 224.5t126 184.5t185.5 124t226.5 45q119 0 225 -45t185 -124t125 -184.5t46 -224.5 q0 -121 -46 -227.5t-125 -185t-185 -125t-225 -46.5q-121 0 -226.5 46.5t-185.5 125t-126 185t-46 227.5zM330 664l112 -177q346 -80 699 0l110 177h-921zM451 1063l151 -189q4 -4 15.5 -0.5t23.5 9.5t20.5 12t8.5 8q-29 57 -47.5 118.5t-53.5 111.5q-6 8 -26.5 -0.5 t-42 -22.5t-38 -28.5t-11.5 -18.5zM463 457q20 -35 51 -74t73 -70.5t92.5 -53t111.5 -21.5q59 0 110 21.5t92 53t73 70.5t52 74q-164 -43 -326.5 -42t-328.5 42zM715 731h155l-77 187zM918 903q-4 -2 4 -8t19 -12t23.5 -9.5t18.5 0.5l147 189q4 4 -11 18.5t-36.5 28.5 t-42 22.5t-26.5 0.5q-39 -49 -55.5 -110.5t-40.5 -119.5zM1290 102v23h84v-23h-31v-77h-22v77h-31zM1384 25v100h31l19 -78l18 78h29v-100h-19v77l-20 -77h-19l-20 77v-77h-19z" />
<glyph unicode="&#xad;" d="M68 731q0 150 56 282t154.5 230t230.5 155.5t282 57.5t281.5 -57.5t230 -155.5t156 -230t57.5 -282t-57.5 -282t-156 -230t-230 -155.5t-281.5 -57.5t-282 57.5t-230.5 155.5t-154.5 230.5t-56 281.5zM164 731q0 -129 49 -242.5t135 -199.5t200 -135.5t243 -49.5 q131 0 244.5 49.5t197.5 135.5t133 199.5t49 242.5t-49 242.5t-133 198.5t-197.5 134.5t-244.5 49.5q-129 0 -243 -49.5t-200 -134.5t-135 -198.5t-49 -242.5zM207 731q0 119 46 224.5t126 184.5t185.5 124t226.5 45q119 0 225 -45t185 -124t125 -184.5t46 -224.5 q0 -121 -46 -227.5t-125 -185t-185 -125t-225 -46.5q-121 0 -226.5 46.5t-185.5 125t-126 185t-46 227.5zM330 664l112 -177q346 -80 699 0l110 177h-921zM451 1063l151 -189q4 -4 15.5 -0.5t23.5 9.5t20.5 12t8.5 8q-29 57 -47.5 118.5t-53.5 111.5q-6 8 -26.5 -0.5 t-42 -22.5t-38 -28.5t-11.5 -18.5zM463 457q20 -35 51 -74t73 -70.5t92.5 -53t111.5 -21.5q59 0 110 21.5t92 53t73 70.5t52 74q-164 -43 -326.5 -42t-328.5 42zM715 731h155l-77 187zM918 903q-4 -2 4 -8t19 -12t23.5 -9.5t18.5 0.5l147 189q4 4 -11 18.5t-36.5 28.5 t-42 22.5t-26.5 0.5q-39 -49 -55.5 -110.5t-40.5 -119.5zM1290 102v23h84v-23h-31v-77h-22v77h-31zM1384 25v100h31l19 -78l18 78h29v-100h-19v77l-20 -77h-19l-20 77v-77h-19z" />
<glyph unicode="&#xae;" d="M68 731q0 150 56 282t154.5 230t230.5 155.5t282 57.5t281.5 -57.5t230 -155.5t156 -230t57.5 -282t-57.5 -282t-156 -230t-230 -155.5t-281.5 -57.5t-282 57.5t-230.5 155.5t-154.5 230.5t-56 281.5zM164 731q0 -129 49 -242.5t135 -199.5t200 -135.5t243 -49.5 q131 0 244.5 49.5t197.5 135.5t133 199.5t49 242.5t-49 242.5t-133 198.5t-197.5 134.5t-244.5 49.5q-129 0 -243 -49.5t-200 -134.5t-135 -198.5t-49 -242.5zM207 731q0 119 46 224.5t126 184.5t185.5 124t226.5 45q119 0 225 -45t185 -124t125 -184.5t46 -224.5 q0 -121 -46 -227.5t-125 -185t-185 -125t-225 -46.5q-121 0 -226.5 46.5t-185.5 125t-126 185t-46 227.5zM330 664l112 -177q346 -80 699 0l110 177h-921zM451 1063l151 -189q4 -4 15.5 -0.5t23.5 9.5t20.5 12t8.5 8q-29 57 -47.5 118.5t-53.5 111.5q-6 8 -26.5 -0.5 t-42 -22.5t-38 -28.5t-11.5 -18.5zM463 457q20 -35 51 -74t73 -70.5t92.5 -53t111.5 -21.5q59 0 110 21.5t92 53t73 70.5t52 74q-164 -43 -326.5 -42t-328.5 42zM715 731h155l-77 187zM918 903q-4 -2 4 -8t19 -12t23.5 -9.5t18.5 0.5l147 189q4 4 -11 18.5t-36.5 28.5 t-42 22.5t-26.5 0.5q-39 -49 -55.5 -110.5t-40.5 -119.5zM1290 102v23h84v-23h-31v-77h-22v77h-31zM1384 25v100h31l19 -78l18 78h29v-100h-19v77l-20 -77h-19l-20 77v-77h-19z" />
<glyph unicode="&#xaf;" d="M68 731q0 150 56 282t154.5 230t230.5 155.5t282 57.5t281.5 -57.5t230 -155.5t156 -230t57.5 -282t-57.5 -282t-156 -230t-230 -155.5t-281.5 -57.5t-282 57.5t-230.5 155.5t-154.5 230.5t-56 281.5zM164 731q0 -129 49 -242.5t135 -199.5t200 -135.5t243 -49.5 q131 0 244.5 49.5t197.5 135.5t133 199.5t49 242.5t-49 242.5t-133 198.5t-197.5 134.5t-244.5 49.5q-129 0 -243 -49.5t-200 -134.5t-135 -198.5t-49 -242.5zM207 731q0 119 46 224.5t126 184.5t185.5 124t226.5 45q119 0 225 -45t185 -124t125 -184.5t46 -224.5 q0 -121 -46 -227.5t-125 -185t-185 -125t-225 -46.5q-121 0 -226.5 46.5t-185.5 125t-126 185t-46 227.5zM330 664l112 -177q346 -80 699 0l110 177h-921zM451 1063l151 -189q4 -4 15.5 -0.5t23.5 9.5t20.5 12t8.5 8q-29 57 -47.5 118.5t-53.5 111.5q-6 8 -26.5 -0.5 t-42 -22.5t-38 -28.5t-11.5 -18.5zM463 457q20 -35 51 -74t73 -70.5t92.5 -53t111.5 -21.5q59 0 110 21.5t92 53t73 70.5t52 74q-164 -43 -326.5 -42t-328.5 42zM715 731h155l-77 187zM918 903q-4 -2 4 -8t19 -12t23.5 -9.5t18.5 0.5l147 189q4 4 -11 18.5t-36.5 28.5 t-42 22.5t-26.5 0.5q-39 -49 -55.5 -110.5t-40.5 -119.5zM1290 102v23h84v-23h-31v-77h-22v77h-31zM1384 25v100h31l19 -78l18 78h29v-100h-19v77l-20 -77h-19l-20 77v-77h-19z" />
<glyph unicode="&#xb0;" d="M68 731q0 150 56 282t154.5 230t230.5 155.5t282 57.5t281.5 -57.5t230 -155.5t156 -230t57.5 -282t-57.5 -282t-156 -230t-230 -155.5t-281.5 -57.5t-282 57.5t-230.5 155.5t-154.5 230.5t-56 281.5zM164 731q0 -129 49 -242.5t135 -199.5t200 -135.5t243 -49.5 q131 0 244.5 49.5t197.5 135.5t133 199.5t49 242.5t-49 242.5t-133 198.5t-197.5 134.5t-244.5 49.5q-129 0 -243 -49.5t-200 -134.5t-135 -198.5t-49 -242.5zM207 731q0 119 46 224.5t126 184.5t185.5 124t226.5 45q119 0 225 -45t185 -124t125 -184.5t46 -224.5 q0 -121 -46 -227.5t-125 -185t-185 -125t-225 -46.5q-121 0 -226.5 46.5t-185.5 125t-126 185t-46 227.5zM330 664l112 -177q346 -80 699 0l110 177h-921zM451 1063l151 -189q4 -4 15.5 -0.5t23.5 9.5t20.5 12t8.5 8q-29 57 -47.5 118.5t-53.5 111.5q-6 8 -26.5 -0.5 t-42 -22.5t-38 -28.5t-11.5 -18.5zM463 457q20 -35 51 -74t73 -70.5t92.5 -53t111.5 -21.5q59 0 110 21.5t92 53t73 70.5t52 74q-164 -43 -326.5 -42t-328.5 42zM715 731h155l-77 187zM918 903q-4 -2 4 -8t19 -12t23.5 -9.5t18.5 0.5l147 189q4 4 -11 18.5t-36.5 28.5 t-42 22.5t-26.5 0.5q-39 -49 -55.5 -110.5t-40.5 -119.5zM1290 102v23h84v-23h-31v-77h-22v77h-31zM1384 25v100h31l19 -78l18 78h29v-100h-19v77l-20 -77h-19l-20 77v-77h-19z" />
<glyph unicode="&#xb1;" d="M68 731q0 150 56 282t154.5 230t230.5 155.5t282 57.5t281.5 -57.5t230 -155.5t156 -230t57.5 -282t-57.5 -282t-156 -230t-230 -155.5t-281.5 -57.5t-282 57.5t-230.5 155.5t-154.5 230.5t-56 281.5zM164 731q0 -129 49 -242.5t135 -199.5t200 -135.5t243 -49.5 q131 0 244.5 49.5t197.5 135.5t133 199.5t49 242.5t-49 242.5t-133 198.5t-197.5 134.5t-244.5 49.5q-129 0 -243 -49.5t-200 -134.5t-135 -198.5t-49 -242.5zM207 731q0 119 46 224.5t126 184.5t185.5 124t226.5 45q119 0 225 -45t185 -124t125 -184.5t46 -224.5 q0 -121 -46 -227.5t-125 -185t-185 -125t-225 -46.5q-121 0 -226.5 46.5t-185.5 125t-126 185t-46 227.5zM330 664l112 -177q346 -80 699 0l110 177h-921zM451 1063l151 -189q4 -4 15.5 -0.5t23.5 9.5t20.5 12t8.5 8q-29 57 -47.5 118.5t-53.5 111.5q-6 8 -26.5 -0.5 t-42 -22.5t-38 -28.5t-11.5 -18.5zM463 457q20 -35 51 -74t73 -70.5t92.5 -53t111.5 -21.5q59 0 110 21.5t92 53t73 70.5t52 74q-164 -43 -326.5 -42t-328.5 42zM715 731h155l-77 187zM918 903q-4 -2 4 -8t19 -12t23.5 -9.5t18.5 0.5l147 189q4 4 -11 18.5t-36.5 28.5 t-42 22.5t-26.5 0.5q-39 -49 -55.5 -110.5t-40.5 -119.5zM1290 102v23h84v-23h-31v-77h-22v77h-31zM1384 25v100h31l19 -78l18 78h29v-100h-19v77l-20 -77h-19l-20 77v-77h-19z" />
<glyph unicode="&#xb2;" d="M68 731q0 150 56 282t154.5 230t230.5 155.5t282 57.5t281.5 -57.5t230 -155.5t156 -230t57.5 -282t-57.5 -282t-156 -230t-230 -155.5t-281.5 -57.5t-282 57.5t-230.5 155.5t-154.5 230.5t-56 281.5zM164 731q0 -129 49 -242.5t135 -199.5t200 -135.5t243 -49.5 q131 0 244.5 49.5t197.5 135.5t133 199.5t49 242.5t-49 242.5t-133 198.5t-197.5 134.5t-244.5 49.5q-129 0 -243 -49.5t-200 -134.5t-135 -198.5t-49 -242.5zM207 731q0 119 46 224.5t126 184.5t185.5 124t226.5 45q119 0 225 -45t185 -124t125 -184.5t46 -224.5 q0 -121 -46 -227.5t-125 -185t-185 -125t-225 -46.5q-121 0 -226.5 46.5t-185.5 125t-126 185t-46 227.5zM330 664l112 -177q346 -80 699 0l110 177h-921zM451 1063l151 -189q4 -4 15.5 -0.5t23.5 9.5t20.5 12t8.5 8q-29 57 -47.5 118.5t-53.5 111.5q-6 8 -26.5 -0.5 t-42 -22.5t-38 -28.5t-11.5 -18.5zM463 457q20 -35 51 -74t73 -70.5t92.5 -53t111.5 -21.5q59 0 110 21.5t92 53t73 70.5t52 74q-164 -43 -326.5 -42t-328.5 42zM715 731h155l-77 187zM918 903q-4 -2 4 -8t19 -12t23.5 -9.5t18.5 0.5l147 189q4 4 -11 18.5t-36.5 28.5 t-42 22.5t-26.5 0.5q-39 -49 -55.5 -110.5t-40.5 -119.5zM1290 102v23h84v-23h-31v-77h-22v77h-31zM1384 25v100h31l19 -78l18 78h29v-100h-19v77l-20 -77h-19l-20 77v-77h-19z" />
<glyph unicode="&#xb3;" d="M68 731q0 150 56 282t154.5 230t230.5 155.5t282 57.5t281.5 -57.5t230 -155.5t156 -230t57.5 -282t-57.5 -282t-156 -230t-230 -155.5t-281.5 -57.5t-282 57.5t-230.5 155.5t-154.5 230.5t-56 281.5zM164 731q0 -129 49 -242.5t135 -199.5t200 -135.5t243 -49.5 q131 0 244.5 49.5t197.5 135.5t133 199.5t49 242.5t-49 242.5t-133 198.5t-197.5 134.5t-244.5 49.5q-129 0 -243 -49.5t-200 -134.5t-135 -198.5t-49 -242.5zM207 731q0 119 46 224.5t126 184.5t185.5 124t226.5 45q119 0 225 -45t185 -124t125 -184.5t46 -224.5 q0 -121 -46 -227.5t-125 -185t-185 -125t-225 -46.5q-121 0 -226.5 46.5t-185.5 125t-126 185t-46 227.5zM330 664l112 -177q346 -80 699 0l110 177h-921zM451 1063l151 -189q4 -4 15.5 -0.5t23.5 9.5t20.5 12t8.5 8q-29 57 -47.5 118.5t-53.5 111.5q-6 8 -26.5 -0.5 t-42 -22.5t-38 -28.5t-11.5 -18.5zM463 457q20 -35 51 -74t73 -70.5t92.5 -53t111.5 -21.5q59 0 110 21.5t92 53t73 70.5t52 74q-164 -43 -326.5 -42t-328.5 42zM715 731h155l-77 187zM918 903q-4 -2 4 -8t19 -12t23.5 -9.5t18.5 0.5l147 189q4 4 -11 18.5t-36.5 28.5 t-42 22.5t-26.5 0.5q-39 -49 -55.5 -110.5t-40.5 -119.5zM1290 102v23h84v-23h-31v-77h-22v77h-31zM1384 25v100h31l19 -78l18 78h29v-100h-19v77l-20 -77h-19l-20 77v-77h-19z" />
<glyph unicode="&#xb4;" d="M68 731q0 150 56 282t154.5 230t230.5 155.5t282 57.5t281.5 -57.5t230 -155.5t156 -230t57.5 -282t-57.5 -282t-156 -230t-230 -155.5t-281.5 -57.5t-282 57.5t-230.5 155.5t-154.5 230.5t-56 281.5zM164 731q0 -129 49 -242.5t135 -199.5t200 -135.5t243 -49.5 q131 0 244.5 49.5t197.5 135.5t133 199.5t49 242.5t-49 242.5t-133 198.5t-197.5 134.5t-244.5 49.5q-129 0 -243 -49.5t-200 -134.5t-135 -198.5t-49 -242.5zM207 731q0 119 46 224.5t126 184.5t185.5 124t226.5 45q119 0 225 -45t185 -124t125 -184.5t46 -224.5 q0 -121 -46 -227.5t-125 -185t-185 -125t-225 -46.5q-121 0 -226.5 46.5t-185.5 125t-126 185t-46 227.5zM330 664l112 -177q346 -80 699 0l110 177h-921zM451 1063l151 -189q4 -4 15.5 -0.5t23.5 9.5t20.5 12t8.5 8q-29 57 -47.5 118.5t-53.5 111.5q-6 8 -26.5 -0.5 t-42 -22.5t-38 -28.5t-11.5 -18.5zM463 457q20 -35 51 -74t73 -70.5t92.5 -53t111.5 -21.5q59 0 110 21.5t92 53t73 70.5t52 74q-164 -43 -326.5 -42t-328.5 42zM715 731h155l-77 187zM918 903q-4 -2 4 -8t19 -12t23.5 -9.5t18.5 0.5l147 189q4 4 -11 18.5t-36.5 28.5 t-42 22.5t-26.5 0.5q-39 -49 -55.5 -110.5t-40.5 -119.5zM1290 102v23h84v-23h-31v-77h-22v77h-31zM1384 25v100h31l19 -78l18 78h29v-100h-19v77l-20 -77h-19l-20 77v-77h-19z" />
<glyph unicode="&#xb6;" d="M68 731q0 150 56 282t154.5 230t230.5 155.5t282 57.5t281.5 -57.5t230 -155.5t156 -230t57.5 -282t-57.5 -282t-156 -230t-230 -155.5t-281.5 -57.5t-282 57.5t-230.5 155.5t-154.5 230.5t-56 281.5zM164 731q0 -129 49 -242.5t135 -199.5t200 -135.5t243 -49.5 q131 0 244.5 49.5t197.5 135.5t133 199.5t49 242.5t-49 242.5t-133 198.5t-197.5 134.5t-244.5 49.5q-129 0 -243 -49.5t-200 -134.5t-135 -198.5t-49 -242.5zM207 731q0 119 46 224.5t126 184.5t185.5 124t226.5 45q119 0 225 -45t185 -124t125 -184.5t46 -224.5 q0 -121 -46 -227.5t-125 -185t-185 -125t-225 -46.5q-121 0 -226.5 46.5t-185.5 125t-126 185t-46 227.5zM330 664l112 -177q346 -80 699 0l110 177h-921zM451 1063l151 -189q4 -4 15.5 -0.5t23.5 9.5t20.5 12t8.5 8q-29 57 -47.5 118.5t-53.5 111.5q-6 8 -26.5 -0.5 t-42 -22.5t-38 -28.5t-11.5 -18.5zM463 457q20 -35 51 -74t73 -70.5t92.5 -53t111.5 -21.5q59 0 110 21.5t92 53t73 70.5t52 74q-164 -43 -326.5 -42t-328.5 42zM715 731h155l-77 187zM918 903q-4 -2 4 -8t19 -12t23.5 -9.5t18.5 0.5l147 189q4 4 -11 18.5t-36.5 28.5 t-42 22.5t-26.5 0.5q-39 -49 -55.5 -110.5t-40.5 -119.5zM1290 102v23h84v-23h-31v-77h-22v77h-31zM1384 25v100h31l19 -78l18 78h29v-100h-19v77l-20 -77h-19l-20 77v-77h-19z" />
<glyph unicode="&#xb7;" d="M68 731q0 150 56 282t154.5 230t230.5 155.5t282 57.5t281.5 -57.5t230 -155.5t156 -230t57.5 -282t-57.5 -282t-156 -230t-230 -155.5t-281.5 -57.5t-282 57.5t-230.5 155.5t-154.5 230.5t-56 281.5zM164 731q0 -129 49 -242.5t135 -199.5t200 -135.5t243 -49.5 q131 0 244.5 49.5t197.5 135.5t133 199.5t49 242.5t-49 242.5t-133 198.5t-197.5 134.5t-244.5 49.5q-129 0 -243 -49.5t-200 -134.5t-135 -198.5t-49 -242.5zM207 731q0 119 46 224.5t126 184.5t185.5 124t226.5 45q119 0 225 -45t185 -124t125 -184.5t46 -224.5 q0 -121 -46 -227.5t-125 -185t-185 -125t-225 -46.5q-121 0 -226.5 46.5t-185.5 125t-126 185t-46 227.5zM330 664l112 -177q346 -80 699 0l110 177h-921zM451 1063l151 -189q4 -4 15.5 -0.5t23.5 9.5t20.5 12t8.5 8q-29 57 -47.5 118.5t-53.5 111.5q-6 8 -26.5 -0.5 t-42 -22.5t-38 -28.5t-11.5 -18.5zM463 457q20 -35 51 -74t73 -70.5t92.5 -53t111.5 -21.5q59 0 110 21.5t92 53t73 70.5t52 74q-164 -43 -326.5 -42t-328.5 42zM715 731h155l-77 187zM918 903q-4 -2 4 -8t19 -12t23.5 -9.5t18.5 0.5l147 189q4 4 -11 18.5t-36.5 28.5 t-42 22.5t-26.5 0.5q-39 -49 -55.5 -110.5t-40.5 -119.5zM1290 102v23h84v-23h-31v-77h-22v77h-31zM1384 25v100h31l19 -78l18 78h29v-100h-19v77l-20 -77h-19l-20 77v-77h-19z" />
<glyph unicode="&#xb8;" d="M68 731q0 150 56 282t154.5 230t230.5 155.5t282 57.5t281.5 -57.5t230 -155.5t156 -230t57.5 -282t-57.5 -282t-156 -230t-230 -155.5t-281.5 -57.5t-282 57.5t-230.5 155.5t-154.5 230.5t-56 281.5zM164 731q0 -129 49 -242.5t135 -199.5t200 -135.5t243 -49.5 q131 0 244.5 49.5t197.5 135.5t133 199.5t49 242.5t-49 242.5t-133 198.5t-197.5 134.5t-244.5 49.5q-129 0 -243 -49.5t-200 -134.5t-135 -198.5t-49 -242.5zM207 731q0 119 46 224.5t126 184.5t185.5 124t226.5 45q119 0 225 -45t185 -124t125 -184.5t46 -224.5 q0 -121 -46 -227.5t-125 -185t-185 -125t-225 -46.5q-121 0 -226.5 46.5t-185.5 125t-126 185t-46 227.5zM330 664l112 -177q346 -80 699 0l110 177h-921zM451 1063l151 -189q4 -4 15.5 -0.5t23.5 9.5t20.5 12t8.5 8q-29 57 -47.5 118.5t-53.5 111.5q-6 8 -26.5 -0.5 t-42 -22.5t-38 -28.5t-11.5 -18.5zM463 457q20 -35 51 -74t73 -70.5t92.5 -53t111.5 -21.5q59 0 110 21.5t92 53t73 70.5t52 74q-164 -43 -326.5 -42t-328.5 42zM715 731h155l-77 187zM918 903q-4 -2 4 -8t19 -12t23.5 -9.5t18.5 0.5l147 189q4 4 -11 18.5t-36.5 28.5 t-42 22.5t-26.5 0.5q-39 -49 -55.5 -110.5t-40.5 -119.5zM1290 102v23h84v-23h-31v-77h-22v77h-31zM1384 25v100h31l19 -78l18 78h29v-100h-19v77l-20 -77h-19l-20 77v-77h-19z" />
<glyph unicode="&#xb9;" d="M68 731q0 150 56 282t154.5 230t230.5 155.5t282 57.5t281.5 -57.5t230 -155.5t156 -230t57.5 -282t-57.5 -282t-156 -230t-230 -155.5t-281.5 -57.5t-282 57.5t-230.5 155.5t-154.5 230.5t-56 281.5zM164 731q0 -129 49 -242.5t135 -199.5t200 -135.5t243 -49.5 q131 0 244.5 49.5t197.5 135.5t133 199.5t49 242.5t-49 242.5t-133 198.5t-197.5 134.5t-244.5 49.5q-129 0 -243 -49.5t-200 -134.5t-135 -198.5t-49 -242.5zM207 731q0 119 46 224.5t126 184.5t185.5 124t226.5 45q119 0 225 -45t185 -124t125 -184.5t46 -224.5 q0 -121 -46 -227.5t-125 -185t-185 -125t-225 -46.5q-121 0 -226.5 46.5t-185.5 125t-126 185t-46 227.5zM330 664l112 -177q346 -80 699 0l110 177h-921zM451 1063l151 -189q4 -4 15.5 -0.5t23.5 9.5t20.5 12t8.5 8q-29 57 -47.5 118.5t-53.5 111.5q-6 8 -26.5 -0.5 t-42 -22.5t-38 -28.5t-11.5 -18.5zM463 457q20 -35 51 -74t73 -70.5t92.5 -53t111.5 -21.5q59 0 110 21.5t92 53t73 70.5t52 74q-164 -43 -326.5 -42t-328.5 42zM715 731h155l-77 187zM918 903q-4 -2 4 -8t19 -12t23.5 -9.5t18.5 0.5l147 189q4 4 -11 18.5t-36.5 28.5 t-42 22.5t-26.5 0.5q-39 -49 -55.5 -110.5t-40.5 -119.5zM1290 102v23h84v-23h-31v-77h-22v77h-31zM1384 25v100h31l19 -78l18 78h29v-100h-19v77l-20 -77h-19l-20 77v-77h-19z" />
<glyph unicode="&#xba;" d="M68 731q0 150 56 282t154.5 230t230.5 155.5t282 57.5t281.5 -57.5t230 -155.5t156 -230t57.5 -282t-57.5 -282t-156 -230t-230 -155.5t-281.5 -57.5t-282 57.5t-230.5 155.5t-154.5 230.5t-56 281.5zM164 731q0 -129 49 -242.5t135 -199.5t200 -135.5t243 -49.5 q131 0 244.5 49.5t197.5 135.5t133 199.5t49 242.5t-49 242.5t-133 198.5t-197.5 134.5t-244.5 49.5q-129 0 -243 -49.5t-200 -134.5t-135 -198.5t-49 -242.5zM207 731q0 119 46 224.5t126 184.5t185.5 124t226.5 45q119 0 225 -45t185 -124t125 -184.5t46 -224.5 q0 -121 -46 -227.5t-125 -185t-185 -125t-225 -46.5q-121 0 -226.5 46.5t-185.5 125t-126 185t-46 227.5zM330 664l112 -177q346 -80 699 0l110 177h-921zM451 1063l151 -189q4 -4 15.5 -0.5t23.5 9.5t20.5 12t8.5 8q-29 57 -47.5 118.5t-53.5 111.5q-6 8 -26.5 -0.5 t-42 -22.5t-38 -28.5t-11.5 -18.5zM463 457q20 -35 51 -74t73 -70.5t92.5 -53t111.5 -21.5q59 0 110 21.5t92 53t73 70.5t52 74q-164 -43 -326.5 -42t-328.5 42zM715 731h155l-77 187zM918 903q-4 -2 4 -8t19 -12t23.5 -9.5t18.5 0.5l147 189q4 4 -11 18.5t-36.5 28.5 t-42 22.5t-26.5 0.5q-39 -49 -55.5 -110.5t-40.5 -119.5zM1290 102v23h84v-23h-31v-77h-22v77h-31zM1384 25v100h31l19 -78l18 78h29v-100h-19v77l-20 -77h-19l-20 77v-77h-19z" />
<glyph unicode="&#xbb;" d="M68 731q0 150 56 282t154.5 230t230.5 155.5t282 57.5t281.5 -57.5t230 -155.5t156 -230t57.5 -282t-57.5 -282t-156 -230t-230 -155.5t-281.5 -57.5t-282 57.5t-230.5 155.5t-154.5 230.5t-56 281.5zM164 731q0 -129 49 -242.5t135 -199.5t200 -135.5t243 -49.5 q131 0 244.5 49.5t197.5 135.5t133 199.5t49 242.5t-49 242.5t-133 198.5t-197.5 134.5t-244.5 49.5q-129 0 -243 -49.5t-200 -134.5t-135 -198.5t-49 -242.5zM207 731q0 119 46 224.5t126 184.5t185.5 124t226.5 45q119 0 225 -45t185 -124t125 -184.5t46 -224.5 q0 -121 -46 -227.5t-125 -185t-185 -125t-225 -46.5q-121 0 -226.5 46.5t-185.5 125t-126 185t-46 227.5zM330 664l112 -177q346 -80 699 0l110 177h-921zM451 1063l151 -189q4 -4 15.5 -0.5t23.5 9.5t20.5 12t8.5 8q-29 57 -47.5 118.5t-53.5 111.5q-6 8 -26.5 -0.5 t-42 -22.5t-38 -28.5t-11.5 -18.5zM463 457q20 -35 51 -74t73 -70.5t92.5 -53t111.5 -21.5q59 0 110 21.5t92 53t73 70.5t52 74q-164 -43 -326.5 -42t-328.5 42zM715 731h155l-77 187zM918 903q-4 -2 4 -8t19 -12t23.5 -9.5t18.5 0.5l147 189q4 4 -11 18.5t-36.5 28.5 t-42 22.5t-26.5 0.5q-39 -49 -55.5 -110.5t-40.5 -119.5zM1290 102v23h84v-23h-31v-77h-22v77h-31zM1384 25v100h31l19 -78l18 78h29v-100h-19v77l-20 -77h-19l-20 77v-77h-19z" />
<glyph unicode="&#xbc;" d="M68 731q0 150 56 282t154.5 230t230.5 155.5t282 57.5t281.5 -57.5t230 -155.5t156 -230t57.5 -282t-57.5 -282t-156 -230t-230 -155.5t-281.5 -57.5t-282 57.5t-230.5 155.5t-154.5 230.5t-56 281.5zM164 731q0 -129 49 -242.5t135 -199.5t200 -135.5t243 -49.5 q131 0 244.5 49.5t197.5 135.5t133 199.5t49 242.5t-49 242.5t-133 198.5t-197.5 134.5t-244.5 49.5q-129 0 -243 -49.5t-200 -134.5t-135 -198.5t-49 -242.5zM207 731q0 119 46 224.5t126 184.5t185.5 124t226.5 45q119 0 225 -45t185 -124t125 -184.5t46 -224.5 q0 -121 -46 -227.5t-125 -185t-185 -125t-225 -46.5q-121 0 -226.5 46.5t-185.5 125t-126 185t-46 227.5zM330 664l112 -177q346 -80 699 0l110 177h-921zM451 1063l151 -189q4 -4 15.5 -0.5t23.5 9.5t20.5 12t8.5 8q-29 57 -47.5 118.5t-53.5 111.5q-6 8 -26.5 -0.5 t-42 -22.5t-38 -28.5t-11.5 -18.5zM463 457q20 -35 51 -74t73 -70.5t92.5 -53t111.5 -21.5q59 0 110 21.5t92 53t73 70.5t52 74q-164 -43 -326.5 -42t-328.5 42zM715 731h155l-77 187zM918 903q-4 -2 4 -8t19 -12t23.5 -9.5t18.5 0.5l147 189q4 4 -11 18.5t-36.5 28.5 t-42 22.5t-26.5 0.5q-39 -49 -55.5 -110.5t-40.5 -119.5zM1290 102v23h84v-23h-31v-77h-22v77h-31zM1384 25v100h31l19 -78l18 78h29v-100h-19v77l-20 -77h-19l-20 77v-77h-19z" />
<glyph unicode="&#xbd;" d="M68 731q0 150 56 282t154.5 230t230.5 155.5t282 57.5t281.5 -57.5t230 -155.5t156 -230t57.5 -282t-57.5 -282t-156 -230t-230 -155.5t-281.5 -57.5t-282 57.5t-230.5 155.5t-154.5 230.5t-56 281.5zM164 731q0 -129 49 -242.5t135 -199.5t200 -135.5t243 -49.5 q131 0 244.5 49.5t197.5 135.5t133 199.5t49 242.5t-49 242.5t-133 198.5t-197.5 134.5t-244.5 49.5q-129 0 -243 -49.5t-200 -134.5t-135 -198.5t-49 -242.5zM207 731q0 119 46 224.5t126 184.5t185.5 124t226.5 45q119 0 225 -45t185 -124t125 -184.5t46 -224.5 q0 -121 -46 -227.5t-125 -185t-185 -125t-225 -46.5q-121 0 -226.5 46.5t-185.5 125t-126 185t-46 227.5zM330 664l112 -177q346 -80 699 0l110 177h-921zM451 1063l151 -189q4 -4 15.5 -0.5t23.5 9.5t20.5 12t8.5 8q-29 57 -47.5 118.5t-53.5 111.5q-6 8 -26.5 -0.5 t-42 -22.5t-38 -28.5t-11.5 -18.5zM463 457q20 -35 51 -74t73 -70.5t92.5 -53t111.5 -21.5q59 0 110 21.5t92 53t73 70.5t52 74q-164 -43 -326.5 -42t-328.5 42zM715 731h155l-77 187zM918 903q-4 -2 4 -8t19 -12t23.5 -9.5t18.5 0.5l147 189q4 4 -11 18.5t-36.5 28.5 t-42 22.5t-26.5 0.5q-39 -49 -55.5 -110.5t-40.5 -119.5zM1290 102v23h84v-23h-31v-77h-22v77h-31zM1384 25v100h31l19 -78l18 78h29v-100h-19v77l-20 -77h-19l-20 77v-77h-19z" />
<glyph unicode="&#xbe;" d="M68 731q0 150 56 282t154.5 230t230.5 155.5t282 57.5t281.5 -57.5t230 -155.5t156 -230t57.5 -282t-57.5 -282t-156 -230t-230 -155.5t-281.5 -57.5t-282 57.5t-230.5 155.5t-154.5 230.5t-56 281.5zM164 731q0 -129 49 -242.5t135 -199.5t200 -135.5t243 -49.5 q131 0 244.5 49.5t197.5 135.5t133 199.5t49 242.5t-49 242.5t-133 198.5t-197.5 134.5t-244.5 49.5q-129 0 -243 -49.5t-200 -134.5t-135 -198.5t-49 -242.5zM207 731q0 119 46 224.5t126 184.5t185.5 124t226.5 45q119 0 225 -45t185 -124t125 -184.5t46 -224.5 q0 -121 -46 -227.5t-125 -185t-185 -125t-225 -46.5q-121 0 -226.5 46.5t-185.5 125t-126 185t-46 227.5zM330 664l112 -177q346 -80 699 0l110 177h-921zM451 1063l151 -189q4 -4 15.5 -0.5t23.5 9.5t20.5 12t8.5 8q-29 57 -47.5 118.5t-53.5 111.5q-6 8 -26.5 -0.5 t-42 -22.5t-38 -28.5t-11.5 -18.5zM463 457q20 -35 51 -74t73 -70.5t92.5 -53t111.5 -21.5q59 0 110 21.5t92 53t73 70.5t52 74q-164 -43 -326.5 -42t-328.5 42zM715 731h155l-77 187zM918 903q-4 -2 4 -8t19 -12t23.5 -9.5t18.5 0.5l147 189q4 4 -11 18.5t-36.5 28.5 t-42 22.5t-26.5 0.5q-39 -49 -55.5 -110.5t-40.5 -119.5zM1290 102v23h84v-23h-31v-77h-22v77h-31zM1384 25v100h31l19 -78l18 78h29v-100h-19v77l-20 -77h-19l-20 77v-77h-19z" />
<glyph unicode="&#xbf;" d="M68 731q0 150 56 282t154.5 230t230.5 155.5t282 57.5t281.5 -57.5t230 -155.5t156 -230t57.5 -282t-57.5 -282t-156 -230t-230 -155.5t-281.5 -57.5t-282 57.5t-230.5 155.5t-154.5 230.5t-56 281.5zM164 731q0 -129 49 -242.5t135 -199.5t200 -135.5t243 -49.5 q131 0 244.5 49.5t197.5 135.5t133 199.5t49 242.5t-49 242.5t-133 198.5t-197.5 134.5t-244.5 49.5q-129 0 -243 -49.5t-200 -134.5t-135 -198.5t-49 -242.5zM207 731q0 119 46 224.5t126 184.5t185.5 124t226.5 45q119 0 225 -45t185 -124t125 -184.5t46 -224.5 q0 -121 -46 -227.5t-125 -185t-185 -125t-225 -46.5q-121 0 -226.5 46.5t-185.5 125t-126 185t-46 227.5zM330 664l112 -177q346 -80 699 0l110 177h-921zM451 1063l151 -189q4 -4 15.5 -0.5t23.5 9.5t20.5 12t8.5 8q-29 57 -47.5 118.5t-53.5 111.5q-6 8 -26.5 -0.5 t-42 -22.5t-38 -28.5t-11.5 -18.5zM463 457q20 -35 51 -74t73 -70.5t92.5 -53t111.5 -21.5q59 0 110 21.5t92 53t73 70.5t52 74q-164 -43 -326.5 -42t-328.5 42zM715 731h155l-77 187zM918 903q-4 -2 4 -8t19 -12t23.5 -9.5t18.5 0.5l147 189q4 4 -11 18.5t-36.5 28.5 t-42 22.5t-26.5 0.5q-39 -49 -55.5 -110.5t-40.5 -119.5zM1290 102v23h84v-23h-31v-77h-22v77h-31zM1384 25v100h31l19 -78l18 78h29v-100h-19v77l-20 -77h-19l-20 77v-77h-19z" />
<glyph unicode="&#xc0;" d="M68 731q0 150 56 282t154.5 230t230.5 155.5t282 57.5t281.5 -57.5t230 -155.5t156 -230t57.5 -282t-57.5 -282t-156 -230t-230 -155.5t-281.5 -57.5t-282 57.5t-230.5 155.5t-154.5 230.5t-56 281.5zM164 731q0 -129 49 -242.5t135 -199.5t200 -135.5t243 -49.5 q131 0 244.5 49.5t197.5 135.5t133 199.5t49 242.5t-49 242.5t-133 198.5t-197.5 134.5t-244.5 49.5q-129 0 -243 -49.5t-200 -134.5t-135 -198.5t-49 -242.5zM207 731q0 119 46 224.5t126 184.5t185.5 124t226.5 45q119 0 225 -45t185 -124t125 -184.5t46 -224.5 q0 -121 -46 -227.5t-125 -185t-185 -125t-225 -46.5q-121 0 -226.5 46.5t-185.5 125t-126 185t-46 227.5zM330 664l112 -177q346 -80 699 0l110 177h-921zM451 1063l151 -189q4 -4 15.5 -0.5t23.5 9.5t20.5 12t8.5 8q-29 57 -47.5 118.5t-53.5 111.5q-6 8 -26.5 -0.5 t-42 -22.5t-38 -28.5t-11.5 -18.5zM463 457q20 -35 51 -74t73 -70.5t92.5 -53t111.5 -21.5q59 0 110 21.5t92 53t73 70.5t52 74q-164 -43 -326.5 -42t-328.5 42zM715 731h155l-77 187zM918 903q-4 -2 4 -8t19 -12t23.5 -9.5t18.5 0.5l147 189q4 4 -11 18.5t-36.5 28.5 t-42 22.5t-26.5 0.5q-39 -49 -55.5 -110.5t-40.5 -119.5zM1290 102v23h84v-23h-31v-77h-22v77h-31zM1384 25v100h31l19 -78l18 78h29v-100h-19v77l-20 -77h-19l-20 77v-77h-19z" />
<glyph unicode="&#xc1;" d="M68 731q0 150 56 282t154.5 230t230.5 155.5t282 57.5t281.5 -57.5t230 -155.5t156 -230t57.5 -282t-57.5 -282t-156 -230t-230 -155.5t-281.5 -57.5t-282 57.5t-230.5 155.5t-154.5 230.5t-56 281.5zM164 731q0 -129 49 -242.5t135 -199.5t200 -135.5t243 -49.5 q131 0 244.5 49.5t197.5 135.5t133 199.5t49 242.5t-49 242.5t-133 198.5t-197.5 134.5t-244.5 49.5q-129 0 -243 -49.5t-200 -134.5t-135 -198.5t-49 -242.5zM207 731q0 119 46 224.5t126 184.5t185.5 124t226.5 45q119 0 225 -45t185 -124t125 -184.5t46 -224.5 q0 -121 -46 -227.5t-125 -185t-185 -125t-225 -46.5q-121 0 -226.5 46.5t-185.5 125t-126 185t-46 227.5zM330 664l112 -177q346 -80 699 0l110 177h-921zM451 1063l151 -189q4 -4 15.5 -0.5t23.5 9.5t20.5 12t8.5 8q-29 57 -47.5 118.5t-53.5 111.5q-6 8 -26.5 -0.5 t-42 -22.5t-38 -28.5t-11.5 -18.5zM463 457q20 -35 51 -74t73 -70.5t92.5 -53t111.5 -21.5q59 0 110 21.5t92 53t73 70.5t52 74q-164 -43 -326.5 -42t-328.5 42zM715 731h155l-77 187zM918 903q-4 -2 4 -8t19 -12t23.5 -9.5t18.5 0.5l147 189q4 4 -11 18.5t-36.5 28.5 t-42 22.5t-26.5 0.5q-39 -49 -55.5 -110.5t-40.5 -119.5zM1290 102v23h84v-23h-31v-77h-22v77h-31zM1384 25v100h31l19 -78l18 78h29v-100h-19v77l-20 -77h-19l-20 77v-77h-19z" />
<glyph unicode="&#xc2;" d="M68 731q0 150 56 282t154.5 230t230.5 155.5t282 57.5t281.5 -57.5t230 -155.5t156 -230t57.5 -282t-57.5 -282t-156 -230t-230 -155.5t-281.5 -57.5t-282 57.5t-230.5 155.5t-154.5 230.5t-56 281.5zM164 731q0 -129 49 -242.5t135 -199.5t200 -135.5t243 -49.5 q131 0 244.5 49.5t197.5 135.5t133 199.5t49 242.5t-49 242.5t-133 198.5t-197.5 134.5t-244.5 49.5q-129 0 -243 -49.5t-200 -134.5t-135 -198.5t-49 -242.5zM207 731q0 119 46 224.5t126 184.5t185.5 124t226.5 45q119 0 225 -45t185 -124t125 -184.5t46 -224.5 q0 -121 -46 -227.5t-125 -185t-185 -125t-225 -46.5q-121 0 -226.5 46.5t-185.5 125t-126 185t-46 227.5zM330 664l112 -177q346 -80 699 0l110 177h-921zM451 1063l151 -189q4 -4 15.5 -0.5t23.5 9.5t20.5 12t8.5 8q-29 57 -47.5 118.5t-53.5 111.5q-6 8 -26.5 -0.5 t-42 -22.5t-38 -28.5t-11.5 -18.5zM463 457q20 -35 51 -74t73 -70.5t92.5 -53t111.5 -21.5q59 0 110 21.5t92 53t73 70.5t52 74q-164 -43 -326.5 -42t-328.5 42zM715 731h155l-77 187zM918 903q-4 -2 4 -8t19 -12t23.5 -9.5t18.5 0.5l147 189q4 4 -11 18.5t-36.5 28.5 t-42 22.5t-26.5 0.5q-39 -49 -55.5 -110.5t-40.5 -119.5zM1290 102v23h84v-23h-31v-77h-22v77h-31zM1384 25v100h31l19 -78l18 78h29v-100h-19v77l-20 -77h-19l-20 77v-77h-19z" />
<glyph unicode="&#xc3;" d="M68 731q0 150 56 282t154.5 230t230.5 155.5t282 57.5t281.5 -57.5t230 -155.5t156 -230t57.5 -282t-57.5 -282t-156 -230t-230 -155.5t-281.5 -57.5t-282 57.5t-230.5 155.5t-154.5 230.5t-56 281.5zM164 731q0 -129 49 -242.5t135 -199.5t200 -135.5t243 -49.5 q131 0 244.5 49.5t197.5 135.5t133 199.5t49 242.5t-49 242.5t-133 198.5t-197.5 134.5t-244.5 49.5q-129 0 -243 -49.5t-200 -134.5t-135 -198.5t-49 -242.5zM207 731q0 119 46 224.5t126 184.5t185.5 124t226.5 45q119 0 225 -45t185 -124t125 -184.5t46 -224.5 q0 -121 -46 -227.5t-125 -185t-185 -125t-225 -46.5q-121 0 -226.5 46.5t-185.5 125t-126 185t-46 227.5zM330 664l112 -177q346 -80 699 0l110 177h-921zM451 1063l151 -189q4 -4 15.5 -0.5t23.5 9.5t20.5 12t8.5 8q-29 57 -47.5 118.5t-53.5 111.5q-6 8 -26.5 -0.5 t-42 -22.5t-38 -28.5t-11.5 -18.5zM463 457q20 -35 51 -74t73 -70.5t92.5 -53t111.5 -21.5q59 0 110 21.5t92 53t73 70.5t52 74q-164 -43 -326.5 -42t-328.5 42zM715 731h155l-77 187zM918 903q-4 -2 4 -8t19 -12t23.5 -9.5t18.5 0.5l147 189q4 4 -11 18.5t-36.5 28.5 t-42 22.5t-26.5 0.5q-39 -49 -55.5 -110.5t-40.5 -119.5zM1290 102v23h84v-23h-31v-77h-22v77h-31zM1384 25v100h31l19 -78l18 78h29v-100h-19v77l-20 -77h-19l-20 77v-77h-19z" />
<glyph unicode="&#xc4;" d="M68 731q0 150 56 282t154.5 230t230.5 155.5t282 57.5t281.5 -57.5t230 -155.5t156 -230t57.5 -282t-57.5 -282t-156 -230t-230 -155.5t-281.5 -57.5t-282 57.5t-230.5 155.5t-154.5 230.5t-56 281.5zM164 731q0 -129 49 -242.5t135 -199.5t200 -135.5t243 -49.5 q131 0 244.5 49.5t197.5 135.5t133 199.5t49 242.5t-49 242.5t-133 198.5t-197.5 134.5t-244.5 49.5q-129 0 -243 -49.5t-200 -134.5t-135 -198.5t-49 -242.5zM207 731q0 119 46 224.5t126 184.5t185.5 124t226.5 45q119 0 225 -45t185 -124t125 -184.5t46 -224.5 q0 -121 -46 -227.5t-125 -185t-185 -125t-225 -46.5q-121 0 -226.5 46.5t-185.5 125t-126 185t-46 227.5zM330 664l112 -177q346 -80 699 0l110 177h-921zM451 1063l151 -189q4 -4 15.5 -0.5t23.5 9.5t20.5 12t8.5 8q-29 57 -47.5 118.5t-53.5 111.5q-6 8 -26.5 -0.5 t-42 -22.5t-38 -28.5t-11.5 -18.5zM463 457q20 -35 51 -74t73 -70.5t92.5 -53t111.5 -21.5q59 0 110 21.5t92 53t73 70.5t52 74q-164 -43 -326.5 -42t-328.5 42zM715 731h155l-77 187zM918 903q-4 -2 4 -8t19 -12t23.5 -9.5t18.5 0.5l147 189q4 4 -11 18.5t-36.5 28.5 t-42 22.5t-26.5 0.5q-39 -49 -55.5 -110.5t-40.5 -119.5zM1290 102v23h84v-23h-31v-77h-22v77h-31zM1384 25v100h31l19 -78l18 78h29v-100h-19v77l-20 -77h-19l-20 77v-77h-19z" />
<glyph unicode="&#xc5;" d="M68 731q0 150 56 282t154.5 230t230.5 155.5t282 57.5t281.5 -57.5t230 -155.5t156 -230t57.5 -282t-57.5 -282t-156 -230t-230 -155.5t-281.5 -57.5t-282 57.5t-230.5 155.5t-154.5 230.5t-56 281.5zM164 731q0 -129 49 -242.5t135 -199.5t200 -135.5t243 -49.5 q131 0 244.5 49.5t197.5 135.5t133 199.5t49 242.5t-49 242.5t-133 198.5t-197.5 134.5t-244.5 49.5q-129 0 -243 -49.5t-200 -134.5t-135 -198.5t-49 -242.5zM207 731q0 119 46 224.5t126 184.5t185.5 124t226.5 45q119 0 225 -45t185 -124t125 -184.5t46 -224.5 q0 -121 -46 -227.5t-125 -185t-185 -125t-225 -46.5q-121 0 -226.5 46.5t-185.5 125t-126 185t-46 227.5zM330 664l112 -177q346 -80 699 0l110 177h-921zM451 1063l151 -189q4 -4 15.5 -0.5t23.5 9.5t20.5 12t8.5 8q-29 57 -47.5 118.5t-53.5 111.5q-6 8 -26.5 -0.5 t-42 -22.5t-38 -28.5t-11.5 -18.5zM463 457q20 -35 51 -74t73 -70.5t92.5 -53t111.5 -21.5q59 0 110 21.5t92 53t73 70.5t52 74q-164 -43 -326.5 -42t-328.5 42zM715 731h155l-77 187zM918 903q-4 -2 4 -8t19 -12t23.5 -9.5t18.5 0.5l147 189q4 4 -11 18.5t-36.5 28.5 t-42 22.5t-26.5 0.5q-39 -49 -55.5 -110.5t-40.5 -119.5zM1290 102v23h84v-23h-31v-77h-22v77h-31zM1384 25v100h31l19 -78l18 78h29v-100h-19v77l-20 -77h-19l-20 77v-77h-19z" />
<glyph unicode="&#xc6;" d="M68 731q0 150 56 282t154.5 230t230.5 155.5t282 57.5t281.5 -57.5t230 -155.5t156 -230t57.5 -282t-57.5 -282t-156 -230t-230 -155.5t-281.5 -57.5t-282 57.5t-230.5 155.5t-154.5 230.5t-56 281.5zM164 731q0 -129 49 -242.5t135 -199.5t200 -135.5t243 -49.5 q131 0 244.5 49.5t197.5 135.5t133 199.5t49 242.5t-49 242.5t-133 198.5t-197.5 134.5t-244.5 49.5q-129 0 -243 -49.5t-200 -134.5t-135 -198.5t-49 -242.5zM207 731q0 119 46 224.5t126 184.5t185.5 124t226.5 45q119 0 225 -45t185 -124t125 -184.5t46 -224.5 q0 -121 -46 -227.5t-125 -185t-185 -125t-225 -46.5q-121 0 -226.5 46.5t-185.5 125t-126 185t-46 227.5zM330 664l112 -177q346 -80 699 0l110 177h-921zM451 1063l151 -189q4 -4 15.5 -0.5t23.5 9.5t20.5 12t8.5 8q-29 57 -47.5 118.5t-53.5 111.5q-6 8 -26.5 -0.5 t-42 -22.5t-38 -28.5t-11.5 -18.5zM463 457q20 -35 51 -74t73 -70.5t92.5 -53t111.5 -21.5q59 0 110 21.5t92 53t73 70.5t52 74q-164 -43 -326.5 -42t-328.5 42zM715 731h155l-77 187zM918 903q-4 -2 4 -8t19 -12t23.5 -9.5t18.5 0.5l147 189q4 4 -11 18.5t-36.5 28.5 t-42 22.5t-26.5 0.5q-39 -49 -55.5 -110.5t-40.5 -119.5zM1290 102v23h84v-23h-31v-77h-22v77h-31zM1384 25v100h31l19 -78l18 78h29v-100h-19v77l-20 -77h-19l-20 77v-77h-19z" />
<glyph unicode="&#xc7;" d="M68 731q0 150 56 282t154.5 230t230.5 155.5t282 57.5t281.5 -57.5t230 -155.5t156 -230t57.5 -282t-57.5 -282t-156 -230t-230 -155.5t-281.5 -57.5t-282 57.5t-230.5 155.5t-154.5 230.5t-56 281.5zM164 731q0 -129 49 -242.5t135 -199.5t200 -135.5t243 -49.5 q131 0 244.5 49.5t197.5 135.5t133 199.5t49 242.5t-49 242.5t-133 198.5t-197.5 134.5t-244.5 49.5q-129 0 -243 -49.5t-200 -134.5t-135 -198.5t-49 -242.5zM207 731q0 119 46 224.5t126 184.5t185.5 124t226.5 45q119 0 225 -45t185 -124t125 -184.5t46 -224.5 q0 -121 -46 -227.5t-125 -185t-185 -125t-225 -46.5q-121 0 -226.5 46.5t-185.5 125t-126 185t-46 227.5zM330 664l112 -177q346 -80 699 0l110 177h-921zM451 1063l151 -189q4 -4 15.5 -0.5t23.5 9.5t20.5 12t8.5 8q-29 57 -47.5 118.5t-53.5 111.5q-6 8 -26.5 -0.5 t-42 -22.5t-38 -28.5t-11.5 -18.5zM463 457q20 -35 51 -74t73 -70.5t92.5 -53t111.5 -21.5q59 0 110 21.5t92 53t73 70.5t52 74q-164 -43 -326.5 -42t-328.5 42zM715 731h155l-77 187zM918 903q-4 -2 4 -8t19 -12t23.5 -9.5t18.5 0.5l147 189q4 4 -11 18.5t-36.5 28.5 t-42 22.5t-26.5 0.5q-39 -49 -55.5 -110.5t-40.5 -119.5zM1290 102v23h84v-23h-31v-77h-22v77h-31zM1384 25v100h31l19 -78l18 78h29v-100h-19v77l-20 -77h-19l-20 77v-77h-19z" />
<glyph unicode="&#xc8;" d="M68 731q0 150 56 282t154.5 230t230.5 155.5t282 57.5t281.5 -57.5t230 -155.5t156 -230t57.5 -282t-57.5 -282t-156 -230t-230 -155.5t-281.5 -57.5t-282 57.5t-230.5 155.5t-154.5 230.5t-56 281.5zM164 731q0 -129 49 -242.5t135 -199.5t200 -135.5t243 -49.5 q131 0 244.5 49.5t197.5 135.5t133 199.5t49 242.5t-49 242.5t-133 198.5t-197.5 134.5t-244.5 49.5q-129 0 -243 -49.5t-200 -134.5t-135 -198.5t-49 -242.5zM207 731q0 119 46 224.5t126 184.5t185.5 124t226.5 45q119 0 225 -45t185 -124t125 -184.5t46 -224.5 q0 -121 -46 -227.5t-125 -185t-185 -125t-225 -46.5q-121 0 -226.5 46.5t-185.5 125t-126 185t-46 227.5zM330 664l112 -177q346 -80 699 0l110 177h-921zM451 1063l151 -189q4 -4 15.5 -0.5t23.5 9.5t20.5 12t8.5 8q-29 57 -47.5 118.5t-53.5 111.5q-6 8 -26.5 -0.5 t-42 -22.5t-38 -28.5t-11.5 -18.5zM463 457q20 -35 51 -74t73 -70.5t92.5 -53t111.5 -21.5q59 0 110 21.5t92 53t73 70.5t52 74q-164 -43 -326.5 -42t-328.5 42zM715 731h155l-77 187zM918 903q-4 -2 4 -8t19 -12t23.5 -9.5t18.5 0.5l147 189q4 4 -11 18.5t-36.5 28.5 t-42 22.5t-26.5 0.5q-39 -49 -55.5 -110.5t-40.5 -119.5zM1290 102v23h84v-23h-31v-77h-22v77h-31zM1384 25v100h31l19 -78l18 78h29v-100h-19v77l-20 -77h-19l-20 77v-77h-19z" />
<glyph unicode="&#xc9;" d="M68 731q0 150 56 282t154.5 230t230.5 155.5t282 57.5t281.5 -57.5t230 -155.5t156 -230t57.5 -282t-57.5 -282t-156 -230t-230 -155.5t-281.5 -57.5t-282 57.5t-230.5 155.5t-154.5 230.5t-56 281.5zM164 731q0 -129 49 -242.5t135 -199.5t200 -135.5t243 -49.5 q131 0 244.5 49.5t197.5 135.5t133 199.5t49 242.5t-49 242.5t-133 198.5t-197.5 134.5t-244.5 49.5q-129 0 -243 -49.5t-200 -134.5t-135 -198.5t-49 -242.5zM207 731q0 119 46 224.5t126 184.5t185.5 124t226.5 45q119 0 225 -45t185 -124t125 -184.5t46 -224.5 q0 -121 -46 -227.5t-125 -185t-185 -125t-225 -46.5q-121 0 -226.5 46.5t-185.5 125t-126 185t-46 227.5zM330 664l112 -177q346 -80 699 0l110 177h-921zM451 1063l151 -189q4 -4 15.5 -0.5t23.5 9.5t20.5 12t8.5 8q-29 57 -47.5 118.5t-53.5 111.5q-6 8 -26.5 -0.5 t-42 -22.5t-38 -28.5t-11.5 -18.5zM463 457q20 -35 51 -74t73 -70.5t92.5 -53t111.5 -21.5q59 0 110 21.5t92 53t73 70.5t52 74q-164 -43 -326.5 -42t-328.5 42zM715 731h155l-77 187zM918 903q-4 -2 4 -8t19 -12t23.5 -9.5t18.5 0.5l147 189q4 4 -11 18.5t-36.5 28.5 t-42 22.5t-26.5 0.5q-39 -49 -55.5 -110.5t-40.5 -119.5zM1290 102v23h84v-23h-31v-77h-22v77h-31zM1384 25v100h31l19 -78l18 78h29v-100h-19v77l-20 -77h-19l-20 77v-77h-19z" />
<glyph unicode="&#xca;" d="M68 731q0 150 56 282t154.5 230t230.5 155.5t282 57.5t281.5 -57.5t230 -155.5t156 -230t57.5 -282t-57.5 -282t-156 -230t-230 -155.5t-281.5 -57.5t-282 57.5t-230.5 155.5t-154.5 230.5t-56 281.5zM164 731q0 -129 49 -242.5t135 -199.5t200 -135.5t243 -49.5 q131 0 244.5 49.5t197.5 135.5t133 199.5t49 242.5t-49 242.5t-133 198.5t-197.5 134.5t-244.5 49.5q-129 0 -243 -49.5t-200 -134.5t-135 -198.5t-49 -242.5zM207 731q0 119 46 224.5t126 184.5t185.5 124t226.5 45q119 0 225 -45t185 -124t125 -184.5t46 -224.5 q0 -121 -46 -227.5t-125 -185t-185 -125t-225 -46.5q-121 0 -226.5 46.5t-185.5 125t-126 185t-46 227.5zM330 664l112 -177q346 -80 699 0l110 177h-921zM451 1063l151 -189q4 -4 15.5 -0.5t23.5 9.5t20.5 12t8.5 8q-29 57 -47.5 118.5t-53.5 111.5q-6 8 -26.5 -0.5 t-42 -22.5t-38 -28.5t-11.5 -18.5zM463 457q20 -35 51 -74t73 -70.5t92.5 -53t111.5 -21.5q59 0 110 21.5t92 53t73 70.5t52 74q-164 -43 -326.5 -42t-328.5 42zM715 731h155l-77 187zM918 903q-4 -2 4 -8t19 -12t23.5 -9.5t18.5 0.5l147 189q4 4 -11 18.5t-36.5 28.5 t-42 22.5t-26.5 0.5q-39 -49 -55.5 -110.5t-40.5 -119.5zM1290 102v23h84v-23h-31v-77h-22v77h-31zM1384 25v100h31l19 -78l18 78h29v-100h-19v77l-20 -77h-19l-20 77v-77h-19z" />
<glyph unicode="&#xcb;" d="M68 731q0 150 56 282t154.5 230t230.5 155.5t282 57.5t281.5 -57.5t230 -155.5t156 -230t57.5 -282t-57.5 -282t-156 -230t-230 -155.5t-281.5 -57.5t-282 57.5t-230.5 155.5t-154.5 230.5t-56 281.5zM164 731q0 -129 49 -242.5t135 -199.5t200 -135.5t243 -49.5 q131 0 244.5 49.5t197.5 135.5t133 199.5t49 242.5t-49 242.5t-133 198.5t-197.5 134.5t-244.5 49.5q-129 0 -243 -49.5t-200 -134.5t-135 -198.5t-49 -242.5zM207 731q0 119 46 224.5t126 184.5t185.5 124t226.5 45q119 0 225 -45t185 -124t125 -184.5t46 -224.5 q0 -121 -46 -227.5t-125 -185t-185 -125t-225 -46.5q-121 0 -226.5 46.5t-185.5 125t-126 185t-46 227.5zM330 664l112 -177q346 -80 699 0l110 177h-921zM451 1063l151 -189q4 -4 15.5 -0.5t23.5 9.5t20.5 12t8.5 8q-29 57 -47.5 118.5t-53.5 111.5q-6 8 -26.5 -0.5 t-42 -22.5t-38 -28.5t-11.5 -18.5zM463 457q20 -35 51 -74t73 -70.5t92.5 -53t111.5 -21.5q59 0 110 21.5t92 53t73 70.5t52 74q-164 -43 -326.5 -42t-328.5 42zM715 731h155l-77 187zM918 903q-4 -2 4 -8t19 -12t23.5 -9.5t18.5 0.5l147 189q4 4 -11 18.5t-36.5 28.5 t-42 22.5t-26.5 0.5q-39 -49 -55.5 -110.5t-40.5 -119.5zM1290 102v23h84v-23h-31v-77h-22v77h-31zM1384 25v100h31l19 -78l18 78h29v-100h-19v77l-20 -77h-19l-20 77v-77h-19z" />
<glyph unicode="&#xcc;" d="M68 731q0 150 56 282t154.5 230t230.5 155.5t282 57.5t281.5 -57.5t230 -155.5t156 -230t57.5 -282t-57.5 -282t-156 -230t-230 -155.5t-281.5 -57.5t-282 57.5t-230.5 155.5t-154.5 230.5t-56 281.5zM164 731q0 -129 49 -242.5t135 -199.5t200 -135.5t243 -49.5 q131 0 244.5 49.5t197.5 135.5t133 199.5t49 242.5t-49 242.5t-133 198.5t-197.5 134.5t-244.5 49.5q-129 0 -243 -49.5t-200 -134.5t-135 -198.5t-49 -242.5zM207 731q0 119 46 224.5t126 184.5t185.5 124t226.5 45q119 0 225 -45t185 -124t125 -184.5t46 -224.5 q0 -121 -46 -227.5t-125 -185t-185 -125t-225 -46.5q-121 0 -226.5 46.5t-185.5 125t-126 185t-46 227.5zM330 664l112 -177q346 -80 699 0l110 177h-921zM451 1063l151 -189q4 -4 15.5 -0.5t23.5 9.5t20.5 12t8.5 8q-29 57 -47.5 118.5t-53.5 111.5q-6 8 -26.5 -0.5 t-42 -22.5t-38 -28.5t-11.5 -18.5zM463 457q20 -35 51 -74t73 -70.5t92.5 -53t111.5 -21.5q59 0 110 21.5t92 53t73 70.5t52 74q-164 -43 -326.5 -42t-328.5 42zM715 731h155l-77 187zM918 903q-4 -2 4 -8t19 -12t23.5 -9.5t18.5 0.5l147 189q4 4 -11 18.5t-36.5 28.5 t-42 22.5t-26.5 0.5q-39 -49 -55.5 -110.5t-40.5 -119.5zM1290 102v23h84v-23h-31v-77h-22v77h-31zM1384 25v100h31l19 -78l18 78h29v-100h-19v77l-20 -77h-19l-20 77v-77h-19z" />
<glyph unicode="&#xcd;" d="M68 731q0 150 56 282t154.5 230t230.5 155.5t282 57.5t281.5 -57.5t230 -155.5t156 -230t57.5 -282t-57.5 -282t-156 -230t-230 -155.5t-281.5 -57.5t-282 57.5t-230.5 155.5t-154.5 230.5t-56 281.5zM164 731q0 -129 49 -242.5t135 -199.5t200 -135.5t243 -49.5 q131 0 244.5 49.5t197.5 135.5t133 199.5t49 242.5t-49 242.5t-133 198.5t-197.5 134.5t-244.5 49.5q-129 0 -243 -49.5t-200 -134.5t-135 -198.5t-49 -242.5zM207 731q0 119 46 224.5t126 184.5t185.5 124t226.5 45q119 0 225 -45t185 -124t125 -184.5t46 -224.5 q0 -121 -46 -227.5t-125 -185t-185 -125t-225 -46.5q-121 0 -226.5 46.5t-185.5 125t-126 185t-46 227.5zM330 664l112 -177q346 -80 699 0l110 177h-921zM451 1063l151 -189q4 -4 15.5 -0.5t23.5 9.5t20.5 12t8.5 8q-29 57 -47.5 118.5t-53.5 111.5q-6 8 -26.5 -0.5 t-42 -22.5t-38 -28.5t-11.5 -18.5zM463 457q20 -35 51 -74t73 -70.5t92.5 -53t111.5 -21.5q59 0 110 21.5t92 53t73 70.5t52 74q-164 -43 -326.5 -42t-328.5 42zM715 731h155l-77 187zM918 903q-4 -2 4 -8t19 -12t23.5 -9.5t18.5 0.5l147 189q4 4 -11 18.5t-36.5 28.5 t-42 22.5t-26.5 0.5q-39 -49 -55.5 -110.5t-40.5 -119.5zM1290 102v23h84v-23h-31v-77h-22v77h-31zM1384 25v100h31l19 -78l18 78h29v-100h-19v77l-20 -77h-19l-20 77v-77h-19z" />
<glyph unicode="&#xce;" d="M68 731q0 150 56 282t154.5 230t230.5 155.5t282 57.5t281.5 -57.5t230 -155.5t156 -230t57.5 -282t-57.5 -282t-156 -230t-230 -155.5t-281.5 -57.5t-282 57.5t-230.5 155.5t-154.5 230.5t-56 281.5zM164 731q0 -129 49 -242.5t135 -199.5t200 -135.5t243 -49.5 q131 0 244.5 49.5t197.5 135.5t133 199.5t49 242.5t-49 242.5t-133 198.5t-197.5 134.5t-244.5 49.5q-129 0 -243 -49.5t-200 -134.5t-135 -198.5t-49 -242.5zM207 731q0 119 46 224.5t126 184.5t185.5 124t226.5 45q119 0 225 -45t185 -124t125 -184.5t46 -224.5 q0 -121 -46 -227.5t-125 -185t-185 -125t-225 -46.5q-121 0 -226.5 46.5t-185.5 125t-126 185t-46 227.5zM330 664l112 -177q346 -80 699 0l110 177h-921zM451 1063l151 -189q4 -4 15.5 -0.5t23.5 9.5t20.5 12t8.5 8q-29 57 -47.5 118.5t-53.5 111.5q-6 8 -26.5 -0.5 t-42 -22.5t-38 -28.5t-11.5 -18.5zM463 457q20 -35 51 -74t73 -70.5t92.5 -53t111.5 -21.5q59 0 110 21.5t92 53t73 70.5t52 74q-164 -43 -326.5 -42t-328.5 42zM715 731h155l-77 187zM918 903q-4 -2 4 -8t19 -12t23.5 -9.5t18.5 0.5l147 189q4 4 -11 18.5t-36.5 28.5 t-42 22.5t-26.5 0.5q-39 -49 -55.5 -110.5t-40.5 -119.5zM1290 102v23h84v-23h-31v-77h-22v77h-31zM1384 25v100h31l19 -78l18 78h29v-100h-19v77l-20 -77h-19l-20 77v-77h-19z" />
<glyph unicode="&#xcf;" d="M68 731q0 150 56 282t154.5 230t230.5 155.5t282 57.5t281.5 -57.5t230 -155.5t156 -230t57.5 -282t-57.5 -282t-156 -230t-230 -155.5t-281.5 -57.5t-282 57.5t-230.5 155.5t-154.5 230.5t-56 281.5zM164 731q0 -129 49 -242.5t135 -199.5t200 -135.5t243 -49.5 q131 0 244.5 49.5t197.5 135.5t133 199.5t49 242.5t-49 242.5t-133 198.5t-197.5 134.5t-244.5 49.5q-129 0 -243 -49.5t-200 -134.5t-135 -198.5t-49 -242.5zM207 731q0 119 46 224.5t126 184.5t185.5 124t226.5 45q119 0 225 -45t185 -124t125 -184.5t46 -224.5 q0 -121 -46 -227.5t-125 -185t-185 -125t-225 -46.5q-121 0 -226.5 46.5t-185.5 125t-126 185t-46 227.5zM330 664l112 -177q346 -80 699 0l110 177h-921zM451 1063l151 -189q4 -4 15.5 -0.5t23.5 9.5t20.5 12t8.5 8q-29 57 -47.5 118.5t-53.5 111.5q-6 8 -26.5 -0.5 t-42 -22.5t-38 -28.5t-11.5 -18.5zM463 457q20 -35 51 -74t73 -70.5t92.5 -53t111.5 -21.5q59 0 110 21.5t92 53t73 70.5t52 74q-164 -43 -326.5 -42t-328.5 42zM715 731h155l-77 187zM918 903q-4 -2 4 -8t19 -12t23.5 -9.5t18.5 0.5l147 189q4 4 -11 18.5t-36.5 28.5 t-42 22.5t-26.5 0.5q-39 -49 -55.5 -110.5t-40.5 -119.5zM1290 102v23h84v-23h-31v-77h-22v77h-31zM1384 25v100h31l19 -78l18 78h29v-100h-19v77l-20 -77h-19l-20 77v-77h-19z" />
<glyph unicode="&#xd0;" d="M68 731q0 150 56 282t154.5 230t230.5 155.5t282 57.5t281.5 -57.5t230 -155.5t156 -230t57.5 -282t-57.5 -282t-156 -230t-230 -155.5t-281.5 -57.5t-282 57.5t-230.5 155.5t-154.5 230.5t-56 281.5zM164 731q0 -129 49 -242.5t135 -199.5t200 -135.5t243 -49.5 q131 0 244.5 49.5t197.5 135.5t133 199.5t49 242.5t-49 242.5t-133 198.5t-197.5 134.5t-244.5 49.5q-129 0 -243 -49.5t-200 -134.5t-135 -198.5t-49 -242.5zM207 731q0 119 46 224.5t126 184.5t185.5 124t226.5 45q119 0 225 -45t185 -124t125 -184.5t46 -224.5 q0 -121 -46 -227.5t-125 -185t-185 -125t-225 -46.5q-121 0 -226.5 46.5t-185.5 125t-126 185t-46 227.5zM330 664l112 -177q346 -80 699 0l110 177h-921zM451 1063l151 -189q4 -4 15.5 -0.5t23.5 9.5t20.5 12t8.5 8q-29 57 -47.5 118.5t-53.5 111.5q-6 8 -26.5 -0.5 t-42 -22.5t-38 -28.5t-11.5 -18.5zM463 457q20 -35 51 -74t73 -70.5t92.5 -53t111.5 -21.5q59 0 110 21.5t92 53t73 70.5t52 74q-164 -43 -326.5 -42t-328.5 42zM715 731h155l-77 187zM918 903q-4 -2 4 -8t19 -12t23.5 -9.5t18.5 0.5l147 189q4 4 -11 18.5t-36.5 28.5 t-42 22.5t-26.5 0.5q-39 -49 -55.5 -110.5t-40.5 -119.5zM1290 102v23h84v-23h-31v-77h-22v77h-31zM1384 25v100h31l19 -78l18 78h29v-100h-19v77l-20 -77h-19l-20 77v-77h-19z" />
<glyph unicode="&#xd1;" d="M68 731q0 150 56 282t154.5 230t230.5 155.5t282 57.5t281.5 -57.5t230 -155.5t156 -230t57.5 -282t-57.5 -282t-156 -230t-230 -155.5t-281.5 -57.5t-282 57.5t-230.5 155.5t-154.5 230.5t-56 281.5zM164 731q0 -129 49 -242.5t135 -199.5t200 -135.5t243 -49.5 q131 0 244.5 49.5t197.5 135.5t133 199.5t49 242.5t-49 242.5t-133 198.5t-197.5 134.5t-244.5 49.5q-129 0 -243 -49.5t-200 -134.5t-135 -198.5t-49 -242.5zM207 731q0 119 46 224.5t126 184.5t185.5 124t226.5 45q119 0 225 -45t185 -124t125 -184.5t46 -224.5 q0 -121 -46 -227.5t-125 -185t-185 -125t-225 -46.5q-121 0 -226.5 46.5t-185.5 125t-126 185t-46 227.5zM330 664l112 -177q346 -80 699 0l110 177h-921zM451 1063l151 -189q4 -4 15.5 -0.5t23.5 9.5t20.5 12t8.5 8q-29 57 -47.5 118.5t-53.5 111.5q-6 8 -26.5 -0.5 t-42 -22.5t-38 -28.5t-11.5 -18.5zM463 457q20 -35 51 -74t73 -70.5t92.5 -53t111.5 -21.5q59 0 110 21.5t92 53t73 70.5t52 74q-164 -43 -326.5 -42t-328.5 42zM715 731h155l-77 187zM918 903q-4 -2 4 -8t19 -12t23.5 -9.5t18.5 0.5l147 189q4 4 -11 18.5t-36.5 28.5 t-42 22.5t-26.5 0.5q-39 -49 -55.5 -110.5t-40.5 -119.5zM1290 102v23h84v-23h-31v-77h-22v77h-31zM1384 25v100h31l19 -78l18 78h29v-100h-19v77l-20 -77h-19l-20 77v-77h-19z" />
<glyph unicode="&#xd2;" d="M68 731q0 150 56 282t154.5 230t230.5 155.5t282 57.5t281.5 -57.5t230 -155.5t156 -230t57.5 -282t-57.5 -282t-156 -230t-230 -155.5t-281.5 -57.5t-282 57.5t-230.5 155.5t-154.5 230.5t-56 281.5zM164 731q0 -129 49 -242.5t135 -199.5t200 -135.5t243 -49.5 q131 0 244.5 49.5t197.5 135.5t133 199.5t49 242.5t-49 242.5t-133 198.5t-197.5 134.5t-244.5 49.5q-129 0 -243 -49.5t-200 -134.5t-135 -198.5t-49 -242.5zM207 731q0 119 46 224.5t126 184.5t185.5 124t226.5 45q119 0 225 -45t185 -124t125 -184.5t46 -224.5 q0 -121 -46 -227.5t-125 -185t-185 -125t-225 -46.5q-121 0 -226.5 46.5t-185.5 125t-126 185t-46 227.5zM330 664l112 -177q346 -80 699 0l110 177h-921zM451 1063l151 -189q4 -4 15.5 -0.5t23.5 9.5t20.5 12t8.5 8q-29 57 -47.5 118.5t-53.5 111.5q-6 8 -26.5 -0.5 t-42 -22.5t-38 -28.5t-11.5 -18.5zM463 457q20 -35 51 -74t73 -70.5t92.5 -53t111.5 -21.5q59 0 110 21.5t92 53t73 70.5t52 74q-164 -43 -326.5 -42t-328.5 42zM715 731h155l-77 187zM918 903q-4 -2 4 -8t19 -12t23.5 -9.5t18.5 0.5l147 189q4 4 -11 18.5t-36.5 28.5 t-42 22.5t-26.5 0.5q-39 -49 -55.5 -110.5t-40.5 -119.5zM1290 102v23h84v-23h-31v-77h-22v77h-31zM1384 25v100h31l19 -78l18 78h29v-100h-19v77l-20 -77h-19l-20 77v-77h-19z" />
<glyph unicode="&#xd3;" d="M68 731q0 150 56 282t154.5 230t230.5 155.5t282 57.5t281.5 -57.5t230 -155.5t156 -230t57.5 -282t-57.5 -282t-156 -230t-230 -155.5t-281.5 -57.5t-282 57.5t-230.5 155.5t-154.5 230.5t-56 281.5zM164 731q0 -129 49 -242.5t135 -199.5t200 -135.5t243 -49.5 q131 0 244.5 49.5t197.5 135.5t133 199.5t49 242.5t-49 242.5t-133 198.5t-197.5 134.5t-244.5 49.5q-129 0 -243 -49.5t-200 -134.5t-135 -198.5t-49 -242.5zM207 731q0 119 46 224.5t126 184.5t185.5 124t226.5 45q119 0 225 -45t185 -124t125 -184.5t46 -224.5 q0 -121 -46 -227.5t-125 -185t-185 -125t-225 -46.5q-121 0 -226.5 46.5t-185.5 125t-126 185t-46 227.5zM330 664l112 -177q346 -80 699 0l110 177h-921zM451 1063l151 -189q4 -4 15.5 -0.5t23.5 9.5t20.5 12t8.5 8q-29 57 -47.5 118.5t-53.5 111.5q-6 8 -26.5 -0.5 t-42 -22.5t-38 -28.5t-11.5 -18.5zM463 457q20 -35 51 -74t73 -70.5t92.5 -53t111.5 -21.5q59 0 110 21.5t92 53t73 70.5t52 74q-164 -43 -326.5 -42t-328.5 42zM715 731h155l-77 187zM918 903q-4 -2 4 -8t19 -12t23.5 -9.5t18.5 0.5l147 189q4 4 -11 18.5t-36.5 28.5 t-42 22.5t-26.5 0.5q-39 -49 -55.5 -110.5t-40.5 -119.5zM1290 102v23h84v-23h-31v-77h-22v77h-31zM1384 25v100h31l19 -78l18 78h29v-100h-19v77l-20 -77h-19l-20 77v-77h-19z" />
<glyph unicode="&#xd4;" d="M68 731q0 150 56 282t154.5 230t230.5 155.5t282 57.5t281.5 -57.5t230 -155.5t156 -230t57.5 -282t-57.5 -282t-156 -230t-230 -155.5t-281.5 -57.5t-282 57.5t-230.5 155.5t-154.5 230.5t-56 281.5zM164 731q0 -129 49 -242.5t135 -199.5t200 -135.5t243 -49.5 q131 0 244.5 49.5t197.5 135.5t133 199.5t49 242.5t-49 242.5t-133 198.5t-197.5 134.5t-244.5 49.5q-129 0 -243 -49.5t-200 -134.5t-135 -198.5t-49 -242.5zM207 731q0 119 46 224.5t126 184.5t185.5 124t226.5 45q119 0 225 -45t185 -124t125 -184.5t46 -224.5 q0 -121 -46 -227.5t-125 -185t-185 -125t-225 -46.5q-121 0 -226.5 46.5t-185.5 125t-126 185t-46 227.5zM330 664l112 -177q346 -80 699 0l110 177h-921zM451 1063l151 -189q4 -4 15.5 -0.5t23.5 9.5t20.5 12t8.5 8q-29 57 -47.5 118.5t-53.5 111.5q-6 8 -26.5 -0.5 t-42 -22.5t-38 -28.5t-11.5 -18.5zM463 457q20 -35 51 -74t73 -70.5t92.5 -53t111.5 -21.5q59 0 110 21.5t92 53t73 70.5t52 74q-164 -43 -326.5 -42t-328.5 42zM715 731h155l-77 187zM918 903q-4 -2 4 -8t19 -12t23.5 -9.5t18.5 0.5l147 189q4 4 -11 18.5t-36.5 28.5 t-42 22.5t-26.5 0.5q-39 -49 -55.5 -110.5t-40.5 -119.5zM1290 102v23h84v-23h-31v-77h-22v77h-31zM1384 25v100h31l19 -78l18 78h29v-100h-19v77l-20 -77h-19l-20 77v-77h-19z" />
<glyph unicode="&#xd5;" d="M68 731q0 150 56 282t154.5 230t230.5 155.5t282 57.5t281.5 -57.5t230 -155.5t156 -230t57.5 -282t-57.5 -282t-156 -230t-230 -155.5t-281.5 -57.5t-282 57.5t-230.5 155.5t-154.5 230.5t-56 281.5zM164 731q0 -129 49 -242.5t135 -199.5t200 -135.5t243 -49.5 q131 0 244.5 49.5t197.5 135.5t133 199.5t49 242.5t-49 242.5t-133 198.5t-197.5 134.5t-244.5 49.5q-129 0 -243 -49.5t-200 -134.5t-135 -198.5t-49 -242.5zM207 731q0 119 46 224.5t126 184.5t185.5 124t226.5 45q119 0 225 -45t185 -124t125 -184.5t46 -224.5 q0 -121 -46 -227.5t-125 -185t-185 -125t-225 -46.5q-121 0 -226.5 46.5t-185.5 125t-126 185t-46 227.5zM330 664l112 -177q346 -80 699 0l110 177h-921zM451 1063l151 -189q4 -4 15.5 -0.5t23.5 9.5t20.5 12t8.5 8q-29 57 -47.5 118.5t-53.5 111.5q-6 8 -26.5 -0.5 t-42 -22.5t-38 -28.5t-11.5 -18.5zM463 457q20 -35 51 -74t73 -70.5t92.5 -53t111.5 -21.5q59 0 110 21.5t92 53t73 70.5t52 74q-164 -43 -326.5 -42t-328.5 42zM715 731h155l-77 187zM918 903q-4 -2 4 -8t19 -12t23.5 -9.5t18.5 0.5l147 189q4 4 -11 18.5t-36.5 28.5 t-42 22.5t-26.5 0.5q-39 -49 -55.5 -110.5t-40.5 -119.5zM1290 102v23h84v-23h-31v-77h-22v77h-31zM1384 25v100h31l19 -78l18 78h29v-100h-19v77l-20 -77h-19l-20 77v-77h-19z" />
<glyph unicode="&#xd6;" d="M68 731q0 150 56 282t154.5 230t230.5 155.5t282 57.5t281.5 -57.5t230 -155.5t156 -230t57.5 -282t-57.5 -282t-156 -230t-230 -155.5t-281.5 -57.5t-282 57.5t-230.5 155.5t-154.5 230.5t-56 281.5zM164 731q0 -129 49 -242.5t135 -199.5t200 -135.5t243 -49.5 q131 0 244.5 49.5t197.5 135.5t133 199.5t49 242.5t-49 242.5t-133 198.5t-197.5 134.5t-244.5 49.5q-129 0 -243 -49.5t-200 -134.5t-135 -198.5t-49 -242.5zM207 731q0 119 46 224.5t126 184.5t185.5 124t226.5 45q119 0 225 -45t185 -124t125 -184.5t46 -224.5 q0 -121 -46 -227.5t-125 -185t-185 -125t-225 -46.5q-121 0 -226.5 46.5t-185.5 125t-126 185t-46 227.5zM330 664l112 -177q346 -80 699 0l110 177h-921zM451 1063l151 -189q4 -4 15.5 -0.5t23.5 9.5t20.5 12t8.5 8q-29 57 -47.5 118.5t-53.5 111.5q-6 8 -26.5 -0.5 t-42 -22.5t-38 -28.5t-11.5 -18.5zM463 457q20 -35 51 -74t73 -70.5t92.5 -53t111.5 -21.5q59 0 110 21.5t92 53t73 70.5t52 74q-164 -43 -326.5 -42t-328.5 42zM715 731h155l-77 187zM918 903q-4 -2 4 -8t19 -12t23.5 -9.5t18.5 0.5l147 189q4 4 -11 18.5t-36.5 28.5 t-42 22.5t-26.5 0.5q-39 -49 -55.5 -110.5t-40.5 -119.5zM1290 102v23h84v-23h-31v-77h-22v77h-31zM1384 25v100h31l19 -78l18 78h29v-100h-19v77l-20 -77h-19l-20 77v-77h-19z" />
<glyph unicode="&#xd7;" d="M68 731q0 150 56 282t154.5 230t230.5 155.5t282 57.5t281.5 -57.5t230 -155.5t156 -230t57.5 -282t-57.5 -282t-156 -230t-230 -155.5t-281.5 -57.5t-282 57.5t-230.5 155.5t-154.5 230.5t-56 281.5zM164 731q0 -129 49 -242.5t135 -199.5t200 -135.5t243 -49.5 q131 0 244.5 49.5t197.5 135.5t133 199.5t49 242.5t-49 242.5t-133 198.5t-197.5 134.5t-244.5 49.5q-129 0 -243 -49.5t-200 -134.5t-135 -198.5t-49 -242.5zM207 731q0 119 46 224.5t126 184.5t185.5 124t226.5 45q119 0 225 -45t185 -124t125 -184.5t46 -224.5 q0 -121 -46 -227.5t-125 -185t-185 -125t-225 -46.5q-121 0 -226.5 46.5t-185.5 125t-126 185t-46 227.5zM330 664l112 -177q346 -80 699 0l110 177h-921zM451 1063l151 -189q4 -4 15.5 -0.5t23.5 9.5t20.5 12t8.5 8q-29 57 -47.5 118.5t-53.5 111.5q-6 8 -26.5 -0.5 t-42 -22.5t-38 -28.5t-11.5 -18.5zM463 457q20 -35 51 -74t73 -70.5t92.5 -53t111.5 -21.5q59 0 110 21.5t92 53t73 70.5t52 74q-164 -43 -326.5 -42t-328.5 42zM715 731h155l-77 187zM918 903q-4 -2 4 -8t19 -12t23.5 -9.5t18.5 0.5l147 189q4 4 -11 18.5t-36.5 28.5 t-42 22.5t-26.5 0.5q-39 -49 -55.5 -110.5t-40.5 -119.5zM1290 102v23h84v-23h-31v-77h-22v77h-31zM1384 25v100h31l19 -78l18 78h29v-100h-19v77l-20 -77h-19l-20 77v-77h-19z" />
<glyph unicode="&#xd8;" d="M68 731q0 150 56 282t154.5 230t230.5 155.5t282 57.5t281.5 -57.5t230 -155.5t156 -230t57.5 -282t-57.5 -282t-156 -230t-230 -155.5t-281.5 -57.5t-282 57.5t-230.5 155.5t-154.5 230.5t-56 281.5zM164 731q0 -129 49 -242.5t135 -199.5t200 -135.5t243 -49.5 q131 0 244.5 49.5t197.5 135.5t133 199.5t49 242.5t-49 242.5t-133 198.5t-197.5 134.5t-244.5 49.5q-129 0 -243 -49.5t-200 -134.5t-135 -198.5t-49 -242.5zM207 731q0 119 46 224.5t126 184.5t185.5 124t226.5 45q119 0 225 -45t185 -124t125 -184.5t46 -224.5 q0 -121 -46 -227.5t-125 -185t-185 -125t-225 -46.5q-121 0 -226.5 46.5t-185.5 125t-126 185t-46 227.5zM330 664l112 -177q346 -80 699 0l110 177h-921zM451 1063l151 -189q4 -4 15.5 -0.5t23.5 9.5t20.5 12t8.5 8q-29 57 -47.5 118.5t-53.5 111.5q-6 8 -26.5 -0.5 t-42 -22.5t-38 -28.5t-11.5 -18.5zM463 457q20 -35 51 -74t73 -70.5t92.5 -53t111.5 -21.5q59 0 110 21.5t92 53t73 70.5t52 74q-164 -43 -326.5 -42t-328.5 42zM715 731h155l-77 187zM918 903q-4 -2 4 -8t19 -12t23.5 -9.5t18.5 0.5l147 189q4 4 -11 18.5t-36.5 28.5 t-42 22.5t-26.5 0.5q-39 -49 -55.5 -110.5t-40.5 -119.5zM1290 102v23h84v-23h-31v-77h-22v77h-31zM1384 25v100h31l19 -78l18 78h29v-100h-19v77l-20 -77h-19l-20 77v-77h-19z" />
<glyph unicode="&#xd9;" d="M68 731q0 150 56 282t154.5 230t230.5 155.5t282 57.5t281.5 -57.5t230 -155.5t156 -230t57.5 -282t-57.5 -282t-156 -230t-230 -155.5t-281.5 -57.5t-282 57.5t-230.5 155.5t-154.5 230.5t-56 281.5zM164 731q0 -129 49 -242.5t135 -199.5t200 -135.5t243 -49.5 q131 0 244.5 49.5t197.5 135.5t133 199.5t49 242.5t-49 242.5t-133 198.5t-197.5 134.5t-244.5 49.5q-129 0 -243 -49.5t-200 -134.5t-135 -198.5t-49 -242.5zM207 731q0 119 46 224.5t126 184.5t185.5 124t226.5 45q119 0 225 -45t185 -124t125 -184.5t46 -224.5 q0 -121 -46 -227.5t-125 -185t-185 -125t-225 -46.5q-121 0 -226.5 46.5t-185.5 125t-126 185t-46 227.5zM330 664l112 -177q346 -80 699 0l110 177h-921zM451 1063l151 -189q4 -4 15.5 -0.5t23.5 9.5t20.5 12t8.5 8q-29 57 -47.5 118.5t-53.5 111.5q-6 8 -26.5 -0.5 t-42 -22.5t-38 -28.5t-11.5 -18.5zM463 457q20 -35 51 -74t73 -70.5t92.5 -53t111.5 -21.5q59 0 110 21.5t92 53t73 70.5t52 74q-164 -43 -326.5 -42t-328.5 42zM715 731h155l-77 187zM918 903q-4 -2 4 -8t19 -12t23.5 -9.5t18.5 0.5l147 189q4 4 -11 18.5t-36.5 28.5 t-42 22.5t-26.5 0.5q-39 -49 -55.5 -110.5t-40.5 -119.5zM1290 102v23h84v-23h-31v-77h-22v77h-31zM1384 25v100h31l19 -78l18 78h29v-100h-19v77l-20 -77h-19l-20 77v-77h-19z" />
<glyph unicode="&#xda;" d="M68 731q0 150 56 282t154.5 230t230.5 155.5t282 57.5t281.5 -57.5t230 -155.5t156 -230t57.5 -282t-57.5 -282t-156 -230t-230 -155.5t-281.5 -57.5t-282 57.5t-230.5 155.5t-154.5 230.5t-56 281.5zM164 731q0 -129 49 -242.5t135 -199.5t200 -135.5t243 -49.5 q131 0 244.5 49.5t197.5 135.5t133 199.5t49 242.5t-49 242.5t-133 198.5t-197.5 134.5t-244.5 49.5q-129 0 -243 -49.5t-200 -134.5t-135 -198.5t-49 -242.5zM207 731q0 119 46 224.5t126 184.5t185.5 124t226.5 45q119 0 225 -45t185 -124t125 -184.5t46 -224.5 q0 -121 -46 -227.5t-125 -185t-185 -125t-225 -46.5q-121 0 -226.5 46.5t-185.5 125t-126 185t-46 227.5zM330 664l112 -177q346 -80 699 0l110 177h-921zM451 1063l151 -189q4 -4 15.5 -0.5t23.5 9.5t20.5 12t8.5 8q-29 57 -47.5 118.5t-53.5 111.5q-6 8 -26.5 -0.5 t-42 -22.5t-38 -28.5t-11.5 -18.5zM463 457q20 -35 51 -74t73 -70.5t92.5 -53t111.5 -21.5q59 0 110 21.5t92 53t73 70.5t52 74q-164 -43 -326.5 -42t-328.5 42zM715 731h155l-77 187zM918 903q-4 -2 4 -8t19 -12t23.5 -9.5t18.5 0.5l147 189q4 4 -11 18.5t-36.5 28.5 t-42 22.5t-26.5 0.5q-39 -49 -55.5 -110.5t-40.5 -119.5zM1290 102v23h84v-23h-31v-77h-22v77h-31zM1384 25v100h31l19 -78l18 78h29v-100h-19v77l-20 -77h-19l-20 77v-77h-19z" />
<glyph unicode="&#xdb;" d="M68 731q0 150 56 282t154.5 230t230.5 155.5t282 57.5t281.5 -57.5t230 -155.5t156 -230t57.5 -282t-57.5 -282t-156 -230t-230 -155.5t-281.5 -57.5t-282 57.5t-230.5 155.5t-154.5 230.5t-56 281.5zM164 731q0 -129 49 -242.5t135 -199.5t200 -135.5t243 -49.5 q131 0 244.5 49.5t197.5 135.5t133 199.5t49 242.5t-49 242.5t-133 198.5t-197.5 134.5t-244.5 49.5q-129 0 -243 -49.5t-200 -134.5t-135 -198.5t-49 -242.5zM207 731q0 119 46 224.5t126 184.5t185.5 124t226.5 45q119 0 225 -45t185 -124t125 -184.5t46 -224.5 q0 -121 -46 -227.5t-125 -185t-185 -125t-225 -46.5q-121 0 -226.5 46.5t-185.5 125t-126 185t-46 227.5zM330 664l112 -177q346 -80 699 0l110 177h-921zM451 1063l151 -189q4 -4 15.5 -0.5t23.5 9.5t20.5 12t8.5 8q-29 57 -47.5 118.5t-53.5 111.5q-6 8 -26.5 -0.5 t-42 -22.5t-38 -28.5t-11.5 -18.5zM463 457q20 -35 51 -74t73 -70.5t92.5 -53t111.5 -21.5q59 0 110 21.5t92 53t73 70.5t52 74q-164 -43 -326.5 -42t-328.5 42zM715 731h155l-77 187zM918 903q-4 -2 4 -8t19 -12t23.5 -9.5t18.5 0.5l147 189q4 4 -11 18.5t-36.5 28.5 t-42 22.5t-26.5 0.5q-39 -49 -55.5 -110.5t-40.5 -119.5zM1290 102v23h84v-23h-31v-77h-22v77h-31zM1384 25v100h31l19 -78l18 78h29v-100h-19v77l-20 -77h-19l-20 77v-77h-19z" />
<glyph unicode="&#xdc;" d="M68 731q0 150 56 282t154.5 230t230.5 155.5t282 57.5t281.5 -57.5t230 -155.5t156 -230t57.5 -282t-57.5 -282t-156 -230t-230 -155.5t-281.5 -57.5t-282 57.5t-230.5 155.5t-154.5 230.5t-56 281.5zM164 731q0 -129 49 -242.5t135 -199.5t200 -135.5t243 -49.5 q131 0 244.5 49.5t197.5 135.5t133 199.5t49 242.5t-49 242.5t-133 198.5t-197.5 134.5t-244.5 49.5q-129 0 -243 -49.5t-200 -134.5t-135 -198.5t-49 -242.5zM207 731q0 119 46 224.5t126 184.5t185.5 124t226.5 45q119 0 225 -45t185 -124t125 -184.5t46 -224.5 q0 -121 -46 -227.5t-125 -185t-185 -125t-225 -46.5q-121 0 -226.5 46.5t-185.5 125t-126 185t-46 227.5zM330 664l112 -177q346 -80 699 0l110 177h-921zM451 1063l151 -189q4 -4 15.5 -0.5t23.5 9.5t20.5 12t8.5 8q-29 57 -47.5 118.5t-53.5 111.5q-6 8 -26.5 -0.5 t-42 -22.5t-38 -28.5t-11.5 -18.5zM463 457q20 -35 51 -74t73 -70.5t92.5 -53t111.5 -21.5q59 0 110 21.5t92 53t73 70.5t52 74q-164 -43 -326.5 -42t-328.5 42zM715 731h155l-77 187zM918 903q-4 -2 4 -8t19 -12t23.5 -9.5t18.5 0.5l147 189q4 4 -11 18.5t-36.5 28.5 t-42 22.5t-26.5 0.5q-39 -49 -55.5 -110.5t-40.5 -119.5zM1290 102v23h84v-23h-31v-77h-22v77h-31zM1384 25v100h31l19 -78l18 78h29v-100h-19v77l-20 -77h-19l-20 77v-77h-19z" />
<glyph unicode="&#xdd;" d="M68 731q0 150 56 282t154.5 230t230.5 155.5t282 57.5t281.5 -57.5t230 -155.5t156 -230t57.5 -282t-57.5 -282t-156 -230t-230 -155.5t-281.5 -57.5t-282 57.5t-230.5 155.5t-154.5 230.5t-56 281.5zM164 731q0 -129 49 -242.5t135 -199.5t200 -135.5t243 -49.5 q131 0 244.5 49.5t197.5 135.5t133 199.5t49 242.5t-49 242.5t-133 198.5t-197.5 134.5t-244.5 49.5q-129 0 -243 -49.5t-200 -134.5t-135 -198.5t-49 -242.5zM207 731q0 119 46 224.5t126 184.5t185.5 124t226.5 45q119 0 225 -45t185 -124t125 -184.5t46 -224.5 q0 -121 -46 -227.5t-125 -185t-185 -125t-225 -46.5q-121 0 -226.5 46.5t-185.5 125t-126 185t-46 227.5zM330 664l112 -177q346 -80 699 0l110 177h-921zM451 1063l151 -189q4 -4 15.5 -0.5t23.5 9.5t20.5 12t8.5 8q-29 57 -47.5 118.5t-53.5 111.5q-6 8 -26.5 -0.5 t-42 -22.5t-38 -28.5t-11.5 -18.5zM463 457q20 -35 51 -74t73 -70.5t92.5 -53t111.5 -21.5q59 0 110 21.5t92 53t73 70.5t52 74q-164 -43 -326.5 -42t-328.5 42zM715 731h155l-77 187zM918 903q-4 -2 4 -8t19 -12t23.5 -9.5t18.5 0.5l147 189q4 4 -11 18.5t-36.5 28.5 t-42 22.5t-26.5 0.5q-39 -49 -55.5 -110.5t-40.5 -119.5zM1290 102v23h84v-23h-31v-77h-22v77h-31zM1384 25v100h31l19 -78l18 78h29v-100h-19v77l-20 -77h-19l-20 77v-77h-19z" />
<glyph unicode="&#xde;" d="M68 731q0 150 56 282t154.5 230t230.5 155.5t282 57.5t281.5 -57.5t230 -155.5t156 -230t57.5 -282t-57.5 -282t-156 -230t-230 -155.5t-281.5 -57.5t-282 57.5t-230.5 155.5t-154.5 230.5t-56 281.5zM164 731q0 -129 49 -242.5t135 -199.5t200 -135.5t243 -49.5 q131 0 244.5 49.5t197.5 135.5t133 199.5t49 242.5t-49 242.5t-133 198.5t-197.5 134.5t-244.5 49.5q-129 0 -243 -49.5t-200 -134.5t-135 -198.5t-49 -242.5zM207 731q0 119 46 224.5t126 184.5t185.5 124t226.5 45q119 0 225 -45t185 -124t125 -184.5t46 -224.5 q0 -121 -46 -227.5t-125 -185t-185 -125t-225 -46.5q-121 0 -226.5 46.5t-185.5 125t-126 185t-46 227.5zM330 664l112 -177q346 -80 699 0l110 177h-921zM451 1063l151 -189q4 -4 15.5 -0.5t23.5 9.5t20.5 12t8.5 8q-29 57 -47.5 118.5t-53.5 111.5q-6 8 -26.5 -0.5 t-42 -22.5t-38 -28.5t-11.5 -18.5zM463 457q20 -35 51 -74t73 -70.5t92.5 -53t111.5 -21.5q59 0 110 21.5t92 53t73 70.5t52 74q-164 -43 -326.5 -42t-328.5 42zM715 731h155l-77 187zM918 903q-4 -2 4 -8t19 -12t23.5 -9.5t18.5 0.5l147 189q4 4 -11 18.5t-36.5 28.5 t-42 22.5t-26.5 0.5q-39 -49 -55.5 -110.5t-40.5 -119.5zM1290 102v23h84v-23h-31v-77h-22v77h-31zM1384 25v100h31l19 -78l18 78h29v-100h-19v77l-20 -77h-19l-20 77v-77h-19z" />
<glyph unicode="&#xdf;" d="M68 731q0 150 56 282t154.5 230t230.5 155.5t282 57.5t281.5 -57.5t230 -155.5t156 -230t57.5 -282t-57.5 -282t-156 -230t-230 -155.5t-281.5 -57.5t-282 57.5t-230.5 155.5t-154.5 230.5t-56 281.5zM164 731q0 -129 49 -242.5t135 -199.5t200 -135.5t243 -49.5 q131 0 244.5 49.5t197.5 135.5t133 199.5t49 242.5t-49 242.5t-133 198.5t-197.5 134.5t-244.5 49.5q-129 0 -243 -49.5t-200 -134.5t-135 -198.5t-49 -242.5zM207 731q0 119 46 224.5t126 184.5t185.5 124t226.5 45q119 0 225 -45t185 -124t125 -184.5t46 -224.5 q0 -121 -46 -227.5t-125 -185t-185 -125t-225 -46.5q-121 0 -226.5 46.5t-185.5 125t-126 185t-46 227.5zM330 664l112 -177q346 -80 699 0l110 177h-921zM451 1063l151 -189q4 -4 15.5 -0.5t23.5 9.5t20.5 12t8.5 8q-29 57 -47.5 118.5t-53.5 111.5q-6 8 -26.5 -0.5 t-42 -22.5t-38 -28.5t-11.5 -18.5zM463 457q20 -35 51 -74t73 -70.5t92.5 -53t111.5 -21.5q59 0 110 21.5t92 53t73 70.5t52 74q-164 -43 -326.5 -42t-328.5 42zM715 731h155l-77 187zM918 903q-4 -2 4 -8t19 -12t23.5 -9.5t18.5 0.5l147 189q4 4 -11 18.5t-36.5 28.5 t-42 22.5t-26.5 0.5q-39 -49 -55.5 -110.5t-40.5 -119.5zM1290 102v23h84v-23h-31v-77h-22v77h-31zM1384 25v100h31l19 -78l18 78h29v-100h-19v77l-20 -77h-19l-20 77v-77h-19z" />
<glyph unicode="&#xe0;" d="M68 731q0 150 56 282t154.5 230t230.5 155.5t282 57.5t281.5 -57.5t230 -155.5t156 -230t57.5 -282t-57.5 -282t-156 -230t-230 -155.5t-281.5 -57.5t-282 57.5t-230.5 155.5t-154.5 230.5t-56 281.5zM164 731q0 -129 49 -242.5t135 -199.5t200 -135.5t243 -49.5 q131 0 244.5 49.5t197.5 135.5t133 199.5t49 242.5t-49 242.5t-133 198.5t-197.5 134.5t-244.5 49.5q-129 0 -243 -49.5t-200 -134.5t-135 -198.5t-49 -242.5zM207 731q0 119 46 224.5t126 184.5t185.5 124t226.5 45q119 0 225 -45t185 -124t125 -184.5t46 -224.5 q0 -121 -46 -227.5t-125 -185t-185 -125t-225 -46.5q-121 0 -226.5 46.5t-185.5 125t-126 185t-46 227.5zM330 664l112 -177q346 -80 699 0l110 177h-921zM451 1063l151 -189q4 -4 15.5 -0.5t23.5 9.5t20.5 12t8.5 8q-29 57 -47.5 118.5t-53.5 111.5q-6 8 -26.5 -0.5 t-42 -22.5t-38 -28.5t-11.5 -18.5zM463 457q20 -35 51 -74t73 -70.5t92.5 -53t111.5 -21.5q59 0 110 21.5t92 53t73 70.5t52 74q-164 -43 -326.5 -42t-328.5 42zM715 731h155l-77 187zM918 903q-4 -2 4 -8t19 -12t23.5 -9.5t18.5 0.5l147 189q4 4 -11 18.5t-36.5 28.5 t-42 22.5t-26.5 0.5q-39 -49 -55.5 -110.5t-40.5 -119.5zM1290 102v23h84v-23h-31v-77h-22v77h-31zM1384 25v100h31l19 -78l18 78h29v-100h-19v77l-20 -77h-19l-20 77v-77h-19z" />
<glyph unicode="&#xe1;" d="M68 731q0 150 56 282t154.5 230t230.5 155.5t282 57.5t281.5 -57.5t230 -155.5t156 -230t57.5 -282t-57.5 -282t-156 -230t-230 -155.5t-281.5 -57.5t-282 57.5t-230.5 155.5t-154.5 230.5t-56 281.5zM164 731q0 -129 49 -242.5t135 -199.5t200 -135.5t243 -49.5 q131 0 244.5 49.5t197.5 135.5t133 199.5t49 242.5t-49 242.5t-133 198.5t-197.5 134.5t-244.5 49.5q-129 0 -243 -49.5t-200 -134.5t-135 -198.5t-49 -242.5zM207 731q0 119 46 224.5t126 184.5t185.5 124t226.5 45q119 0 225 -45t185 -124t125 -184.5t46 -224.5 q0 -121 -46 -227.5t-125 -185t-185 -125t-225 -46.5q-121 0 -226.5 46.5t-185.5 125t-126 185t-46 227.5zM330 664l112 -177q346 -80 699 0l110 177h-921zM451 1063l151 -189q4 -4 15.5 -0.5t23.5 9.5t20.5 12t8.5 8q-29 57 -47.5 118.5t-53.5 111.5q-6 8 -26.5 -0.5 t-42 -22.5t-38 -28.5t-11.5 -18.5zM463 457q20 -35 51 -74t73 -70.5t92.5 -53t111.5 -21.5q59 0 110 21.5t92 53t73 70.5t52 74q-164 -43 -326.5 -42t-328.5 42zM715 731h155l-77 187zM918 903q-4 -2 4 -8t19 -12t23.5 -9.5t18.5 0.5l147 189q4 4 -11 18.5t-36.5 28.5 t-42 22.5t-26.5 0.5q-39 -49 -55.5 -110.5t-40.5 -119.5zM1290 102v23h84v-23h-31v-77h-22v77h-31zM1384 25v100h31l19 -78l18 78h29v-100h-19v77l-20 -77h-19l-20 77v-77h-19z" />
<glyph unicode="&#xe2;" d="M68 731q0 150 56 282t154.5 230t230.5 155.5t282 57.5t281.5 -57.5t230 -155.5t156 -230t57.5 -282t-57.5 -282t-156 -230t-230 -155.5t-281.5 -57.5t-282 57.5t-230.5 155.5t-154.5 230.5t-56 281.5zM164 731q0 -129 49 -242.5t135 -199.5t200 -135.5t243 -49.5 q131 0 244.5 49.5t197.5 135.5t133 199.5t49 242.5t-49 242.5t-133 198.5t-197.5 134.5t-244.5 49.5q-129 0 -243 -49.5t-200 -134.5t-135 -198.5t-49 -242.5zM207 731q0 119 46 224.5t126 184.5t185.5 124t226.5 45q119 0 225 -45t185 -124t125 -184.5t46 -224.5 q0 -121 -46 -227.5t-125 -185t-185 -125t-225 -46.5q-121 0 -226.5 46.5t-185.5 125t-126 185t-46 227.5zM330 664l112 -177q346 -80 699 0l110 177h-921zM451 1063l151 -189q4 -4 15.5 -0.5t23.5 9.5t20.5 12t8.5 8q-29 57 -47.5 118.5t-53.5 111.5q-6 8 -26.5 -0.5 t-42 -22.5t-38 -28.5t-11.5 -18.5zM463 457q20 -35 51 -74t73 -70.5t92.5 -53t111.5 -21.5q59 0 110 21.5t92 53t73 70.5t52 74q-164 -43 -326.5 -42t-328.5 42zM715 731h155l-77 187zM918 903q-4 -2 4 -8t19 -12t23.5 -9.5t18.5 0.5l147 189q4 4 -11 18.5t-36.5 28.5 t-42 22.5t-26.5 0.5q-39 -49 -55.5 -110.5t-40.5 -119.5zM1290 102v23h84v-23h-31v-77h-22v77h-31zM1384 25v100h31l19 -78l18 78h29v-100h-19v77l-20 -77h-19l-20 77v-77h-19z" />
<glyph unicode="&#xe3;" d="M68 731q0 150 56 282t154.5 230t230.5 155.5t282 57.5t281.5 -57.5t230 -155.5t156 -230t57.5 -282t-57.5 -282t-156 -230t-230 -155.5t-281.5 -57.5t-282 57.5t-230.5 155.5t-154.5 230.5t-56 281.5zM164 731q0 -129 49 -242.5t135 -199.5t200 -135.5t243 -49.5 q131 0 244.5 49.5t197.5 135.5t133 199.5t49 242.5t-49 242.5t-133 198.5t-197.5 134.5t-244.5 49.5q-129 0 -243 -49.5t-200 -134.5t-135 -198.5t-49 -242.5zM207 731q0 119 46 224.5t126 184.5t185.5 124t226.5 45q119 0 225 -45t185 -124t125 -184.5t46 -224.5 q0 -121 -46 -227.5t-125 -185t-185 -125t-225 -46.5q-121 0 -226.5 46.5t-185.5 125t-126 185t-46 227.5zM330 664l112 -177q346 -80 699 0l110 177h-921zM451 1063l151 -189q4 -4 15.5 -0.5t23.5 9.5t20.5 12t8.5 8q-29 57 -47.5 118.5t-53.5 111.5q-6 8 -26.5 -0.5 t-42 -22.5t-38 -28.5t-11.5 -18.5zM463 457q20 -35 51 -74t73 -70.5t92.5 -53t111.5 -21.5q59 0 110 21.5t92 53t73 70.5t52 74q-164 -43 -326.5 -42t-328.5 42zM715 731h155l-77 187zM918 903q-4 -2 4 -8t19 -12t23.5 -9.5t18.5 0.5l147 189q4 4 -11 18.5t-36.5 28.5 t-42 22.5t-26.5 0.5q-39 -49 -55.5 -110.5t-40.5 -119.5zM1290 102v23h84v-23h-31v-77h-22v77h-31zM1384 25v100h31l19 -78l18 78h29v-100h-19v77l-20 -77h-19l-20 77v-77h-19z" />
<glyph unicode="&#xe4;" d="M68 731q0 150 56 282t154.5 230t230.5 155.5t282 57.5t281.5 -57.5t230 -155.5t156 -230t57.5 -282t-57.5 -282t-156 -230t-230 -155.5t-281.5 -57.5t-282 57.5t-230.5 155.5t-154.5 230.5t-56 281.5zM164 731q0 -129 49 -242.5t135 -199.5t200 -135.5t243 -49.5 q131 0 244.5 49.5t197.5 135.5t133 199.5t49 242.5t-49 242.5t-133 198.5t-197.5 134.5t-244.5 49.5q-129 0 -243 -49.5t-200 -134.5t-135 -198.5t-49 -242.5zM207 731q0 119 46 224.5t126 184.5t185.5 124t226.5 45q119 0 225 -45t185 -124t125 -184.5t46 -224.5 q0 -121 -46 -227.5t-125 -185t-185 -125t-225 -46.5q-121 0 -226.5 46.5t-185.5 125t-126 185t-46 227.5zM330 664l112 -177q346 -80 699 0l110 177h-921zM451 1063l151 -189q4 -4 15.5 -0.5t23.5 9.5t20.5 12t8.5 8q-29 57 -47.5 118.5t-53.5 111.5q-6 8 -26.5 -0.5 t-42 -22.5t-38 -28.5t-11.5 -18.5zM463 457q20 -35 51 -74t73 -70.5t92.5 -53t111.5 -21.5q59 0 110 21.5t92 53t73 70.5t52 74q-164 -43 -326.5 -42t-328.5 42zM715 731h155l-77 187zM918 903q-4 -2 4 -8t19 -12t23.5 -9.5t18.5 0.5l147 189q4 4 -11 18.5t-36.5 28.5 t-42 22.5t-26.5 0.5q-39 -49 -55.5 -110.5t-40.5 -119.5zM1290 102v23h84v-23h-31v-77h-22v77h-31zM1384 25v100h31l19 -78l18 78h29v-100h-19v77l-20 -77h-19l-20 77v-77h-19z" />
<glyph unicode="&#xe5;" d="M68 731q0 150 56 282t154.5 230t230.5 155.5t282 57.5t281.5 -57.5t230 -155.5t156 -230t57.5 -282t-57.5 -282t-156 -230t-230 -155.5t-281.5 -57.5t-282 57.5t-230.5 155.5t-154.5 230.5t-56 281.5zM164 731q0 -129 49 -242.5t135 -199.5t200 -135.5t243 -49.5 q131 0 244.5 49.5t197.5 135.5t133 199.5t49 242.5t-49 242.5t-133 198.5t-197.5 134.5t-244.5 49.5q-129 0 -243 -49.5t-200 -134.5t-135 -198.5t-49 -242.5zM207 731q0 119 46 224.5t126 184.5t185.5 124t226.5 45q119 0 225 -45t185 -124t125 -184.5t46 -224.5 q0 -121 -46 -227.5t-125 -185t-185 -125t-225 -46.5q-121 0 -226.5 46.5t-185.5 125t-126 185t-46 227.5zM330 664l112 -177q346 -80 699 0l110 177h-921zM451 1063l151 -189q4 -4 15.5 -0.5t23.5 9.5t20.5 12t8.5 8q-29 57 -47.5 118.5t-53.5 111.5q-6 8 -26.5 -0.5 t-42 -22.5t-38 -28.5t-11.5 -18.5zM463 457q20 -35 51 -74t73 -70.5t92.5 -53t111.5 -21.5q59 0 110 21.5t92 53t73 70.5t52 74q-164 -43 -326.5 -42t-328.5 42zM715 731h155l-77 187zM918 903q-4 -2 4 -8t19 -12t23.5 -9.5t18.5 0.5l147 189q4 4 -11 18.5t-36.5 28.5 t-42 22.5t-26.5 0.5q-39 -49 -55.5 -110.5t-40.5 -119.5zM1290 102v23h84v-23h-31v-77h-22v77h-31zM1384 25v100h31l19 -78l18 78h29v-100h-19v77l-20 -77h-19l-20 77v-77h-19z" />
<glyph unicode="&#xe6;" d="M68 731q0 150 56 282t154.5 230t230.5 155.5t282 57.5t281.5 -57.5t230 -155.5t156 -230t57.5 -282t-57.5 -282t-156 -230t-230 -155.5t-281.5 -57.5t-282 57.5t-230.5 155.5t-154.5 230.5t-56 281.5zM164 731q0 -129 49 -242.5t135 -199.5t200 -135.5t243 -49.5 q131 0 244.5 49.5t197.5 135.5t133 199.5t49 242.5t-49 242.5t-133 198.5t-197.5 134.5t-244.5 49.5q-129 0 -243 -49.5t-200 -134.5t-135 -198.5t-49 -242.5zM207 731q0 119 46 224.5t126 184.5t185.5 124t226.5 45q119 0 225 -45t185 -124t125 -184.5t46 -224.5 q0 -121 -46 -227.5t-125 -185t-185 -125t-225 -46.5q-121 0 -226.5 46.5t-185.5 125t-126 185t-46 227.5zM330 664l112 -177q346 -80 699 0l110 177h-921zM451 1063l151 -189q4 -4 15.5 -0.5t23.5 9.5t20.5 12t8.5 8q-29 57 -47.5 118.5t-53.5 111.5q-6 8 -26.5 -0.5 t-42 -22.5t-38 -28.5t-11.5 -18.5zM463 457q20 -35 51 -74t73 -70.5t92.5 -53t111.5 -21.5q59 0 110 21.5t92 53t73 70.5t52 74q-164 -43 -326.5 -42t-328.5 42zM715 731h155l-77 187zM918 903q-4 -2 4 -8t19 -12t23.5 -9.5t18.5 0.5l147 189q4 4 -11 18.5t-36.5 28.5 t-42 22.5t-26.5 0.5q-39 -49 -55.5 -110.5t-40.5 -119.5zM1290 102v23h84v-23h-31v-77h-22v77h-31zM1384 25v100h31l19 -78l18 78h29v-100h-19v77l-20 -77h-19l-20 77v-77h-19z" />
<glyph unicode="&#xe7;" d="M68 731q0 150 56 282t154.5 230t230.5 155.5t282 57.5t281.5 -57.5t230 -155.5t156 -230t57.5 -282t-57.5 -282t-156 -230t-230 -155.5t-281.5 -57.5t-282 57.5t-230.5 155.5t-154.5 230.5t-56 281.5zM164 731q0 -129 49 -242.5t135 -199.5t200 -135.5t243 -49.5 q131 0 244.5 49.5t197.5 135.5t133 199.5t49 242.5t-49 242.5t-133 198.5t-197.5 134.5t-244.5 49.5q-129 0 -243 -49.5t-200 -134.5t-135 -198.5t-49 -242.5zM207 731q0 119 46 224.5t126 184.5t185.5 124t226.5 45q119 0 225 -45t185 -124t125 -184.5t46 -224.5 q0 -121 -46 -227.5t-125 -185t-185 -125t-225 -46.5q-121 0 -226.5 46.5t-185.5 125t-126 185t-46 227.5zM330 664l112 -177q346 -80 699 0l110 177h-921zM451 1063l151 -189q4 -4 15.5 -0.5t23.5 9.5t20.5 12t8.5 8q-29 57 -47.5 118.5t-53.5 111.5q-6 8 -26.5 -0.5 t-42 -22.5t-38 -28.5t-11.5 -18.5zM463 457q20 -35 51 -74t73 -70.5t92.5 -53t111.5 -21.5q59 0 110 21.5t92 53t73 70.5t52 74q-164 -43 -326.5 -42t-328.5 42zM715 731h155l-77 187zM918 903q-4 -2 4 -8t19 -12t23.5 -9.5t18.5 0.5l147 189q4 4 -11 18.5t-36.5 28.5 t-42 22.5t-26.5 0.5q-39 -49 -55.5 -110.5t-40.5 -119.5zM1290 102v23h84v-23h-31v-77h-22v77h-31zM1384 25v100h31l19 -78l18 78h29v-100h-19v77l-20 -77h-19l-20 77v-77h-19z" />
<glyph unicode="&#xe8;" d="M68 731q0 150 56 282t154.5 230t230.5 155.5t282 57.5t281.5 -57.5t230 -155.5t156 -230t57.5 -282t-57.5 -282t-156 -230t-230 -155.5t-281.5 -57.5t-282 57.5t-230.5 155.5t-154.5 230.5t-56 281.5zM164 731q0 -129 49 -242.5t135 -199.5t200 -135.5t243 -49.5 q131 0 244.5 49.5t197.5 135.5t133 199.5t49 242.5t-49 242.5t-133 198.5t-197.5 134.5t-244.5 49.5q-129 0 -243 -49.5t-200 -134.5t-135 -198.5t-49 -242.5zM207 731q0 119 46 224.5t126 184.5t185.5 124t226.5 45q119 0 225 -45t185 -124t125 -184.5t46 -224.5 q0 -121 -46 -227.5t-125 -185t-185 -125t-225 -46.5q-121 0 -226.5 46.5t-185.5 125t-126 185t-46 227.5zM330 664l112 -177q346 -80 699 0l110 177h-921zM451 1063l151 -189q4 -4 15.5 -0.5t23.5 9.5t20.5 12t8.5 8q-29 57 -47.5 118.5t-53.5 111.5q-6 8 -26.5 -0.5 t-42 -22.5t-38 -28.5t-11.5 -18.5zM463 457q20 -35 51 -74t73 -70.5t92.5 -53t111.5 -21.5q59 0 110 21.5t92 53t73 70.5t52 74q-164 -43 -326.5 -42t-328.5 42zM715 731h155l-77 187zM918 903q-4 -2 4 -8t19 -12t23.5 -9.5t18.5 0.5l147 189q4 4 -11 18.5t-36.5 28.5 t-42 22.5t-26.5 0.5q-39 -49 -55.5 -110.5t-40.5 -119.5zM1290 102v23h84v-23h-31v-77h-22v77h-31zM1384 25v100h31l19 -78l18 78h29v-100h-19v77l-20 -77h-19l-20 77v-77h-19z" />
<glyph unicode="&#xe9;" d="M68 731q0 150 56 282t154.5 230t230.5 155.5t282 57.5t281.5 -57.5t230 -155.5t156 -230t57.5 -282t-57.5 -282t-156 -230t-230 -155.5t-281.5 -57.5t-282 57.5t-230.5 155.5t-154.5 230.5t-56 281.5zM164 731q0 -129 49 -242.5t135 -199.5t200 -135.5t243 -49.5 q131 0 244.5 49.5t197.5 135.5t133 199.5t49 242.5t-49 242.5t-133 198.5t-197.5 134.5t-244.5 49.5q-129 0 -243 -49.5t-200 -134.5t-135 -198.5t-49 -242.5zM207 731q0 119 46 224.5t126 184.5t185.5 124t226.5 45q119 0 225 -45t185 -124t125 -184.5t46 -224.5 q0 -121 -46 -227.5t-125 -185t-185 -125t-225 -46.5q-121 0 -226.5 46.5t-185.5 125t-126 185t-46 227.5zM330 664l112 -177q346 -80 699 0l110 177h-921zM451 1063l151 -189q4 -4 15.5 -0.5t23.5 9.5t20.5 12t8.5 8q-29 57 -47.5 118.5t-53.5 111.5q-6 8 -26.5 -0.5 t-42 -22.5t-38 -28.5t-11.5 -18.5zM463 457q20 -35 51 -74t73 -70.5t92.5 -53t111.5 -21.5q59 0 110 21.5t92 53t73 70.5t52 74q-164 -43 -326.5 -42t-328.5 42zM715 731h155l-77 187zM918 903q-4 -2 4 -8t19 -12t23.5 -9.5t18.5 0.5l147 189q4 4 -11 18.5t-36.5 28.5 t-42 22.5t-26.5 0.5q-39 -49 -55.5 -110.5t-40.5 -119.5zM1290 102v23h84v-23h-31v-77h-22v77h-31zM1384 25v100h31l19 -78l18 78h29v-100h-19v77l-20 -77h-19l-20 77v-77h-19z" />
<glyph unicode="&#xea;" d="M68 731q0 150 56 282t154.5 230t230.5 155.5t282 57.5t281.5 -57.5t230 -155.5t156 -230t57.5 -282t-57.5 -282t-156 -230t-230 -155.5t-281.5 -57.5t-282 57.5t-230.5 155.5t-154.5 230.5t-56 281.5zM164 731q0 -129 49 -242.5t135 -199.5t200 -135.5t243 -49.5 q131 0 244.5 49.5t197.5 135.5t133 199.5t49 242.5t-49 242.5t-133 198.5t-197.5 134.5t-244.5 49.5q-129 0 -243 -49.5t-200 -134.5t-135 -198.5t-49 -242.5zM207 731q0 119 46 224.5t126 184.5t185.5 124t226.5 45q119 0 225 -45t185 -124t125 -184.5t46 -224.5 q0 -121 -46 -227.5t-125 -185t-185 -125t-225 -46.5q-121 0 -226.5 46.5t-185.5 125t-126 185t-46 227.5zM330 664l112 -177q346 -80 699 0l110 177h-921zM451 1063l151 -189q4 -4 15.5 -0.5t23.5 9.5t20.5 12t8.5 8q-29 57 -47.5 118.5t-53.5 111.5q-6 8 -26.5 -0.5 t-42 -22.5t-38 -28.5t-11.5 -18.5zM463 457q20 -35 51 -74t73 -70.5t92.5 -53t111.5 -21.5q59 0 110 21.5t92 53t73 70.5t52 74q-164 -43 -326.5 -42t-328.5 42zM715 731h155l-77 187zM918 903q-4 -2 4 -8t19 -12t23.5 -9.5t18.5 0.5l147 189q4 4 -11 18.5t-36.5 28.5 t-42 22.5t-26.5 0.5q-39 -49 -55.5 -110.5t-40.5 -119.5zM1290 102v23h84v-23h-31v-77h-22v77h-31zM1384 25v100h31l19 -78l18 78h29v-100h-19v77l-20 -77h-19l-20 77v-77h-19z" />
<glyph unicode="&#xeb;" d="M68 731q0 150 56 282t154.5 230t230.5 155.5t282 57.5t281.5 -57.5t230 -155.5t156 -230t57.5 -282t-57.5 -282t-156 -230t-230 -155.5t-281.5 -57.5t-282 57.5t-230.5 155.5t-154.5 230.5t-56 281.5zM164 731q0 -129 49 -242.5t135 -199.5t200 -135.5t243 -49.5 q131 0 244.5 49.5t197.5 135.5t133 199.5t49 242.5t-49 242.5t-133 198.5t-197.5 134.5t-244.5 49.5q-129 0 -243 -49.5t-200 -134.5t-135 -198.5t-49 -242.5zM207 731q0 119 46 224.5t126 184.5t185.5 124t226.5 45q119 0 225 -45t185 -124t125 -184.5t46 -224.5 q0 -121 -46 -227.5t-125 -185t-185 -125t-225 -46.5q-121 0 -226.5 46.5t-185.5 125t-126 185t-46 227.5zM330 664l112 -177q346 -80 699 0l110 177h-921zM451 1063l151 -189q4 -4 15.5 -0.5t23.5 9.5t20.5 12t8.5 8q-29 57 -47.5 118.5t-53.5 111.5q-6 8 -26.5 -0.5 t-42 -22.5t-38 -28.5t-11.5 -18.5zM463 457q20 -35 51 -74t73 -70.5t92.5 -53t111.5 -21.5q59 0 110 21.5t92 53t73 70.5t52 74q-164 -43 -326.5 -42t-328.5 42zM715 731h155l-77 187zM918 903q-4 -2 4 -8t19 -12t23.5 -9.5t18.5 0.5l147 189q4 4 -11 18.5t-36.5 28.5 t-42 22.5t-26.5 0.5q-39 -49 -55.5 -110.5t-40.5 -119.5zM1290 102v23h84v-23h-31v-77h-22v77h-31zM1384 25v100h31l19 -78l18 78h29v-100h-19v77l-20 -77h-19l-20 77v-77h-19z" />
<glyph unicode="&#xec;" d="M68 731q0 150 56 282t154.5 230t230.5 155.5t282 57.5t281.5 -57.5t230 -155.5t156 -230t57.5 -282t-57.5 -282t-156 -230t-230 -155.5t-281.5 -57.5t-282 57.5t-230.5 155.5t-154.5 230.5t-56 281.5zM164 731q0 -129 49 -242.5t135 -199.5t200 -135.5t243 -49.5 q131 0 244.5 49.5t197.5 135.5t133 199.5t49 242.5t-49 242.5t-133 198.5t-197.5 134.5t-244.5 49.5q-129 0 -243 -49.5t-200 -134.5t-135 -198.5t-49 -242.5zM207 731q0 119 46 224.5t126 184.5t185.5 124t226.5 45q119 0 225 -45t185 -124t125 -184.5t46 -224.5 q0 -121 -46 -227.5t-125 -185t-185 -125t-225 -46.5q-121 0 -226.5 46.5t-185.5 125t-126 185t-46 227.5zM330 664l112 -177q346 -80 699 0l110 177h-921zM451 1063l151 -189q4 -4 15.5 -0.5t23.5 9.5t20.5 12t8.5 8q-29 57 -47.5 118.5t-53.5 111.5q-6 8 -26.5 -0.5 t-42 -22.5t-38 -28.5t-11.5 -18.5zM463 457q20 -35 51 -74t73 -70.5t92.5 -53t111.5 -21.5q59 0 110 21.5t92 53t73 70.5t52 74q-164 -43 -326.5 -42t-328.5 42zM715 731h155l-77 187zM918 903q-4 -2 4 -8t19 -12t23.5 -9.5t18.5 0.5l147 189q4 4 -11 18.5t-36.5 28.5 t-42 22.5t-26.5 0.5q-39 -49 -55.5 -110.5t-40.5 -119.5zM1290 102v23h84v-23h-31v-77h-22v77h-31zM1384 25v100h31l19 -78l18 78h29v-100h-19v77l-20 -77h-19l-20 77v-77h-19z" />
<glyph unicode="&#xed;" d="M68 731q0 150 56 282t154.5 230t230.5 155.5t282 57.5t281.5 -57.5t230 -155.5t156 -230t57.5 -282t-57.5 -282t-156 -230t-230 -155.5t-281.5 -57.5t-282 57.5t-230.5 155.5t-154.5 230.5t-56 281.5zM164 731q0 -129 49 -242.5t135 -199.5t200 -135.5t243 -49.5 q131 0 244.5 49.5t197.5 135.5t133 199.5t49 242.5t-49 242.5t-133 198.5t-197.5 134.5t-244.5 49.5q-129 0 -243 -49.5t-200 -134.5t-135 -198.5t-49 -242.5zM207 731q0 119 46 224.5t126 184.5t185.5 124t226.5 45q119 0 225 -45t185 -124t125 -184.5t46 -224.5 q0 -121 -46 -227.5t-125 -185t-185 -125t-225 -46.5q-121 0 -226.5 46.5t-185.5 125t-126 185t-46 227.5zM330 664l112 -177q346 -80 699 0l110 177h-921zM451 1063l151 -189q4 -4 15.5 -0.5t23.5 9.5t20.5 12t8.5 8q-29 57 -47.5 118.5t-53.5 111.5q-6 8 -26.5 -0.5 t-42 -22.5t-38 -28.5t-11.5 -18.5zM463 457q20 -35 51 -74t73 -70.5t92.5 -53t111.5 -21.5q59 0 110 21.5t92 53t73 70.5t52 74q-164 -43 -326.5 -42t-328.5 42zM715 731h155l-77 187zM918 903q-4 -2 4 -8t19 -12t23.5 -9.5t18.5 0.5l147 189q4 4 -11 18.5t-36.5 28.5 t-42 22.5t-26.5 0.5q-39 -49 -55.5 -110.5t-40.5 -119.5zM1290 102v23h84v-23h-31v-77h-22v77h-31zM1384 25v100h31l19 -78l18 78h29v-100h-19v77l-20 -77h-19l-20 77v-77h-19z" />
<glyph unicode="&#xee;" d="M68 731q0 150 56 282t154.5 230t230.5 155.5t282 57.5t281.5 -57.5t230 -155.5t156 -230t57.5 -282t-57.5 -282t-156 -230t-230 -155.5t-281.5 -57.5t-282 57.5t-230.5 155.5t-154.5 230.5t-56 281.5zM164 731q0 -129 49 -242.5t135 -199.5t200 -135.5t243 -49.5 q131 0 244.5 49.5t197.5 135.5t133 199.5t49 242.5t-49 242.5t-133 198.5t-197.5 134.5t-244.5 49.5q-129 0 -243 -49.5t-200 -134.5t-135 -198.5t-49 -242.5zM207 731q0 119 46 224.5t126 184.5t185.5 124t226.5 45q119 0 225 -45t185 -124t125 -184.5t46 -224.5 q0 -121 -46 -227.5t-125 -185t-185 -125t-225 -46.5q-121 0 -226.5 46.5t-185.5 125t-126 185t-46 227.5zM330 664l112 -177q346 -80 699 0l110 177h-921zM451 1063l151 -189q4 -4 15.5 -0.5t23.5 9.5t20.5 12t8.5 8q-29 57 -47.5 118.5t-53.5 111.5q-6 8 -26.5 -0.5 t-42 -22.5t-38 -28.5t-11.5 -18.5zM463 457q20 -35 51 -74t73 -70.5t92.5 -53t111.5 -21.5q59 0 110 21.5t92 53t73 70.5t52 74q-164 -43 -326.5 -42t-328.5 42zM715 731h155l-77 187zM918 903q-4 -2 4 -8t19 -12t23.5 -9.5t18.5 0.5l147 189q4 4 -11 18.5t-36.5 28.5 t-42 22.5t-26.5 0.5q-39 -49 -55.5 -110.5t-40.5 -119.5zM1290 102v23h84v-23h-31v-77h-22v77h-31zM1384 25v100h31l19 -78l18 78h29v-100h-19v77l-20 -77h-19l-20 77v-77h-19z" />
<glyph unicode="&#xef;" d="M68 731q0 150 56 282t154.5 230t230.5 155.5t282 57.5t281.5 -57.5t230 -155.5t156 -230t57.5 -282t-57.5 -282t-156 -230t-230 -155.5t-281.5 -57.5t-282 57.5t-230.5 155.5t-154.5 230.5t-56 281.5zM164 731q0 -129 49 -242.5t135 -199.5t200 -135.5t243 -49.5 q131 0 244.5 49.5t197.5 135.5t133 199.5t49 242.5t-49 242.5t-133 198.5t-197.5 134.5t-244.5 49.5q-129 0 -243 -49.5t-200 -134.5t-135 -198.5t-49 -242.5zM207 731q0 119 46 224.5t126 184.5t185.5 124t226.5 45q119 0 225 -45t185 -124t125 -184.5t46 -224.5 q0 -121 -46 -227.5t-125 -185t-185 -125t-225 -46.5q-121 0 -226.5 46.5t-185.5 125t-126 185t-46 227.5zM330 664l112 -177q346 -80 699 0l110 177h-921zM451 1063l151 -189q4 -4 15.5 -0.5t23.5 9.5t20.5 12t8.5 8q-29 57 -47.5 118.5t-53.5 111.5q-6 8 -26.5 -0.5 t-42 -22.5t-38 -28.5t-11.5 -18.5zM463 457q20 -35 51 -74t73 -70.5t92.5 -53t111.5 -21.5q59 0 110 21.5t92 53t73 70.5t52 74q-164 -43 -326.5 -42t-328.5 42zM715 731h155l-77 187zM918 903q-4 -2 4 -8t19 -12t23.5 -9.5t18.5 0.5l147 189q4 4 -11 18.5t-36.5 28.5 t-42 22.5t-26.5 0.5q-39 -49 -55.5 -110.5t-40.5 -119.5zM1290 102v23h84v-23h-31v-77h-22v77h-31zM1384 25v100h31l19 -78l18 78h29v-100h-19v77l-20 -77h-19l-20 77v-77h-19z" />
<glyph unicode="&#xf0;" d="M68 731q0 150 56 282t154.5 230t230.5 155.5t282 57.5t281.5 -57.5t230 -155.5t156 -230t57.5 -282t-57.5 -282t-156 -230t-230 -155.5t-281.5 -57.5t-282 57.5t-230.5 155.5t-154.5 230.5t-56 281.5zM164 731q0 -129 49 -242.5t135 -199.5t200 -135.5t243 -49.5 q131 0 244.5 49.5t197.5 135.5t133 199.5t49 242.5t-49 242.5t-133 198.5t-197.5 134.5t-244.5 49.5q-129 0 -243 -49.5t-200 -134.5t-135 -198.5t-49 -242.5zM207 731q0 119 46 224.5t126 184.5t185.5 124t226.5 45q119 0 225 -45t185 -124t125 -184.5t46 -224.5 q0 -121 -46 -227.5t-125 -185t-185 -125t-225 -46.5q-121 0 -226.5 46.5t-185.5 125t-126 185t-46 227.5zM330 664l112 -177q346 -80 699 0l110 177h-921zM451 1063l151 -189q4 -4 15.5 -0.5t23.5 9.5t20.5 12t8.5 8q-29 57 -47.5 118.5t-53.5 111.5q-6 8 -26.5 -0.5 t-42 -22.5t-38 -28.5t-11.5 -18.5zM463 457q20 -35 51 -74t73 -70.5t92.5 -53t111.5 -21.5q59 0 110 21.5t92 53t73 70.5t52 74q-164 -43 -326.5 -42t-328.5 42zM715 731h155l-77 187zM918 903q-4 -2 4 -8t19 -12t23.5 -9.5t18.5 0.5l147 189q4 4 -11 18.5t-36.5 28.5 t-42 22.5t-26.5 0.5q-39 -49 -55.5 -110.5t-40.5 -119.5zM1290 102v23h84v-23h-31v-77h-22v77h-31zM1384 25v100h31l19 -78l18 78h29v-100h-19v77l-20 -77h-19l-20 77v-77h-19z" />
<glyph unicode="&#xf1;" d="M68 731q0 150 56 282t154.5 230t230.5 155.5t282 57.5t281.5 -57.5t230 -155.5t156 -230t57.5 -282t-57.5 -282t-156 -230t-230 -155.5t-281.5 -57.5t-282 57.5t-230.5 155.5t-154.5 230.5t-56 281.5zM164 731q0 -129 49 -242.5t135 -199.5t200 -135.5t243 -49.5 q131 0 244.5 49.5t197.5 135.5t133 199.5t49 242.5t-49 242.5t-133 198.5t-197.5 134.5t-244.5 49.5q-129 0 -243 -49.5t-200 -134.5t-135 -198.5t-49 -242.5zM207 731q0 119 46 224.5t126 184.5t185.5 124t226.5 45q119 0 225 -45t185 -124t125 -184.5t46 -224.5 q0 -121 -46 -227.5t-125 -185t-185 -125t-225 -46.5q-121 0 -226.5 46.5t-185.5 125t-126 185t-46 227.5zM330 664l112 -177q346 -80 699 0l110 177h-921zM451 1063l151 -189q4 -4 15.5 -0.5t23.5 9.5t20.5 12t8.5 8q-29 57 -47.5 118.5t-53.5 111.5q-6 8 -26.5 -0.5 t-42 -22.5t-38 -28.5t-11.5 -18.5zM463 457q20 -35 51 -74t73 -70.5t92.5 -53t111.5 -21.5q59 0 110 21.5t92 53t73 70.5t52 74q-164 -43 -326.5 -42t-328.5 42zM715 731h155l-77 187zM918 903q-4 -2 4 -8t19 -12t23.5 -9.5t18.5 0.5l147 189q4 4 -11 18.5t-36.5 28.5 t-42 22.5t-26.5 0.5q-39 -49 -55.5 -110.5t-40.5 -119.5zM1290 102v23h84v-23h-31v-77h-22v77h-31zM1384 25v100h31l19 -78l18 78h29v-100h-19v77l-20 -77h-19l-20 77v-77h-19z" />
<glyph unicode="&#xf2;" d="M68 731q0 150 56 282t154.5 230t230.5 155.5t282 57.5t281.5 -57.5t230 -155.5t156 -230t57.5 -282t-57.5 -282t-156 -230t-230 -155.5t-281.5 -57.5t-282 57.5t-230.5 155.5t-154.5 230.5t-56 281.5zM164 731q0 -129 49 -242.5t135 -199.5t200 -135.5t243 -49.5 q131 0 244.5 49.5t197.5 135.5t133 199.5t49 242.5t-49 242.5t-133 198.5t-197.5 134.5t-244.5 49.5q-129 0 -243 -49.5t-200 -134.5t-135 -198.5t-49 -242.5zM207 731q0 119 46 224.5t126 184.5t185.5 124t226.5 45q119 0 225 -45t185 -124t125 -184.5t46 -224.5 q0 -121 -46 -227.5t-125 -185t-185 -125t-225 -46.5q-121 0 -226.5 46.5t-185.5 125t-126 185t-46 227.5zM330 664l112 -177q346 -80 699 0l110 177h-921zM451 1063l151 -189q4 -4 15.5 -0.5t23.5 9.5t20.5 12t8.5 8q-29 57 -47.5 118.5t-53.5 111.5q-6 8 -26.5 -0.5 t-42 -22.5t-38 -28.5t-11.5 -18.5zM463 457q20 -35 51 -74t73 -70.5t92.5 -53t111.5 -21.5q59 0 110 21.5t92 53t73 70.5t52 74q-164 -43 -326.5 -42t-328.5 42zM715 731h155l-77 187zM918 903q-4 -2 4 -8t19 -12t23.5 -9.5t18.5 0.5l147 189q4 4 -11 18.5t-36.5 28.5 t-42 22.5t-26.5 0.5q-39 -49 -55.5 -110.5t-40.5 -119.5zM1290 102v23h84v-23h-31v-77h-22v77h-31zM1384 25v100h31l19 -78l18 78h29v-100h-19v77l-20 -77h-19l-20 77v-77h-19z" />
<glyph unicode="&#xf3;" d="M68 731q0 150 56 282t154.5 230t230.5 155.5t282 57.5t281.5 -57.5t230 -155.5t156 -230t57.5 -282t-57.5 -282t-156 -230t-230 -155.5t-281.5 -57.5t-282 57.5t-230.5 155.5t-154.5 230.5t-56 281.5zM164 731q0 -129 49 -242.5t135 -199.5t200 -135.5t243 -49.5 q131 0 244.5 49.5t197.5 135.5t133 199.5t49 242.5t-49 242.5t-133 198.5t-197.5 134.5t-244.5 49.5q-129 0 -243 -49.5t-200 -134.5t-135 -198.5t-49 -242.5zM207 731q0 119 46 224.5t126 184.5t185.5 124t226.5 45q119 0 225 -45t185 -124t125 -184.5t46 -224.5 q0 -121 -46 -227.5t-125 -185t-185 -125t-225 -46.5q-121 0 -226.5 46.5t-185.5 125t-126 185t-46 227.5zM330 664l112 -177q346 -80 699 0l110 177h-921zM451 1063l151 -189q4 -4 15.5 -0.5t23.5 9.5t20.5 12t8.5 8q-29 57 -47.5 118.5t-53.5 111.5q-6 8 -26.5 -0.5 t-42 -22.5t-38 -28.5t-11.5 -18.5zM463 457q20 -35 51 -74t73 -70.5t92.5 -53t111.5 -21.5q59 0 110 21.5t92 53t73 70.5t52 74q-164 -43 -326.5 -42t-328.5 42zM715 731h155l-77 187zM918 903q-4 -2 4 -8t19 -12t23.5 -9.5t18.5 0.5l147 189q4 4 -11 18.5t-36.5 28.5 t-42 22.5t-26.5 0.5q-39 -49 -55.5 -110.5t-40.5 -119.5zM1290 102v23h84v-23h-31v-77h-22v77h-31zM1384 25v100h31l19 -78l18 78h29v-100h-19v77l-20 -77h-19l-20 77v-77h-19z" />
<glyph unicode="&#xf4;" d="M68 731q0 150 56 282t154.5 230t230.5 155.5t282 57.5t281.5 -57.5t230 -155.5t156 -230t57.5 -282t-57.5 -282t-156 -230t-230 -155.5t-281.5 -57.5t-282 57.5t-230.5 155.5t-154.5 230.5t-56 281.5zM164 731q0 -129 49 -242.5t135 -199.5t200 -135.5t243 -49.5 q131 0 244.5 49.5t197.5 135.5t133 199.5t49 242.5t-49 242.5t-133 198.5t-197.5 134.5t-244.5 49.5q-129 0 -243 -49.5t-200 -134.5t-135 -198.5t-49 -242.5zM207 731q0 119 46 224.5t126 184.5t185.5 124t226.5 45q119 0 225 -45t185 -124t125 -184.5t46 -224.5 q0 -121 -46 -227.5t-125 -185t-185 -125t-225 -46.5q-121 0 -226.5 46.5t-185.5 125t-126 185t-46 227.5zM330 664l112 -177q346 -80 699 0l110 177h-921zM451 1063l151 -189q4 -4 15.5 -0.5t23.5 9.5t20.5 12t8.5 8q-29 57 -47.5 118.5t-53.5 111.5q-6 8 -26.5 -0.5 t-42 -22.5t-38 -28.5t-11.5 -18.5zM463 457q20 -35 51 -74t73 -70.5t92.5 -53t111.5 -21.5q59 0 110 21.5t92 53t73 70.5t52 74q-164 -43 -326.5 -42t-328.5 42zM715 731h155l-77 187zM918 903q-4 -2 4 -8t19 -12t23.5 -9.5t18.5 0.5l147 189q4 4 -11 18.5t-36.5 28.5 t-42 22.5t-26.5 0.5q-39 -49 -55.5 -110.5t-40.5 -119.5zM1290 102v23h84v-23h-31v-77h-22v77h-31zM1384 25v100h31l19 -78l18 78h29v-100h-19v77l-20 -77h-19l-20 77v-77h-19z" />
<glyph unicode="&#xf5;" d="M68 731q0 150 56 282t154.5 230t230.5 155.5t282 57.5t281.5 -57.5t230 -155.5t156 -230t57.5 -282t-57.5 -282t-156 -230t-230 -155.5t-281.5 -57.5t-282 57.5t-230.5 155.5t-154.5 230.5t-56 281.5zM164 731q0 -129 49 -242.5t135 -199.5t200 -135.5t243 -49.5 q131 0 244.5 49.5t197.5 135.5t133 199.5t49 242.5t-49 242.5t-133 198.5t-197.5 134.5t-244.5 49.5q-129 0 -243 -49.5t-200 -134.5t-135 -198.5t-49 -242.5zM207 731q0 119 46 224.5t126 184.5t185.5 124t226.5 45q119 0 225 -45t185 -124t125 -184.5t46 -224.5 q0 -121 -46 -227.5t-125 -185t-185 -125t-225 -46.5q-121 0 -226.5 46.5t-185.5 125t-126 185t-46 227.5zM330 664l112 -177q346 -80 699 0l110 177h-921zM451 1063l151 -189q4 -4 15.5 -0.5t23.5 9.5t20.5 12t8.5 8q-29 57 -47.5 118.5t-53.5 111.5q-6 8 -26.5 -0.5 t-42 -22.5t-38 -28.5t-11.5 -18.5zM463 457q20 -35 51 -74t73 -70.5t92.5 -53t111.5 -21.5q59 0 110 21.5t92 53t73 70.5t52 74q-164 -43 -326.5 -42t-328.5 42zM715 731h155l-77 187zM918 903q-4 -2 4 -8t19 -12t23.5 -9.5t18.5 0.5l147 189q4 4 -11 18.5t-36.5 28.5 t-42 22.5t-26.5 0.5q-39 -49 -55.5 -110.5t-40.5 -119.5zM1290 102v23h84v-23h-31v-77h-22v77h-31zM1384 25v100h31l19 -78l18 78h29v-100h-19v77l-20 -77h-19l-20 77v-77h-19z" />
<glyph unicode="&#xf6;" d="M68 731q0 150 56 282t154.5 230t230.5 155.5t282 57.5t281.5 -57.5t230 -155.5t156 -230t57.5 -282t-57.5 -282t-156 -230t-230 -155.5t-281.5 -57.5t-282 57.5t-230.5 155.5t-154.5 230.5t-56 281.5zM164 731q0 -129 49 -242.5t135 -199.5t200 -135.5t243 -49.5 q131 0 244.5 49.5t197.5 135.5t133 199.5t49 242.5t-49 242.5t-133 198.5t-197.5 134.5t-244.5 49.5q-129 0 -243 -49.5t-200 -134.5t-135 -198.5t-49 -242.5zM207 731q0 119 46 224.5t126 184.5t185.5 124t226.5 45q119 0 225 -45t185 -124t125 -184.5t46 -224.5 q0 -121 -46 -227.5t-125 -185t-185 -125t-225 -46.5q-121 0 -226.5 46.5t-185.5 125t-126 185t-46 227.5zM330 664l112 -177q346 -80 699 0l110 177h-921zM451 1063l151 -189q4 -4 15.5 -0.5t23.5 9.5t20.5 12t8.5 8q-29 57 -47.5 118.5t-53.5 111.5q-6 8 -26.5 -0.5 t-42 -22.5t-38 -28.5t-11.5 -18.5zM463 457q20 -35 51 -74t73 -70.5t92.5 -53t111.5 -21.5q59 0 110 21.5t92 53t73 70.5t52 74q-164 -43 -326.5 -42t-328.5 42zM715 731h155l-77 187zM918 903q-4 -2 4 -8t19 -12t23.5 -9.5t18.5 0.5l147 189q4 4 -11 18.5t-36.5 28.5 t-42 22.5t-26.5 0.5q-39 -49 -55.5 -110.5t-40.5 -119.5zM1290 102v23h84v-23h-31v-77h-22v77h-31zM1384 25v100h31l19 -78l18 78h29v-100h-19v77l-20 -77h-19l-20 77v-77h-19z" />
<glyph unicode="&#xf7;" d="M68 731q0 150 56 282t154.5 230t230.5 155.5t282 57.5t281.5 -57.5t230 -155.5t156 -230t57.5 -282t-57.5 -282t-156 -230t-230 -155.5t-281.5 -57.5t-282 57.5t-230.5 155.5t-154.5 230.5t-56 281.5zM164 731q0 -129 49 -242.5t135 -199.5t200 -135.5t243 -49.5 q131 0 244.5 49.5t197.5 135.5t133 199.5t49 242.5t-49 242.5t-133 198.5t-197.5 134.5t-244.5 49.5q-129 0 -243 -49.5t-200 -134.5t-135 -198.5t-49 -242.5zM207 731q0 119 46 224.5t126 184.5t185.5 124t226.5 45q119 0 225 -45t185 -124t125 -184.5t46 -224.5 q0 -121 -46 -227.5t-125 -185t-185 -125t-225 -46.5q-121 0 -226.5 46.5t-185.5 125t-126 185t-46 227.5zM330 664l112 -177q346 -80 699 0l110 177h-921zM451 1063l151 -189q4 -4 15.5 -0.5t23.5 9.5t20.5 12t8.5 8q-29 57 -47.5 118.5t-53.5 111.5q-6 8 -26.5 -0.5 t-42 -22.5t-38 -28.5t-11.5 -18.5zM463 457q20 -35 51 -74t73 -70.5t92.5 -53t111.5 -21.5q59 0 110 21.5t92 53t73 70.5t52 74q-164 -43 -326.5 -42t-328.5 42zM715 731h155l-77 187zM918 903q-4 -2 4 -8t19 -12t23.5 -9.5t18.5 0.5l147 189q4 4 -11 18.5t-36.5 28.5 t-42 22.5t-26.5 0.5q-39 -49 -55.5 -110.5t-40.5 -119.5zM1290 102v23h84v-23h-31v-77h-22v77h-31zM1384 25v100h31l19 -78l18 78h29v-100h-19v77l-20 -77h-19l-20 77v-77h-19z" />
<glyph unicode="&#xf8;" d="M68 731q0 150 56 282t154.5 230t230.5 155.5t282 57.5t281.5 -57.5t230 -155.5t156 -230t57.5 -282t-57.5 -282t-156 -230t-230 -155.5t-281.5 -57.5t-282 57.5t-230.5 155.5t-154.5 230.5t-56 281.5zM164 731q0 -129 49 -242.5t135 -199.5t200 -135.5t243 -49.5 q131 0 244.5 49.5t197.5 135.5t133 199.5t49 242.5t-49 242.5t-133 198.5t-197.5 134.5t-244.5 49.5q-129 0 -243 -49.5t-200 -134.5t-135 -198.5t-49 -242.5zM207 731q0 119 46 224.5t126 184.5t185.5 124t226.5 45q119 0 225 -45t185 -124t125 -184.5t46 -224.5 q0 -121 -46 -227.5t-125 -185t-185 -125t-225 -46.5q-121 0 -226.5 46.5t-185.5 125t-126 185t-46 227.5zM330 664l112 -177q346 -80 699 0l110 177h-921zM451 1063l151 -189q4 -4 15.5 -0.5t23.5 9.5t20.5 12t8.5 8q-29 57 -47.5 118.5t-53.5 111.5q-6 8 -26.5 -0.5 t-42 -22.5t-38 -28.5t-11.5 -18.5zM463 457q20 -35 51 -74t73 -70.5t92.5 -53t111.5 -21.5q59 0 110 21.5t92 53t73 70.5t52 74q-164 -43 -326.5 -42t-328.5 42zM715 731h155l-77 187zM918 903q-4 -2 4 -8t19 -12t23.5 -9.5t18.5 0.5l147 189q4 4 -11 18.5t-36.5 28.5 t-42 22.5t-26.5 0.5q-39 -49 -55.5 -110.5t-40.5 -119.5zM1290 102v23h84v-23h-31v-77h-22v77h-31zM1384 25v100h31l19 -78l18 78h29v-100h-19v77l-20 -77h-19l-20 77v-77h-19z" />
<glyph unicode="&#xf9;" d="M68 731q0 150 56 282t154.5 230t230.5 155.5t282 57.5t281.5 -57.5t230 -155.5t156 -230t57.5 -282t-57.5 -282t-156 -230t-230 -155.5t-281.5 -57.5t-282 57.5t-230.5 155.5t-154.5 230.5t-56 281.5zM164 731q0 -129 49 -242.5t135 -199.5t200 -135.5t243 -49.5 q131 0 244.5 49.5t197.5 135.5t133 199.5t49 242.5t-49 242.5t-133 198.5t-197.5 134.5t-244.5 49.5q-129 0 -243 -49.5t-200 -134.5t-135 -198.5t-49 -242.5zM207 731q0 119 46 224.5t126 184.5t185.5 124t226.5 45q119 0 225 -45t185 -124t125 -184.5t46 -224.5 q0 -121 -46 -227.5t-125 -185t-185 -125t-225 -46.5q-121 0 -226.5 46.5t-185.5 125t-126 185t-46 227.5zM330 664l112 -177q346 -80 699 0l110 177h-921zM451 1063l151 -189q4 -4 15.5 -0.5t23.5 9.5t20.5 12t8.5 8q-29 57 -47.5 118.5t-53.5 111.5q-6 8 -26.5 -0.5 t-42 -22.5t-38 -28.5t-11.5 -18.5zM463 457q20 -35 51 -74t73 -70.5t92.5 -53t111.5 -21.5q59 0 110 21.5t92 53t73 70.5t52 74q-164 -43 -326.5 -42t-328.5 42zM715 731h155l-77 187zM918 903q-4 -2 4 -8t19 -12t23.5 -9.5t18.5 0.5l147 189q4 4 -11 18.5t-36.5 28.5 t-42 22.5t-26.5 0.5q-39 -49 -55.5 -110.5t-40.5 -119.5zM1290 102v23h84v-23h-31v-77h-22v77h-31zM1384 25v100h31l19 -78l18 78h29v-100h-19v77l-20 -77h-19l-20 77v-77h-19z" />
<glyph unicode="&#xfa;" d="M68 731q0 150 56 282t154.5 230t230.5 155.5t282 57.5t281.5 -57.5t230 -155.5t156 -230t57.5 -282t-57.5 -282t-156 -230t-230 -155.5t-281.5 -57.5t-282 57.5t-230.5 155.5t-154.5 230.5t-56 281.5zM164 731q0 -129 49 -242.5t135 -199.5t200 -135.5t243 -49.5 q131 0 244.5 49.5t197.5 135.5t133 199.5t49 242.5t-49 242.5t-133 198.5t-197.5 134.5t-244.5 49.5q-129 0 -243 -49.5t-200 -134.5t-135 -198.5t-49 -242.5zM207 731q0 119 46 224.5t126 184.5t185.5 124t226.5 45q119 0 225 -45t185 -124t125 -184.5t46 -224.5 q0 -121 -46 -227.5t-125 -185t-185 -125t-225 -46.5q-121 0 -226.5 46.5t-185.5 125t-126 185t-46 227.5zM330 664l112 -177q346 -80 699 0l110 177h-921zM451 1063l151 -189q4 -4 15.5 -0.5t23.5 9.5t20.5 12t8.5 8q-29 57 -47.5 118.5t-53.5 111.5q-6 8 -26.5 -0.5 t-42 -22.5t-38 -28.5t-11.5 -18.5zM463 457q20 -35 51 -74t73 -70.5t92.5 -53t111.5 -21.5q59 0 110 21.5t92 53t73 70.5t52 74q-164 -43 -326.5 -42t-328.5 42zM715 731h155l-77 187zM918 903q-4 -2 4 -8t19 -12t23.5 -9.5t18.5 0.5l147 189q4 4 -11 18.5t-36.5 28.5 t-42 22.5t-26.5 0.5q-39 -49 -55.5 -110.5t-40.5 -119.5zM1290 102v23h84v-23h-31v-77h-22v77h-31zM1384 25v100h31l19 -78l18 78h29v-100h-19v77l-20 -77h-19l-20 77v-77h-19z" />
<glyph unicode="&#xfb;" d="M68 731q0 150 56 282t154.5 230t230.5 155.5t282 57.5t281.5 -57.5t230 -155.5t156 -230t57.5 -282t-57.5 -282t-156 -230t-230 -155.5t-281.5 -57.5t-282 57.5t-230.5 155.5t-154.5 230.5t-56 281.5zM164 731q0 -129 49 -242.5t135 -199.5t200 -135.5t243 -49.5 q131 0 244.5 49.5t197.5 135.5t133 199.5t49 242.5t-49 242.5t-133 198.5t-197.5 134.5t-244.5 49.5q-129 0 -243 -49.5t-200 -134.5t-135 -198.5t-49 -242.5zM207 731q0 119 46 224.5t126 184.5t185.5 124t226.5 45q119 0 225 -45t185 -124t125 -184.5t46 -224.5 q0 -121 -46 -227.5t-125 -185t-185 -125t-225 -46.5q-121 0 -226.5 46.5t-185.5 125t-126 185t-46 227.5zM330 664l112 -177q346 -80 699 0l110 177h-921zM451 1063l151 -189q4 -4 15.5 -0.5t23.5 9.5t20.5 12t8.5 8q-29 57 -47.5 118.5t-53.5 111.5q-6 8 -26.5 -0.5 t-42 -22.5t-38 -28.5t-11.5 -18.5zM463 457q20 -35 51 -74t73 -70.5t92.5 -53t111.5 -21.5q59 0 110 21.5t92 53t73 70.5t52 74q-164 -43 -326.5 -42t-328.5 42zM715 731h155l-77 187zM918 903q-4 -2 4 -8t19 -12t23.5 -9.5t18.5 0.5l147 189q4 4 -11 18.5t-36.5 28.5 t-42 22.5t-26.5 0.5q-39 -49 -55.5 -110.5t-40.5 -119.5zM1290 102v23h84v-23h-31v-77h-22v77h-31zM1384 25v100h31l19 -78l18 78h29v-100h-19v77l-20 -77h-19l-20 77v-77h-19z" />
<glyph unicode="&#xfc;" d="M68 731q0 150 56 282t154.5 230t230.5 155.5t282 57.5t281.5 -57.5t230 -155.5t156 -230t57.5 -282t-57.5 -282t-156 -230t-230 -155.5t-281.5 -57.5t-282 57.5t-230.5 155.5t-154.5 230.5t-56 281.5zM164 731q0 -129 49 -242.5t135 -199.5t200 -135.5t243 -49.5 q131 0 244.5 49.5t197.5 135.5t133 199.5t49 242.5t-49 242.5t-133 198.5t-197.5 134.5t-244.5 49.5q-129 0 -243 -49.5t-200 -134.5t-135 -198.5t-49 -242.5zM207 731q0 119 46 224.5t126 184.5t185.5 124t226.5 45q119 0 225 -45t185 -124t125 -184.5t46 -224.5 q0 -121 -46 -227.5t-125 -185t-185 -125t-225 -46.5q-121 0 -226.5 46.5t-185.5 125t-126 185t-46 227.5zM330 664l112 -177q346 -80 699 0l110 177h-921zM451 1063l151 -189q4 -4 15.5 -0.5t23.5 9.5t20.5 12t8.5 8q-29 57 -47.5 118.5t-53.5 111.5q-6 8 -26.5 -0.5 t-42 -22.5t-38 -28.5t-11.5 -18.5zM463 457q20 -35 51 -74t73 -70.5t92.5 -53t111.5 -21.5q59 0 110 21.5t92 53t73 70.5t52 74q-164 -43 -326.5 -42t-328.5 42zM715 731h155l-77 187zM918 903q-4 -2 4 -8t19 -12t23.5 -9.5t18.5 0.5l147 189q4 4 -11 18.5t-36.5 28.5 t-42 22.5t-26.5 0.5q-39 -49 -55.5 -110.5t-40.5 -119.5zM1290 102v23h84v-23h-31v-77h-22v77h-31zM1384 25v100h31l19 -78l18 78h29v-100h-19v77l-20 -77h-19l-20 77v-77h-19z" />
<glyph unicode="&#xfd;" d="M68 731q0 150 56 282t154.5 230t230.5 155.5t282 57.5t281.5 -57.5t230 -155.5t156 -230t57.5 -282t-57.5 -282t-156 -230t-230 -155.5t-281.5 -57.5t-282 57.5t-230.5 155.5t-154.5 230.5t-56 281.5zM164 731q0 -129 49 -242.5t135 -199.5t200 -135.5t243 -49.5 q131 0 244.5 49.5t197.5 135.5t133 199.5t49 242.5t-49 242.5t-133 198.5t-197.5 134.5t-244.5 49.5q-129 0 -243 -49.5t-200 -134.5t-135 -198.5t-49 -242.5zM207 731q0 119 46 224.5t126 184.5t185.5 124t226.5 45q119 0 225 -45t185 -124t125 -184.5t46 -224.5 q0 -121 -46 -227.5t-125 -185t-185 -125t-225 -46.5q-121 0 -226.5 46.5t-185.5 125t-126 185t-46 227.5zM330 664l112 -177q346 -80 699 0l110 177h-921zM451 1063l151 -189q4 -4 15.5 -0.5t23.5 9.5t20.5 12t8.5 8q-29 57 -47.5 118.5t-53.5 111.5q-6 8 -26.5 -0.5 t-42 -22.5t-38 -28.5t-11.5 -18.5zM463 457q20 -35 51 -74t73 -70.5t92.5 -53t111.5 -21.5q59 0 110 21.5t92 53t73 70.5t52 74q-164 -43 -326.5 -42t-328.5 42zM715 731h155l-77 187zM918 903q-4 -2 4 -8t19 -12t23.5 -9.5t18.5 0.5l147 189q4 4 -11 18.5t-36.5 28.5 t-42 22.5t-26.5 0.5q-39 -49 -55.5 -110.5t-40.5 -119.5zM1290 102v23h84v-23h-31v-77h-22v77h-31zM1384 25v100h31l19 -78l18 78h29v-100h-19v77l-20 -77h-19l-20 77v-77h-19z" />
<glyph unicode="&#xfe;" d="M68 731q0 150 56 282t154.5 230t230.5 155.5t282 57.5t281.5 -57.5t230 -155.5t156 -230t57.5 -282t-57.5 -282t-156 -230t-230 -155.5t-281.5 -57.5t-282 57.5t-230.5 155.5t-154.5 230.5t-56 281.5zM164 731q0 -129 49 -242.5t135 -199.5t200 -135.5t243 -49.5 q131 0 244.5 49.5t197.5 135.5t133 199.5t49 242.5t-49 242.5t-133 198.5t-197.5 134.5t-244.5 49.5q-129 0 -243 -49.5t-200 -134.5t-135 -198.5t-49 -242.5zM207 731q0 119 46 224.5t126 184.5t185.5 124t226.5 45q119 0 225 -45t185 -124t125 -184.5t46 -224.5 q0 -121 -46 -227.5t-125 -185t-185 -125t-225 -46.5q-121 0 -226.5 46.5t-185.5 125t-126 185t-46 227.5zM330 664l112 -177q346 -80 699 0l110 177h-921zM451 1063l151 -189q4 -4 15.5 -0.5t23.5 9.5t20.5 12t8.5 8q-29 57 -47.5 118.5t-53.5 111.5q-6 8 -26.5 -0.5 t-42 -22.5t-38 -28.5t-11.5 -18.5zM463 457q20 -35 51 -74t73 -70.5t92.5 -53t111.5 -21.5q59 0 110 21.5t92 53t73 70.5t52 74q-164 -43 -326.5 -42t-328.5 42zM715 731h155l-77 187zM918 903q-4 -2 4 -8t19 -12t23.5 -9.5t18.5 0.5l147 189q4 4 -11 18.5t-36.5 28.5 t-42 22.5t-26.5 0.5q-39 -49 -55.5 -110.5t-40.5 -119.5zM1290 102v23h84v-23h-31v-77h-22v77h-31zM1384 25v100h31l19 -78l18 78h29v-100h-19v77l-20 -77h-19l-20 77v-77h-19z" />
<glyph unicode="&#xff;" d="M68 731q0 150 56 282t154.5 230t230.5 155.5t282 57.5t281.5 -57.5t230 -155.5t156 -230t57.5 -282t-57.5 -282t-156 -230t-230 -155.5t-281.5 -57.5t-282 57.5t-230.5 155.5t-154.5 230.5t-56 281.5zM164 731q0 -129 49 -242.5t135 -199.5t200 -135.5t243 -49.5 q131 0 244.5 49.5t197.5 135.5t133 199.5t49 242.5t-49 242.5t-133 198.5t-197.5 134.5t-244.5 49.5q-129 0 -243 -49.5t-200 -134.5t-135 -198.5t-49 -242.5zM207 731q0 119 46 224.5t126 184.5t185.5 124t226.5 45q119 0 225 -45t185 -124t125 -184.5t46 -224.5 q0 -121 -46 -227.5t-125 -185t-185 -125t-225 -46.5q-121 0 -226.5 46.5t-185.5 125t-126 185t-46 227.5zM330 664l112 -177q346 -80 699 0l110 177h-921zM451 1063l151 -189q4 -4 15.5 -0.5t23.5 9.5t20.5 12t8.5 8q-29 57 -47.5 118.5t-53.5 111.5q-6 8 -26.5 -0.5 t-42 -22.5t-38 -28.5t-11.5 -18.5zM463 457q20 -35 51 -74t73 -70.5t92.5 -53t111.5 -21.5q59 0 110 21.5t92 53t73 70.5t52 74q-164 -43 -326.5 -42t-328.5 42zM715 731h155l-77 187zM918 903q-4 -2 4 -8t19 -12t23.5 -9.5t18.5 0.5l147 189q4 4 -11 18.5t-36.5 28.5 t-42 22.5t-26.5 0.5q-39 -49 -55.5 -110.5t-40.5 -119.5zM1290 102v23h84v-23h-31v-77h-22v77h-31zM1384 25v100h31l19 -78l18 78h29v-100h-19v77l-20 -77h-19l-20 77v-77h-19z" />
<glyph unicode="&#x152;" d="M68 731q0 150 56 282t154.5 230t230.5 155.5t282 57.5t281.5 -57.5t230 -155.5t156 -230t57.5 -282t-57.5 -282t-156 -230t-230 -155.5t-281.5 -57.5t-282 57.5t-230.5 155.5t-154.5 230.5t-56 281.5zM164 731q0 -129 49 -242.5t135 -199.5t200 -135.5t243 -49.5 q131 0 244.5 49.5t197.5 135.5t133 199.5t49 242.5t-49 242.5t-133 198.5t-197.5 134.5t-244.5 49.5q-129 0 -243 -49.5t-200 -134.5t-135 -198.5t-49 -242.5zM207 731q0 119 46 224.5t126 184.5t185.5 124t226.5 45q119 0 225 -45t185 -124t125 -184.5t46 -224.5 q0 -121 -46 -227.5t-125 -185t-185 -125t-225 -46.5q-121 0 -226.5 46.5t-185.5 125t-126 185t-46 227.5zM330 664l112 -177q346 -80 699 0l110 177h-921zM451 1063l151 -189q4 -4 15.5 -0.5t23.5 9.5t20.5 12t8.5 8q-29 57 -47.5 118.5t-53.5 111.5q-6 8 -26.5 -0.5 t-42 -22.5t-38 -28.5t-11.5 -18.5zM463 457q20 -35 51 -74t73 -70.5t92.5 -53t111.5 -21.5q59 0 110 21.5t92 53t73 70.5t52 74q-164 -43 -326.5 -42t-328.5 42zM715 731h155l-77 187zM918 903q-4 -2 4 -8t19 -12t23.5 -9.5t18.5 0.5l147 189q4 4 -11 18.5t-36.5 28.5 t-42 22.5t-26.5 0.5q-39 -49 -55.5 -110.5t-40.5 -119.5zM1290 102v23h84v-23h-31v-77h-22v77h-31zM1384 25v100h31l19 -78l18 78h29v-100h-19v77l-20 -77h-19l-20 77v-77h-19z" />
<glyph unicode="&#x153;" d="M68 731q0 150 56 282t154.5 230t230.5 155.5t282 57.5t281.5 -57.5t230 -155.5t156 -230t57.5 -282t-57.5 -282t-156 -230t-230 -155.5t-281.5 -57.5t-282 57.5t-230.5 155.5t-154.5 230.5t-56 281.5zM164 731q0 -129 49 -242.5t135 -199.5t200 -135.5t243 -49.5 q131 0 244.5 49.5t197.5 135.5t133 199.5t49 242.5t-49 242.5t-133 198.5t-197.5 134.5t-244.5 49.5q-129 0 -243 -49.5t-200 -134.5t-135 -198.5t-49 -242.5zM207 731q0 119 46 224.5t126 184.5t185.5 124t226.5 45q119 0 225 -45t185 -124t125 -184.5t46 -224.5 q0 -121 -46 -227.5t-125 -185t-185 -125t-225 -46.5q-121 0 -226.5 46.5t-185.5 125t-126 185t-46 227.5zM330 664l112 -177q346 -80 699 0l110 177h-921zM451 1063l151 -189q4 -4 15.5 -0.5t23.5 9.5t20.5 12t8.5 8q-29 57 -47.5 118.5t-53.5 111.5q-6 8 -26.5 -0.5 t-42 -22.5t-38 -28.5t-11.5 -18.5zM463 457q20 -35 51 -74t73 -70.5t92.5 -53t111.5 -21.5q59 0 110 21.5t92 53t73 70.5t52 74q-164 -43 -326.5 -42t-328.5 42zM715 731h155l-77 187zM918 903q-4 -2 4 -8t19 -12t23.5 -9.5t18.5 0.5l147 189q4 4 -11 18.5t-36.5 28.5 t-42 22.5t-26.5 0.5q-39 -49 -55.5 -110.5t-40.5 -119.5zM1290 102v23h84v-23h-31v-77h-22v77h-31zM1384 25v100h31l19 -78l18 78h29v-100h-19v77l-20 -77h-19l-20 77v-77h-19z" />
<glyph unicode="&#x178;" d="M68 731q0 150 56 282t154.5 230t230.5 155.5t282 57.5t281.5 -57.5t230 -155.5t156 -230t57.5 -282t-57.5 -282t-156 -230t-230 -155.5t-281.5 -57.5t-282 57.5t-230.5 155.5t-154.5 230.5t-56 281.5zM164 731q0 -129 49 -242.5t135 -199.5t200 -135.5t243 -49.5 q131 0 244.5 49.5t197.5 135.5t133 199.5t49 242.5t-49 242.5t-133 198.5t-197.5 134.5t-244.5 49.5q-129 0 -243 -49.5t-200 -134.5t-135 -198.5t-49 -242.5zM207 731q0 119 46 224.5t126 184.5t185.5 124t226.5 45q119 0 225 -45t185 -124t125 -184.5t46 -224.5 q0 -121 -46 -227.5t-125 -185t-185 -125t-225 -46.5q-121 0 -226.5 46.5t-185.5 125t-126 185t-46 227.5zM330 664l112 -177q346 -80 699 0l110 177h-921zM451 1063l151 -189q4 -4 15.5 -0.5t23.5 9.5t20.5 12t8.5 8q-29 57 -47.5 118.5t-53.5 111.5q-6 8 -26.5 -0.5 t-42 -22.5t-38 -28.5t-11.5 -18.5zM463 457q20 -35 51 -74t73 -70.5t92.5 -53t111.5 -21.5q59 0 110 21.5t92 53t73 70.5t52 74q-164 -43 -326.5 -42t-328.5 42zM715 731h155l-77 187zM918 903q-4 -2 4 -8t19 -12t23.5 -9.5t18.5 0.5l147 189q4 4 -11 18.5t-36.5 28.5 t-42 22.5t-26.5 0.5q-39 -49 -55.5 -110.5t-40.5 -119.5zM1290 102v23h84v-23h-31v-77h-22v77h-31zM1384 25v100h31l19 -78l18 78h29v-100h-19v77l-20 -77h-19l-20 77v-77h-19z" />
<glyph unicode="&#x2c6;" d="M68 731q0 150 56 282t154.5 230t230.5 155.5t282 57.5t281.5 -57.5t230 -155.5t156 -230t57.5 -282t-57.5 -282t-156 -230t-230 -155.5t-281.5 -57.5t-282 57.5t-230.5 155.5t-154.5 230.5t-56 281.5zM164 731q0 -129 49 -242.5t135 -199.5t200 -135.5t243 -49.5 q131 0 244.5 49.5t197.5 135.5t133 199.5t49 242.5t-49 242.5t-133 198.5t-197.5 134.5t-244.5 49.5q-129 0 -243 -49.5t-200 -134.5t-135 -198.5t-49 -242.5zM207 731q0 119 46 224.5t126 184.5t185.5 124t226.5 45q119 0 225 -45t185 -124t125 -184.5t46 -224.5 q0 -121 -46 -227.5t-125 -185t-185 -125t-225 -46.5q-121 0 -226.5 46.5t-185.5 125t-126 185t-46 227.5zM330 664l112 -177q346 -80 699 0l110 177h-921zM451 1063l151 -189q4 -4 15.5 -0.5t23.5 9.5t20.5 12t8.5 8q-29 57 -47.5 118.5t-53.5 111.5q-6 8 -26.5 -0.5 t-42 -22.5t-38 -28.5t-11.5 -18.5zM463 457q20 -35 51 -74t73 -70.5t92.5 -53t111.5 -21.5q59 0 110 21.5t92 53t73 70.5t52 74q-164 -43 -326.5 -42t-328.5 42zM715 731h155l-77 187zM918 903q-4 -2 4 -8t19 -12t23.5 -9.5t18.5 0.5l147 189q4 4 -11 18.5t-36.5 28.5 t-42 22.5t-26.5 0.5q-39 -49 -55.5 -110.5t-40.5 -119.5zM1290 102v23h84v-23h-31v-77h-22v77h-31zM1384 25v100h31l19 -78l18 78h29v-100h-19v77l-20 -77h-19l-20 77v-77h-19z" />
<glyph unicode="&#x2dc;" d="M68 731q0 150 56 282t154.5 230t230.5 155.5t282 57.5t281.5 -57.5t230 -155.5t156 -230t57.5 -282t-57.5 -282t-156 -230t-230 -155.5t-281.5 -57.5t-282 57.5t-230.5 155.5t-154.5 230.5t-56 281.5zM164 731q0 -129 49 -242.5t135 -199.5t200 -135.5t243 -49.5 q131 0 244.5 49.5t197.5 135.5t133 199.5t49 242.5t-49 242.5t-133 198.5t-197.5 134.5t-244.5 49.5q-129 0 -243 -49.5t-200 -134.5t-135 -198.5t-49 -242.5zM207 731q0 119 46 224.5t126 184.5t185.5 124t226.5 45q119 0 225 -45t185 -124t125 -184.5t46 -224.5 q0 -121 -46 -227.5t-125 -185t-185 -125t-225 -46.5q-121 0 -226.5 46.5t-185.5 125t-126 185t-46 227.5zM330 664l112 -177q346 -80 699 0l110 177h-921zM451 1063l151 -189q4 -4 15.5 -0.5t23.5 9.5t20.5 12t8.5 8q-29 57 -47.5 118.5t-53.5 111.5q-6 8 -26.5 -0.5 t-42 -22.5t-38 -28.5t-11.5 -18.5zM463 457q20 -35 51 -74t73 -70.5t92.5 -53t111.5 -21.5q59 0 110 21.5t92 53t73 70.5t52 74q-164 -43 -326.5 -42t-328.5 42zM715 731h155l-77 187zM918 903q-4 -2 4 -8t19 -12t23.5 -9.5t18.5 0.5l147 189q4 4 -11 18.5t-36.5 28.5 t-42 22.5t-26.5 0.5q-39 -49 -55.5 -110.5t-40.5 -119.5zM1290 102v23h84v-23h-31v-77h-22v77h-31zM1384 25v100h31l19 -78l18 78h29v-100h-19v77l-20 -77h-19l-20 77v-77h-19z" />
<glyph unicode="&#x2000;" horiz-adv-x="729" />
<glyph unicode="&#x2001;" horiz-adv-x="1458" />
<glyph unicode="&#x2002;" horiz-adv-x="729" />
<glyph unicode="&#x2003;" horiz-adv-x="1458" />
<glyph unicode="&#x2004;" horiz-adv-x="486" />
<glyph unicode="&#x2005;" horiz-adv-x="364" />
<glyph unicode="&#x2006;" horiz-adv-x="243" />
<glyph unicode="&#x2007;" horiz-adv-x="243" />
<glyph unicode="&#x2008;" horiz-adv-x="182" />
<glyph unicode="&#x2009;" horiz-adv-x="291" />
<glyph unicode="&#x200a;" horiz-adv-x="81" />
<glyph unicode="&#x2010;" horiz-adv-x="647" d="M247 573q3 39 13 74q4 14 12.5 34.5t23.5 40t37.5 35t55.5 17.5q45 4 97.5 6t101.5 1t91 -5t66 -10q16 -33 13.5 -67.5t-15.5 -82.5q-8 -29 -22 -57.5t-31 -40.5q-41 6 -99.5 9t-119.5 3t-119.5 -4t-97.5 -10q-10 18 -7 57z" />
<glyph unicode="&#x2011;" horiz-adv-x="647" d="M247 573q3 39 13 74q4 14 12.5 34.5t23.5 40t37.5 35t55.5 17.5q45 4 97.5 6t101.5 1t91 -5t66 -10q16 -33 13.5 -67.5t-15.5 -82.5q-8 -29 -22 -57.5t-31 -40.5q-41 6 -99.5 9t-119.5 3t-119.5 -4t-97.5 -10q-10 18 -7 57z" />
<glyph unicode="&#x2012;" horiz-adv-x="647" d="M247 573q3 39 13 74q4 14 12.5 34.5t23.5 40t37.5 35t55.5 17.5q45 4 97.5 6t101.5 1t91 -5t66 -10q16 -33 13.5 -67.5t-15.5 -82.5q-8 -29 -22 -57.5t-31 -40.5q-41 6 -99.5 9t-119.5 3t-119.5 -4t-97.5 -10q-10 18 -7 57z" />
<glyph unicode="&#x2013;" d="M68 731q0 150 56 282t154.5 230t230.5 155.5t282 57.5t281.5 -57.5t230 -155.5t156 -230t57.5 -282t-57.5 -282t-156 -230t-230 -155.5t-281.5 -57.5t-282 57.5t-230.5 155.5t-154.5 230.5t-56 281.5zM164 731q0 -129 49 -242.5t135 -199.5t200 -135.5t243 -49.5 q131 0 244.5 49.5t197.5 135.5t133 199.5t49 242.5t-49 242.5t-133 198.5t-197.5 134.5t-244.5 49.5q-129 0 -243 -49.5t-200 -134.5t-135 -198.5t-49 -242.5zM207 731q0 119 46 224.5t126 184.5t185.5 124t226.5 45q119 0 225 -45t185 -124t125 -184.5t46 -224.5 q0 -121 -46 -227.5t-125 -185t-185 -125t-225 -46.5q-121 0 -226.5 46.5t-185.5 125t-126 185t-46 227.5zM330 664l112 -177q346 -80 699 0l110 177h-921zM451 1063l151 -189q4 -4 15.5 -0.5t23.5 9.5t20.5 12t8.5 8q-29 57 -47.5 118.5t-53.5 111.5q-6 8 -26.5 -0.5 t-42 -22.5t-38 -28.5t-11.5 -18.5zM463 457q20 -35 51 -74t73 -70.5t92.5 -53t111.5 -21.5q59 0 110 21.5t92 53t73 70.5t52 74q-164 -43 -326.5 -42t-328.5 42zM715 731h155l-77 187zM918 903q-4 -2 4 -8t19 -12t23.5 -9.5t18.5 0.5l147 189q4 4 -11 18.5t-36.5 28.5 t-42 22.5t-26.5 0.5q-39 -49 -55.5 -110.5t-40.5 -119.5zM1290 102v23h84v-23h-31v-77h-22v77h-31zM1384 25v100h31l19 -78l18 78h29v-100h-19v77l-20 -77h-19l-20 77v-77h-19z" />
<glyph unicode="&#x2014;" d="M68 731q0 150 56 282t154.5 230t230.5 155.5t282 57.5t281.5 -57.5t230 -155.5t156 -230t57.5 -282t-57.5 -282t-156 -230t-230 -155.5t-281.5 -57.5t-282 57.5t-230.5 155.5t-154.5 230.5t-56 281.5zM164 731q0 -129 49 -242.5t135 -199.5t200 -135.5t243 -49.5 q131 0 244.5 49.5t197.5 135.5t133 199.5t49 242.5t-49 242.5t-133 198.5t-197.5 134.5t-244.5 49.5q-129 0 -243 -49.5t-200 -134.5t-135 -198.5t-49 -242.5zM207 731q0 119 46 224.5t126 184.5t185.5 124t226.5 45q119 0 225 -45t185 -124t125 -184.5t46 -224.5 q0 -121 -46 -227.5t-125 -185t-185 -125t-225 -46.5q-121 0 -226.5 46.5t-185.5 125t-126 185t-46 227.5zM330 664l112 -177q346 -80 699 0l110 177h-921zM451 1063l151 -189q4 -4 15.5 -0.5t23.5 9.5t20.5 12t8.5 8q-29 57 -47.5 118.5t-53.5 111.5q-6 8 -26.5 -0.5 t-42 -22.5t-38 -28.5t-11.5 -18.5zM463 457q20 -35 51 -74t73 -70.5t92.5 -53t111.5 -21.5q59 0 110 21.5t92 53t73 70.5t52 74q-164 -43 -326.5 -42t-328.5 42zM715 731h155l-77 187zM918 903q-4 -2 4 -8t19 -12t23.5 -9.5t18.5 0.5l147 189q4 4 -11 18.5t-36.5 28.5 t-42 22.5t-26.5 0.5q-39 -49 -55.5 -110.5t-40.5 -119.5zM1290 102v23h84v-23h-31v-77h-22v77h-31zM1384 25v100h31l19 -78l18 78h29v-100h-19v77l-20 -77h-19l-20 77v-77h-19z" />
<glyph unicode="&#x2018;" d="M68 731q0 150 56 282t154.5 230t230.5 155.5t282 57.5t281.5 -57.5t230 -155.5t156 -230t57.5 -282t-57.5 -282t-156 -230t-230 -155.5t-281.5 -57.5t-282 57.5t-230.5 155.5t-154.5 230.5t-56 281.5zM164 731q0 -129 49 -242.5t135 -199.5t200 -135.5t243 -49.5 q131 0 244.5 49.5t197.5 135.5t133 199.5t49 242.5t-49 242.5t-133 198.5t-197.5 134.5t-244.5 49.5q-129 0 -243 -49.5t-200 -134.5t-135 -198.5t-49 -242.5zM207 731q0 119 46 224.5t126 184.5t185.5 124t226.5 45q119 0 225 -45t185 -124t125 -184.5t46 -224.5 q0 -121 -46 -227.5t-125 -185t-185 -125t-225 -46.5q-121 0 -226.5 46.5t-185.5 125t-126 185t-46 227.5zM330 664l112 -177q346 -80 699 0l110 177h-921zM451 1063l151 -189q4 -4 15.5 -0.5t23.5 9.5t20.5 12t8.5 8q-29 57 -47.5 118.5t-53.5 111.5q-6 8 -26.5 -0.5 t-42 -22.5t-38 -28.5t-11.5 -18.5zM463 457q20 -35 51 -74t73 -70.5t92.5 -53t111.5 -21.5q59 0 110 21.5t92 53t73 70.5t52 74q-164 -43 -326.5 -42t-328.5 42zM715 731h155l-77 187zM918 903q-4 -2 4 -8t19 -12t23.5 -9.5t18.5 0.5l147 189q4 4 -11 18.5t-36.5 28.5 t-42 22.5t-26.5 0.5q-39 -49 -55.5 -110.5t-40.5 -119.5zM1290 102v23h84v-23h-31v-77h-22v77h-31zM1384 25v100h31l19 -78l18 78h29v-100h-19v77l-20 -77h-19l-20 77v-77h-19z" />
<glyph unicode="&#x2019;" d="M68 731q0 150 56 282t154.5 230t230.5 155.5t282 57.5t281.5 -57.5t230 -155.5t156 -230t57.5 -282t-57.5 -282t-156 -230t-230 -155.5t-281.5 -57.5t-282 57.5t-230.5 155.5t-154.5 230.5t-56 281.5zM164 731q0 -129 49 -242.5t135 -199.5t200 -135.5t243 -49.5 q131 0 244.5 49.5t197.5 135.5t133 199.5t49 242.5t-49 242.5t-133 198.5t-197.5 134.5t-244.5 49.5q-129 0 -243 -49.5t-200 -134.5t-135 -198.5t-49 -242.5zM207 731q0 119 46 224.5t126 184.5t185.5 124t226.5 45q119 0 225 -45t185 -124t125 -184.5t46 -224.5 q0 -121 -46 -227.5t-125 -185t-185 -125t-225 -46.5q-121 0 -226.5 46.5t-185.5 125t-126 185t-46 227.5zM330 664l112 -177q346 -80 699 0l110 177h-921zM451 1063l151 -189q4 -4 15.5 -0.5t23.5 9.5t20.5 12t8.5 8q-29 57 -47.5 118.5t-53.5 111.5q-6 8 -26.5 -0.5 t-42 -22.5t-38 -28.5t-11.5 -18.5zM463 457q20 -35 51 -74t73 -70.5t92.5 -53t111.5 -21.5q59 0 110 21.5t92 53t73 70.5t52 74q-164 -43 -326.5 -42t-328.5 42zM715 731h155l-77 187zM918 903q-4 -2 4 -8t19 -12t23.5 -9.5t18.5 0.5l147 189q4 4 -11 18.5t-36.5 28.5 t-42 22.5t-26.5 0.5q-39 -49 -55.5 -110.5t-40.5 -119.5zM1290 102v23h84v-23h-31v-77h-22v77h-31zM1384 25v100h31l19 -78l18 78h29v-100h-19v77l-20 -77h-19l-20 77v-77h-19z" />
<glyph unicode="&#x201a;" d="M68 731q0 150 56 282t154.5 230t230.5 155.5t282 57.5t281.5 -57.5t230 -155.5t156 -230t57.5 -282t-57.5 -282t-156 -230t-230 -155.5t-281.5 -57.5t-282 57.5t-230.5 155.5t-154.5 230.5t-56 281.5zM164 731q0 -129 49 -242.5t135 -199.5t200 -135.5t243 -49.5 q131 0 244.5 49.5t197.5 135.5t133 199.5t49 242.5t-49 242.5t-133 198.5t-197.5 134.5t-244.5 49.5q-129 0 -243 -49.5t-200 -134.5t-135 -198.5t-49 -242.5zM207 731q0 119 46 224.5t126 184.5t185.5 124t226.5 45q119 0 225 -45t185 -124t125 -184.5t46 -224.5 q0 -121 -46 -227.5t-125 -185t-185 -125t-225 -46.5q-121 0 -226.5 46.5t-185.5 125t-126 185t-46 227.5zM330 664l112 -177q346 -80 699 0l110 177h-921zM451 1063l151 -189q4 -4 15.5 -0.5t23.5 9.5t20.5 12t8.5 8q-29 57 -47.5 118.5t-53.5 111.5q-6 8 -26.5 -0.5 t-42 -22.5t-38 -28.5t-11.5 -18.5zM463 457q20 -35 51 -74t73 -70.5t92.5 -53t111.5 -21.5q59 0 110 21.5t92 53t73 70.5t52 74q-164 -43 -326.5 -42t-328.5 42zM715 731h155l-77 187zM918 903q-4 -2 4 -8t19 -12t23.5 -9.5t18.5 0.5l147 189q4 4 -11 18.5t-36.5 28.5 t-42 22.5t-26.5 0.5q-39 -49 -55.5 -110.5t-40.5 -119.5zM1290 102v23h84v-23h-31v-77h-22v77h-31zM1384 25v100h31l19 -78l18 78h29v-100h-19v77l-20 -77h-19l-20 77v-77h-19z" />
<glyph unicode="&#x201c;" d="M68 731q0 150 56 282t154.5 230t230.5 155.5t282 57.5t281.5 -57.5t230 -155.5t156 -230t57.5 -282t-57.5 -282t-156 -230t-230 -155.5t-281.5 -57.5t-282 57.5t-230.5 155.5t-154.5 230.5t-56 281.5zM164 731q0 -129 49 -242.5t135 -199.5t200 -135.5t243 -49.5 q131 0 244.5 49.5t197.5 135.5t133 199.5t49 242.5t-49 242.5t-133 198.5t-197.5 134.5t-244.5 49.5q-129 0 -243 -49.5t-200 -134.5t-135 -198.5t-49 -242.5zM207 731q0 119 46 224.5t126 184.5t185.5 124t226.5 45q119 0 225 -45t185 -124t125 -184.5t46 -224.5 q0 -121 -46 -227.5t-125 -185t-185 -125t-225 -46.5q-121 0 -226.5 46.5t-185.5 125t-126 185t-46 227.5zM330 664l112 -177q346 -80 699 0l110 177h-921zM451 1063l151 -189q4 -4 15.5 -0.5t23.5 9.5t20.5 12t8.5 8q-29 57 -47.5 118.5t-53.5 111.5q-6 8 -26.5 -0.5 t-42 -22.5t-38 -28.5t-11.5 -18.5zM463 457q20 -35 51 -74t73 -70.5t92.5 -53t111.5 -21.5q59 0 110 21.5t92 53t73 70.5t52 74q-164 -43 -326.5 -42t-328.5 42zM715 731h155l-77 187zM918 903q-4 -2 4 -8t19 -12t23.5 -9.5t18.5 0.5l147 189q4 4 -11 18.5t-36.5 28.5 t-42 22.5t-26.5 0.5q-39 -49 -55.5 -110.5t-40.5 -119.5zM1290 102v23h84v-23h-31v-77h-22v77h-31zM1384 25v100h31l19 -78l18 78h29v-100h-19v77l-20 -77h-19l-20 77v-77h-19z" />
<glyph unicode="&#x201d;" d="M68 731q0 150 56 282t154.5 230t230.5 155.5t282 57.5t281.5 -57.5t230 -155.5t156 -230t57.5 -282t-57.5 -282t-156 -230t-230 -155.5t-281.5 -57.5t-282 57.5t-230.5 155.5t-154.5 230.5t-56 281.5zM164 731q0 -129 49 -242.5t135 -199.5t200 -135.5t243 -49.5 q131 0 244.5 49.5t197.5 135.5t133 199.5t49 242.5t-49 242.5t-133 198.5t-197.5 134.5t-244.5 49.5q-129 0 -243 -49.5t-200 -134.5t-135 -198.5t-49 -242.5zM207 731q0 119 46 224.5t126 184.5t185.5 124t226.5 45q119 0 225 -45t185 -124t125 -184.5t46 -224.5 q0 -121 -46 -227.5t-125 -185t-185 -125t-225 -46.5q-121 0 -226.5 46.5t-185.5 125t-126 185t-46 227.5zM330 664l112 -177q346 -80 699 0l110 177h-921zM451 1063l151 -189q4 -4 15.5 -0.5t23.5 9.5t20.5 12t8.5 8q-29 57 -47.5 118.5t-53.5 111.5q-6 8 -26.5 -0.5 t-42 -22.5t-38 -28.5t-11.5 -18.5zM463 457q20 -35 51 -74t73 -70.5t92.5 -53t111.5 -21.5q59 0 110 21.5t92 53t73 70.5t52 74q-164 -43 -326.5 -42t-328.5 42zM715 731h155l-77 187zM918 903q-4 -2 4 -8t19 -12t23.5 -9.5t18.5 0.5l147 189q4 4 -11 18.5t-36.5 28.5 t-42 22.5t-26.5 0.5q-39 -49 -55.5 -110.5t-40.5 -119.5zM1290 102v23h84v-23h-31v-77h-22v77h-31zM1384 25v100h31l19 -78l18 78h29v-100h-19v77l-20 -77h-19l-20 77v-77h-19z" />
<glyph unicode="&#x201e;" d="M68 731q0 150 56 282t154.5 230t230.5 155.5t282 57.5t281.5 -57.5t230 -155.5t156 -230t57.5 -282t-57.5 -282t-156 -230t-230 -155.5t-281.5 -57.5t-282 57.5t-230.5 155.5t-154.5 230.5t-56 281.5zM164 731q0 -129 49 -242.5t135 -199.5t200 -135.5t243 -49.5 q131 0 244.5 49.5t197.5 135.5t133 199.5t49 242.5t-49 242.5t-133 198.5t-197.5 134.5t-244.5 49.5q-129 0 -243 -49.5t-200 -134.5t-135 -198.5t-49 -242.5zM207 731q0 119 46 224.5t126 184.5t185.5 124t226.5 45q119 0 225 -45t185 -124t125 -184.5t46 -224.5 q0 -121 -46 -227.5t-125 -185t-185 -125t-225 -46.5q-121 0 -226.5 46.5t-185.5 125t-126 185t-46 227.5zM330 664l112 -177q346 -80 699 0l110 177h-921zM451 1063l151 -189q4 -4 15.5 -0.5t23.5 9.5t20.5 12t8.5 8q-29 57 -47.5 118.5t-53.5 111.5q-6 8 -26.5 -0.5 t-42 -22.5t-38 -28.5t-11.5 -18.5zM463 457q20 -35 51 -74t73 -70.5t92.5 -53t111.5 -21.5q59 0 110 21.5t92 53t73 70.5t52 74q-164 -43 -326.5 -42t-328.5 42zM715 731h155l-77 187zM918 903q-4 -2 4 -8t19 -12t23.5 -9.5t18.5 0.5l147 189q4 4 -11 18.5t-36.5 28.5 t-42 22.5t-26.5 0.5q-39 -49 -55.5 -110.5t-40.5 -119.5zM1290 102v23h84v-23h-31v-77h-22v77h-31zM1384 25v100h31l19 -78l18 78h29v-100h-19v77l-20 -77h-19l-20 77v-77h-19z" />
<glyph unicode="&#x2022;" d="M68 731q0 150 56 282t154.5 230t230.5 155.5t282 57.5t281.5 -57.5t230 -155.5t156 -230t57.5 -282t-57.5 -282t-156 -230t-230 -155.5t-281.5 -57.5t-282 57.5t-230.5 155.5t-154.5 230.5t-56 281.5zM164 731q0 -129 49 -242.5t135 -199.5t200 -135.5t243 -49.5 q131 0 244.5 49.5t197.5 135.5t133 199.5t49 242.5t-49 242.5t-133 198.5t-197.5 134.5t-244.5 49.5q-129 0 -243 -49.5t-200 -134.5t-135 -198.5t-49 -242.5zM207 731q0 119 46 224.5t126 184.5t185.5 124t226.5 45q119 0 225 -45t185 -124t125 -184.5t46 -224.5 q0 -121 -46 -227.5t-125 -185t-185 -125t-225 -46.5q-121 0 -226.5 46.5t-185.5 125t-126 185t-46 227.5zM330 664l112 -177q346 -80 699 0l110 177h-921zM451 1063l151 -189q4 -4 15.5 -0.5t23.5 9.5t20.5 12t8.5 8q-29 57 -47.5 118.5t-53.5 111.5q-6 8 -26.5 -0.5 t-42 -22.5t-38 -28.5t-11.5 -18.5zM463 457q20 -35 51 -74t73 -70.5t92.5 -53t111.5 -21.5q59 0 110 21.5t92 53t73 70.5t52 74q-164 -43 -326.5 -42t-328.5 42zM715 731h155l-77 187zM918 903q-4 -2 4 -8t19 -12t23.5 -9.5t18.5 0.5l147 189q4 4 -11 18.5t-36.5 28.5 t-42 22.5t-26.5 0.5q-39 -49 -55.5 -110.5t-40.5 -119.5zM1290 102v23h84v-23h-31v-77h-22v77h-31zM1384 25v100h31l19 -78l18 78h29v-100h-19v77l-20 -77h-19l-20 77v-77h-19z" />
<glyph unicode="&#x2026;" d="M68 731q0 150 56 282t154.5 230t230.5 155.5t282 57.5t281.5 -57.5t230 -155.5t156 -230t57.5 -282t-57.5 -282t-156 -230t-230 -155.5t-281.5 -57.5t-282 57.5t-230.5 155.5t-154.5 230.5t-56 281.5zM164 731q0 -129 49 -242.5t135 -199.5t200 -135.5t243 -49.5 q131 0 244.5 49.5t197.5 135.5t133 199.5t49 242.5t-49 242.5t-133 198.5t-197.5 134.5t-244.5 49.5q-129 0 -243 -49.5t-200 -134.5t-135 -198.5t-49 -242.5zM207 731q0 119 46 224.5t126 184.5t185.5 124t226.5 45q119 0 225 -45t185 -124t125 -184.5t46 -224.5 q0 -121 -46 -227.5t-125 -185t-185 -125t-225 -46.5q-121 0 -226.5 46.5t-185.5 125t-126 185t-46 227.5zM330 664l112 -177q346 -80 699 0l110 177h-921zM451 1063l151 -189q4 -4 15.5 -0.5t23.5 9.5t20.5 12t8.5 8q-29 57 -47.5 118.5t-53.5 111.5q-6 8 -26.5 -0.5 t-42 -22.5t-38 -28.5t-11.5 -18.5zM463 457q20 -35 51 -74t73 -70.5t92.5 -53t111.5 -21.5q59 0 110 21.5t92 53t73 70.5t52 74q-164 -43 -326.5 -42t-328.5 42zM715 731h155l-77 187zM918 903q-4 -2 4 -8t19 -12t23.5 -9.5t18.5 0.5l147 189q4 4 -11 18.5t-36.5 28.5 t-42 22.5t-26.5 0.5q-39 -49 -55.5 -110.5t-40.5 -119.5zM1290 102v23h84v-23h-31v-77h-22v77h-31zM1384 25v100h31l19 -78l18 78h29v-100h-19v77l-20 -77h-19l-20 77v-77h-19z" />
<glyph unicode="&#x202f;" horiz-adv-x="291" />
<glyph unicode="&#x2039;" d="M68 731q0 150 56 282t154.5 230t230.5 155.5t282 57.5t281.5 -57.5t230 -155.5t156 -230t57.5 -282t-57.5 -282t-156 -230t-230 -155.5t-281.5 -57.5t-282 57.5t-230.5 155.5t-154.5 230.5t-56 281.5zM164 731q0 -129 49 -242.5t135 -199.5t200 -135.5t243 -49.5 q131 0 244.5 49.5t197.5 135.5t133 199.5t49 242.5t-49 242.5t-133 198.5t-197.5 134.5t-244.5 49.5q-129 0 -243 -49.5t-200 -134.5t-135 -198.5t-49 -242.5zM207 731q0 119 46 224.5t126 184.5t185.5 124t226.5 45q119 0 225 -45t185 -124t125 -184.5t46 -224.5 q0 -121 -46 -227.5t-125 -185t-185 -125t-225 -46.5q-121 0 -226.5 46.5t-185.5 125t-126 185t-46 227.5zM330 664l112 -177q346 -80 699 0l110 177h-921zM451 1063l151 -189q4 -4 15.5 -0.5t23.5 9.5t20.5 12t8.5 8q-29 57 -47.5 118.5t-53.5 111.5q-6 8 -26.5 -0.5 t-42 -22.5t-38 -28.5t-11.5 -18.5zM463 457q20 -35 51 -74t73 -70.5t92.5 -53t111.5 -21.5q59 0 110 21.5t92 53t73 70.5t52 74q-164 -43 -326.5 -42t-328.5 42zM715 731h155l-77 187zM918 903q-4 -2 4 -8t19 -12t23.5 -9.5t18.5 0.5l147 189q4 4 -11 18.5t-36.5 28.5 t-42 22.5t-26.5 0.5q-39 -49 -55.5 -110.5t-40.5 -119.5zM1290 102v23h84v-23h-31v-77h-22v77h-31zM1384 25v100h31l19 -78l18 78h29v-100h-19v77l-20 -77h-19l-20 77v-77h-19z" />
<glyph unicode="&#x203a;" d="M68 731q0 150 56 282t154.5 230t230.5 155.5t282 57.5t281.5 -57.5t230 -155.5t156 -230t57.5 -282t-57.5 -282t-156 -230t-230 -155.5t-281.5 -57.5t-282 57.5t-230.5 155.5t-154.5 230.5t-56 281.5zM164 731q0 -129 49 -242.5t135 -199.5t200 -135.5t243 -49.5 q131 0 244.5 49.5t197.5 135.5t133 199.5t49 242.5t-49 242.5t-133 198.5t-197.5 134.5t-244.5 49.5q-129 0 -243 -49.5t-200 -134.5t-135 -198.5t-49 -242.5zM207 731q0 119 46 224.5t126 184.5t185.5 124t226.5 45q119 0 225 -45t185 -124t125 -184.5t46 -224.5 q0 -121 -46 -227.5t-125 -185t-185 -125t-225 -46.5q-121 0 -226.5 46.5t-185.5 125t-126 185t-46 227.5zM330 664l112 -177q346 -80 699 0l110 177h-921zM451 1063l151 -189q4 -4 15.5 -0.5t23.5 9.5t20.5 12t8.5 8q-29 57 -47.5 118.5t-53.5 111.5q-6 8 -26.5 -0.5 t-42 -22.5t-38 -28.5t-11.5 -18.5zM463 457q20 -35 51 -74t73 -70.5t92.5 -53t111.5 -21.5q59 0 110 21.5t92 53t73 70.5t52 74q-164 -43 -326.5 -42t-328.5 42zM715 731h155l-77 187zM918 903q-4 -2 4 -8t19 -12t23.5 -9.5t18.5 0.5l147 189q4 4 -11 18.5t-36.5 28.5 t-42 22.5t-26.5 0.5q-39 -49 -55.5 -110.5t-40.5 -119.5zM1290 102v23h84v-23h-31v-77h-22v77h-31zM1384 25v100h31l19 -78l18 78h29v-100h-19v77l-20 -77h-19l-20 77v-77h-19z" />
<glyph unicode="&#x205f;" horiz-adv-x="364" />
<glyph unicode="&#x20ac;" d="M68 731q0 150 56 282t154.5 230t230.5 155.5t282 57.5t281.5 -57.5t230 -155.5t156 -230t57.5 -282t-57.5 -282t-156 -230t-230 -155.5t-281.5 -57.5t-282 57.5t-230.5 155.5t-154.5 230.5t-56 281.5zM164 731q0 -129 49 -242.5t135 -199.5t200 -135.5t243 -49.5 q131 0 244.5 49.5t197.5 135.5t133 199.5t49 242.5t-49 242.5t-133 198.5t-197.5 134.5t-244.5 49.5q-129 0 -243 -49.5t-200 -134.5t-135 -198.5t-49 -242.5zM207 731q0 119 46 224.5t126 184.5t185.5 124t226.5 45q119 0 225 -45t185 -124t125 -184.5t46 -224.5 q0 -121 -46 -227.5t-125 -185t-185 -125t-225 -46.5q-121 0 -226.5 46.5t-185.5 125t-126 185t-46 227.5zM330 664l112 -177q346 -80 699 0l110 177h-921zM451 1063l151 -189q4 -4 15.5 -0.5t23.5 9.5t20.5 12t8.5 8q-29 57 -47.5 118.5t-53.5 111.5q-6 8 -26.5 -0.5 t-42 -22.5t-38 -28.5t-11.5 -18.5zM463 457q20 -35 51 -74t73 -70.5t92.5 -53t111.5 -21.5q59 0 110 21.5t92 53t73 70.5t52 74q-164 -43 -326.5 -42t-328.5 42zM715 731h155l-77 187zM918 903q-4 -2 4 -8t19 -12t23.5 -9.5t18.5 0.5l147 189q4 4 -11 18.5t-36.5 28.5 t-42 22.5t-26.5 0.5q-39 -49 -55.5 -110.5t-40.5 -119.5zM1290 102v23h84v-23h-31v-77h-22v77h-31zM1384 25v100h31l19 -78l18 78h29v-100h-19v77l-20 -77h-19l-20 77v-77h-19z" />
<glyph unicode="&#x2122;" d="M68 731q0 150 56 282t154.5 230t230.5 155.5t282 57.5t281.5 -57.5t230 -155.5t156 -230t57.5 -282t-57.5 -282t-156 -230t-230 -155.5t-281.5 -57.5t-282 57.5t-230.5 155.5t-154.5 230.5t-56 281.5zM164 731q0 -129 49 -242.5t135 -199.5t200 -135.5t243 -49.5 q131 0 244.5 49.5t197.5 135.5t133 199.5t49 242.5t-49 242.5t-133 198.5t-197.5 134.5t-244.5 49.5q-129 0 -243 -49.5t-200 -134.5t-135 -198.5t-49 -242.5zM207 731q0 119 46 224.5t126 184.5t185.5 124t226.5 45q119 0 225 -45t185 -124t125 -184.5t46 -224.5 q0 -121 -46 -227.5t-125 -185t-185 -125t-225 -46.5q-121 0 -226.5 46.5t-185.5 125t-126 185t-46 227.5zM330 664l112 -177q346 -80 699 0l110 177h-921zM451 1063l151 -189q4 -4 15.5 -0.5t23.5 9.5t20.5 12t8.5 8q-29 57 -47.5 118.5t-53.5 111.5q-6 8 -26.5 -0.5 t-42 -22.5t-38 -28.5t-11.5 -18.5zM463 457q20 -35 51 -74t73 -70.5t92.5 -53t111.5 -21.5q59 0 110 21.5t92 53t73 70.5t52 74q-164 -43 -326.5 -42t-328.5 42zM715 731h155l-77 187zM918 903q-4 -2 4 -8t19 -12t23.5 -9.5t18.5 0.5l147 189q4 4 -11 18.5t-36.5 28.5 t-42 22.5t-26.5 0.5q-39 -49 -55.5 -110.5t-40.5 -119.5zM1290 102v23h84v-23h-31v-77h-22v77h-31zM1384 25v100h31l19 -78l18 78h29v-100h-19v77l-20 -77h-19l-20 77v-77h-19z" />
<glyph unicode="&#x25fc;" horiz-adv-x="1454" d="M0 0v1454h1454v-1454h-1454z" />
</font>
</defs>
</svg>
