<?xml version="1.0" standalone="no"?>
<!DOCTYPE svg PUBLIC "-//W3C//DTD SVG 1.1//EN" "http://www.w3.org/Graphics/SVG/1.1/DTD/svg11.dtd" >
<svg xmlns="http://www.w3.org/2000/svg" xmlns:xlink="http://www.w3.org/1999/xlink" version="1.1">
<metadata></metadata>
<defs>
<font id="mayhemregular" horiz-adv-x="1228" >
<font-face units-per-em="2048" ascent="1638" descent="-410" />
<missing-glyph horiz-adv-x="368" />
<glyph horiz-adv-x="0" />
<glyph horiz-adv-x="682" />
<glyph unicode=" "  horiz-adv-x="368" />
<glyph unicode="&#x09;" horiz-adv-x="368" />
<glyph unicode="&#xa0;" horiz-adv-x="368" />
<glyph unicode="!" horiz-adv-x="368" d="M43 1399q0 -12 2 -33t2 -31q6 -137 6 -139q9 -72 -4 -152q-5 -26 2 -63q1 -3 2 -9t2 -9v-213v-50q-3 -9 -0.5 -56t2.5 -56q0 -1 1 -3.5t1 -4.5q7 -17 9 -49t4 -42q8 -29 8 -88q2 -37 2 -106q0 -14 6 -23q6 -13 29 -49q21 -34 61 -43q14 -5 26 2.5t15 22.5q4 16 4 28 q-3 30 2 52q8 57 -2 125q0 12 4 18q19 34 19 57t18 88q9 26 12 56q6 39 9 73q4 82 4 121q1 16 0 49t0 50q1 21 7 60.5t7 51.5q8 58 8 82q1 24 1 75.5t1 76.5q3 56 9 114q6 54 -3 109q-6 37 -43 49q-15 7 -45 14h-22h-6q-11 -4 -37 -8q-7 0 -19 -4q-1 0 -22.5 -2t-32.5 -4 q-17 -1 -30 -15.5t-15 -31.5q-4 -62 -4 -90zM94 -61q1 -20 14.5 -33.5t34.5 -16.5q30 -6 58 13l30 16q17 7 29 14q14 11 14 25q5 33 -6 78q-3 14 -18 18q-43 22 -70 31q-6 2 -17 5t-16 5h-16l-4 -2q-26 -7 -29 -29q-11 -55 -4 -124z" />
<glyph unicode="&#x22;" horiz-adv-x="272" d="M29 1444q5 -62 10 -80q5 -14 14 -49q6 -17 39 -17q11 2 17.5 7t5.5 12q0 26 -4 72q-1 17 -2.5 49.5t-2.5 48.5q0 8 -2 25.5t-2 25.5q0 6 -3.5 15.5t-4.5 13.5q-2 7 -18 10q-19 0 -21 -6q-3 -4 -10 -11.5t-10 -11.5q-2 -12 -6 -32v-46v-26zM158 1444q5 -62 10 -80 q5 -14 14 -49q6 -17 39 -17q11 2 17.5 7t5.5 12q0 26 -4 72q-1 17 -2 49.5t-2 48.5q0 8 -2.5 25.5t-2.5 25.5q0 6 -3.5 15.5t-4.5 13.5q-2 7 -18 10q-19 0 -21 -6q-3 -4 -10 -11.5t-10 -11.5q-2 -12 -6 -32v-46v-26z" />
<glyph unicode="#" horiz-adv-x="1064" d="M20 545q0 -1 2 -5t3 -5.5l3 -4.5t5 -4l6 -2v-18q0 -45 2 -70q0 -10 8 -30q20 -83 25 -99q3 -17 16 -37q12 -27 53 -24q11 1 23.5 1t28 -0.5t24.5 -0.5q0 -15 4 -51q3 -34 13 -78q2 -14 5 -29t7 -33.5t6 -29.5q3 -13 10 -23q12 -18 60 -78q13 -18 35.5 -22t43.5 6 q30 12 39 45q3 11 12 35.5t11 38.5q16 82 16 125v71q76 13 170 10q0 -5 -1 -16.5t-1 -17.5q0 -78 2 -117q0 -19 4 -55l7 -54q6 -23 28 -34q36 -19 71.5 -10.5t57.5 40.5q34 46 53 131l29 133q0 3 1 9.5t1 9.5q0 11 12 14q59 15 68 19q43 14 49 67q1 14 4 39.5t4 38.5v86 q0 1 -1 4.5t-1 5.5q-1 22 -15 34.5t-34 10.5q-4 0 -11.5 0.5t-14 0.5t-11.5 -1q-6 0 -16.5 -1t-15.5 -1v72q6 87 6 88q1 19 2 56t2 55v8h33q29 -3 45 29q14 28 14 53q0 123 -12 172q-10 40 -45 45q-22 5 -50 16l3 12t3 15.5t1 13.5q1 9 4.5 27.5t5.5 33.5t2 29q0 36 -19 95 q-14 44 -51 81q-38 41 -82 41q-4 0 -6 2h-37q-46 -17 -49 -18q-29 -9 -35 -37q-16 -62 -12 -166q2 -51 10 -153q0 -6 1 -18.5t1 -18.5h-43q-46 8 -139 -4q-4 -1 -13 -2t-14 -2v12v168q3 60 -40 112q-18 26 -23 39q-18 37 -53 13l-68 -43q-45 -31 -57 -49q-8 -11 -12 -23 q-13 -56 -15 -76q0 -25 4 -71v-9q3 -17 21 -14q0 -5 1 -14.5t1 -14.5v-43q0 -8 -6 -8t-17 1t-16 1q-40 -4 -60 -4q-37 0 -43 -39q-17 -83 -18 -86q-10 -43 -8 -69q0 -19 2 -29q10 -41 51 -41q18 0 53 1t52 1h10v-215q-5 0 -33 3t-43 3q-58 7 -96 -29q-3 -3 -5 -6.5 t-4.5 -7.5t-3.5 -6v-6zM449 801h47q8 0 32 4q13 0 41 4q13 0 40 1t40 1h10q2 -48 5.5 -145.5t5.5 -145.5q-31 0 -42.5 -1.5t-40.5 3t-40 6.5t-40 8.5t-40 8.5z" />
<glyph unicode="$" horiz-adv-x="778" d="M44.5 1177.5q1.5 -11.5 8.5 -14.5q8 -3 8 -12q-2 -18 -2 -53v-11q9 -23 9 -65q-2 -43 -2 -129q0 -19 4 -29q8 -31 8 -71q0 -69 2 -84q2 -9 5 -31t6.5 -38t8.5 -30q5 -17 35 -47q4 0 6 -2l33 -14q17 -9 37 -2q3 1 11 4.5t11 5.5q54 22 72 31q49 20 72 18h8q21 0 39 12 q22 13 33 13q9 -2 16.5 -9t7.5 -16q2 -12 2 -37q4 -70 4 -104q1 -12 1 -26t-0.5 -31t-0.5 -27q2 -21 -14 -53q-3 -6 -6 -9q-25 -22 -61 -38q-33 -13 -48 -25q-5 -4 -12 -5.5t-16.5 -3.5t-14.5 -3v16v102q0 38 -4 56q-3 21 -13.5 30t-31.5 9h-33q-48 3 -102 -29 q-22 -11 -25 -27q-4 -8 -4 -24q-2 -39 -2 -117q-3 -70 19 -143l6 -15q14 -16 47 -20q3 -1 15.5 -1.5t19.5 -2.5q71 -13 100 -13q13 2 41 -2l101 -18q45 -10 75 16q11 11 31 15q33 7 45 26q3 4 10.5 11.5t10.5 11.5q11 17 12 20q3 7 8 33q8 46 8 70q0 43 10 98 q3 16 10.5 51.5t10.5 55.5q1 3 6 71l6 125q7 66 2 113q-2 8 -2 22q0 2 -0.5 8.5t-1 9.5l-1.5 9t-2.5 9t-3 7.5t-4.5 8t-7 6.5q-8 11 -23 22q-11 14 -31 17q-7 0 -20 1t-20 1q-27 0 -39 -2q-15 -1 -60 -15q-27 -5 -28 -6q-8 -3 -22.5 -11.5t-18.5 -10.5q-2 -1 -13.5 -6.5 t-17.5 -6.5q-25 -6 -82 -14l-23 -6q0 43 2 63q10 67 11 82q5 63 4 78q-2 28 2 88q0 2 4 6q1 1 11 9t16 12q12 8 22 8q43 4 62 8q9 3 19 5t22.5 4t19.5 3q2 1 12 4.5t17 4.5q4 -50 4 -74v-96q3 -41 43 -41h35q31 0 45 6q4 1 12 2t12 2q31 7 49 22q27 22 27 62q8 63 -6 98 l-2 4q-4 22 -6 46.5t-3.5 54t-2.5 45.5q-3 67 -50 100l-10 10q-14 19 -49 23q-33 0 -49 2q-11 0 -17 2q-28 7 -49 -2q-6 -2 -21 -9.5t-24 -9.5q-43 -10 -92 -41q-40 -24 -63 -32q-34 -17 -52 -23q-25 -8 -49 -29l-41 -28q-50 -32 -67 -49t-23 -27q-6 -7 -4.5 -18.5z M177 1457.5q0 -12.5 0.5 -35t0.5 -31.5q3 -30 35 -33q27 0 47 14q16 13 35 19q18 3 41 14q7 3 24 12.5t27 12.5q26 13 21 36q-7 35 -7 64q0 6 -1 20t-1 21q-3 20 -22 20q-2 2 -6 2h-15q-18 -3 -39 -10q-38 -14 -79 -14q-15 0 -21 -4q-25 -8 -33 -43q-4 -15 -5.5 -33.5 t-1.5 -31zM281 -2v-39v-33q-2 -15 8.5 -26.5t25.5 -10.5q10 0 30.5 2.5t29.5 2.5q37 4 53 10q5 2 27 8q19 5 22 25v24q0 15 -2 23q-3 31 -33 34q-9 0 -59 5l-29 6q-40 11 -45 12q-13 4 -20.5 -2.5t-7.5 -20.5v-20z" />
<glyph unicode="%" horiz-adv-x="819" d="M31 16q4 -10 16 -30q11 -18 19 -29q32 -32 53 0q7 10 20 41l31 82q2 6 12 29t15 36q2 4 26 64q6 11 18 32t17 31l5 10l3 7q5 8 15 22t12 17q4 7 18 27.5t21 33.5q39 67 61 109q21 36 51 98q4 7 14 27.5t17 31.5q12 21 35 56q14 21 40.5 57t31.5 43l47 68q18 32 28 55 q8 18 29.5 53.5t30.5 56.5q7 21 24 59t21 48q4 11 9 31.5t7 27.5l4 35v53q-2 16 -10 39q-1 5 -4 12t-4 9q-24 44 -80 61l-41 11h-14q-22 -8 -43 -50q-10 -19 -17 -49v-24q-1 -3 -1.5 -14t-2.5 -17q-5 -12 -20 -31q-37 -46 -53 -94q-15 -47 -33 -90q-2 -6 -29 -68 q-10 -26 -33 -73q-13 -23 -41 -99q-5 -15 -47 -102q-5 -7 -10.5 -21.5t-7.5 -17.5q-2 -4 -7 -22.5t-10 -26.5q-43 -76 -71 -164q-1 -1 -2 -4t-2.5 -6t-3.5 -6q-3 -6 -14 -21t-15 -24q-6 -13 -16.5 -38t-16.5 -38q-21 -42 -31 -60q-9 -14 -20 -39q-25 -67 -29 -81 q-12 -42 -12 -44q0 -7 -4.5 -19t-5.5 -17v-54zM90 1315q5 -31 19 -76l12 -47q4 -12 4 -21l6 -36q0 -5 1 -14.5t1 -14.5q1 -2 2 -7.5t2 -8.5l13 -29q10 -16 24 -14q5 0 14.5 -0.5t17 -0.5t13.5 1q17 0 25 4q28 12 47 10q16 0 22 16q2 6 2 19q2 39 2 116q1 13 2.5 38.5 t2.5 37.5q0 12 3 35.5t3 28.5h-2q0 31 -2 45q0 3 -5 18q-7 13 -22 10q-4 0 -12.5 -1t-12.5 -1q-38 0 -69 -10q-14 -4 -45 -4q-27 4 -39 -10q-1 -2 -4 -5t-4 -5q-18 -9 -21 -29v-45zM178 1325q18 1 76 10q6 -30 6 -32v-101q0 -49 2 -74v-10q-11 -1 -31.5 -4t-25.5 -4 q-17 122 -27 215zM473 311q0 -170 10 -256q7 -56 25 -96q7 -17 20 -22h17q1 0 3.5 1t4.5 1q45 -3 98 10q18 3 21 18l6 47q1 13 3 38.5t3 37.5q11 79 12 84q6 45 2 131q0 19 -2 29q-5 18 -24 18h-113q-12 0 -35 -3t-28 -3q-14 -4 -19 -16q-4 -12 -4 -19zM547 246q0 9 8 12 l63 12q-1 -17 -2 -50t-2 -50q0 -5 -6 -41q0 -5 1 -15t1 -14l-6 -65h-37q-2 8 -2 24q-4 16 -8 52q0 4 -2 13.5t-2 14.5z" />
<glyph unicode="&#x26;" horiz-adv-x="819" d="M47 1282q1 -18 2 -55.5t2 -55.5v-8q0 -30 4 -88l4 -35q13 -47 35 -84q15 -24 41 -70t37 -65q25 -45 45 -76q40 -63 2 -120l-26 -37q-7 -7 -7 -15q-8 -20 -18 -28l-6 -8q-6 -25 -23 -45q-13 -13 -10 -31q0 -6 -2 -8q-23 -67 -23 -127q0 -82 2 -125q1 -6 1 -14t-0.5 -18 t-0.5 -15q0 -32 17 -66q11 -26 22 -45q18 -35 68 -57q5 -2 15.5 -4.5t15.5 -4.5q4 -1 12 -4t12 -4q12 -4 19 -4q23 0 69 1t68 1q7 1 24 4t27 4q21 0 33 -6q17 -12 49 0q8 4 64 37q16 11 20 37q3 28 21 43l36 -63q5 -13 23 -39q12 -18 29 -9l16 7q14 6 20 24q6 11 9 25v8 q0 19 -2 29q-1 11 -11 55l-24 72q-2 5 -6.5 15t-6.5 15q-1 2 -8.5 20t-9.5 27q-4 4 0 11l25 59q1 1 6.5 8t7.5 12q4 7 18 30t19 36q16 48 -12 76q-12 8 -21 8q-7 2 -21.5 4t-15.5 2q-23 3 -35 -20q-20 -46 -26 -56q0 -6 -4 -10q-12 9 -16.5 12.5t-11 12.5t-9.5 20 q-2 8 -29 74l-6 27q-3 9 -10.5 26.5t-10.5 26.5q0 1 -1 3t-1 3q-11 17 -2 35q9 17 21 35.5t28.5 40.5t24.5 34q3 4 13 18.5t14 21t12.5 19.5t13.5 21.5t11 20t10.5 23t7.5 22.5q12 40 12 61q5 94 2 121q-3 25 -3 72.5t-1 58.5q0 17 -3.5 48t-4.5 40q-2 9 -6.5 17t-12 17.5 t-10.5 14.5q-30 43 -82 62q-27 11 -88 28q-5 2 -28 2q-88 5 -105 7q-13 1 -38.5 5t-39.5 5q-3 1 -8.5 -0.5t-7.5 -1.5q-6 -4 -18 -8q-33 -15 -58 -23q-12 -5 -35 -14.5t-34 -14.5q-28 -11 -29 -12q-45 -40 -55 -55q-30 -37 -27 -76zM250 1075q0 27 2 39q3 26 24 41 q46 27 84 25q13 -1 39 -5.5t39 -5.5q10 -2 31 -2q26 0 39 -22l2 -4q11 -31 15.5 -54t2 -52t-17.5 -54q-3 -4 -19 -29.5t-24 -40.5q-8 -13 -25 -33t-24 -30q-20 -27 -43 -4q-33 33 -49 59q-3 5 -13 19.5t-14 23.5l-31 58v4q-18 18 -18 67zM278.5 232q-0.5 10 1 22t3 19 t5.5 21t5 19q9 36 47 88q11 11 16 21q17 26 43 45q13 10 29 -2q20 -15 33 -43q4 -10 15.5 -36.5t19 -45.5t12.5 -37q10 -31 22 -100q0 -5 -4 -13q-1 -2 -5 -6.5t-5 -7.5q-6 -9 -16 -12q-6 0 -6 -2q-33 -25 -52 -25q-7 0 -19.5 -3.5t-16.5 -4.5q-10 2 -31 5t-31 5l-8 4 l-37 31q-15 10 -18 37q-2 11 -2.5 21z" />
<glyph unicode="'" horiz-adv-x="163" d="M43 1442q0 -53 10 -80q2 -8 7.5 -24.5t7.5 -24.5q6 -17 36 -17q25 3 25 19q-4 50 -4 71q-4 66 -4 99q-5 41 -4 51q0 2 -11 29q0 6 -16 10q-20 0 -22 -6q-2 -3 -9 -10t-10 -11l-2 -2q-4 -24 -4 -33v-45v-26z" />
<glyph unicode="(" horiz-adv-x="471" d="M25 651q2 -2 2 -8q0 -2 4 -31t8 -45q9 -56 24 -116q3 -26 13 -52q3 -7 35 -80q16 -46 30 -69q28 -49 68 -105q28 -42 78 -110q6 -8 13.5 -16.5t16 -18t13.5 -14.5q3 -4 10 -11.5t10 -11.5q11 -17 31 -14q8 0 12 -2q21 -7 33 8q14 18 8 39q-1 5 -7 22.5t-7 26.5q0 2 -4 6 q-14 21 -58 76q-23 23 -43 53q-1 2 -11.5 19.5t-16.5 25.5l-13 17q-8 12 -25.5 35.5t-25.5 35.5q-2 3 -11 18t-13 23q-17 40 -27 70q-9 17 -12 37q-4 21 -13 90q0 1 -3 12t-3 17l-6 81q-4 83 -2 125q0 32 12 90q9 56 21 111q6 29 19.5 86t19.5 86q2 9 5 28.5t5 28.5 q0 1 2 14t4 19q30 61 45 127q9 32 31 82q18 32 31 76q11 33 -13 49q-2 0 -2 4q-4 9 -14 2q-47 -31 -63 -76q-5 -16 -17 -45q-11 -23 -47 -88q-2 -4 -7.5 -13t-6.5 -15q-7 -18 -25 -78l-61 -182q-23 -70 -27 -115l-4 -12t-4 -15q0 -3 -1 -8.5t-1 -7.5q2 -16 2 -22.5 t-2.5 -21.5t-3.5 -22q-1 -14 -2 -39t-2 -39q0 -14 -2 -20v-117z" />
<glyph unicode=")" horiz-adv-x="430" d="M14 1511q7 -28 25 -41q2 0 2 -2q7 -15 45 -43l18 -18q3 -2 8.5 -6t8.5 -6q9 -2 20 -17q31 -51 39 -63q8 -11 14.5 -24t14 -32t10.5 -26q2 -4 2 -14q1 -5 4 -22.5t6 -25.5q22 -61 33 -118q4 -15 11.5 -45.5t11.5 -46.5q12 -48 14 -66q1 -17 6 -50.5t6 -49.5 q9 -123 -4 -174q-4 -12 -7.5 -36t-4.5 -28q0 -4 -1 -9t-2.5 -11t-2.5 -9q-4 -24 -8 -36l-37 -123q-1 -2 -2 -5.5t-2 -5.5q-3 -9 -10.5 -27.5t-10.5 -27.5t-16 -35q-1 -2 -6 -9.5t-6 -12.5q-14 -44 -56 -105q-32 -52 -28 -90q1 -10 2 -29.5t2 -29.5q0 -37 34 -45h5 q17 2 32 24q5 7 15.5 19t11.5 14q7 8 13.5 18.5t13 23.5t10.5 20q18 36 28 61q10 23 15 41q9 27 14 37q10 33 27 74l20 57q27 68 39 141q4 25 7 53t4.5 47.5t2.5 54t1 48v54v48.5q0 11 -4 33t-5 29q-3 34 -26 153l-19 88q-15 82 -61 148l-6 12q-6 20 -17 56t-14 45 q-1 3 -2 9t-2 9q-8 42 -37 82q-5 7 -13 22.5t-10 18.5q-25 58 -67 84q-34 24 -45 28h-17q-35 -16 -45 -61q0 -6 -2 -8v-19z" />
<glyph unicode="*" horiz-adv-x="368" d="M55 1235q0 -12 11 -12q13 -4 59 -4h25q-2 -3 -6.5 -9.5t-6.5 -9.5q-3 -5 -17.5 -27.5t-21.5 -35.5q-4 -4 -4 -11q0 -4 4 -8h8q13 13 17 19q3 3 12 11.5t13.5 13t10 12.5t9.5 16l2 -2v-21q0 -39 -2 -57v-18q0 -13 8 -13q21 -3 21 17q1 10 2 29.5t2 29.5q0 17 2 25h2 l41 -41q19 -19 24 -21q15 -8 15 6q0 7 -4 15q-7 9 -29 34.5t-33 40.5l-6 7q4 2 12 2q14 1 43 2t43 2q10 0 13 6q3 9 -2 14q-3 6 -11 6q-35 6 -71 0q-6 -2 -19 -2q-2 0 -2 2l41 50q4 6 12.5 16t10.5 12l22 23q6 5 5 12t-7 10q-12 8 -20 10q-11 6 -17 -6t-8 -14 q-6 -13 -14 -23q-6 -8 -17.5 -25.5t-17.5 -25.5l-8 -8v21q0 46 -2 71q0 12 -5 16.5t-20 4.5q-6 3 -10 -4q-1 -3 -2 -9t-2 -8q-6 -10 -6 -45q4 -28 4 -39q-22 31 -56 62q-9 9 -18 6q-12 -3 -12 -14q0 -9 6 -15l16 -16q26 -31 33 -41q3 -4 18 -29h-18q-37 -4 -55 2h-4 q-10 0 -13 -12z" />
<glyph unicode="+" horiz-adv-x="1146" d="M111 575q-6 66 51 72q28 6 82.5 16.5t81.5 16.5q62 11 143 14v279q25 82 29 123q0 45 8 63q13 58 63 58q25 0 37 -9.5t15 -31.5q8 -32 8 -52q8 -124 16 -360q0 -9 -1.5 -32t-0.5 -36h39q15 0 45 1t55 1t47 -2q35 0 109 -8q4 0 8 -4q7 -4 21 -12.5t26 -14.5t25 -10 q10 -3 13.5 -14.5t0.5 -24.5q-3 -30 -31 -37q-58 -14 -96 -14q-24 0 -52.5 -2t-63 -5.5t-52.5 -4.5h-84q0 -26 9 -109q16 -73 12 -112q0 -18 -17 -60q-2 -12 -8.5 -30t-7.5 -21q0 -20 -1 -57t-1 -67t2 -56q3 -35 -16.5 -50.5t-46.5 -9.5q-7 1 -20 7.5t-17 7.5q-23 5 -15 28 q8 42 4 101q0 36 -8 106q-2 21 -8 61.5t-8 59.5q-2 12 -4 35.5t-4 36.5l-23 125h-65l-236 -13q-57 0 -63 47z" />
<glyph unicode="," horiz-adv-x="231" d="M18 55q-3 -23 9.5 -38t35.5 -17h35q8 2 11 -0.5t2 -9.5q-3 -20 -11 -33q-15 -31 -2 -61q8 -14 20.5 -19t24.5 2q55 32 60 80q0 3 6 84h-2v27q0 4 -1 13t-1 13q-3 27 -14 41t-35 21q-40 12 -76 -8q-32 -21 -60 -82q-2 -4 -2 -13z" />
<glyph unicode="-" horiz-adv-x="305" d="M23 596q1 -6 2 -18.5t2 -18.5q3 -17 10 -23t24 -8q1 0 70 -6h80q6 0 31 10q4 1 24 11q14 6 17 18q0 23 -2 35q-3 21 -27 18q-25 0 -104 9l-15 6h-20q-34 -17 -62 -17q-8 0 -20 -4q-10 -3 -10 -12z" />
<glyph unicode="." horiz-adv-x="225" d="M20 82q0 -8 5 -43q8 -36 49 -39q18 0 35 -10q31 -21 53 8q2 4 24 31q23 33 7 75l-7 15q-23 51 -26 57q-6 15 -39 23h-66q-35 -13 -35 -58v-59z" />
<glyph unicode="/" horiz-adv-x="901" d="M14 1341q-3 -33 23 -51q4 -4 4 -6l37 -78q4 -10 12 -26q9 -26 29 -66q9 -27 14 -37q52 -80 62 -94q53 -76 63 -98q19 -45 53 -94q52 -70 95 -113q39 -42 55 -84q1 -3 49 -113q9 -20 39 -78q7 -14 22 -39t19 -32q27 -56 37 -74q27 -48 57 -129q6 -17 33 -70q13 -21 39 -47 q3 -7 10 -10q6 -3 23.5 -12.5t27.5 -14.5q22 -9 39 0t21 33q8 46 -13 103q-15 39 -49.5 105t-40.5 79q-4 10 -16.5 26.5t-16.5 24.5l-79 135q-28 55 -41 99q-4 12 -10.5 35t-10.5 34q-31 86 -70 162q-3 4 -8 20q-3 9 -8 29t-8 29l-19 49q-6 20 -17 60t-17 59l-7 14 q-4 8 -11.5 24.5t-10.5 22.5q-8 25 -23 58q-8 18 -25.5 54t-25.5 54q-30 73 -86 129q-29 25 -47 31q-2 1 -59 12h-15q-2 0 -5 -1t-5 -1q-28 -2 -63 -20q-47 -33 -56 -93z" />
<glyph unicode="0" horiz-adv-x="688" d="M-35 1247q-1 -29 3.5 -82t4.5 -63v-15q1 -38 3.5 -113.5t3.5 -113.5v-229q0 -9 2 -26t2 -25q1 -13 2 -37t2 -37q0 -32 4 -90v-70q0 -92 8 -139q16 -104 90 -158q5 -4 16.5 -9t12.5 -5l59 -19q85 -31 170 -28q14 0 29 -1t34 -2.5t29 -2.5q55 -3 86 30l4 6q46 34 60 109 q2 11 6 29.5t7 33.5t5 29q4 28 4 41q0 42 2 62q1 14 6.5 38.5t6.5 32.5q6 27 6 56v100q0 3 3 38t3 52q1 22 1 66t1 65q0 31 2 47v35q-1 42 -1.5 118.5t-1.5 140.5t-3 120q0 94 -10 141q-12 60 -60 105q-10 10 -26 10q-26 0 -54 14q-25 11 -45 8q-18 0 -50 3.5t-38 3.5l-2 2 h-45q-9 -1 -26.5 -4.5t-26.5 -4.5q-15 -1 -44 -2t-44 -2q-61 -3 -105 -53q-29 -37 -75 -119q-17 -29 -21 -86zM203 1100q0 14 4 22q6 6 6 19q0 22 16 41q21 25 33 30q4 1 16 4.5t19 4.5q37 0 55 2q9 0 29 -4q11 -2 20 -12.5t9 -22.5v-37q-3 -111 12 -219q1 -14 4 -43.5 t4 -44.5q2 -31 2 -97v-77q-2 -70 -10 -224q0 -18 -2 -55t-2 -55q0 -27 -25 -43q-10 -5 -30.5 -17.5t-30.5 -17.5q-26 -12 -51 4q-47 31 -50 94q-1 22 -2 67t-2 68q-1 17 -1 48.5t-1 56.5t-4 47q-8 85 -12 338z" />
<glyph unicode="1" horiz-adv-x="614" d="M-23 1202q3 -10 8.5 -20t14 -21t12.5 -18q9 -15 19 -35q21 -43 37 -55q11 -8 22 0l2 4q7 1 14 5t10.5 7t10.5 9.5t10 8.5l29 23v-10v-4q0 -105 -2 -156q-1 -22 0.5 -45.5t5 -56t4.5 -47.5q6 -37 6 -74q1 -31 1 -66t-0.5 -76.5t-0.5 -64.5q0 -20 0.5 -55.5t0.5 -64.5 t-1 -54q0 -52 15 -133q12 -79 47 -150q26 -54 69 -69q12 -4 23 -4h37q2 0 6 1t6 1q2 1 6 2t6 2q17 6 19 8q15 18 20 37q21 58 21 104q0 17 -1 52.5t-1 54.5q0 64 6 129q0 11 1 24t2.5 29t2.5 25l12 86q5 32 8 66.5t4.5 83.5t2.5 67q0 4 3 30.5t3 40.5q0 27 2 57.5t5.5 67.5 t4.5 56q3 77 -2 139q-8 180 -8 268q3 45 -27 82q-2 4 -14 8q-20 10 -68 10h-76q-4 2 -10 2h-24q-30 -4 -41 -8q-34 -14 -64 -47q-25 -32 -63 -65q-7 -7 -23.5 -23t-28.5 -28t-22 -25q-8 -13 -24.5 -34t-22.5 -30t-15 -30v-21z" />
<glyph unicode="2" horiz-adv-x="778" d="M12 215q0 -5 1 -14.5t1 -14.5q0 -18 9 -59q8 -43 28 -92q6 -18 15 -33q8 -12 18 -12q33 -7 61 -15q11 -2 33.5 -4t24.5 -2q23 -1 68 -2t67 -2h45h82q41 2 123 10q9 1 43 11q41 9 41 49q0 45 -6 88q-1 10 -11 74q0 2 1 4.5t1 3.5q13 23 -2 41q-8 13 -24 26q-13 15 -43 15 q-28 0 -58 6q-14 2 -49 2q-5 0 -13.5 0.5t-16 0.5t-13.5 -1l-59 -6q-12 -2 -39 -2q-2 0 -6 4q-11 14 -45 53q-1 2 -1 5t1 5l30 64q28 52 84 119l29 36q7 10 33 41q28 35 61 99q14 27 41 74t35 61q6 12 17.5 37t17.5 37l31 59q9 15 12 31q16 78 16 114q0 6 -2 18.5t-2 18.5 q-2 10 -2 29q-1 18 -1 51.5t-1 50.5q-4 43 -10 62q-1 9 -16 33q-16 26 -70 69q-12 10 -72 29l-80 18q-29 9 -65 15l-19 6h-123l-40 -6q-34 -2 -93 -21q-33 -11 -45 -47q-10 -33 -10 -63q1 -10 1.5 -42.5t2.5 -50.5q7 -51 29 -92q3 -7 8 -21.5t8 -21.5q18 -35 25 -47 q9 -21 37 -18q36 3 63 14q7 2 21.5 8t21.5 8q7 3 23.5 7.5t23.5 7.5q40 16 21 55q-26 52 -31 61l117 54q10 -17 12 -27q21 -73 21 -106q0 -29 -15 -72q-9 -31 -31 -80q-12 -24 -34 -57q-3 -5 -82 -119q-7 -8 -43 -68q-42 -61 -99 -190q-6 -13 -41 -76l-18 -45 q-17 -39 -45 -92q-25 -44 -27 -76q-2 -2 -2 -6v-82z" />
<glyph unicode="3" horiz-adv-x="737" d="M-31 1235q0 -53 17 -100q2 -2 2 -9q-2 -14 -2 -47q0 -20 9 -29.5t28 -7.5q73 4 110 21q19 8 72 22q4 2 8 2q19 6 24.5 16t2.5 30q-2 20 -7 96q0 3 11 14q36 18 51 21q11 2 65 16h15q4 -32 4 -49q0 -34 10 -76q2 -5 2.5 -15.5t1.5 -13.5q16 -133 13 -295q0 -3 -7 -10 q-74 -28 -112 -30q-40 0 -80 -35q-10 -7 -10 -21q-7 -33 2 -61q17 -59 14 -127q0 -15 2 -21q3 -15 16 -21.5t27 -0.5l121 41q2 1 33 6v-10q2 -68 2 -199q1 -5 12 -51q10 -52 10 -94q0 -12 -8 -15q-5 -2 -14.5 -7t-14.5 -7l-49 -25q-4 -2 -22 -8q-6 -3 -18.5 -8t-18.5 -8 l-12 -8q-9 -5 -20.5 -1t-14.5 13q-8 24 -8 41q-2 25 -7 137q0 10 -2 14q-3 20 -22 17q-40 -6 -70 -27q-10 -7 -32.5 -20.5t-32.5 -20.5q-33 -22 -33 -51v-74q0 -21 26 -71q15 -29 41 -66q28 -36 62 -49l7.5 -2.5t8.5 -2.5t8 -1q21 1 44 0t51 -3t43 -3q28 0 78 12q6 2 65 12 h25q25 -2 67 15q27 12 33 43q4 25 8 67q4 36 8 100q1 48 2 144.5t2 144.5q0 72 2 107q0 28 -8 86q-5 65 4 139q4 23 4 68q3 45 9 88q1 11 3 22.5t5 25t4 21.5q1 9 4.5 26t5.5 30.5t2 25.5q1 18 1 38.5t-0.5 45t-0.5 37.5v16q0 18 -8 31q-6 6 -6 27q-16 67 -19 76 q-4 12 -20 32q-41 37 -61 43q-14 4 -40.5 11.5t-39.5 11.5l-47 12h-29q-13 0 -41 -4q-11 -2 -57.5 -8.5t-71.5 -13.5q-73 -24 -115 -66q-62 -65 -114 -135q-9 -12 -13 -37z" />
<glyph unicode="4" horiz-adv-x="757" d="M-2 1206q0 -1 4 -25t8 -36q6 -28 2 -105q-5 -55 2 -133q3 -39 0 -76q0 -37 -2 -53q0 -32 -4 -90q0 -4 -1 -10.5t-1 -9.5q0 -49 -2 -74q-5 -53 31 -102q23 -23 47 -23q32 0 59 12q33 15 58 23l22 10q17 7 49 21.5t49 21.5q2 2 9 2q29 7 86 45l20 12t23 15q4 -24 4 -33 q1 -40 2 -120t2 -120q0 -1 6 -100v-65q0 -109 10 -150q6 -37 41 -51q42 -17 74 -17q23 0 40.5 15t20.5 37q7 44 9 75q6 53 14 152q6 36 6 37q8 70 8 104q2 82 2 248q0 9 -2 26t-2 25q-9 92 0 183q2 14 4 44t4 44q11 71 11 118q0 10 2 32t2 34q0 8 -2 25.5t-2 25.5 q-2 20 -2 60l-7 69q-4 54 -4 84q-3 46 -49 70q-8 4 -12 4q-70 8 -107 8q-25 0 -75 -12q-15 -3 -21.5 -14t-3.5 -23q1 -2 2 -5.5t2 -4.5q8 -5 8 -27q-4 -97 -2 -143q0 -19 9 -80q7 -59 0 -96q-7 -71 4 -123q4 -22 5 -44t0 -58t-1 -44q0 -1 -1 -3t-1 -3l-142 -102 q-9 -8 -13 -8.5t-21 0.5q0 11 1 33t1 34q1 13 2.5 37t2.5 43.5t1 36.5l-6 239q0 98 8 177q2 19 2.5 53t1.5 45q2 20 -12 72q-6 25 -31 34q-2 1 -23 11h-37q-40 -17 -90 -23q-27 -2 -48 -18t-27 -45q-11 -52 -13 -60q-4 -18 -6 -39t-3.5 -46.5t-2.5 -39.5q0 -2 -1 -4.5 t-1 -3.5v-35z" />
<glyph unicode="5" horiz-adv-x="737" d="M-2 1137q12 -44 16 -105q0 -10 4 -28t5 -25q6 -48 6 -49q1 -14 1 -42t1 -42q0 -3 6 -90v-60q-2 -43 12 -106q1 -3 2 -10t2 -11q3 -30 27 -61q17 -25 65 -21q20 0 41 7q14 0 23 6q15 4 40.5 13.5t35.5 12.5l24 13q12 6 33 18t33 18l22 7q10 3 32 8t32 8q7 2 10 -6 q0 -2 1 -6t1 -6l1 -102q0 -101 -1 -101q0 -82 -10 -123q-6 -12 -8 -14q-15 -11 -41 -33q-4 0 -6 -2l-72 -31q-1 0 -29 -6q-4 -2 -8 6l-2 14q-10 113 -12 134v45q0 20 -8.5 29t-28.5 12q-39 3 -78 -19q-3 -1 -9 -4t-9 -4q-47 -12 -62 -62q-12 -30 -12 -63q6 -99 6 -102 q4 -17 4 -48v-38q0 -2 6 -56q8 -32 43 -32h125q12 0 38 2t40 2q43 3 72 -4q29 -6 61 -9q6 -1 17 -1t16 -1q37 -3 63 27q8 8 33 43q19 30 29 53q7 13 10 27q6 53 21 102q22 98 28 133q9 52 12 105q3 38 3 76q-1 39 -2.5 117t-2.5 118q0 30 -16 49q-10 13 -22 19 q-25 14 -93 14q-21 0 -60 -6.5t-56 -7.5q-25 0 -82 -21q-14 -4 -28 -11l-33 -16.5l-27 -13.5q-1 0 -9.5 -3.5t-13.5 -4.5l-2 2q4 24 4 37l6 67q1 11 2.5 30.5t2.5 35.5t1 31q4 75 -2 114v5q4 1 12.5 3t12.5 3q20 6 58.5 15t54.5 13q82 24 106 33q8 3 32.5 10t40 13.5 t29.5 15.5q61 39 64 102q4 74 4 113q0 4 -1 11.5t-1 11.5q-7 22 -41 30l-51 15h-78q-21 -4 -33 -9l-51 -18q-13 -6 -47 -22.5t-53 -24.5q-30 -14 -86 -43.5t-62 -32.5l-110 -59q-50 -27 -66 -72q-2 -4 -8 -39v-22z" />
<glyph unicode="6" horiz-adv-x="700" d="M39 1077q4 -28 4 -45q1 -26 2 -77.5t2 -77.5q1 -16 5 -49.5t5 -51.5q10 -93 11 -110q1 -16 1 -46t1 -45q0 -71 2 -108q0 -53 6 -78q5 -26 8.5 -75t7.5 -70q0 -3 2 -21.5t2.5 -23t2.5 -21t3 -23t4 -20t5.5 -22t6 -20t7.5 -21.5q22 -49 51 -68q6 -4 19.5 -11t19.5 -11 q21 -13 51 -13h142q9 0 18.5 1t21.5 2.5t19 2.5q18 2 57 2q26 0 47 21q7 9 22 24l21 21q14 14 23 29q16 18 16 57q2 23 5.5 67t5.5 64q0 13 4 41q4 56 0 168l-19 266q-2 31 -2 94q0 49 -55 64q-6 3 -12 0q-8 -3 -25 -3t-20 -1t-9.5 -2t-9.5 -2t-25 -12.5t-34 -12.5 q-10 -1 -21.5 -5t-18.5 -7t-20 -10t-18 -9q-29 -16 -59 -22q-10 -2 -35 -14l-8 69q-7 50 -7 211q0 15 -4 39q0 2 -1 7.5t-1 8.5q0 12 1 37t1 39t13 17q44 7 139 41q8 4 25 8t18 4q45 12 82 41q18 16 22 45l6 74q0 14 -14 28q-28 24 -80 35q-18 2 -47 -6q-100 -14 -129 -14 q-46 -2 -110 -39q-17 -10 -46 -35t-41 -33q-1 -2 -4 -5t-4 -5q-34 -49 -55 -107q-2 -4 -2 -14v-63q0 -2 -1 -7.5t-1 -7.5v-84zM246 504q0 4 4 8l20 12q9 5 28 14.5t28 14.5q31 22 43 29q43 30 57 41q14 9 16 10l15 10q5 -68 6 -74q2 -11 4.5 -35t6 -42t9.5 -35v-11v-165 q0 -37 -4 -107q0 -8 -6 -8q-18 -5 -61 -14q-74 -11 -117 2q-16 6 -19 18q-13 32 -16 72q-1 26 -4 77t-4 76q-2 16 -3 34t-1.5 39.5t-1.5 33.5z" />
<glyph unicode="7" horiz-adv-x="716" d="M-63 1284q0 -32 4 -98q0 -12 -1 -33t-1 -33q-3 -34 32 -51q34 -14 74 -20q26 -4 41 8q0 2 6 2l78 6q28 0 41 29q4 16 4 28q-2 33 -2 99q-3 10 10 10q6 0 18.5 1t18.5 1q27 0 39 -2q8 -2 22 -10t15 -9q4 -4 4 -6q1 -4 1 -8.5t-0.5 -9.5t-0.5 -8q-2 -70 -10 -205 q-3 -56 -11 -98q-5 -43 -22 -95q-5 -13 -10 -61q-6 -53 -2 -162q4 -36 4 -59q0 -55 6 -84q1 -6 3 -17.5t3 -21.5t0 -19q-3 -82 -12 -165q-7 -82 0 -136q6 -56 59 -67l12 -6q28 -16 35 -19q20 -4 31 4q34 34 39 41q12 15 16 62q6 99 37 202q2 10 9.5 36t9.5 40q2 8 24 127 l25 129q4 20 15.5 68.5t16.5 75.5l25 110q12 46 14 72q3 24 8.5 71t8.5 70q16 136 10 203q0 39 -2 57q-3 27 -25.5 64.5t-46.5 56.5q-35 28 -73 25q-15 0 -43 -1t-43 -1q-8 0 -26 2t-26 2h-116v2h-80q-52 0 -88 -10q-74 -24 -90 -27q-10 -1 -39 -21q-39 -23 -45 -71 q-4 -23 -4 -70z" />
<glyph unicode="8" horiz-adv-x="733" d="M33 1292q0 -10 4 -22t4 -39q0 -10 1 -32t1 -32q2 -2 2 -6q-3 -20 12 -90q2 -6 2 -20v-177q0 -23 4 -69q3 -30 3 -64q0 -53 6 -108q4 -44 14 -62l20 -30q7 -7 5 -13q-10 -35 -13 -41q-16 -39 -16 -90q0 -26 4 -80q1 -12 7.5 -62t6.5 -77q0 -22 13 -65q5 -25 6 -27 q20 -51 26 -61q11 -23 33 -48q2 -3 6 -5t10 -4l9 -3q12 -6 24 0h25q13 -1 34.5 -4t30.5 -4q97 -4 136 6q2 0 6 1t6 1q25 -2 74 -2q20 -3 45 8q37 19 59 47q15 23 19 62q1 21 2 63.5t2 63.5q0 8 -4 24q-7 23 -7 66q-1 17 -2 50.5t-2 51.5q-2 28 6 82q10 74 -22 125q-2 2 -2 8 q24 78 26 99q1 8 2.5 24.5t2.5 24.5q3 17 10 49t10 49v4q0 16 5 48t5 49q3 39 0 77q0 4 -6 58q0 6 -4 14q-14 25 -14 61q0 53 -2 80q0 29 -11 78q-4 19 -22 60q0 6 -8 14q-5 7 -16.5 19t-14.5 16t-7.5 6t-12 4.5t-9.5 3.5q-64 13 -84 16q-13 2 -40 4.5t-40 4.5q-12 0 -36 4 h-9q-12 0 -36 -4q-8 -1 -24 -5.5t-24 -5.5q-11 -3 -33 -8t-34 -8l-55 -18q-10 -2 -27 -11q-4 0 -12 -4q-24 -12 -45 -24q-31 -17 -31 -45q-4 -36 -4 -56zM246 1194q0 6 4 6q4 2 25.5 13.5t35.5 17.5l72 31q33 11 43 -15q12 -19 27 -53q2 0 2 -4q0 -18 1 -51t1 -49 q2 -39 2 -115q0 -7 -2 -20.5t-2 -20.5q0 -10 1 -30.5t1 -29.5q4 -38 8 -55q9 -37 2 -94q0 -16 -21 -33l-36 -26q-9 -3 -62 -35q-9 -6 -29.5 -14t-23.5 -9q-3 5 -8 49q-3 35 -8 203q0 64 -7 146q-14 108 -22 139q-2 9 -2.5 26.5t-1.5 22.5zM289 147q0 34 2 50q0 10 4 30 q0 4 1 13.5t1 13.5v55q0 7 4 20.5t4 14.5q4 4 6 4l43 23q11 6 32.5 18.5t33.5 18.5q21 9 39 24q3 4 20 17q4 -12 4 -17q6 -63 0 -125q-3 -33 9 -67q4 -16 4 -29v-53q0 -17 -19 -23q-15 -4 -69 -4h-105q-11 0 -13 2t-1 14z" />
<glyph unicode="9" horiz-adv-x="655" d="M37 1374q6 -75 6 -76q1 -14 1 -40.5t1 -48t4 -40.5q8 -47 10 -65q2 -10 2 -27q-2 -40 13 -106q4 -16 4 -21v-125l3 -36t3 -37q2 -16 2 -50q5 -42 8 -57q2 -12 2 -33q-3 -15 0 -30q5 -35 51 -50q20 -4 31 -4q74 -4 111 -4q21 0 57 8l14 3q12 6 13 8q23 15 33 -4 q8 -16 8 -25q1 -15 2 -44t2 -44q1 -21 4 -60.5t4 -58.5q0 -41 -6 -78q-6 -30 -37 -47q-36 -22 -72 -22h-6q-28 -9 -102 -23h-23q-26 0 -38 -10.5t-13 -36.5q-3 -41 8 -76q13 -38 49 -43q38 -9 78 0q9 2 29.5 4.5t30.5 4.5q18 0 36 6q24 6 50 6q10 0 29.5 2t29.5 2q6 -1 13 0 t14.5 3t11.5 3h6q49 22 64 51q12 25 14 27q12 18 16 63q0 17 -2 53.5t-2 55.5t2 27q11 80 4 131q-2 9 -2 18.5t1 21t1 17.5v82q0 82 -2 125q0 11 -3 33.5t-3 35.5q-2 33 -2 99q1 16 2 50t2 50q1 25 2 74.5t2 73.5q4 68 -4 204q0 6 1 18.5t1 18.5q4 32 4 49q-2 30 -25.5 53 t-58.5 17h-67q-36 4 -56 4q-49 -3 -104 10l-35 4h-80q-8 0 -23 -1t-22 -1q-10 -1 -30.5 -2t-30.5 -2q-29 -6 -29 -32q0 -7 -4 -15q-3 -3 -8 -18v-23zM207 1245v6q3 3 9 14.5t15 12.5q20 4 33 4h51q11 0 33 1t33 1q31 0 37 -27q6 -24 6 -51q2 -18 2 -61l-6 -207 q-2 -49 -10 -156q0 -16 -13 -26q-12 -8 -20 -8h-45h-64q-4 2 -4 4q-8 33 -10 45q-8 55 -21 118q-2 8 -4 25t-2 18q-4 36 -4 54q-1 10 -2 30.5t-2 30.5q-1 8 -4 24.5t-4 24.5q0 2 -1 6.5t-1 6.5q0 19 -1 55t-1 55z" />
<glyph unicode=":" horiz-adv-x="327" d="M23 262q2 -7 3 -15.5t1.5 -18.5t1.5 -15q6 -49 59 -68q3 -1 8 -4t8 -4q54 -22 72 -26q22 -7 53 12l58 57q18 39 -21 78q-16 18 -51 53q-31 26 -41 33q-39 22 -74 -10q-20 -16 -39 -19q-44 -13 -38 -53zM25 731q0 -2 1 -4.5t1 -3.5q10 -28 34 -33q63 -13 148 -6 q23 3 38.5 19t18.5 40q6 37 -14 70q-9 15 -19 35l-18 33q-9 15 -29 18q-41 5 -92 -8q-14 -3 -22 -23q-32 -72 -35 -80q-4 -7 -7.5 -21.5t-4.5 -16.5v-19z" />
<glyph unicode=";" horiz-adv-x="276" d="M45 68q-3 -25 9.5 -40.5t35.5 -15.5h35q6 0 8.5 -0.5t3.5 -3t0 -8.5q0 -11 -8 -31q-17 -35 -4 -61q8 -14 20.5 -19.5t24.5 0.5q53 31 59 82q2 12 7 82h-3v27q0 5 -1 14.5t-1 14.5q-3 25 -14 39.5t-35 21.5q-40 12 -76 -8q-32 -21 -59 -84q-2 -4 -2 -10zM49 610 q1 -5 1.5 -14t1.5 -16.5t3 -12.5q8 -36 49 -39q16 0 33 -10q34 -20 53 8l25 31q26 33 6 74l-4 16q-21 47 -27 58q-8 15 -38 22h-66q-35 -13 -35 -57q-2 -20 -2 -60z" />
<glyph unicode="&#x3c;" horiz-adv-x="880" d="M122.5 525.5q0.5 72.5 57.5 115.5q112 90 191 133q15 8 49 26.5t52.5 29t45 27.5t48 35.5t40.5 39.5q36 37 81 25t67 -60q44 -100 -31 -178q-43 -45 -125.5 -125.5t-108.5 -106.5q0 -3 17 -16q17 -14 82 -65.5t98 -81.5q41 -35 50.5 -87.5t-15.5 -99.5q-24 -42 -63 -52.5 t-78 17.5q-210 155 -402 308q-56 43 -55.5 115.5z" />
<glyph unicode="=" d="M55 354q6 44 72 41q45 -1 138 -4t141 -4l376 -6q24 -1 93 -4.5t106 -3.5q23 0 61.5 -7t49.5 -8q28 -2 36 -30q8 -33 -18 -39q-18 -3 -45 -16.5t-37 -16.5q-2 0 -5.5 -1t-4.5 -1q-20 -1 -61.5 -4t-63.5 -4q-25 -1 -54.5 -1t-65 0.5t-54.5 0.5h-107q-10 0 -72 1t-85.5 2 t-68.5 4t-81 9q-90 14 -190 27q-66 9 -60 65zM55 698q3 48 51 60q14 3 58 8q33 0 110 25h342l37 -7q39 -6 121 -22q2 0 26 -2t38 -4q17 -2 51.5 -7.5t52.5 -7.5q17 -2 49 -4t49 -4q60 -4 90 6q23 4 27 -14q1 -6 6 -17t6 -16q5 -24 -8.5 -42t-42.5 -15q-55 2 -162 -2 q-9 0 -25.5 -7t-21.5 -8q-6 -1 -24.5 -7t-28.5 -7q-22 -3 -102 12q-71 9 -97 7q-84 0 -127 6q-13 2 -36 2.5t-31 1.5q-318 12 -324 12q-1 0 -49 6q-35 8 -35 47z" />
<glyph unicode="&#x3e;" horiz-adv-x="921" d="M102 793q7 -12 19.5 -38.5t24 -45.5t26.5 -31q13 -11 27.5 -21t33 -20t30.5 -16l35 -17.5t32 -15.5q22 -11 47.5 -21.5t58.5 -22.5t53 -20q-25 -20 -89 -72.5t-99 -80.5q-35 -27 -78 -45q-103 -44 -94 -154q2 -44 21 -113q11 -43 45 -55.5t69 14.5q11 8 142 117 q36 29 160.5 133.5t193.5 159.5q62 51 57 104q-8 76 -26 107q-23 41 -78 66q-21 11 -65.5 23t-63.5 20q-36 16 -287 139q-62 30 -95 32t-55 -22t-45 -88v-16z" />
<glyph unicode="?" horiz-adv-x="770" d="M41 1077q0 -15 8 -35q4 -9 14 -27.5t11 -21.5l-2 -2q-11 -9 -9.5 -21t13.5 -16q10 -4 33 -4q37 6 75 15q27 10 52 10h24q19 0 25 18q5 18 0 27q-6 20 -6 63q0 10 6 19q31 35 61 37q9 2 57 2q8 0 11 -6q6 -36 6 -37q2 -34 -6 -101q-2 -12 -5.5 -37t-5.5 -38 q-1 -15 -20 -62l-4 -4q-7 -11 -29 -37q-42 -48 -67 -63q-31 -22 -37 -60q-1 -5 -2 -14.5t-2 -13.5q0 -7 -1 -20.5t-1 -20.5v-66v-22l6 -39q5 -33 10 -41q2 -2 2 -6q1 -5 2 -15.5t2 -15.5q6 -60 6 -64q1 -12 1 -25.5t-0.5 -30t-0.5 -26.5q2 -14 11 -24t22 -10q49 -7 80 2 q23 6 65 6q25 0 33 18q4 7 8 21l3 12t3 15.5t1 13.5q1 15 2 45t2 45v139q0 31 -15 49q16 18 58 39q42 20 92 78q37 44 59 86q21 41 21 80q0 98 -2 147q0 40 -6 78q-1 13 -5.5 36.5t-5.5 35.5q-2 25 -2 76v20q-8 42 -35 88q-15 26 -32 33q-32 19 -72 29q-3 1 -76 24 q-39 9 -74 15q-4 0 -11 1t-11 1h-19h-6q-25 -5 -30 -7q-56 -12 -107 -43q-22 -9 -29 -14q-33 -26 -61 -57q-28 -28 -43 -58q-31 -60 -35 -79q-10 -45 -10 -56q-3 -41 0 -84zM289 70q0 -17 4 -45q6 -25 31 -25q24 0 45 6q39 11 116 51q15 11 15 25q7 52 -19 84q-5 5 -8 14 q-10 16 -27 19q-24 4 -36 4h-2h-13q-24 0 -45 -15l-14 -6q-22 -7 -25 -22q-4 -13 -8 -39q0 -1 -1 -3t-1 -3q-7 -7 -10 -15q-2 -10 -2 -30z" />
<glyph unicode="@" horiz-adv-x="1085" d="M29 1145q-2 -34 10 -107q4 -36 8 -108v-133v-80q4 -98 4 -146l6 -135q0 -7 11 -51q0 -5 2 -14.5t2 -14.5q-3 -65 6 -133q2 -8 4 -25.5t2 -19.5q2 -10 14 -26q20 -26 49 -58q20 -23 60 -47q33 -17 82 -24q14 -3 40 -10.5t40 -10.5q16 -3 47.5 -8t46.5 -8q39 -11 41 -11 q88 -4 139 5q10 2 62 2q36 -4 61 4q64 16 94 32q32 18 39 23q31 15 49 43q2 4 10 12q11 7 29 21q15 12 19 37q2 7 7 20.5t7 20.5q3 10 8 31.5t8 31.5q3 13 -6 16q-3 1 -6.5 4.5t-5.5 4.5q-15 9 -31 6l-113 -31q-6 -2 -12 -6t-13.5 -11.5t-10.5 -9.5q-2 -2 -2 -8 q-3 -24 -25 -37q-23 -13 -57 -16q-29 -2 -88 -10q-6 -2 -21 -2h-117q-53 0 -63 2q-2 0 -76 12q-10 2 -33 2h-12q-17 2 -23.5 8t-7.5 23q0 2 -2 21.5t-4 29.5q-7 22 -10.5 45t-5 59.5t-2.5 45.5q-6 167 -6 169q-8 118 -19 187q-2 15 -2 90q4 94 -6 141q-10 40 -6 137 q0 25 22 33q77 29 119 27q23 0 70.5 3t70.5 3q31 0 89 -4q13 -2 127 -23l59 -10v-10v-80q-2 -46 16 -121l19 -96v-25v-139q0 -3 -1 -10t-1 -10l-6 -95q0 -20 -21 -20q-23 0 -35 2q-10 0 -10 6l-12 43q-1 7 -4 20.5t-4 20.5l-7 57q-9 71 -30 134q-8 24 -31 47l-18 18 q-10 13 -23 23l-16 16q-20 20 -48 10q-57 -18 -83 -49l-52 -67q-6 -6 -15.5 -18.5t-12.5 -16.5q-35 -54 -45 -101q-3 -14 -10.5 -42t-10.5 -42q-12 -69 -4 -104q4 -23 12 -39l19 -39q14 -39 69 -57l37 -13q62 -16 113 9q42 20 63 61q2 3 5 8.5t6.5 9.5t7.5 7l2 -2 q1 -2 6 -15.5t6 -19.5q15 -47 74 -76q26 -12 55 -2q38 11 131 61q6 3 14 11t11 10l24 18q4 0 4 2q32 29 43 62q3 14 0 31q0 4 -2.5 29.5t-2 30t2.5 30.5q3 29 5.5 81.5t3.5 71.5q1 0 1 37l-1 37v96q5 75 4 88q-1 20 -5.5 61t-5.5 62q-1 10 -2 31t-2 31l-12 63q-11 33 -45 64 l-12 14q-1 2 -2 5t-2 5q-17 36 -47.5 52.5t-77.5 25.5q-16 4 -51 4q-3 0 -8 1t-7 1h-31q-4 0 -11 -1t-11 -1h-72q-66 0 -121 -8l-139 -18q-12 -1 -32.5 -6.5t-26.5 -6.5q-54 -6 -58 -6q-41 0 -84 -31q-13 -8 -35 -25t-30 -22q-38 -29 -82 -100q-5 -11 -10 -43q-4 -28 -4 -45 zM449 519.5q-1 11.5 3 25.5t6 20.5t10 25t9 21.5q16 46 76 121q15 23 27 37q0 4 2 6q8 13 18 0q28 -40 33 -76q0 -17 8 -41q0 -10 2 -16q-12 -69 -31 -104q-27 -46 -61 -66q-18 -13 -23 -16q-18 -15 -39 2q-3 3 -9.5 7.5t-11.5 8.5t-9 8q-6 6 -6 13q-3 12 -4 23.5z" />
<glyph unicode="A" horiz-adv-x="593" d="M20 221l15 -82q2 -11 4 -34.5t4 -34.5q2 -35 45 -68l16 -14q18 -18 48 -15q2 0 16 9q27 27 27 61q0 6 -1.5 24t-0.5 27q0 3 6 51l6 43q0 5 2 5q13 7 28.5 25.5t22.5 23.5q9 8 26.5 25.5t26.5 25.5l49 43q1 -4 4.5 -13.5t4.5 -13.5q19 -47 32 -108q1 -3 2 -14t3 -17 q7 -29 20 -47q22 -36 70 -92q20 -22 44 -22q9 0 19 3q36 9 33 43q0 99 -10 148q-1 9 -5 33.5t-6 37.5q0 2 -1 6.5t-1 6.5q-19 73 -39 133l-32 119q-4 16 -7 47t-4 37q-4 21 -13 61.5t-13 60.5q-2 14 -9.5 65.5t-13.5 78.5q-2 15 -10 43t-10 37q-27 101 -27 167v9v20 q0 57 -14 121q-10 33 -25 60q-20 39 -30 69q-12 48 -46 88q-6 7 -13.5 22t-10.5 19q-19 28 -57 31q-8 1 -15 1q-49 0 -78 -36q-48 -64 -48 -137q0 -8 1 -17q2 -16 1.5 -32t-1.5 -33q-4 -34 -8 -98q-4 -66 -4 -99q0 -6 1 -20t1 -21v-77q-2 -22 -1.5 -58.5t-0.5 -58.5 q0 -25 -2 -74t-2 -74q-1 -10 0.5 -30.5t1.5 -26.5q0 -9 -1 -27.5t-1 -27.5q0 -4 -1 -12.5t-1 -12.5q-3 -66 -3 -103q0 -22 1 -34q1 -27 1 -51q0 -73 -9 -125l-7 -45v-25zM207 451q6 77 9 219.5t5 187.5l19 -65l36 -123q19 -58 23 -78q4 -16 4 -49q0 -7 -6 -13 q-17 -17 -57 -53z" />
<glyph unicode="B" horiz-adv-x="737" d="M-12 1380q1 -17 4 -52t4 -54q1 -10 2 -32t2 -32q9 -67 9 -124q0 -33 -3 -62q-2 -24 -2 -41q0 -26 4 -39q0 -1 6 -53q1 -17 2 -49t2 -49q5 -147 5 -177v-11q1 -22 3 -56q4 -44 3 -64q0 -1 1 -4.5t1 -5.5q2 -11 5 -33t5 -32q2 -8 2 -23q9 -35 10 -45q1 -11 6.5 -81 t6.5 -107q4 -44 14 -62q2 -4 7.5 -14.5t8.5 -15t8.5 -13.5t9.5 -14t10 -11.5t13 -11.5q29 -22 56 -22q5 0 13.5 -1t12.5 -1q3 0 10 -1t11 -1q5 -1 14.5 -2t13.5 -2q49 -11 54 -11q55 -2 163 -2q47 0 109 25q18 7 45 26q20 14 16 43q-8 66 -10 99q-6 79 -6 160q0 58 2 71 q9 46 9 83q0 10 -1 20q-2 28 -5 81.5t-5 81.5q-6 75 -6 78t18 166q0 4 2 6q0 5 4 21q0 23 2 35l7 32q0 66 2 99q1 26 5 79t5 80q1 13 1 28q0 53 -9 120q-5 29 -15 72q0 3 -2 9t-2 9q-2 11 -14 23q-12 4 -16 8q-27 13 -35 20q-15 17 -43 17q-19 0 -27 4q-18 9 -39 9 q-24 0 -53 -11q-8 -4 -16 -4h-50l-147 -19h-12q-17 6 -36 6q-22 0 -48 -8l-33 -6q-8 -1 -24.5 -3t-24.5 -3q-18 -5 -30.5 -18.5t-12.5 -30.5q-3 -43 -3 -72q0 -14 1 -25zM219 279q0 3 1 9t1 9q1 3 2.5 6l3 6t2.5 4q3 22 25 33q29 18 113 88q3 2 13.5 9.5t16.5 13.5 q7 5 15.5 12.5t18.5 16.5t15 14q15 15 19 18q0 -18 -2 -26q-4 -41 -4 -76q0 -24 2 -45q1 -11 6 -33.5t6 -34.5q8 -57 10 -90q2 -29 2 -88v-19q-4 1 -12 2.5t-12 2.5q-17 0 -49 1t-47 1h-119h-13q-8 3 -6 10q1 14 1 30q0 50 -9 126zM264 838q0 15 1 31t2.5 36t2.5 31 q1 19 5 68.5t4 76.5q0 23 -2.5 71t-2.5 73q-2 39 -2 118q0 6 9 9q70 25 100 34q5 2 14.5 7.5t14.5 7.5l12 4l6 -53q4 -37 8 -107q8 -98 10 -149q1 -23 1 -49t-0.5 -58.5t-0.5 -50.5q0 -40 3 -78q0 -17 6 -35q1 -7 1 -14q0 -37 -42 -57q-23 -12 -41 -33q-34 -38 -92 -86 l-2 -2q0 11 -5 61q-1 25 -5 73t-5 71z" />
<glyph unicode="C" horiz-adv-x="778" d="M31 1276l8 -70q4 -54 4 -80q7 -104 7 -156q0 -18 -1 -30q-4 -82 -4 -127q0 -54 4 -156q1 -15 4 -43.5t4 -42.5l6 -55q0 -30 7 -65q5 -37 5 -75q0 -50 -9 -102q-2 -12 -2 -27q0 -20 4 -42q4 -19 5 -39.5t1.5 -48.5t1.5 -39q0 -78 55 -113q28 -17 53 -20q1 0 19 -6 q8 -1 35 -6.5t43 -6.5q41 -4 76 -4t63 4l41 6q11 0 61 5q11 1 33.5 4t34.5 4q3 1 9 2t9 2q8 1 23 2t22 2q4 2 13 2q23 -3 30 20q15 61 15 108v11q-1 11 -1 32.5t-1 33.5q0 11 -1 33t-1 34q-5 58 -5 64q-2 19 -8 26t-24 7l-84 6q-3 0 -11 4q-25 17 -55 0q-11 -5 -28 -17 q-13 -8 -13 -24q0 -12 1 -33t1 -31q1 -10 1 -21.5t-0.5 -24.5t-0.5 -19q0 -8 -6 -8q-2 0 -32 -8.5t-46 -10.5q-11 -2 -33 -5t-32 -6h-6q-8 22 -23 71q-1 3 -1 6t0.5 7t0.5 7v96v64q-4 62 -4 94q0 26 4 76q1 11 2 33.5t2 33.5l6 156q0 41 -2 59q-2 43 -10 125q-2 18 -10 54 q-4 12 -4 18q4 54 4 78q0 2 2 4q9 1 17.5 5t18.5 10.5t15 9.5q50 30 80 43q14 6 41 24q1 1 29 12q0 -4 -1 -10.5t-1 -9.5v-64q-1 -17 -11 -94q0 -4 -1 -12.5t-1 -16t2 -12.5q6 -20 21 -39q9 -9 37 -4q21 7 53 0q8 -2 24.5 -7t24.5 -7q14 -3 25 3t14 19q4 18 8 62l25 166 q8 45 8 80q0 16 -2 30q-1 9 -4 30.5t-4 33.5l-13 78q-3 32 -39 45q-20 10 -22 12q-57 35 -119 41q-1 0 -2 1t-2 1h-47q-20 -2 -51 -10l-68 -6q-7 0 -22.5 -1t-22.5 -1q-4 0 -67 -11q-14 -3 -41.5 -7t-40.5 -7q-41 -4 -60 -20q-27 -24 -43 -45q-12 -17 -16 -68q0 -22 -4 -68 v-18z" />
<glyph unicode="D" horiz-adv-x="778" d="M0 1409q6 -15 6 -61q-2 -88 -2 -267l6 -129l13 -112l3 -48t3 -47q2 -25 7 -71.5t7 -67.5q1 -8 2.5 -21.5t2.5 -24.5t1 -21q2 -31 2 -95l6 -94q0 -2 1 -5t1 -5q0 -72 2 -109l7 -133q5 -32 12 -43q1 -1 1 -4.5t1 -5.5q0 -6 4 -6q0 -4 6 2h8q7 -2 20.5 -7t20.5 -7 q4 -2 15 -2h12q31 -15 100 -15q70 4 105 4h90q12 1 24.5 -0.5t28.5 -5t23 -4.5q24 -4 36 -4q25 3 41 25q5 5 5 10q-1 4 0 8t3 8.5t3 7.5q9 26 12 52q4 14 4 39l6 73q0 49 2 74q0 33 11 61q4 8 4 15q0 25 6.5 71.5t7.5 57.5q8 90 10 135q6 129 6 131l6 184q0 12 5 90q0 5 2 7 v227q-6 40 -15 84q-7 50 -35 72q-23 20 -55 36q-77 34 -125 45q-12 2 -35.5 4.5t-35.5 4.5q-4 0 -13.5 1t-13.5 1h-96h-9q-82 -4 -122 -4q-18 0 -82 -19q-55 -14 -72 -76v-16zM229 680v29v149q0 143 2 217q0 20 9 72q2 20 22 20q66 0 80 -2q28 -6 80 -10q12 0 18 -14 q6 -18 6 -37v-39h-2q0 -10 0.5 -28t0.5 -32.5t-1 -27.5q-4 -109 -10 -162q-2 -26 -2 -51.5t2 -50.5q1 -9 4 -28t4 -28q1 -5 2 -16t2 -16q0 -5 -4 -9q0 -2 -3 -9.5t-3 -12.5q-3 -27 -7 -81t-7 -81q-1 -18 -19 -78q-10 -29 -43 -32q-7 0 -21.5 -2.5t-21.5 -2.5q-16 -3 -30 5 l-5 5t-5 4.5t-4.5 4.5t-4 5.5t-3 6t-1.5 6.5q-5 18 -8 36t-5 47t-3 36q-1 19 -6 54.5t-6 52.5q-2 16 -7 100z" />
<glyph unicode="E" horiz-adv-x="675" d="M31 487q0 -11 1 -23.5t2.5 -27t2.5 -24.5q1 -14 2 -42t2 -42q0 -13 2 -19q6 -12 10 -14q6 -4 6 -14q1 -8 1 -16q0 -43 -17 -115q-5 -22 -5 -40t5 -32q14 -55 18 -64q2 -12 13 -26q15 -28 45.5 -41.5t62.5 -7.5q75 14 129 14q8 0 18 1t22.5 2.5t19.5 2.5q15 0 46 1t46 1 q42 0 69 19q40 27 40 64q0 4 -1 9q-1 4 -4 12.5t-4 12.5l-6 26v29q1 21 -14 31t-35 4q-7 -1 -20 -7t-17 -7l-39 -9q-27 -6 -88 -14q-3 0 -7.5 -1t-6.5 -1h-97h-8q0 47 11 72q18 42 22 118q1 28 2 84t2 84l6 84q9 1 27.5 2t26.5 2q51 3 86 19q16 6 24 20q12 20 21 29 q23 29 23 60q0 6 -1 12q-3 22 -22 35q-27 16 -60 16h-10q0 -3 -29 -2l-30 2l-2 2q-17 1 -22 8t-3 25q3 10 0 20q-2 14 -2.5 43.5t2.5 73.5q1 14 4 39t4 37v30q-1 17 -1 33q0 60 9 113q4 20 4 63q4 25 13 39q10 10 20 8q16 -5 39 3q12 4 37 10t37 10q13 5 38.5 16.5 t39.5 16.5q8 0 12 2q23 6 25 8q29 18 53 57q8 11 8 29q0 28 10 45q11 16 4 39q-3 22 -26 25q-10 1 -32 2t-32 2q-18 2 -57 2h-90q-4 0 -11.5 -1t-11.5 -1l-67 -13h-21q-13 -1 -37 -1t-43.5 -1t-36.5 -4q-7 -1 -17 -1q-20 0 -50 3q-6 1 -11 1q-47 0 -69 -48q-10 -19 -10 -43 q0 -15 4 -31q3 -14 3.5 -28.5t-0.5 -35t-1 -28.5q-1 -19 -2 -56t-2 -56v-58q2 -49 6 -151l6 -158v-16q0 -53 -10 -144q-2 -10 -2 -30q0 -30 -1 -90t-1 -89z" />
<glyph unicode="F" horiz-adv-x="778" d="M121 496q0 -11 1 -23.5t2.5 -27.5t2.5 -23q1 -15 2 -42t2 -42q0 -13 2 -19q4 -12 10 -14q7 -5 7 -14q1 -7 1 -15q0 -42 -18 -114q-5 -22 -5 -40t5 -32q19 -62 19 -63q4 -18 12 -29q33 -42 78 -47q3 -1 8 -4t8 -4h10q2 2 8.5 5.5t8.5 4.5q33 16 39 35q10 30 10 61 q1 11 -0.5 33t-1.5 29q-1 22 -1 40q0 36 5 56q2 10 2 31.5t2 31.5q4 39 8 113q0 1 6 154q0 27 2 41q6 1 19.5 2t19.5 2q66 4 97 18q15 6 24 21l19 24q16 26 18 33q8 18 8 33q0 18 -12 32q-24 27 -55 27q-5 0 -15.5 -1t-15.5 -1q-19 0 -55 4q-15 2 -20.5 8t-4.5 21q3 18 0 33 q0 4 -1 11.5t-1 10.5q1 20 2 61t2 62q0 8 2 12q4 13 4 64q0 65 4 96q11 102 11 106q0 13 12 33q4 13 18 6q15 -4 43 4q9 4 27 8t20 5q8 3 86 35q24 6 25 6q17 0 25 8q17 12 53 57q6 12 6 17q0 25 14 65q3 11 3 20q0 30 -38 35q-30 3 -63 3q-14 2 -45 2h-90q-15 0 -23 -2 q-59 -10 -67 -11q-6 -2 -19 -2q-78 0 -117 -6q-7 -1 -16 -1q-19 0 -51 3q-5 1 -11 1q-44 0 -67 -46q-8 -18 -8 -44q0 -14 2 -30q2 -15 2 -92q-1 -19 -2 -55.5t-2 -54.5v-56q1 -26 3 -75.5t3 -75.5l6 -156v-16q0 -51 -10 -142q-2 -10 -2 -28q0 -30 -1 -88t-1 -88z" />
<glyph unicode="G" horiz-adv-x="798" d="M29 1167q8 -35 10 -55q9 -74 12 -143q0 -109 -2 -162q-5 -93 -5 -155q0 -31 1 -54q1 -16 2 -48t2 -48q2 -31 10 -94l13 -109q1 -26 3 -77t3 -77q0 -19 4 -55q6 -25 31 -47l41 -37q12 -9 26 -12q18 -5 86 -19l19 -6q23 -10 43 -4q23 5 52 5q40 0 93 -9q19 -4 35 -4t29 4 q17 6 77 10q6 1 17 2.5t20 2.5t17 1q11 -2 22 13q16 23 19 45v6q10 47 14 178v23q0 20 6 30q2 3 2 25q0 20 -1 61.5t-1 63.5q0 1 6 160q0 5 1 15t1 15q1 13 -6.5 25.5t-19.5 17.5l-33 7h-37q-28 3 -51 -13q-24 -18 -66 -18h-12q-10 2 -33 2q-25 0 -45 -19.5t-22 -44.5 q0 -25 2 -30q4 -15 4 -68v-47q4 -18 8 -25q4 -8 20 -12q11 0 35 8q10 4 37 4v-45q-4 -32 -4 -47v-59q0 -7 -6 -10q-37 -19 -49 -23q-21 -9 -45 -12q-15 -4 -49 -8l-15 -5q-11 -4 -13 -3t-7 12q-17 35 -17 75q-1 10 0.5 30.5t1.5 27.5q0 29 -1 90t-1 92q-1 34 -2 101t-2 100 l-6 43q-1 12 -3 38t-3 38l-6 137q-1 4 -1 11t-1 11q0 7 -2 22t-2 23q-5 32 -4 39q0 20 1 58.5t1 56.5q2 12 2 39q0 6 4 6q77 28 100 35q30 7 100 20q14 2 18 0t11 -12q19 -25 19 -53q0 -11 -5 -51q-1 -9 -4.5 -30t-5 -36.5t-0.5 -30.5q1 -5 1.5 -19.5t2.5 -21.5 q4 -11 19 -16q33 -7 57 -10q40 -4 62 -4q4 0 6 2q19 17 53 20q17 3 21 7.5t4 21.5q0 114 -3 231q-1 19 -5 59.5t-5 61.5q-3 28 -12 55q-16 34 -55 43q-69 14 -86 19q-31 8 -93 28q-29 10 -69 10q-10 0 -21 -1q-65 0 -133 -6q-34 -2 -92 -21q-54 -20 -76 -45q-41 -41 -49 -92 q-4 -24 -6.5 -49.5t-4.5 -61t-3 -49.5l-6 -31v-43z" />
<glyph unicode="H" horiz-adv-x="829" d="M41 1343q0 -15 3 -43t3 -43v-13q0 -29 3 -74l5 -70t1 -28q0 -54 -9 -122q0 -38 2 -45q6 -31 6 -96q1 -35 1 -74.5t-0.5 -87.5t-0.5 -74v-53q0 -28 4 -86q1 -10 4.5 -27t4.5 -24q1 -4 1 -12t1 -11q0 -16 6 -34q4 -14 4 -45q4 -74 4 -113q2 -25 2 -74q1 -14 20 -51 q6 -11 23 -33q24 -37 70 -47q15 -3 28.5 4.5t16.5 22.5q4 10 4 33q0 52 4 65q3 15 3.5 30t-0.5 36t-1 30q0 7 -2 23t-2 24q0 7 4 19q1 3 3.5 7.5t2.5 6.5q9 23 29 33q34 18 131 88q0 1 1 2t1 2q31 13 94 72q0 2 4 2q-1 -4 -2 -12.5t-2 -12.5q-10 -46 -10 -116q1 -10 4 -30 t4 -30l6 -94q0 -12 -1 -38t-1 -38q0 -5 -1 -17t-1 -18q0 -56 43 -86q25 -20 59 -6q17 6 50 27q18 10 18 41q-4 33 -4 100q0 21 2 60.5t2 58.5q0 49 14 117q8 34 11 84q2 37 2 108q0 13 -1 40t-1 40v9q0 30 10 83l22 109q0 4 5 14l6 33q0 6 4 22q1 8 4 21.5t5 25t3 21.5 q2 24 9 74.5t9 74.5q18 125 18 192q0 13 -1 23q-4 70 -8 109q-4 21 -9 35q-4 14 -12 16q-6 4 -18.5 10.5t-18.5 10.5q-4 2 -20 18q-13 17 -29 14q-31 -3 -59 13q-1 1 -17 6h-30q-7 0 -15 -4q-30 -10 -34 -12q-19 -7 -9 -27v-8q-2 -18 -2 -44t2 -59q1 -28 4.5 -81.5 t4.5 -79.5q1 -22 1 -46.5t-0.5 -54.5t-0.5 -45q0 -14 0.5 -38.5t0.5 -44t-1 -36.5q-1 -20 -4.5 -57t-4.5 -55q-4 -54 -4 -80q0 -9 4 -29q2 -9 2 -17q0 -39 -45 -59q-32 -14 -49 -34q-35 -35 -104 -89v31q-1 28 -3 83q-3 85 -3 88q0 23 8 91q12 78 18 164q2 23 2 137 q0 122 10 179q4 25 4 53q0 34 -6 72q-3 37 -38 55q-34 15 -62 18q-13 2 -27 2q-22 0 -45 -6q-20 -6 -59 -10q-39 -5 -49 -12q-32 -19 -35 -54q0 -20 -2 -61t-2 -62z" />
<glyph unicode="I" horiz-adv-x="368" d="M-10 1368q0 -11 1 -23.5t2.5 -27.5t2.5 -23q1 -18 1 -52t1 -62t4 -52q4 -40 4 -78q0 -53 -8 -100q-3 -18 -3 -34q0 -22 5 -42q4 -12 4 -20q0 -168 2 -252q0 -39 -2 -57q-1 -10 -1 -24q0 -21 2 -49q3 -46 3 -60q0 -7 2 -11q7 -18 9.5 -54.5t5.5 -51.5q5 -15 6.5 -31 t2.5 -42t1 -32q1 -21 1 -62.5t1 -61.5q0 -17 6 -29l33 -57q26 -40 74 -52q17 -4 30.5 4t18.5 25q4 24 4 37q-3 33 2 59q4 24 4 61.5t-4 86.5q-2 9 4 22q20 40 20 68q0 23 23 104q6 20 14 66q4 26 8 86q7 82 7 143q1 18 0 56.5t0 58.5q1 25 7.5 71t8.5 64q10 78 10 94 q1 30 1 89t1 89q4 94 10 138q4 25 4 53q0 35 -6 74q-5 42 -51 59l-53 18h-27q-2 -2 -6 -2q-11 -3 -45 -8q-16 -4 -22 -4q-10 -2 -32 -4t-32 -4q-20 -3 -36.5 -19.5t-16.5 -35.5q-6 -55 -6 -109z" />
<glyph unicode="J" horiz-adv-x="798" d="M51 268q4 -12 4 -16q1 -18 2 -54.5t2 -54.5q0 -4 -0.5 -12t-0.5 -15t1 -12q12 -77 86 -104q5 -2 68 -29q32 -14 74 -14q41 0 122.5 -1t122.5 -1q13 0 37 4h19q26 -3 49 10q5 3 14 17q19 33 31 102q7 67 7 132q0 22 -1 44q-1 10 -4 28t-4 25q-1 6 -2 17t-2 16q-4 17 4 49 q22 65 25 127q1 28 5 82t5 82q0 8 -1 26t-1 27v18q0 47 8 107q12 78 18 164q2 24 2 137q0 114 11 179q4 25 4 54q0 35 -6 75q-5 38 -50 55q-2 1 -53 18h-26q-1 -2 -3 -2q-13 -2 -43 -7t-47 -7q-6 -1 -19.5 -2t-19.5 -2q-24 -5 -39.5 -22.5t-15.5 -41.5q-4 -82 -4 -123 q0 -12 2.5 -41t1.5 -45v-11q0 -28 4 -74q5 -54 6 -72q1 -14 1 -28q0 -54 -9 -122q-3 -24 0 -47q8 -31 8 -96v-236q0 -6 -1 -18t-1 -18q1 -17 2 -51.5t2 -51.5q2 -14 11 -51v-27l6 -30l6 -35q0 -33 2 -49q0 -7 -4 -7l-74 -36q-18 -9 -63 -27l-15 -6q-13 -9 -34 -6v18 q3 25 -11 53q-4 12 -4 19q0 21 1 61.5t1 59.5q0 21 -6 39t-24.5 29t-38.5 9q-8 -1 -24 -2t-23 -2q-40 -4 -64 -4q-2 -2 -8 -2q-7 0 -10 -0.5t-5 -3t-2 -8.5q-8 -67 -10 -98q0 -2 -1 -5.5t-1 -5.5v-47z" />
<glyph unicode="K" horiz-adv-x="983" d="M-18 1159q0 -49 6 -102q1 -13 6 -41t6 -43q6 -82 6 -166q1 -55 1 -163t1 -161q0 -7 -0.5 -19.5t-0.5 -20t1 -18t4 -19.5v-7q-1 -20 1 -41t7.5 -52t6.5 -40q10 -59 10 -92v-10q0 -63 6 -94q1 -3 3 -12t3 -13t3.5 -11t5.5 -11.5t7.5 -9.5t10.5 -9q1 -1 10.5 -8.5 t15.5 -11.5q27 -18 52 -18q26 0 51 20q36 29 39 63q2 33 2 103q0 48 2 75q2 23 14 78q8 65 8 87q0 21 -2 30q-13 74 -12 100l6 47q6 36 8 39q4 9 15 51q17 84 18 86q4 14 6 31.5t2.5 28.5t-0.5 33t0 28q14 12 41 31q6 4 33 31q2 2 14 8q12 5 15 -8q8 -19 10 -31 q15 -39 16 -49q1 -11 1 -33.5t1 -34.5v-55q0 -1 3.5 -14t3.5 -19l6 -256q0 -32 16 -90q2 -11 8 -30t8 -27l13 -92q3 -14 10 -45.5t10 -49.5q2 -10 10 -39q2 -7 5.5 -21.5t5.5 -21.5q9 -35 45 -45q3 -1 9 -4t9 -4q42 -6 43 -6q6 -3 15 6q2 2 11 12t15 15q21 18 21 47 q4 29 4 88q0 19 0.5 55.5t0.5 59t-1 54t-4 58.5q-2 30 -7.5 93.5t-7.5 93.5q-2 21 -3 44.5t-1.5 52t-1.5 44.5q-4 95 -10 145q-2 9 -9 58t-14 74q-3 10 -8 43q-2 10 -2 30q0 35 2 51q0 10 6 13q5 4 35 24q32 20 47 35q9 9 29 21q4 0 12 4q17 7 25 22q3 6 10 13q32 19 27 51 l-7 20q-10 26 -16 51q-14 69 -27 119q-2 13 -14 41q-18 28 -41 33h-12q-28 0 -53 -12q-37 -15 -66 -47q-37 -41 -51 -54q-26 -23 -72 -76q-4 -6 -30 -32q-58 -46 -72 -64q-12 -14 -41 -43q-1 0 -2 1t-2 1q4 62 4 92q0 135 -2 203q0 13 -12 37q-6 14 -25 14q-11 0 -33.5 -1 t-34.5 -1h-82q-68 0 -104 -51q-24 -35 -45 -72q-16 -34 -16 -68v-11q0 -9 1 -29t1 -29q0 -14 -2 -60q-1 -28 0 -48v-23z" />
<glyph unicode="L" horiz-adv-x="819" d="M-8 1325q6 -42 10 -131v-170q2 -25 10 -90q17 -118 17 -129q3 0 1 -46l-1 -46q0 -66 2 -99q3 -73 12 -143q4 -25 20 -80q6 -34 5 -39q-16 -91 -16 -149q0 -12 1 -23q8 -107 21 -151q2 -6 12 -27q0 -1 1 -3t1 -3q6 -23 31 -29q29 -5 37 -2q4 0 11.5 -1t10.5 -1l107 -6 q20 -4 30 -4q22 0 58 4q6 2 18 2q24 1 71 4t70 4q25 1 77 2t77 2q21 2 39.5 17t22.5 35q1 5 2 15t2 15v33q-2 7 -7.5 21.5t-7.5 21.5v4v51q2 14 2 26q0 26 -10 46h-6q-18 -3 -51 -8t-49 -8q-3 0 -7 -4q-22 -13 -65 -13q-15 1 -30 1q-24 0 -44 -3q-63 -10 -78 -10h-10 q-47 -6 -96 -12v24q0 19 1 59t1 60v156q0 10 -1 31.5t-1 33.5v232q0 63 8 94q3 23 0 45q-8 71 -8 126v21q1 12 5 68q4 46 3 74v12q0 15 3 42t3 42q0 41 -4 119q-1 25 -16.5 41.5t-38.5 19.5l-39 6q-40 6 -86 15q-2 0 -4 2h-25q-8 -3 -25.5 -8.5t-25.5 -8.5q-43 -16 -49 -57 q-6 -38 -6 -72q0 -27 4 -51z" />
<glyph unicode="M" horiz-adv-x="997" d="M20 1384q2 -20 7.5 -58t7.5 -58l6 -107q1 -13 2 -38t2 -38q2 -15 8 -45.5t8 -46.5l7 -35q5 -33 28 -71q8 -12 8 -27v-8q0 -35 -16 -86q-6 -23 -6 -43q0 -16 4 -31q3 -15 7 -45.5t7 -46.5q1 -7 7.5 -26t7.5 -29q2 -37 2 -67q0 -57 -8 -97q-10 -37 -10 -75q0 -10 1 -19 q2 -32 21 -82q11 -33 14 -76q6 -52 35 -94q30 -43 70 -45q6 -1 17.5 -6t16.5 -7q19 -7 31 13q20 30 19 80v18q-2 29 -2 84q0 61 2 92q2 23 2 47q0 52 -9 107q-4 25 -5 51q0 38 10 80q6 27 14 74q3 17 8 26q1 6 10 18t11 17q8 -29 10 -39q6 -46 6 -72v-12v-9q0 -55 33 -87 q4 -3 7 -7t5.5 -9t4 -8.5t3.5 -10.5t3 -9.5t2.5 -11t2.5 -10.5q8 -30 17 -49q3 -7 20 -24l31 -31q15 -17 34 -13.5t27 21.5q15 29 17 51q2 14 4 42t4 42q3 14 14 29q13 18 25 65q12 50 22 70q5 11 28.5 47t29.5 56q0 2 2 4v2q11 -37 11 -71q0 -8 -1 -15q-1 -19 -4 -58.5 t-4 -60.5q0 -17 2 -25q12 -43 16 -131q1 -15 1 -47t1 -47q2 -19 15 -70q14 -45 43 -116q19 -48 51 -86q10 -10 37 -12.5t39 5.5q7 5 12 19q1 7 8.5 46.5t9.5 61.5v6q0 19 -4 72q-10 150 -10 178q0 20 8 80q3 49 3 82q0 16 -1 29q-2 35 -2 106q0 53 2 82q0 31 15 78 q2 8 -6 26t-7 27q3 15 0 43.5t0 42.5l19 127q0 9 2 15q1 10 2 31.5t2 31.5q-4 16 -4 23q0 46 -2 71q0 22 -4 62q-2 20 -2 59q0 55 -15 84q-9 23 -14 31q-9 15 -29 22q-45 13 -61 13h-2q-3 0 -12 4.5l-11 5.5q-5 2 -21 11t-24 12q-5 0 -15.5 1t-15.5 1l-34 -13 q-21 -12 -27 -32q-1 -1 -6 -11q-6 -6 -8 -10q-14 -55 -21 -88q-3 -14 -8 -42.5t-8 -43.5q-10 -63 -27 -145q-11 -80 -14 -91q-9 -26 -21 -88q-8 -49 -20 -147q-5 -54 -29 -117l-4 -8q-17 26 -22 51q-30 113 -35 135q-4 17 -10.5 50t-10.5 49q-3 13 -11 38t-11 39l-6 21 q-1 2 -23 84q-3 11 -8.5 33.5t-7.5 31.5l-19 58q0 2 -1 7t-1 7q-7 88 -63 131q-7 7 -22.5 20.5t-22.5 20.5q-24 28 -76 35q-8 1 -16 1q-40 0 -89 -28q-13 -9 -26 -39q-9 -18 -12 -40q-1 -8 -2.5 -23.5t-2.5 -22.5z" />
<glyph unicode="N" horiz-adv-x="1085" d="M70 1319q0 -9 3 -27t3 -26q2 -25 5 -75.5t5 -74.5q1 -7 1 -21.5t0.5 -23t3 -21t5.5 -22.5q6 -22 15 -84q6 -43 28 -70q8 -12 8 -20q2 -15 2 -31q0 -31 -8 -61q-7 -23 -7 -46q0 -15 3 -30l13 -76q2 -10 10 -39q1 -5 4 -18t4 -21v-28q1 -16 1 -31q0 -34 -5 -61 q-8 -36 -10 -52q-3 -33 -3 -55q0 -11 1 -18q1 -3 24 -88q7 -22 10 -41q7 -96 64 -140q15 -12 41 -16q10 0 14 -2q5 -1 15.5 -4t15.5 -4q20 -5 33 14q18 32 18 75v13q-4 35 -4 158q4 62 4 88q-3 49 -12 106q-3 24 -3 45q0 27 5 48q3 12 18 106q7 21 8 23q19 -27 43 -58 q5 -7 17 -19t16 -18l68 -118q31 -54 43 -74q14 -19 41 -54.5t41 -54.5q4 -5 8.5 -12t9.5 -15t8 -12q6 -9 26 -34.5t30 -40.5q4 -4 14 -19q10 -12 22 -25t26 -28t22 -23q15 -15 20 -16q9 -1 31 -18q13 -9 16 -9q21 -3 43 0q18 1 25.5 9t9.5 26q4 44 8 60q7 30 4 57 q-1 17 -4 53.5t-4 55.5l-12 92q-4 27 -4 49q0 16 2 29q5 37 5 85q0 38 -3 82q-2 20 -3 43t-1.5 50.5t-1.5 42.5v5q0 28 9 76q10 52 11 62q3 18 10.5 55t10.5 56q10 103 10 120q0 10 -1 32t-1 34q-6 79 -6 80q-8 62 -8 92q0 44 -31 90q-6 6 -15 12q-27 15 -61 15 q-27 0 -51 14q-27 15 -55 12q-17 -1 -26.5 -3t-20.5 -10t-17 -23q-10 -40 -10 -50q0 -48 2 -73q0 -60 2 -72t6.5 -49.5t9.5 -57.5q9 -38 13 -100v-110q0 -11 2 -34t2 -34q0 -13 -1 -38t-1 -38l-7 -199q0 -1 -1 -2t-1 -2l-8 15q-10 17 -31 46.5t-26 37.5q-4 6 -26.5 37.5 t-33.5 48.5q-5 5 -26 43q-3 6 -8.5 19.5t-8.5 19.5q-12 22 -22 47t-21.5 57.5t-17.5 48.5q-27 74 -29 78l-43 94q-38 82 -45 105q-1 4 -2.5 12.5t-3 13t-4.5 11t-8 10.5q-3 4 -10.5 15t-12.5 16l-63 49q-35 30 -94 30q-39 0 -93 -30l-6 -6q-31 -35 -31 -91q0 -11 1 -22z" />
<glyph unicode="O" horiz-adv-x="737" d="M-41 1130q8 -35 10 -55q10 -81 13 -143q0 -109 -2 -162q-5 -100 -5 -171v-38q1 -17 2.5 -49t2.5 -49q2 -33 10 -94l12 -109l3 -78l3 -78q0 -21 4 -53q5 -25 31 -47l43 -39q9 -9 25 -12l88 -19q4 0 16 -4q21 -9 45 -6q27 6 59 6q38 0 84 -8q20 -4 36.5 -4t27.5 4 q26 6 78 10q5 1 17.5 3t17.5 2h18q14 0 25 14q16 19 16 45q2 2 2 6q9 44 14 172v43q0 6 2 8q7 9 7 33q0 20 -1 60t-1 61q0 83 6 166q1 20 5 57t5 57q4 40 4 60q-1 89 -2 267t-2 267q0 23 -4.5 63.5t-5.5 57.5q-3 29 -13 56q-16 34 -55 43q-15 4 -43.5 10t-42.5 10 q-11 3 -92 29q-32 9 -69 9q-10 0 -21 -1q-131 -6 -133 -6q-48 -6 -95 -21q-53 -20 -75 -45q-40 -40 -49 -94q-5 -26 -15 -158l-6 -32v-44zM217 1080q0 3 2 5q5 8 23 17q45 18 61 26q4 1 13.5 5.5t13.5 5.5q9 4 27.5 11.5t25.5 10.5q8 3 53 23q0 1 6 4v-96q0 -177 -2 -265 v-233q0 -4 6 -64q0 -5 1.5 -15t1.5 -15q2 -59 2 -176q0 -14 -3 -46.5t-2 -50.5q0 -27 -22 -37q-9 -3 -26 -10t-30.5 -11.5t-27.5 -6.5q-20 0 -41 -6q-4 0 -7.5 -1t-8 -2.5l-7.5 -2.5q-9 -6 -14 4q-14 33 -18 84q0 9 1 27.5t1 27.5q0 121 -2 182q0 67 -4 203q0 6 -1 13.5 t-3 15.5l-3 12q-4 54 -4 78q-4 47 -8 137q-2 41 -2 125v8q0 2 -1 6t-1 7z" />
<glyph unicode="P" horiz-adv-x="675" d="M55 502q0 -12 2 -36t2 -36q4 -54 4 -78q3 -9 3 -18q4 -12 10 -15q6 -4 6 -14v-10q0 -46 -16 -113q-5 -19 -5 -35.5t5 -31.5q3 -9 8 -29.5t8 -30.5q6 -16 14 -26q30 -42 74 -47l14 -7h11q5 3 16 9.5t16 9.5q18 10 25 35q7 24 7 52q0 18 -3 38q-2 30 -2 53q0 34 4 51 q4 16 4 47q0 19 2 27q6 37 6 113l6 151q18 -5 37 -5l27 3q7 0 18.5 3t14.5 3q61 10 76 10h2h7q30 0 50 25q24 28 37 41q19 19 22 53q4 26 5.5 53.5t1.5 63.5t1 53q1 18 6.5 52.5t6.5 41.5q2 22 7 63.5t7 63.5l19 142q5 36 5 69q0 14 -1 27q0 7 -1 19t-1 22t2 18q0 5 1 18 l1.5 19.5t3 16.5t6.5 18q4 5 4 33q-3 18 -27 22l-90 7q-14 0 -22 2h-84l-23 -5q-10 -2 -31.5 -5t-31.5 -5q-3 0 -9.5 -1t-9.5 -1q-85 0 -110 -4q-7 -1 -17 -1q-19 0 -47 3h-6q-47 0 -70 -45q-8 -16 -8 -41q0 -13 2 -29q4 -17 4 -45q0 -18 -2 -41q0 -19 -1 -54t-1 -52v-53 q4 -94 4 -144l7 -147q1 -12 1 -24q0 -58 -12 -128v-26q-2 -57 -2 -168zM303 850q0 18 1 55t1 56q0 4 2 4q6 22 5.5 59t0.5 61q3 31 9 72q0 24 4 64q0 21 10 36q8 12 20 9q15 -5 35 2q10 3 30.5 8t29.5 8q5 1 32 10l-6 -86q0 -1 -1 -3t-1 -3q2 -21 -3.5 -59t-4.5 -56 q0 -15 -10 -88q-1 -8 -2 -25t-2 -24q-2 -14 -7.5 -39t-7.5 -37q-4 -4 -4 -10q1 -12 -0.5 -25t-5 -30.5t-4.5 -24.5l-6 -18q-2 -2 -6 -2h-86q-21 0 -21 22v23q0 7 -1 20.5t-1 20.5z" />
<glyph unicode="Q" horiz-adv-x="860" d="M74 1382q6 -15 6 -61q0 -44 -1 -132t-1 -132q0 -2 6 -131l12 -111q1 -17 3 -48t3 -48q2 -21 7.5 -68t7.5 -71q6 -34 6 -68q1 -18 2 -54.5t2 -54.5q0 -12 1 -24.5t2.5 -28t2.5 -24.5v-11q0 -71 2 -108l6 -133q4 -29 13 -43q1 -1 1 -5t1 -6q0 -6 4 -6q2 -2 6 2h8 q7 -2 20.5 -7t20.5 -7q4 -2 14 -2h13q29 -14 102 -14q66 4 100 4h109q11 0 14 -8t12 -21t11 -18l28 -56q0 -1 1.5 -4t1.5 -4q6 -13 22 -21t31 -5q26 7 26 41v10q0 28 -14 63q0 2 -4 10q-4 12 4 17q9 9 6 22q0 9 2 11q7 9 17 43q3 15 8 94q2 45 10 145q0 6 2 10q8 21 8 52 l13 90q1 15 4 43t4 43q4 102 8 153q8 107 8 238q0 24 4 78q0 4 2 6v227q-8 55 -14 84q-7 50 -35 72q-32 28 -55 37q-86 38 -127 45q-22 4 -70 8q-10 0 -26 4h-97q-2 -2 -8 -2q-82 -4 -123 -4q-13 0 -26 -2.5t-31 -7t-25 -6.5q-55 -17 -71 -78v-17zM276 774q0 88 3 117 q2 25 2 145q-1 22 -1 44t1 44q3 27 28 43q39 23 77 23h9q25 -2 80 -10h31q28 0 43 -27q8 -16 12 -57q0 -42 6 -86q1 -18 6.5 -51t6.5 -41v-39q-1 -21 10 -164q4 -62 4 -88q2 -45 2 -135q0 -24 4 -74q0 -4 -2 -6q-6 -6 -6 -25q-2 -39 -2 -117q1 -12 4 -33t4 -30q2 -16 2 -45 l-2 -2q-7 3 -8 6q-3 7 -9 22t-8 19q-1 2 -2 7t-2 7q-10 28 -33 28q-8 0 -18 -3q-22 -7 -38.5 -30.5t-12.5 -49.5q4 -18 14 -23q11 -8 17 -16h-13q-14 0 -20 -6q-4 -3 -14 0q-2 0 -7 2t-8 2q-12 2 -35 5t-34 5q-26 4 -37 8q-32 14 -35 56v41q-5 60 -8 73q-2 8 -2 52 q0 46 1 137t1 137q0 76 -8 115q-3 9 -3 20z" />
<glyph unicode="R" horiz-adv-x="696" d="M20 502q0 -13 3 -38.5t4 -33.5q0 -26 4 -80q0 -12 2 -18q4 -13 8 -15q8 -5 8 -14v-8q0 -42 -18 -117q-4 -18 -4.5 -35t4.5 -34q5 -12 11 -35.5t7 -26.5q3 -16 14 -27q29 -43 74 -49q3 0 5.5 -1t6 -2.5t5.5 -2.5h8q5 3 11.5 6.5t13.5 8t10 6.5q18 10 24 32q7 25 6 54 q0 19 -2 39q-1 24 -1 44q0 40 5 64q2 14 2 49q1 4 1 12.5t1 12.5q7 46 7 117l6 153h4l14 -18q14 -24 25 -41l18 -37q3 -7 10 -10q11 -7 15 -27q6 -33 47 -131q20 -51 24 -78q3 -16 13 -37q15 -44 18 -92q2 -27 29 -65q4 -4 14 -19q10 -19 23.5 -24t34.5 0q30 4 67 34 q24 18 25 19q12 8 12 16q3 13 0 27q-2 14 -9 40.5t-9 35.5q0 3 -3.5 19t-3.5 24q-11 87 -32 143q-8 21 -30 59.5t-30 57.5q-9 20 -12 47q-3 31 -14 55q-5 12 -9 33l-6 8q-13 16 0 29q11 11 31.5 28.5t24.5 20.5q41 36 49 45q8 8 28 43q4 6 4 23q0 25 -0.5 71.5t-0.5 83.5 t1 70q0 8 3.5 23t3.5 16q4 8 4 14q0 101 -2 150q0 11 -1 23t-2.5 26.5t-2.5 23.5v17v96q-3 23 -17 51q-9 17 -39 55q-5 5 -8 5q-23 -4 -33 12q-2 2 -14 6q-5 1 -16.5 2t-16.5 2h-88q-12 0 -20 -2q-72 -10 -123 -23q-14 -2 -51 -20q-68 -33 -99 -51q-13 -8 -57 -47 q-1 -1 -2 -6t-2 -7q0 -9 -1 -27.5t-1 -27.5v-6q4 -25 2 -35q-1 -13 -5 -35.5t-5 -33.5q-2 -18 -1.5 -36.5t1.5 -37.5q0 -59 2 -90q6 -175 6 -176q1 -22 1 -46q0 -61 -9 -129q-2 -10 -2 -28q-3 -86 -3 -172zM221 803v31h2q0 50 1 150t1 149q4 24 4 32l3 19q4 18 4 28 q0 21 18 33q17 17 27 23q10 7 20 10q17 6 64 20q18 9 36 21q13 8 26 2t13 -23q1 -11 1 -21q0 -39 -9 -73q-1 -6 -1 -18.5t-1 -18.5l-6 -98q-3 -79 -6 -162q0 -29 2 -45q0 -4 1 -13.5t1 -14.5q2 -4 2 -15q0 -5 -1 -13.5t-1 -12.5q-1 -10 -10.5 -17.5t-20.5 -7.5q-8 0 -24 -8 l-45 -19q-8 -4 -24 -13t-24 -13q-16 -6 -28 -4q-21 7 -21 22q-4 46 -4 70z" />
<glyph unicode="S" horiz-adv-x="860" d="M53 1192q0 -4 1 -13.5t1 -13.5q1 -17 2 -50t2 -50q0 -4 11 -37q0 -3 1 -9t1 -9q1 -19 4 -54.5t4 -52.5l12 -170l6 -57t6 -58q5 -31 33 -59l4 -4q16 -26 51 -26q11 0 25 3q37 6 80 15q47 9 86 35q9 7 27.5 17t23.5 13q22 13 45 29q5 3 14.5 10.5t14.5 10.5q6 6 13.5 3 t10.5 -12q7 -21 7 -37q2 -45 2 -135v-11q0 -32 -9 -81q-2 -12 -2 -33q-1 -14 -2 -41.5t-2 -42.5q0 -2 -6 -8q-26 -21 -28 -22q-16 -16 -68 -37l-64 -27q-8 -6 -14 0q-16 16 -16 33q0 63 -2 94q0 12 -1 25.5t-2.5 29.5t-2.5 25q0 7 -9 21q0 4 -4 4q-19 7 -35 -2q-9 -4 -41 -9 q-35 -7 -55 -22q-33 -25 -45 -35q-10 -8 -10 -25q0 -98 2 -147q0 -21 4 -57v-37q0 -21 10 -41q12 -28 45 -31q72 -5 76 -6q21 -4 88 -4q15 1 45.5 2t46.5 2h111q18 0 24 -4q10 -3 23 -3q20 0 47 7q15 4 23 12q12 10 26 27q19 19 23 59q4 28 4 41l6 72q0 53 2 78q0 39 10 61 q4 12 4 17q0 26 7 74t8 59q8 100 10 155q4 37 8 111q0 52 -4 65q-8 23 -31 29q-31 11 -82 19q-2 1 -10.5 3.5t-11.5 2.5q-10 2 -31 2q-10 -1 -33 -4.5t-36 -3.5q-27 0 -54 -9q-16 -6 -32 -16l-86 -51q-28 -17 -68 -23v10v144q1 26 4 79t4 79v69q0 6 6 12q25 19 84 39 q9 3 27.5 12.5t28.5 12.5q67 28 88 35q26 12 26 -17q3 -21 0 -41q-2 -55 -10 -155q0 -3 1 -9.5t1 -9.5q0 -10 16 -18q1 0 8 -2t11 -4q11 -9 35 -13q9 -1 18 -1q43 0 96 20q7 2 39 18q2 2 3.5 9t2.5 8v231q0 5 -1 13.5t-1 16t2 13.5v4q-1 11 -4 31.5t-4 28.5q-9 55 -57 75 q-7 3 -20.5 10.5t-20.5 10.5q-50 22 -88 27q-6 0 -10 2h-27q-41 -7 -74 -21q-10 -5 -45 -20l-121 -50q-17 -7 -48 -23t-36 -18q-38 -19 -92 -51q-9 -6 -24.5 -18.5t-20.5 -16.5q-4 -2 -12 -10q-21 -17 -29 -39v-59z" />
<glyph unicode="T" horiz-adv-x="1003" d="M2 1348q3 -18 14.5 -31.5t24.5 -13.5q18 -1 37 -1l37 1q20 1 58.5 5t57.5 5q39 2 121 2q0 -4 1 -13.5t1 -13.5q5 -134 8 -160q3 -32 3 -64q0 -54 -9 -108q-2 -12 -2 -24q0 -22 6 -47q2 -8 2 -21q0 -44 1.5 -131t1.5 -131v-37q-5 -9 -1.5 -63.5t3.5 -63.5q0 -6 2 -8 q7 -18 9 -53.5t5 -50.5q5 -21 10 -101q0 -80 2 -121q0 -14 6 -26q18 -33 33 -55q24 -38 70 -50q15 -5 29 3.5t18 25.5q4 22 2 33q0 39 4 59q4 24 4 55q0 38 -6 87q0 14 4 22q23 41 23 64q0 34 20 100q9 31 12 59q9 76 15 146v110v82q2 14 11 87t13 112q4 35 4 104 q0 86 2 129q0 13 5 70q1 0 3 1t3 1q102 0 153 -2q43 0 66 -14q3 -2 18 -7l43 -6q14 -3 21 11q4 12 4 18q1 22 1 42q0 71 -11 116q-10 43 -52 43q-12 -2 -41 2q-78 12 -84 12h-243q-25 0 -37 -4q-15 -5 -30 -8t-39.5 -5t-30.5 -3l-113 -15q-28 -8 -45 -8q-22 -1 -46.5 -1 t-55 0.5t-46.5 0.5q-12 0 -24 -6q-25 -9 -47 -25q-29 -16 -29 -47q-2 -24 -2 -41t2 -28z" />
<glyph unicode="U" horiz-adv-x="757" d="M-8 1395q4 -7 5.5 -16t1.5 -15t-0.5 -16.5t-0.5 -14.5q0 -45 -1 -134t-1 -134t8 -131q2 -41 10 -113l6 -96q2 -24 17 -141q4 -40 4 -66q1 -15 2 -46.5t2 -47.5l6 -96v-13q2 -45 2 -133v-55q1 -7 17 -90q0 -9 8 -25q14 -29 51 -32q23 -1 69 -4.5t70 -4.5q16 -1 37 -1 q43 0 107 3q59 0 90 4q12 2 34.5 -0.5t32.5 -1.5q22 0 43 21q4 4 4 18l5 17q11 28 12 32q9 42 9 76q0 9 -1 17q0 6 2 16.5t2 15.5q0 26 4 84q0 39 10 64q5 10 5 14q0 25 6.5 71.5t7.5 57.5q2 23 5 68t5 67l6 136q1 28 3 86t3 86q0 16 5 98q0 7 1 22t1 23q0 127 -2 190 q0 66 -23 125q-10 30 -47 56q-33 21 -98 45q-8 2 -19.5 -1.5t-15.5 -9.5l-25 -45q-1 -1 -2 -3t-2 -3q-4 -64 -8 -98q-1 -18 -4 -55.5t-4 -57.5q-2 -16 -3 -48t-3 -48q-4 -26 -5 -56t-1 -68t-1 -56q-2 -74 -2 -221q0 -12 -1 -25.5t-2.5 -29.5t-2.5 -25v-60q0 -90 -4 -135 q0 -12 -10 -74v-45q0 -7 1 -21t1 -20q0 -26 -25 -40l-6 -5q-15 -20 -45 -20q-13 0 -29 4l-32 8q-41 3 -41 43v76q-1 15 -3 44t-3 44v14q0 118 2 177q0 6 -2 17t-2 17q-2 8 -2 23q0 7 2 21.5t2 21.5q0 231 -2 346q0 18 -3 51t-4 41q-8 71 -8 160q-1 21 -2 61t-2 60 q0 10 -4 30q-6 39 -41 48h-6q-8 0 -12 -2q-4 0 -19 -5q-3 -1 -11.5 -4t-14.5 -4q-66 -23 -68 -24q-35 -16 -49 -62q0 -4 -2 -6v-16z" />
<glyph unicode="V" horiz-adv-x="901" d="M-37 1341q2 -9 6 -28.5t6 -28.5q6 -26 19.5 -78.5t19.5 -79.5q2 -10 5.5 -30.5t5.5 -28.5q11 -44 16 -70q10 -59 12 -65q3 -16 10.5 -46t10.5 -46q3 -12 7 -37.5t7 -38.5q6 -15 10.5 -33.5t7 -31t6 -34.5t5.5 -32q4 -16 8 -47t6 -43l37 -168q1 -8 4.5 -24.5t5 -29.5 t0.5 -26q0 -2 1 -6t1 -6q3 -15 10.5 -41t10.5 -37q1 -3 1.5 -10t1.5 -12t3 -9q5 -23 16 -61q4 -15 13.5 -43t13.5 -43q5 -9 8 -11q1 0 13 -2t18 -4q24 -3 41 -12q24 -11 53 -4q19 5 68 22q2 2 6 2q9 -2 26 11q13 10 19 24l18 37q26 41 29 80q0 20 10 43q19 43 23 70l6 57 q11 71 51 143q27 48 33 78q1 8 4 22t4 19q8 46 8 68q4 56 12 73l7 21l24 76q2 7 7 21.5t7 21.5q4 12 11.5 36.5t11.5 36.5q16 51 20 74q3 15 23 88q3 11 10.5 30t9.5 26q3 6 3 12q9 38 9 90q0 18 -1 37q0 36 -17 45q-2 2 -2 4l-10 22q-7 23 -29 29q-28 4 -47 17 q-2 2 -14.5 10t-17.5 14q-17 21 -39 29q-18 6 -41 6q-12 0 -19.5 -8.5t-5.5 -20.5q0 -8 -2 -12q-10 -16 -14 -41q-3 -39 -9 -76q0 -4 -1 -11t-1 -11q-1 -9 -2 -27.5t-2 -26.5q-8 -55 -14 -84q-12 -50 -23 -124l-12 -68q-12 -106 -20 -154q-10 -66 -23 -116 q-31 -113 -41 -199q0 -2 -12 -55l-8 -33q-25 -72 -27 -88l-6 -35h-2q-1 2 -2 7t-2 7q0 19 -19 93q-8 28 -8 47q-2 18 -2 57q-1 23 -1.5 112t-6.5 136l-18 112q-3 23 -29 170q-2 19 -6 66.5t-8 73.5q-7 34 -11 118q-1 25 -2 76.5t-2 77.5q0 22 -6 43q-5 19 -25 10l-28 17h-4 q-2 -2 -4 -2q-21 0 -35 -11l-4 -2l-66 -18q-21 -7 -35 -21q-1 -1 -2 -2.5t-2 -2.5t-2 -1q-11 0 -22 -14q-5 -5 -17 -21q-30 -34 -28 -65q-24 3 -21 -21z" />
<glyph unicode="W" horiz-adv-x="1024" d="M59 1333q-1 -22 -1 -41q0 -39 5 -71q3 -15 3 -35q0 -46 -3 -92v-5q1 -27 9 -71q10 -48 10 -68v-32q-8 -43 -8 -132q2 -44 2 -76.5t-2 -54.5t-2 -44.5t2 -45.5q1 -29 5 -88t5 -88q3 -50 14 -88q6 -27 6 -55q2 -20 2 -60q2 -13 5.5 -43.5t5.5 -46.5l12 -55q1 -4 6 -11.5 t6 -11.5q5 -16 27 -20q12 -4 16 -10q8 -8 11 -6q7 3 26 -2q8 -1 24.5 -4.5t24.5 -4.5q12 0 37 1t39 1q8 0 12 4q20 13 29 31q1 5 12 21q25 35 35 73q4 16 29 93q3 10 20.5 57.5t22.5 73.5q1 6 5 17t5 17l12 33q3 9 9 21q26 -26 30 -43q2 -7 11 -21q45 -92 51 -112 q3 -8 10 -19q8 -12 2 -20v-9q12 -41 33 -57q2 -2 2 -4q14 -30 16 -55q0 -31 13 -47q8 -12 16 -15q26 -7 41 -20q24 -12 37 -12q13 1 36 2t35 2q15 2 26.5 13t12.5 26q1 9 2 27.5t2 27.5q0 14 2 22q7 21 7 60q0 5 6 53l18 53q13 32 10 62q0 23 -1 67.5t-1 65.5q0 48 -10 82 q-13 46 -14 86q0 12 2 22q5 41 5 93q0 26 -1 55q0 10 -0.5 42.5t0 47.5t2.5 40t6 46q4 20 4 57.5t-4 91.5q0 12 -8 17q-6 9 -6 18v15q0 46 4 69q9 42 12 78q1 12 1 24q0 77 -40 128q-21 28 -49 28q-52 -4 -84 -20q-49 -24 -65 -82q-5 -25 -14.5 -77.5t-14.5 -78.5 q-4 -19 -4 -38q0 -33 12 -68q2 -7 8 -35q9 -62 15 -123q6 -50 6.5 -94.5t-6.5 -83.5q-6 -36 -6 -58q0 -12 2 -20q4 -18 3.5 -40.5t-3.5 -49.5q-2 -23 -2 -70q-3 -27 -3 -57q-1 2 -2 7.5t-2 8.5q-3 11 -8 35.5t-8 36.5q-13 39 -64 115q-15 21 -18 45q-6 64 -49 110 q-23 23 -39 29q-36 14 -45 -25l-18 -53q-3 -6 -8.5 -17.5t-8.5 -17.5q-2 -4 -2 -14q-2 -20 -2 -64q0 -32 -31 -63q-3 -4 -12 -15t-12 -18q-17 -31 -31 -39q-4 16 -4 21q-2 12 -5 37.5t-5 38.5q-12 80 -12 131q0 14 1 26q2 19 2 43q0 65 -12 166q-1 10 -7.5 40.5t-6.5 47.5 q-1 25 -1 48q0 38 3 71v17q0 69 -21 149q-10 45 -34 72q-2 2 -26 29t-36 42q-5 8 -16 15q-8 7 -18 4.5t-13 -11.5q-9 -21 -43 -55q-6 -4 -10 -16q-1 -5 -2 -15t-2 -14q0 -7 -1.5 -19.5t-1.5 -22.5t3 -19q2 -1 -2 -7q-1 -2 -5 -8.5t-4 -11.5q-1 -5 -2 -16.5t-2 -16.5z" />
<glyph unicode="X" horiz-adv-x="880" d="M-2 1268q36 -68 43 -84q3 -4 8 -14.5t8 -14.5q5 -11 23 -43q17 -39 45 -92q0 -6 2 -8q11 -18 20.5 -37t21 -47.5t15.5 -38.5l52 -94q3 -6 12.5 -30t15.5 -36q12 -24 27 -45q5 -8 2 -20q-35 -92 -41 -111q-6 -17 -17.5 -49.5t-17.5 -48.5q-9 -21 -33 -58 q-6 -13 -21.5 -44.5t-23.5 -49.5q-4 -8 -4 -16q-3 -15 -8 -43t-8 -41q-3 -14 -10.5 -40.5t-10.5 -39.5q-9 -31 -9 -68q0 -10 1 -20q0 -5 8 -21q0 -2 4 -10q7 0 11 -4q40 -13 73 -13q10 0 19 1q4 0 6 2q1 1 6 5l7.5 6t6 5.5t6 7.5t3.5 9l6 22q4 22 33 55q12 15 18 33 q2 10 10 35q6 14 17 33q31 54 41 96q11 37 20 57q8 20 31 64q10 -24 18 -37q35 -79 41 -90l2 -8q2 -20 23 -54q25 -45 32 -59q8 -20 19.5 -41.5t28 -48t24.5 -41.5q12 -24 25 -37q27 -27 55 -29q6 0 18 -4h31q8 10 29 31q10 10 10 29q3 32 -6 59q-2 6 -4 19t-2 14 q-6 39 -27 74q-7 11 -15 35t-11 32q-15 45 -15 53q0 7 -4 15q-32 54 -51 92q-17 30 -21 43q-12 41 -33 120.5t-32 116.5q0 11 2 15q17 40 20 45q20 40 25 47q11 17 28 52.5t19 39.5q5 10 15.5 30.5t13.5 26.5l18 43q4 9 12.5 29t12.5 29q23 48 37 71q18 37 26 62 q16 79 17 84q2 14 2 47q0 3 -3.5 8.5t-4.5 7.5q-1 3 -5 12.5t-4 14.5q-3 32 -34 41q-23 6 -52 35q-6 6 -24 33q-15 22 -54 30l-16 4q-13 2 -21 -4.5t-8 -19.5q0 -8 -6 -17q-12 -12 -26 -59q-3 -13 -17 -61l-12 -50q-11 -47 -33 -98q-22 -56 -45 -127q-8 -30 -16 -47l-12 33 q-32 89 -37 98q-17 37 -29.5 75.5t-29 97.5t-21.5 77q-2 8 -23 74q-3 13 -12 22q-12 16 -25 0q-1 0 -3 1t-3 1q-19 9 -36 4.5t-29 -16.5l-6 -6q-19 -10 -70 -41l-14 -14q-1 -2 -4 -6.5t-5 -6.5t-5 -4.5t-7 -3.5q-3 -1 -8 -12l-25 -51q-10 -27 -4 -52q-24 -6 -12 -28z" />
<glyph unicode="Y" horiz-adv-x="593" d="M-102 1384q3 -33 12 -59q6 -22 20 -62t17 -49q8 -27 10 -43q7 -58 27 -94q24 -41 51 -123q2 -7 19.5 -69t33.5 -92q17 -33 45 -95q2 -5 7.5 -12t6.5 -8q9 -9 21 -25l12 -24q4 -8 10 -11q7 -5 7 -10q0 -18 2 -26q1 -8 2.5 -21t2.5 -24t1 -21q3 -25 4.5 -82t5.5 -88 q2 -29 2.5 -85.5t1.5 -74.5q0 -50 4 -77q5 -50 33 -115q14 -28 39 -25q13 0 37 4q24 5 32 15.5t7 34.5q0 23 -9 106q0 6 -1 20t-1 21l7 88q0 19 2 29q7 35 7 85q0 20 -1 42q0 16 -3 46.5t-3 35.5q-3 48 -9 98q-2 13 -2 25q0 38 17 65q16 27 16 70q-1 14 -1 25q0 28 5 48 q2 7 7.5 21.5t7.5 21.5l18 80q4 16 16 54.5t19 67.5t10 56q1 14 7 41t7 41q6 52 37 142q2 6 11.5 33t13.5 42q8 35 -10 50q-45 39 -74 51q-1 0 -9 4t-10 8q-18 24 -57 37h-16q-13 -6 -25 -33q-10 -29 -16 -37q-47 -70 -47 -161q0 -36 -6 -70l-31 -141q-11 -43 -11 -74 q0 -10 1 -19v-22h-2l-13 41q-26 79 -35 129q-10 50 -34 84q-26 43 -31 65q-3 11 -49 158q-6 17 -23 14q-20 -4 -28 -4q-35 -7 -50 -30q-14 -24 -34 -29q-21 -3 -25 -31q0 -3 -1 -8t-1 -8q-17 0 -14 -17z" />
<glyph unicode="Z" horiz-adv-x="860" d="M66 242q6 -35 6 -66q3 -71 16 -156q1 -5 3 -11t5 -13.5t4 -11.5q0 -7 4 -15q0 -3 2.5 -5.5t5 -3.5t3.5 1q4 6 16 2l41 -12h10h19q35 -10 63 -8q3 0 37.5 3t52.5 3q60 4 176 8q19 0 27 -2q38 -4 53 -8q32 -3 58 20q10 10 10 17q-2 14 8 28q5 10 6 11q8 56 10 77 q1 10 2.5 31.5t2.5 32.5q3 30 -15 43q-16 12 -26 12q-5 0 -17 4t-16 2q-76 0 -113 -2q-59 0 -90 -2q-12 -1 -22 -1l-64 7q-17 3 -25 17l-8 8q-9 4 -9.5 6.5t5.5 11.5q15 19 15 35q-2 6 2 19l26 49q7 13 23 38t22 38q7 12 24 45.5t27 50.5q77 134 107 182q7 13 25 35.5 t24 32.5q60 92 68 106q7 13 24 39.5t28 48t15 43.5q8 15 11.5 31t5 42t2.5 32q1 16 0 49t0 49q0 104 -8 188q0 11 -9 43q-1 3 -3 8t-3 9t0 8q0 2 -2.5 5.5t-3.5 4.5l-8 -6h-6q-13 3 -47 16q-13 4 -17 2q-9 -4 -22 0q-5 1 -13.5 4.5t-16.5 5.5t-15 3q-47 0 -70 -2 q-85 -10 -96 -11q-9 -1 -26 -1t-25 -1q-38 -3 -70 -3q-60 0 -98 10q-17 4 -32 4q-33 0 -54 -21q-18 -18 -15 -39v-10q0 -1 -6 -14.5t-6 -20.5q-4 -34 -8 -94v-80q0 -33 18 -47t29 -14q8 0 12 -4q14 -7 37 -7h55l105 7h45q41 0 59 -2q13 -1 16 -4.5t5 -16.5v-8q-4 -23 -2 -33 q6 -38 6 -76q0 -37 -17 -65l-43 -74q-21 -37 -62.5 -109.5t-62.5 -109.5q-27 -57 -43 -102q-30 -81 -73 -138q-32 -43 -84 -149q-13 -23 -10 -49z" />
<glyph unicode="[" horiz-adv-x="348" d="M27 807q17 -77 18 -80q10 -33 14 -127q1 -15 4.5 -47t4.5 -49q4 -50 4 -76v-207q0 -24 4 -74q8 -55 14 -86q4 -23 16 -63q4 -7 9 -10q2 -1 16 -9t21 -10q9 -3 26 -7t21 -5q6 -1 15.5 -4t12.5 -4q9 -2 24 -7.5t21 -7.5h15q5 2 17 7.5t20 7.5q8 3 8 12l-6 98q0 13 -4 45 q-55 -19 -66 -22q-28 -7 -41.5 1t-19.5 36q0 31 -2 47q-4 39 -13 53q-12 28 -12 47q0 172 2 207q2 103 -8 250q-2 45 -10 125q0 16 -2 22q-11 71 -11 115q4 106 4 164q1 9 2 27.5t2 27.5v25q-4 20 -4 31q0 27 4 81q6 49 48 52q22 3 41 0q10 0 12 1.5t4 12.5v55q9 56 -2 105 q0 13 -10 18h-2q-4 -2 -15 -2q-8 -1 -21.5 -1t-24 -1t-19.5 -4q-49 -8 -68 -27q-47 -50 -47 -104q0 -96 2 -115q4 -47 4 -213q-2 -35 -10 -110q-2 -20 -5 -61t-5 -62q0 -3 -1 -8t-1 -7v-63z" />
<glyph unicode="\" horiz-adv-x="903" d="M23 1337q-3 -37 24 -53l4 -4q6 -13 17.5 -40t17.5 -40l12 -26q4 -8 10 -21t10.5 -24t8.5 -21q3 -6 7 -18t7 -17q41 -68 62 -96q44 -55 63 -98q26 -54 53 -93q38 -54 95 -114q36 -36 57 -82q35 -84 47 -113q15 -34 39 -80q6 -12 20.5 -35.5t20.5 -35.5q25 -53 37 -72 q27 -46 57 -131q21 -47 33 -68q7 -10 21 -26.5t18 -22.5q4 -4 12 -8q20 -12 49 -27q23 -10 40 -1t20 32q7 45 -13 104q-11 28 -25 56.5t-36 70.5t-29 56q-4 8 -9.5 16.5t-12.5 19t-10 15.5l-78 135q-20 34 -43 98q-6 26 -21 72q-25 78 -69 160q-1 2 -4.5 9.5t-4.5 12.5 q-5 24 -16 56q-2 8 -8 24.5t-8 24.5l-37 119q-2 6 -6 14q-3 9 -11 26t-10 21q-3 7 -10 27t-12 30q-8 18 -26 55t-26 56q-39 80 -86 127q-26 26 -49 31q-25 8 -57 12h-14h-13q-30 -3 -61 -23q-47 -29 -57 -90z" />
<glyph unicode="]" horiz-adv-x="327" d="M12 1577q-4 -63 4 -107q3 -19 27 -22q29 -4 49 4q32 12 47 -10q33 -45 35 -86q4 -62 4 -90q0 -145 -2 -215q-5 -100 6 -250q2 -21 5.5 -63t5.5 -62q0 -9 4 -25q9 -90 8 -114v-45q0 -49 -2 -74q0 -20 -2 -60t-2 -61q0 -11 4 -31q1 -22 -1.5 -46.5t-6.5 -53.5t-5 -45 q0 -2 -1 -5.5t-1 -4.5q-9 -24 -30 -27q-14 -2 -43 -2q-20 -3 -23 -21q-10 -70 2 -120q3 -11 12 -11h50q14 0 27.5 3.5t33 11.5t25.5 10l12 6q3 4 12.5 16t12.5 19q24 34 24 76q0 62 -4 184v246v12q-1 10 -3 29.5t-3 29.5q-1 5 -1 26t-3 32q-9 34 -6 69q0 11 -0.5 33t-0.5 36 t1 33.5t4 35.5v4q-2 14 -2 43v73q0 3 -3 30t-3 42q-6 170 -5 187q0 162 -12 225q-5 30 -22 94q-1 2 -9 10q-31 22 -77 29q-15 3 -42 14t-42 13h-13q-7 -3 -20.5 -8.5t-20.5 -8.5q-4 -4 -4 -8z" />
<glyph unicode="^" horiz-adv-x="374" d="M50.5 1231.5q4.5 -10.5 33.5 -21.5h6q3 2 11 5.5t14 7.5t10 8q11 13 29 49l18 51q8 -10 24.5 -29.5t24.5 -29.5q11 -23 12 -25q15 -31 50 -28q16 0 34 6q14 3 18 13.5t-5 21.5q-4 7 -37 45q-59 70 -90 110q-16 19 -33 17q-21 0 -33 -9q-12 -6 -20 -22q-3 -6 -7.5 -20.5 t-7.5 -20.5q-7 -18 -22.5 -48.5t-20.5 -41.5q-13 -28 -8.5 -38.5z" />
<glyph unicode="_" horiz-adv-x="839" d="M27 -195q3 -28 34 -34q14 -4 41 -4q22 -2 78 -15h240q4 0 13 1t13 1q4 1 35.5 6.5t48.5 6.5q7 1 22.5 2t22.5 2q26 4 74 8q46 4 70 4q34 3 61 -2q16 -3 19 8q1 3 5 9t5 9q3 13 -7 23.5t-30 9.5q-38 -2 -113 2q-12 0 -32 8q-5 1 -18.5 4t-20.5 3q-22 0 -24 1t-24 -3.5 t-24 -4.5q-46 -4 -67 -4q-30 2 -89 -2q-16 -2 -47 -2q-150 -4 -227 -8q-11 0 -35 -4q-24 -3 -24 -25z" />
<glyph unicode="`" />
<glyph unicode="a" horiz-adv-x="634" d="M35 166q6 -41 6 -123v-7q0 -44 37 -73l28 -24q10 -7 21 -7q21 -5 37.5 10t21.5 35q12 33 12 62q0 6 -1 12t0 13t3 15t3 13l12 53q1 0 2 2t2 3q14 6 32 25t25 24l68 57q7 6 21.5 17.5t21.5 17.5l6 -25q25 -90 25 -135q0 -28 18 -57q21 -33 58 -80q20 -27 49 -27q13 0 28 6 q23 9 27 37q6 53 6 101q0 38 -4 73q-2 6 -2 21q-4 38 -8 57q-1 6 -23 125q-16 68 -20 109q-2 15 -2.5 44.5t-1.5 39.5q-1 21 -6.5 59t-6.5 43q-8 80 -10 113q0 61 -16 133q-14 62 -14 123q0 33 4 67q3 26 3 52q0 47 -10 94q-3 24 -18 51q-20 50 -25 71q-10 55 -36 93 q-12 18 -13 20q-15 44 -61 53q-2 0 -4.5 1t-3.5 1h-4q-4 0 -11.5 -1t-11.5 -1q-27 2 -55 -22q-76 -70 -76 -176q0 -32 -6 -62q-6 -23 -15 -90q-12 -72 -14 -102q-1 -12 -2 -34t-2 -34q0 -19 -4 -51q-4 -30 -8 -78l-19 -180q-1 -6 -3 -16.5t-3 -19.5t0 -17q0 -34 -9 -96.5 t-11 -86.5l-6 -81q-3 -85 -19 -146q-9 -31 -12 -63q-3 -15 0 -31zM242 406q10 61 18.5 129t17 152t13.5 128l12 -49q3 -15 10.5 -49t10.5 -53q17 -84 22 -115q2 -8 2 -51q0 -5 -10 -15q-18 -15 -88 -71z" />
<glyph unicode="b" horiz-adv-x="798" d="M31 1405q0 -28 12 -82v-23v-83q1 -23 5 -68t5 -68q2 -39 2 -116q0 -7 2 -11q4 -28 -4 -51q-13 -41 -13 -86q0 -9 1 -18q0 -10 3.5 -31.5t4.5 -28.5q2 -20 7 -58.5t7 -57.5q6 -57 6 -125q0 -25 -1 -52q0 -18 -1 -55t-1 -57q0 -9 4 -33q0 -1 1 -3.5t1 -4.5q1 -12 2 -35 t2 -35l6 -30q10 -31 10 -72v-11q0 -24 6 -63q7 -21 21 -29q32 -20 53 -22q3 0 21 -6l73 -25q35 -12 37 -12q24 -6 49 -6q68 0 101 2q22 3 75 16q12 3 35.5 10.5t36.5 10.5q2 2 6 2q30 2 88 30q10 5 11 5q23 6 26 28q1 4 2 15t2 16q5 11 7 24t2 22t-0.5 25t-0.5 23 q0 39 -4 117q0 53 17 119l6 20v207q-6 46 -6 47q-14 61 -19 78q-21 53 -43 70q-12 12 -30 12h-62q16 16 31 28q37 37 59 74q3 7 12 18t11 15q8 20 8 33q0 135 -2 203q0 60 -10 135q-9 62 -43 114q-40 70 -111 84q-22 5 -53 2q-22 0 -68 -4q-16 -1 -36 -1q-41 0 -101 5 q-50 5 -91 5q-18 0 -34 -1q-10 0 -43 -14q-37 -17 -78 -61q-14 -17 -22 -47v-23v-6zM336 485q0 3 4 7l39 12q2 1 5.5 2t4.5 2q6 3 18 9.5t19 11t16 12t15 16.5l8 8q2 -12 2 -33v-12q0 -44 12 -108l2 -9q0 -27 -1 -80t-1 -79q0 -5 -6 -8q-34 -11 -94 -11q-21 0 -21 19 q-2 14 -4 37.5t-2 25.5q-2 19 -7 57.5t-7 57.5q-2 20 -2 63zM342 1018v129q0 2 4 6q27 18 135 61h4q0 -1 1 -4t1 -4v-209q0 -19 -12 -34q-11 -11 -31 -35q-7 -10 -14 -15q-37 -20 -61 -51q-1 -2 -5 -5l-4 -3h-2q-16 109 -16 155v9z" />
<glyph unicode="c" horiz-adv-x="778" d="M35 883l6 -84q1 -13 5 -37t5 -35q1 -13 1 -40t1 -40q1 -20 1.5 -95t6.5 -116q5 -36 5 -133q0 -11 -0.5 -37.5t-0.5 -41t1.5 -36t5.5 -38.5q1 -3 2.5 -12t2.5 -13.5t3 -11.5t5 -12.5t7 -10.5q6 -3 6 -12q3 -14 17 -25q21 -15 71 -22q37 -4 58 -13q49 -18 82 -18q16 1 45 4 t43 4q30 3 61 0q36 0 47 4q6 2 21 2q6 -1 12.5 -2t13.5 -0.5t11.5 0.5t12.5 2t11.5 2.5t12.5 3t11.5 3.5t12.5 4t12 4q8 2 24.5 7t24.5 7q20 6 23 25l6 30q1 9 4 28t4 28q1 6 5 23t4 26v313q0 34 -23 90l-6 15q-13 16 -29 6q-5 -3 -8 -8q-37 -33 -70 -48q-50 -24 -102 -45 q-31 -14 -31 -41q0 -64 -4 -196q0 -5 -6 -8q-5 -3 -28 -15t-33 -20q-12 -7 -35.5 -14t-28.5 -9q-12 -6 -12 8q0 21 2 31q0 35 2 104.5t2 104.5q0 176 -2 266q-4 48 -8 72q-2 11 -8.5 30t-8.5 27q-12 50 -13 99q0 30 -0.5 88t-0.5 86q-3 13 10 16q9 0 17 4q58 28 104 66 q7 6 23.5 16.5t19.5 13.5q1 -8 2.5 -21.5t2.5 -25t1 -22.5v-172q0 -13 2 -19q7 -17 25 -6l6 6q22 18 35 27q32 19 33 20q64 50 116 78q32 16 35 49q0 11 4 23q5 22 5 57q0 41 -7 101q-2 14 -5 29t-7 33.5t-6 29.5l-13 80q-13 46 -57 57l-74 12q-22 4 -67 4q-30 0 -72 -2 q-1 0 -35 -3.5t-51 -2.5h-11q-37 0 -77 -18q-59 -29 -120 -29h-11q-9 0 -25 -4q-12 -3 -30 -31q-27 -38 -29 -73q-2 -51 -2 -152q-1 -35 -2 -103.5t-2 -103.5q-2 -72 -2 -120t2 -72z" />
<glyph unicode="d" horiz-adv-x="839" d="M39 1442q0 -16 1 -50t1 -51v-163q0 -10 10 -78q3 -25 7.5 -73.5t7.5 -72.5q1 -10 5 -30.5t5 -30.5q12 -90 12 -135q-1 -42 -1 -125t-1 -125v-59q0 -55 12 -107l2 -2l6 -100v-76l-6 -39q-3 -19 0 -37q0 -18 21 -18q1 -3 2 -10.5t2 -10.5q11 -57 70 -94q18 -6 20 -6 q24 -3 47 -3q69 0 123 23q76 32 143 58q52 17 58 20q5 2 51 31l18 10q44 24 56 35q12 7 24 27q28 58 31 114q1 20 4 57.5t4 55.5q0 11 -1 32t-1 33q0 148 2 220q0 34 12 100q2 4 2 12q3 42 9 82q0 35 4 53q2 20 2 51.5t-2 73.5v43q-4 78 -4 117q-5 23 -17 27q-1 1 -2 4t-2 4 q-4 51 -22 74q-9 9 -11 10l-73 57q-2 1 -6.5 3t-6.5 3q-7 3 -21 10t-25.5 11.5t-22.5 7.5q-13 4 -39.5 13.5t-40.5 13.5q-46 11 -74 20q-13 6 -35 18t-28 15q-5 2 -15.5 7t-15.5 7q-60 31 -86 33h-84l-41 -6q-7 -1 -23 -2t-24 -2q-13 0 -23 -13q-17 -28 -20 -67zM319 1165 q1 -1 4.5 -2t4.5 -2q29 -15 63 -39q35 -21 64 -28q4 0 8 -4q28 -24 45 -41q6 -6 10 -21q2 -12 5 -33.5t5 -33.5l7 -89q2 -27 2 -81q1 -27 4 -83t4 -83l6 -172v-88q0 -35 -4 -105q0 -6 -8 -10q-18 -14 -29 -21q-4 -2 -10 -2q-22 -2 -49 -16q-9 -6 -17 -6q-16 -2 -33 -19 q-4 -4 -6 -4q-12 -5 -17 -1.5t-5 16.5q0 106 2 159q0 28 -10 160q-3 21 -3 43q0 107 -2 162q0 3 -6 174q0 15 -4 35l-12 76q-13 74 -16 137q0 10 -3 22z" />
<glyph unicode="e" horiz-adv-x="696" d="M53 1420q-1 -15 0.5 -33t5.5 -33q2 -10 2 -29v-8q9 -48 9 -131q0 -126 -2 -187q0 -12 -5 -84q0 -29 7 -73q16 -110 18 -166q3 -76 3 -126q0 -25 -1 -44q-1 -1 -1 -50v-62q1 -112 1 -113v-78q0 -5 1 -11t2.5 -13t2.5 -11q2 -4 2 -16q8 -49 15 -107q4 -28 4 -45q0 -6 -2 -8 q-11 -14 4 -25q25 -22 57 -22h33q2 0 7 1t7 1q24 14 60 10l28 -4q1 0 25 -6q3 0 9 -1t9 -1q8 -2 21 -2h10q6 2 18.5 7t18.5 7q16 4 24 4h119q11 0 27 8q18 6 20 6q44 0 56 43v9q-1 6 -3 17.5t-3 20.5t0 17q2 11 -7 45q-2 16 -10 47q-5 12 -20 12t-39 -4h-13h-118 q-19 0 -27 2q-13 1 -24 1q-34 0 -56 -9q-2 0 -5 -1t-5 -1q-14 -2 -45 -2l24 358q67 5 80 5q8 1 24.5 2t24.5 2q9 0 11 2l41 12q18 4 18 22q0 86 2 127q0 2 -1 6.5t-1 6.5l-6 43q0 26 -23 20q-7 -2 -19.5 -2.5t-16.5 -1.5q-1 0 -18 -2t-25 -4q-5 -1 -12 -1q-20 0 -60 7 q-4 0 -4 6q0 23 1 68t1 67q4 70 8 101q2 21 8 62t8 61q2 19 5.5 55t5.5 55v15q10 -1 29.5 -3.5t29.5 -3.5h78q11 0 20 3l47 6q3 0 9.5 1t9.5 1q20 0 20 20q0 31 -2 47q-8 73 -8 164q0 20 -6.5 28.5t-26.5 12.5q-2 0 -2 2h-41q-36 -5 -43 -4q-10 1 -22 1q-34 0 -80 -11 l-21 -6q-2 -1 -5.5 -2t-4.5 -2q-4 -9 -26 -9h-158q-12 2 -33 2q-44 0 -61 -28q-1 -3 -3 -5t-5.5 -4.5t-4.5 -3.5q-6 -6 -6 -16q1 -19 0 -34z" />
<glyph unicode="f" horiz-adv-x="655" d="M47 1079q2 -2 2 -10q1 -17 4 -51.5t4 -52.5q1 -28 4.5 -83.5t4.5 -82.5q0 -16 -2.5 -49.5t-2.5 -51.5q-1 -11 -1 -29q0 -59 8 -194q8 -102 18 -153q2 -6 2 -23q6 -36 6 -41q0 -1 6 -104q0 -3 11 -70q2 -12 8 -36.5t8 -37.5q5 -38 45 -67q21 -10 31 0q20 16 22 32 q1 13 2 38.5t2 37.5q1 19 2 58t2 59l19 137q8 47 10 68q1 7 1 21t1 20l12 114q0 6 9 9l28 6q32 11 58 2q24 -6 33.5 0.5t9.5 25.5q0 1 6 140q0 19 -16 38.5t-35 24.5h-4q-6 -1 -18.5 -2t-18.5 -2q-11 0 -31 -4v6q8 62 8 92q4 71 8 209v109q0 15 4 39h11q14 1 42 2t42 2 q10 0 20.5 1t23.5 2.5t21 2.5q33 4 49 0q26 -3 54 -3q18 0 36 1q17 0 17 16q0 6 0.5 18t0.5 22t-1 18q-1 12 -4 36.5t-4 38.5l-7 101q0 19 -16 22q-2 1 -45 6q-15 0 -44 -1t-44 -1q-19 0 -59 1t-60 1q-6 0 -16 -3t-12 -3q-4 -1 -16 -5t-19 -5q-50 -9 -82 -9q-11 0 -19 1 q-36 4 -51 4q-53 0 -63 -53q0 -17 -2 -27q0 -6 -2 -6q-5 -2 -5 -12q-2 -23 -2 -64q0 -18 2 -20q7 -11 3 -33l-13 -82q-1 -12 -3 -34t-3 -34v-43z" />
<glyph unicode="g" horiz-adv-x="800" d="M45 1020q0 -125 2 -186q0 -28 8 -82q0 -5 1 -16.5t1 -16.5q0 -72 2 -107q0 -9 4.5 -28.5t4.5 -28.5q4 -102 4 -156q2 -55 2 -168l6 -36l10 -72q4 -25 19 -72q12 -36 45 -47l100 -31h10q8 -1 34 -1.5t40 -2.5q8 0 43 -10q36 -6 37 -6q12 -1 35 -1t34 -1q22 0 54 -8 q4 0 16 -4h57q15 5 43.5 14t42.5 14q11 3 15 17q12 24 16 36q4 11 8 41q6 28 9 62q6 43 6 82q0 31 -4 59q-2 18 -2 53q-4 86 -4 132q0 18 1 30q0 19 4 53t5 46q3 22 3 43q0 29 -5 55q-3 14 -17 14q-10 0 -16 -2q-20 -5 -53 -16q-37 -10 -105 -45q-6 -3 -20.5 -8.5 t-20.5 -8.5q-23 -14 -26 -18q-25 -22 -68 -43q-2 -2 -4 0q-19 0 -16 -19q0 -10 2 -16q5 -15 7 -42.5t3 -33.5q4 -16 0.5 -56.5t-2.5 -55.5v-7q4 -12 8 -14q7 -3 14 4l68 49q1 1 4.5 2t5.5 2v-8v-110q0 -11 -6 -13l-57 -18q-1 0 -11 -4t-14 -8q-17 -9 -47 -31q-5 14 -23 14 q-6 0 -6 2q-22 26 -20 47q6 75 6 78l6 129q0 68 -6 135q-2 14 -2 35t2 49l6 93q1 19 -1 36.5t-7 44.5t-6 35q-2 12 -2 35v201q0 17 14 31q24 22 72 36q2 1 17.5 5t23.5 8q31 9 63 0q14 -5 17 -21v-45v-55l-7 -70q0 -6 -1 -19t-1 -20v-88q0 -2 1 -6t1 -6q7 -18 23 -8l47 28 q1 0 3.5 1.5t4.5 1.5l10.5 3.5t14 5t10.5 5.5q12 6 35 21.5t35 21.5l14 6q4 3 13.5 8t13.5 8q11 5 14 19q4 17 4 45q0 18 -2 41l-12 135q-5 77 -37 190l-6 23q-8 23 -23 31l-45 18q-2 1 -12 5t-15 7q-17 15 -63 35q-9 4 -28.5 11.5t-28.5 11.5h-29q-8 -1 -25.5 -4t-25.5 -4 q-20 0 -56 -4q-22 0 -43 -3q-19 0 -51 -4q-54 -3 -102 -47q-42 -46 -53 -65q-46 -74 -54 -117q0 -4 -1 -12.5t-1 -12.5v-84q-1 -16 -4 -46.5t-4 -45.5q-4 -36 -4 -59z" />
<glyph unicode="h" horiz-adv-x="854" d="M41 1485q0 -10 1 -31t1 -31q1 -13 2 -37.5t2 -37.5q4 -40 4 -64v-168l6 -172q0 -25 2 -37l7 -49q4 -36 4 -53q4 -41 5 -89q1 -32 1 -69q0 -18 -0.5 -37.5t-0.5 -35.5q0 -33 1 -54v-67v-9q-8 -62 -8 -109v-18q0 -18 2 -26q12 -60 16 -86q2 -25 2 -72v-27q0 -18 12 -36 q4 -5 11.5 -15.5t12.5 -16.5t13 -13.5t17 -12.5q17 -12 38 -12q12 0 25 4q37 10 66 33q11 8 14 24q0 7 1 22.5t1 22.5q0 1 0.5 42t-0.5 42q0 3 -6 72q0 8 -1 23.5t-1 23.5q0 1 1 2t1 2q14 14 20 17q37 26 60 49q5 5 30 20q34 15 84 58q0 1 5 4v-10v-144q0 -31 1 -92t1 -92 q4 -62 34 -88q3 -5 19 -10h31q20 0 61 1t61 1q18 0 24.5 4t12.5 20q13 25 13 27q6 9 6 22v226q0 17 4 41q0 7 1 20.5t1 20.5q4 32 4 51q1 8 2.5 22t2.5 25.5t1 21.5q0 84 12 166q4 19 4 49q0 20 -2 45q-3 44 -12 84q-7 31 2 60q13 36 19 47q18 35 18 86q0 74 -2 111 q-1 15 -2.5 42.5t-3.5 49.5t-6 41q-6 37 -15 139q0 5 0.5 16.5t0.5 17.5t-1.5 15t-5.5 16q-8 15 -10 27q-10 17 -25 23l-24 12q-3 1 -10.5 3t-10.5 3l-59 10h-39q-42 -6 -47 -6q-31 -3 -49 -16q-12 -9 -12 -25q0 -27 2 -39q1 -19 4 -55t4 -53q8 -109 10 -166q0 -19 -1 -58 t-1 -59v-256q0 -30 -8 -88q0 -7 -13 -20l-73 -72q-20 -20 -56 -31v25q0 51 -4 157v19q0 70 19 127q16 41 16 75q0 11 -2 21q-5 24 -5 56q0 13 1 28v10q0 23 -3 59q-4 44 -5 56q-4 78 -4 117q0 53 -8 100q-6 29 -37 43q-5 2 -27 8q-86 4 -125 4q-28 0 -78 -12q-25 -5 -51 -35 q-6 -9 -6 -20z" />
<glyph unicode="i" horiz-adv-x="329" d="M33 1071q2 -2 2 -8q1 -9 2 -26t2 -25q0 -13 2 -19q4 -16 0 -47q0 -5 -6 -59q0 -21 16.5 -37.5t38.5 -18.5h5q46 0 118 33q4 0 8 4q3 1 9.5 4.5t9.5 4.5q20 3 41 20q14 11 14 33v24v66q3 28 -4 59q-3 14 -12 23q-2 1 -10 8.5t-13 9.5q-17 13 -25 13q-25 3 -51 0 q-12 -2 -35.5 -8.5t-35.5 -8.5q-35 -6 -62 -24q-8 -6 -14 -17v-4zM41 690q-4 -23 4 -35q4 -8 4 -12q-4 -98 -4 -143q0 -16 1 -33t2.5 -37.5t2.5 -32.5q0 -4 2 -8q10 -33 10 -61v-29q10 -79 11 -92q2 -25 2 -70q1 -6 1 -19t1 -18q7 -43 35 -57l2 -4q27 -27 53 -35 q12 -7 25 -2t16 21q1 1 2 4.5t2 5.5q6 23 6 92q2 26 1.5 52t-1.5 52q0 25 14 93q3 15 11 45t12 53t4 45q4 86 8 125h-2v28v13q0 38 -14 82q-6 18 -23 18h-73q-41 0 -93 -10q-6 0 -16 -10q-6 -9 -6 -21z" />
<glyph unicode="j" horiz-adv-x="819" d="M43 215v-10q0 -30 10 -80q9 -28 29 -45q41 -36 121 -55q6 -2 20 -2h37q17 0 43 -11q12 -8 21 -8q46 -4 67 -4q23 0 71 1t73 1q31 0 43 27l24 39q1 3 12 14q8 4 9 6q25 41 30 51q18 43 35 105q14 63 14 80q0 23 3 47q2 14 7 40.5t7 39.5q8 49 20 147q6 54 9 104v64 q0 17 4 49q0 13 4 37q6 91 6 92q10 98 10 117q1 29 1 62t-0.5 73.5t-0.5 63.5q0 12 -4 40q-4 52 -10 80q-11 37 -11 92q0 16 1 33v62q0 12 -9.5 21t-23.5 11l-78 7q-13 1 -26.5 -1t-31 -5.5t-26.5 -4.5q-1 0 -2 -1t-2 -1q-52 -25 -68 -41q-18 -15 -24 -39q-11 -33 -15 -86 q-1 -10 -1 -19q0 -28 10 -44q8 -11 8 -31v-184q4 -98 4 -145q1 -16 1 -51t1 -52q0 -133 8 -180q4 -22 4 -40q0 -13 -2 -24q-8 -33 -8 -73q0 -22 -2 -64t-2 -63q0 -84 8 -125q0 -8 -6 -10q-35 -21 -59 -33q-2 -2 -5 -2q-50 -33 -53 -35q-9 -5 -37 -10q-3 -3 -8 6l-6 41 q0 55 -2 84q-6 93 -6 94q-2 49 -2 147q0 11 -2 15q-3 10 -13 4l-6 -8q-2 -2 -9.5 -11t-12.5 -12q-2 -2 -10.5 -5.5t-12.5 -6.5l-55 -37q-46 -33 -74 -51q-2 0 -3.5 -1t-2.5 -1.5t-2 0.5q-19 3 -23 -21q0 -2 -5.5 -35.5t-6.5 -50.5q-6 -61 -6 -123v-55z" />
<glyph unicode="k" horiz-adv-x="880" d="M41 1376q-3 -21 12 -30q4 -4 4 -7q9 -52 9 -67q0 -12 -1.5 -38t-1.5 -38q-3 -71 -3 -117q0 -23 1 -41q1 -26 -1 -83q-1 -43 -2 -78v-23q0 -44 5 -82q2 -16 7 -106q5 -140 12 -185q2 -14 6 -48.5t8 -53.5q6 -33 10 -100q2 -15 4.5 -45.5t4.5 -45.5q5 -45 22 -96 q1 -2 6 -20.5t11 -26.5q1 -2 2 -6.5t2 -7.5q6 -18 8 -21l12 -24q14 -35 51 -25q60 23 72 66q3 14 10.5 42t10.5 42q4 28 4 41q8 71 10 104q0 8 -0.5 60.5t4.5 60.5q1 6 2 18.5t2 18.5q1 11 1.5 31.5t1.5 37.5t3 33q1 17 6 48t6 36l3 2q32 -105 34 -113q5 -20 17.5 -54.5 t15.5 -45.5l33 -67q3 -5 8 -15l9 -18t7 -15t6.5 -18.5t4.5 -15.5q30 -69 55 -105q8 -12 10 -20q24 -53 76 -101q21 -24 52 -24h7q31 0 45 2q9 0 17 8q3 2 7 7t7 7q28 18 31 45q3 41 3 70q0 14 -1 25q0 45 -27 94q-6 8 -14 24.5t-10 20.5q-12 18 -47 69q-6 8 -20.5 25 t-20.5 25l-68 96q-1 3 -4 9t-4 9q-11 33 -53 107q-6 10 -27.5 42.5t-30.5 51.5q-5 11 2 18l37 27q50 30 60 35q9 6 59 31l14 6q5 2 15.5 5t15.5 5q7 2 33 18q36 19 63 35q30 21 56 47q4 4 10 21q3 28 -19 53q-32 40 -41 90q-8 39 -36 74q-21 27 -56 12q-20 -12 -30 -22 q-74 -62 -109 -95q-9 -7 -51 -49q-8 -9 -22.5 -28.5t-22.5 -28.5l-74 -74l-3 -2q-2 -2 -3 -4q0 8 2 12l6 62l6 141q0 21 2 31q8 35 8 72q0 32 -6 67q-6 40 -6 80q0 43 -4 137q0 3 -1 9.5t-1 9.5q0 18 -16 28q-3 1 -19.5 10t-25.5 11q-35 6 -70 6q-12 1 -63 -4 q-32 -4 -52 -21l-41 -34q-32 -28 -43 -64q-3 -14 -8 -40t-8 -38z" />
<glyph unicode="l" horiz-adv-x="737" d="M41 926q16 -48 16 -91v-14q-1 -4 0 -9t3 -11.5t3 -9.5q23 -81 23 -107q0 -46 2 -66q8 -138 8 -183v-9q-2 -19 -2 -38t2 -38l6 -96q10 -131 11 -162q3 -30 26 -53q6 -7 35 -16q32 -11 102 -19q51 -4 156 -4q42 0 86 6q11 2 34 8.5t36 8.5q53 8 84 10q25 3 30 26 q1 7 2.5 20t2.5 19v23q0 63 -13 131q-1 6 -2 20t-2 21q-4 18 -16 18q-74 13 -99 15q-18 3 -45 -9q-58 -21 -102 -26q-18 -3 -31 -8q-10 62 -10 71q-1 16 -1 86.5t-3 108.5q-4 51 -4 229q0 11 -1 23q0 31 2 79q2 66 3 91q2 16 1.5 33t-1.5 34q0 21 -23 31q-43 15 -82 15 q-37 0 -71 -13q-9 -3 -27.5 -7t-27.5 -7q-50 -10 -84 -37q-15 -13 -27 -45v-49z" />
<glyph unicode="m" horiz-adv-x="876" d="M-8 35q4 -9 11 -27.5t11 -27.5q12 -25 39 -25q33 -4 49 4q26 18 33 47l25 84q6 31 0 62q-4 32 -4 49q0 63 -2 96v19q0 61 16 128q6 25 6 74l6 68q2 19 6.5 55.5t6.5 54.5q4 56 14 78q7 -34 49 -129q2 -6 4 -18t2 -13q0 -29 2 -45q5 -39 41 -84l15 -12q30 -15 43 14 q4 8 14 32.5t18 35.5q17 27 25 80q1 4 3 15.5t4.5 19.5t6.5 14q21 32 25 35q21 14 49 61q7 7 16 13q0 -3 1 -8.5t1 -8.5l-6 -114q-7 -95 -22 -158q-13 -49 -17 -139v-66q0 -49 -12 -98q-20 -89 -20 -128v-7q1 -8 2 -23.5t2 -22.5q3 -34 24 -61q6 -7 16.5 -23.5t16.5 -23.5 q18 -24 37 2q5 6 18 18t19 19q10 10 12 16l12 39v2q8 31 17 47q10 18 14 51q7 24 10 46q1 27 25 129q6 27 6 84q4 50 8 71q5 19 16.5 58t16.5 59q2 11 5 33t5 32l25 95l9 54l9 54q12 67 21 131q12 70 12 144q0 14 4.5 39.5t5.5 35.5q14 99 17 125q4 26 8 74q0 17 -8 49 q-7 30 -29 35q-4 0 -4 6q-7 14 -8 17q-11 -9 -29 0q-29 14 -56 14h-10q-9 0 -27.5 1t-27.5 1q-13 3 -24 -8q-17 -14 -31 -35q-6 -10 -17.5 -26.5t-15.5 -22.5q-14 -20 -25 -45q-6 -16 -17 -47t-17 -47q-7 -17 -22.5 -50t-22.5 -49q-13 -27 -21 -47q-7 -15 -20 -55l-19 -43 q-2 -4 -5.5 -13.5t-4.5 -13.5q-6 -9 -12 -24q-19 26 -25 51q-2 14 -10 41q0 2 -23 78q-1 3 -2 10t-2 10l-12 49v13q8 18 0 41q-2 5 -5 15t-5 15q0 1 -11 17q0 1 -1 3t-1 3q-8 49 -8 66l2 27q0 20 -6 40q-5 13 -20 22q-25 15 -31 21q-24 24 -53 24h-6q-6 0 -20 1.5t-21 1.5 q-25 3 -38 -7t-24 -39q-2 -6 -2 -20l-6 -88q-1 -12 -3 -33.5t-3 -32.5q0 -6 -2 -20t-2 -21v-21q0 -69 -17 -132q-15 -62 -16 -76q-2 -37 -2 -113v-92q0 -64 10 -110q5 -34 5 -72q0 -28 -3 -57q-2 -24 -2 -148q0 -59 -10 -131q-3 -1 -1.5 -48t1.5 -48v-4q13 -17 8 -60 q-1 -10 -3 -21t-5 -24.5t-4 -21.5v-41z" />
<glyph unicode="n" horiz-adv-x="860" d="M41 1397q6 -24 7.5 -50t0.5 -60t0 -50q1 -21 2 -61t2 -60q2 -27 10 -86q2 -18 8.5 -51t8.5 -51q6 -53 14 -166q0 -4 12 -187q0 -4 1.5 -12t1.5 -12v-12q0 -49 14 -136q9 -59 12 -116q7 -58 7 -118q0 -20 -1 -40q0 -42 31 -61q18 -12 33 -27q15 -18 45 -21q25 0 35.5 10 t15.5 33q2 9 4 29.5t2 22.5q0 5 2 14t2 14q4 86 4 127q-6 189 -6 191q1 28 4 82t4 80v22h2q17 -17 21 -27q5 -13 16 -38t19 -45.5t12 -40.5q0 -3 4 -11t4 -12q1 -10 5 -19t11.5 -20t10.5 -16q7 -14 29.5 -46t31.5 -51q5 -11 23 -50t26 -60q17 -46 33 -82q10 -24 41 -84 q13 -27 62 -35q7 -2 21.5 -4t15.5 -2q9 0 27.5 -1t27.5 -1q19 0 31 18q12 19 12 52l-6 143q-2 10 -2 29q-4 50 -4 69q-2 17 -1.5 34t1.5 34l6 244q0 115 -4 172q-5 55 -5 94v20q1 18 -1.5 51t-2.5 46q0 62 4 188v53v10q0 32 11 74q5 20 11 58.5t7 42.5q2 2 2 6v51 q-1 6 -2 19.5t-2 19.5q-6 32 -41 35q-29 4 -49 -4l-18 -7q-76 -4 -115 -36q-14 -7 -23 -13q-37 -26 -37 -61q0 -66 9 -103q1 -8 2 -23.5t2 -23.5q4 -43 4 -131q0 -15 1 -47t1 -47q-1 -23 -5 -71.5t-5 -73.5l-6 -150v-80q-3 0 -5 -2q-11 34 -16 55q-8 41 -31 89 q-33 76 -49 124q-7 20 -16 59.5t-12 49.5q-4 14 -13.5 41.5t-13.5 42.5q-17 71 -19 102q0 1 -6 43v17q0 90 -6 135q-2 2 -2 8q0 21 -20 21l-15 2h-12q-9 -1 -68 -17q-14 -6 -38 -22q-17 -7 -29 0q-8 4 -14 10q-15 9 -32.5 6.5t-29.5 -14.5l-29 -35l-12 4q-6 -6 -6 -14z" />
<glyph unicode="o" horiz-adv-x="778" d="M41 1036q3 -19 8 -55t8 -53q21 -135 23 -150q4 -29 4 -84v-493q0 -41 18 -78q8 -13 15 -17q2 -3 7 -7t7 -7q10 -15 39 -35q22 -12 51 -34q25 -20 62 -23q12 -1 25.5 1t19.5 3t25.5 6.5t21.5 5.5l39 7h24q30 0 54 12q9 5 29.5 12t29.5 12q20 12 28 17t20.5 18.5t18.5 28.5 q9 21 48 80q2 4 14 39q2 9 12.5 47.5t12.5 60.5q16 94 16 180q0 42 1 125t1 125q0 7 -1 22t-1 23q-4 32 -4 52q-2 26 -1.5 50.5t1.5 49.5q3 43 3 113v24q0 17 -1 33q0 64 2 104q0 47 -16 97q-13 34 -17 53q-7 25 -22 37q-49 42 -72 75q-17 22 -57 29q-39 4 -56 10 q-36 9 -49 10h-12h-6q-34 0 -66 -14q-31 -12 -96 -16q-42 0 -74 -37l-43 -43q-43 -43 -63 -66q-25 -31 -25 -71q0 -15 1 -46t1 -46q0 -29 -2 -43q-3 -20 -3 -58t-1 -47q-2 -6 -2 -14v-25zM233 967q1 16 11 137q0 18 10 28t31 19q8 2 24 10l62 31q6 3 12 4t10 1.5t12 -1 t11 -2.5t12.5 -4t11.5 -4l31 -6q25 -6 43 -31q21 -35 21 -72q2 -31 5 -94t5 -94h-4v-131q-1 -9 -3 -28t-3 -28q0 -2 -1.5 -6t-1.5 -6q0 -44 -1 -131.5t-1 -130.5q-4 -90 -8 -135q0 -17 -12 -49q0 -6 -10 -6h-113h-80h-8q-10 0 -13 2.5t-5 13.5l-9 39q-8 36 -8 51 q0 121 -2 180q-2 27 -10 86q-1 8 -1.5 23.5t-1.5 28.5t-3 24q-3 27 -3.5 78.5t-2.5 73.5q-7 75 -7 129z" />
<glyph unicode="p" horiz-adv-x="647" d="M20 1454l7 -47q4 -27 5.5 -57t1.5 -70.5t1 -58.5q0 -15 -1 -44t-1 -44q1 -19 4 -54.5t4 -54.5q1 -13 2 -37.5t2 -36.5q1 -10 4 -30.5t4 -30.5q1 -19 2.5 -52t2.5 -59.5t1 -50.5q2 -94 2 -287q0 -18 -2 -53t-2 -53q0 -8 2 -12q0 -2 3.5 -24t3.5 -34q0 -43 12 -125 q1 -11 2.5 -31t2.5 -36t1 -31q0 -19 11.5 -28t27.5 -9q9 -1 26.5 -1t26.5 -1q5 0 15.5 -1t15.5 -1q39 0 45 37l6 82q4 32 4 49v59q0 29 1 89t1 90v139v8q3 -1 9 -2t8 -2q28 -14 60 -14h11q16 0 29 10q17 11 37 14q2 0 14 6l39 19q28 12 45 10q18 0 29 18q32 40 39 76 q2 9 10 31t10 35q6 27 10 84v53q0 2 1 5t1 5v246q0 5 -1 14t-1 13v137q0 27 -12 51q-10 15 -10 37q-1 12 -2 37.5t-2 38.5q0 21 -17 32q-4 4 -14 19q-14 9 -16 10q-23 9 -31 14q-4 0 -6 2l-105 7h-73h-9h-178h-6q-14 0 -28.5 -5t-21.5 -9.5t-23.5 -16.5t-20.5 -15 q-2 -2 -6 -10l-6 -8q-4 -8 -4 -10q-3 -9 -3 -21v-10zM238 1270q0 16 12 16q8 -1 16.5 1t13.5 4.5t13.5 7t11.5 6.5q47 17 84 17q9 0 17 -1q5 -1 15 -1t15 -1q6 -1 27 -12q1 0 2 -1.5l2 -3t2 -2.5q6 -27 6 -79q-8 -95 -8 -131v-7q0 -22 -3.5 -62.5t-4.5 -53.5q0 -2 -1 -6 t-1 -5q-2 -26 -7.5 -75.5t-7.5 -75.5q-4 -29 -18 -37q-4 -4 -8 -4q-17 -1 -51.5 -2t-51.5 -2q-12 0 -18 2q-13 1 -22 11t-11 24q0 11 -1 33.5t-1 35.5l-6 256q-2 43 -10 115q0 3 -6 33z" />
<glyph unicode="q" horiz-adv-x="757" d="M41 1239q0 -10 8 -18q4 -4 4 -9q-2 -98 -2 -299q0 -19 3.5 -53t4.5 -45q4 -28 4 -45q1 -16 4 -87t7 -110q4 -46 5 -99q1 -34 1 -74q0 -20 -0.5 -41.5t-0.5 -39.5q0 -36 1 -59q0 -42 6 -86q2 -8 4 -25.5t4 -25.5q4 -27 10 -39q35 -61 89 -66q29 0 45 -8q25 -14 88 -14 l32 -6q24 -8 37 -8q33 -2 101 -2q3 0 8 -5l31 -51q6 -8 19 -24.5t19 -24.5q12 -16 23 -18h8q20 8 41 41q0 1 1 2t1 2q0 5 0.5 15.5t0 16t-1 13.5t-3 14.5t-6.5 13.5q-3 6 -25 54q-4 4 0 12q27 31 29 53l12 137q1 17 6.5 47.5t6.5 38.5q2 11 10 56.5t10 70.5q2 24 3 70t3 70 q1 16 5 46t5 46q3 21 3 47v57q-1 19 -4.5 54.5t-4.5 52.5v45l6 137q0 17 5 100v7v14v37q-1 3 -2.5 11t-2.5 11q-9 30 -14 41q-18 42 -47 51q-10 5 -20 15q-61 45 -127 45q-44 0 -64 2q-3 0 -27 6q-5 1 -17.5 4t-20.5 4l-9 2h-28h-6q-18 -2 -53 -5t-52 -5q-6 0 -8 -2 q-74 -23 -115 -45q-19 -12 -41 -55q-1 -2 -2 -6t-2 -5q-8 -14 -8 -57zM221 831q-1 33 -1 65t1 65q0 34 4 112v4q8 10 8 37q0 22 13 45q8 17 37 33l28 10q29 10 56 4q12 -3 36 -7t37 -7q50 -10 66 -49l18 -47q4 -16 4 -25q0 -121 2 -180q0 -22 3.5 -60.5t3.5 -46.5 q0 -6 -1 -17t-1 -17q1 -23 4 -68.5t4 -67.5t2 -64t2 -63v-77q4 -68 4 -88v-7q0 -17 -3.5 -46.5t-4.5 -39.5q-1 -4 -2 -13t-2 -13q0 -1 -1 -4.5t-1 -5.5q-15 27 -21 40q-10 31 -33 48q-3 6 -10 6q-24 5 -53 -13q-15 -11 -31 -43q-2 -3 -3.5 -6l-3.5 -7t-3 -7q-5 -14 8 -27 q4 -4 16 -20l21 -39q-12 -2 -35 -2q-43 0 -63 2q-5 0 -17 8l-18 19q-8 8 -10 14q-15 46 -17 76q0 24 -6 45v8q1 8 1 17q0 30 -9 57v8q-4 32 -8 96q-2 24 -3 74t-3 74l-13 145q-2 20 -2 65z" />
<glyph unicode="r" horiz-adv-x="675" d="M45 1298q2 -2 2 -8v-47q0 -9 2 -27.5t2 -27.5q-1 -57 -2 -171t-2 -171q0 -176 2 -264q0 -43 4 -133q0 -7 4 -23l6 -31q0 -6 1 -13.5t3 -15.5l3 -12q4 -17 0 -51q-3 -47 -3 -78q0 -16 1 -28q4 -50 4 -76q1 -12 16 -80q3 -9 16 -35q11 -19 37 -22q3 -1 9.5 -2t9.5 -2h12 q39 19 45 43q8 37 10 53q9 98 9 128v5v80q0 3 6 51l6 111q4 70 6 96q2 -3 5.5 -6.5t4.5 -5.5q5 -9 15 -26t12 -20q6 -9 6 -16q5 -41 29 -94q20 -45 26 -60l19 -51q4 -14 12 -42.5t12 -43.5q5 -19 13 -55t10 -47q14 -52 28 -70q15 -15 35 -18q38 -8 62 6q6 4 18 4q27 4 39 18 q4 6 14.5 18.5t14.5 18.5q9 15 9 37q0 12 -3 27q-6 21 -29 78l-12 28q-2 5 -6 15.5t-6 15.5q-1 2 -2 7t-2 7q-7 13 -12.5 28t-10.5 33.5t-8 28.5q-2 9 -19 48q-3 12 -8 33.5t-8 33.5q-10 32 -16 64q-2 7 -5.5 21.5t-5.5 21.5q-1 10 2.5 14t14.5 6h22q23 -3 45 19l23 18 q23 25 26 72q0 16 -2 24q0 28 9 107q2 4 2 12v143q0 18 -4 58q0 5 -3 12t-4 10q-10 27 -10 49q0 68 -4 101q-1 6 -12 51q-2 9 -7.5 26.5t-7.5 26.5q-3 16 -16 33q-2 2 -24 29q-20 18 -68 39q-25 11 -47 8q-15 0 -42.5 1t-50.5 0.5t-44 -1.5q-45 0 -78 -21l-15 -6 q-9 -4 -33.5 -15t-37.5 -18q-2 -1 -25 -18q-5 -4 -28 -27l-19 -16q-12 -9 -2 -23zM223 909q4 54 4 84q0 12 -1 38t-1 40q0 21 1 64t1 65q0 11 9 17q42 26 71 30q1 0 12 3t17 3q25 0 37 -4q15 -5 26 -19.5t11 -31.5v-39h-2v-278q0 -63 -5 -107q-4 -31 -18 -41q-6 -4 -18 -8 q-66 -11 -68 -12q-34 -7 -57 6q0 1 -1 3t-1 3v25q-8 18 -4 45q2 17 -7 57q-6 54 -6 57z" />
<glyph unicode="s" horiz-adv-x="798" d="M47 993q2 -4 2 -14q12 -78 12 -80q8 -31 25 -65q22 -49 47 -89q21 -35 51 -53l31 -20q21 -16 53 -23q45 -10 142 -10q8 0 24 4l53 6q3 0 15 -6q12 -20 14 -33q7 -37 10 -67l6 -99q0 -3 -1 -6.5t-2.5 -8l-2.5 -7.5l-18 -47q-17 -44 -33 -76q-1 -4 -16 -14q-24 -11 -43 -29 q-24 -24 -58 -12q-12 4 -18 4q-14 3 -16 12l-9.5 19t-10.5 24t-5 21q0 4 -2 6q0 18 -1 51t-1 51q0 6 2 8q8 10 4.5 22.5t-16.5 16.5q-38 17 -58 17h-4q-36 -4 -49 -15q-4 -4 -14.5 -10t-14.5 -10q-10 -8 -18 -27q-26 -68 -31 -94q0 -8 -4 -16q-13 -35 -13 -78q0 -22 3 -45 q6 -56 8 -64q27 -90 98 -117q14 -4 23 -8q25 -12 55 -12q28 0 60 10q14 3 73 27q24 12 54 12q8 0 24 8q4 0 12 4q4 3 14.5 7.5t14.5 7.5q12 10 31 10q11 0 31 4l8 6q11 11 51 56q18 21 33 45q49 85 65 198q4 30 4 73.5t-4 100.5l-12 187q-4 45 -14 69q-16 41 -62 68 q-32 21 -82 31q-18 2 -59 2q-55 0 -102 8q-40 5 -52 8q-35 11 -59 45q-1 1 -6 10q-14 33 -14 69q0 23 6 48q9 35 34 60q22 25 52 40q18 9 28 11q33 11 58 16q24 7 41 2q8 -4 8 -8q22 -29 22 -59q0 -38 6 -76q10 -37 27 -66q15 -30 45 -24q13 1 36 4t34 4q2 0 6 1t6 1 q19 -2 47 18q9 8 12 19q6 12 9 24v19q-2 4 -2 16q-1 2 -1.5 6.5t-1.5 8t-4 6.5v8q0 7 1 24t0.5 29.5t-3.5 24.5l-18 69q-1 6 -4 15l-4 12q-13 56 -58 111q-12 12 -16 20q-19 25 -57 25q-50 4 -76 4q-1 0 -3 1t-3 1h-25q-24 -2 -67 -16t-54 -17q-18 -2 -45 -10 q-50 -10 -82 -31q-35 -19 -86 -51q-34 -21 -47 -64q-1 -2 -2 -5.5t-2 -4.5q-7 -10 -22 -61q-2 -6 -7 -43q0 -8 -1 -25.5t-1 -26.5q0 -27 -10 -65q0 -5 -4 -17v-51z" />
<glyph unicode="t" horiz-adv-x="348" d="M-332 1647q0 -10 1 -21.5t2.5 -25t2.5 -21.5q0 -12 15 -16q27 -9 39 -9q16 0 88 5q9 1 26.5 4t26.5 4q22 4 33 2q21 -4 92 -4q15 0 17.5 -3t0.5 -18q0 -193 17 -325q0 -1 6 -86q2 -16 2 -52q4 -32 4 -53q1 -13 1 -38.5t1 -37.5v-18q0 -57 -10 -152q-6 -42 -6 -66v-11 q9 -99 14 -138q1 -17 10 -71q1 -9 5 -28t5 -28q2 -13 7 -67q4 -32 4 -51l12 -158q1 -10 1.5 -28t1.5 -33t3 -29q5 -29 14.5 -39t36.5 -10q5 0 14 -1t13 -1q30 -5 33 -5q23 0 26 21q4 16 5 24q5 96 6 113q0 10 1 21.5t2.5 25t2.5 21.5q6 49 14 147q8 77 8 105v6v63q1 9 2 27 t2 26q2 13 13 179q1 21 2 62.5t2 62.5q0 10 4 34l18 195q1 17 5 50t5 50q1 15 2 45.5t3 46.5l6 70q1 17 4 51t4 52v86q10 0 16 -3q14 -4 28.5 -4.5t33.5 1t28 1.5q30 4 45 -4q2 -2 11 -2q16 -1 47 -2t47 -2q8 0 18 10q17 25 17 60q4 50 4 74q0 15 -10 18q-24 9 -48 12 q-11 3 -33.5 8.5t-33.5 8.5q-6 1 -18.5 4t-18.5 4l-131 12q-29 2 -88 2q-3 0 -9.5 1t-9.5 1h-20q-6 -1 -22 -4t-25 -4q-5 -1 -15.5 -1t-15.5 -1q-16 -3 -49 -10t-49 -10q-20 -5 -27 -5t-19 1t-22 1t-18 -2q-41 -8 -121 -8q-36 0 -47 -6h-4q-28 3 -60 -8q-36 -11 -43 -35 q-8 -27 -8 -63z" />
<glyph unicode="u" horiz-adv-x="737" d="M22 1230q2 -32 9 -61q4 -20 4 -32q1 -8 2.5 -21.5t2.5 -25t1 -21.5v-102q0 -17 2 -52t2 -53q0 -51 12 -153q6 -46 9 -84q1 -21 1 -62t1 -61q4 -86 12 -129q1 -3 1 -9.5t1 -9.5q0 -12 2 -18q8 -51 14 -78q0 -3 1 -8t1 -8q0 -1 3 -12t3 -17q11 -70 39 -102q32 -35 60 -50 q8 -4 30 -13.5t33 -14.5q24 -14 58 -27q16 -7 34 -7q14 0 29 5q15 4 42.5 13.5t41.5 13.5l14 6q9 6 21 12q27 8 37 25q0 4 4 4q30 21 57 80q32 68 39 170q1 8 1 25.5t1 25.5q2 13 7.5 39t7.5 39q0 1 6 53l12 111q2 13 3 27.5t2 32.5t1 28q1 30 2 89t2 89q0 45 4 143v6 q1 8 2 26.5t2 27.5q4 24 4 40q5 20 5 25q4 46 4 72q2 16 1.5 32.5t-1.5 32.5q0 4 -6 58q-1 8 -4 21t-4.5 23t-2.5 19q-5 48 -8 64q-10 39 -45 39q-8 -1 -24.5 -2.5t-24.5 -2.5q-55 0 -70 -4q-39 -7 -55 -34q-14 -24 -18 -62q0 -21 -1.5 -63t-1.5 -64q-4 -258 -4 -391 q0 -20 1 -61.5t1 -63.5v-76q0 -6 1 -11q0 -55 -5 -65q-2 -10 -2 -61q-2 -23 -3.5 -80.5t-4.5 -89.5q-5 -52 -10 -66q-3 -14 -10 -32q-3 -7 -23 -19q-24 -15 -53 -12q-30 0 -37 20q0 1 -3 9.5t-3 13.5v141l6 123q1 18 1 39t-0.5 46.5t-0.5 39.5q0 13 -8 41q-2 5 -9.5 32 t-13.5 42q-3 11 2 49q8 70 8 106q1 23 1 49t-0.5 58.5t-0.5 50.5q0 17 3 46.5t4 37.5v57q0 7 1 37.5t0 49.5t-5 38q-1 4 -2.5 13.5t-2.5 13.5q-2 5 -5.5 21t-6 24t-8.5 20t-14 21q-16 16 -31 16h-23q-67 0 -94 -12q-29 -12 -45.5 -29t-19.5 -45q-4 -36 -4 -57q1 -22 -1 -64 q-1 -24 -1 -44q0 -16 1 -30z" />
<glyph unicode="v" horiz-adv-x="907" d="M20 1358l13 -35q13 -42 16 -80q0 -43 6 -63q3 -14 8 -50q1 -3 2.5 -11t2.5 -11q16 -63 20 -92q2 -14 16 -47q0 -3 5 -13q30 -102 36 -120q6 -17 20.5 -51t20.5 -52q7 -24 15 -59q3 -13 24 -119l9 -39t8 -33q9 -38 28 -100q9 -30 15 -43q13 -30 34 -100q7 -22 20.5 -68.5 t20.5 -69.5l19 -43q5 -9 14.5 -25t12.5 -20q7 -14 18 -14q35 0 53 2q18 4 15 16q-2 15 8 25l10 18q3 5 10.5 17t12 21t6.5 18q3 20 16 84q4 26 8 41q1 8 10 34q23 63 39 119q19 56 27 84q4 17 11.5 50t11.5 49l14 57q11 61 39 121q8 16 12 22l18 45q17 46 33 82l23 72 q13 38 16 53l9 39t8 33q9 36 28 94q0 1 3 14.5t3 20.5l6 63q0 22 7 43q9 30 6 60q0 20 -21 28q-2 1 -20 13q-2 0 -4.5 2t-3.5 2q-43 26 -84 31q-5 0 -15 4t-12 4l-31 6q-8 4 -24.5 11t-24.5 11q-35 15 -35 -20v-4v-6q0 -32 -8 -115v-23q-4 -24 -16 -78.5t-15 -84.5 q-1 -8 -4 -21t-4 -18q-4 -15 -8 -49q-4 -16 -4 -21l-6 -43q-21 -109 -23 -121l-8 -33q-1 -3 -2 -9t-2 -9q0 -1 -2 -18t-4 -25q-2 -10 -9.5 -41t-9.5 -49q-2 -12 -3 -38t-3 -38q-8 -56 -16 -84q-3 -16 -12.5 -46t-12.5 -42q-8 -27 -10 -43l-4 -6q-3 15 -9 42t-9 42 q-2 6 -2 22q-3 50 -3 95v19q0 40 -6 108q0 12 -6 24q0 3 -2 9.5t-2 9.5l-6 43q-2 13 -7 38.5t-7 38.5q-1 3 -6 31.5t-11 42.5q0 2 -1 7t-1 8v114q0 37 -12 111q-8 59 -14 90q0 7 -3 16q-18 48 -18 117v25q0 1 -3 13t-4.5 15t-5 11t-9 12t-13.5 6h-22q-46 -19 -82 -45 q-35 -25 -43 -33q-26 -26 -64 -41q-19 -8 -28 -22l-7 -19v-16z" />
<glyph unicode="w" horiz-adv-x="1048" d="M20 1370q1 -12 4.5 -33t4.5 -32q2 -28 5 -83.5t5 -82.5q4 -69 16 -199q6 -64 6 -66q1 -15 4.5 -42.5t4.5 -40.5q4 -20 2 -31q0 -14 10 -72q4 -19 8 -61l12 -123q2 -20 2 -60q0 -5 5 -20q0 -7 1 -22.5t1 -22.5q1 -18 2 -53.5t2 -53.5q0 -12 4 -32q1 -8 2.5 -21.5t2.5 -25 t1 -21.5q4 -53 12 -80q12 -28 25 -39q8 -8 20 -28q9 -15 29 -15l59 -6q9 0 15 -2q21 -7 41 4q42 22 51 55q0 2 2.5 7.5t3.5 7.5q1 3 7 13.5t7 16.5q8 34 27 70q5 6 10 27q19 58 27 88l2 2q14 15 26 63q14 35 35 56q2 -4 6 -10t5 -9l43 -80q4 -6 8 -22q8 -18 20 -58 q18 -47 19 -53q5 -29 39 -86q27 -41 34 -53q17 -27 45 -27q13 0 36 -1t42 -1t35 2q55 3 72 56q12 37 16 114q1 17 4 49.5t4 47.5q1 12 6.5 59.5t6.5 73.5q2 33 5 98t5 98q1 13 4 35t4 31q0 17 4 53q1 16 10 70q13 128 13 210v21q0 8 1 24t1 23q4 64 8 92q8 47 8 140v96 q0 47 -49 61q-12 3 -55 17q-12 4 -21 4q-13 1 -39 2t-39 2q-22 0 -22 -23v-38q0 -15 -2 -21q-2 -10 -5 -31t-5 -32l-7 -31q-4 -11 -8 -37q-5 -14 -8 -38.5t-4 -27.5q0 -5 -3 -32.5t-3 -42.5q0 -23 -15 -140q-5 -29 -18 -71q-3 -14 -11.5 -41t-11.5 -41q-2 -9 -4 -28.5 t-4 -29.5q0 -13 -4 -41v-4q-7 -9 -10.5 -18.5t-5 -26.5t-2.5 -20q0 -2 -2 -4l-17 22q-17 24 -28 43q-7 7 -7 15q-3 23 -20 51q-5 8 -15.5 26.5t-15.5 26.5q-9 15 -18 27q-11 12 -25 10t-20 -16q-4 -9 -11.5 -28t-11.5 -28q-26 -72 -37 -96q-5 -16 -22 -59q-2 4 -2 10 q4 14 -6 59q-15 66 -21 127q-1 16 -3 33.5t-5 38.5t-4 33l-6 73q-11 86 -31 142q-4 9 -14 61l-19 103q-2 14 -5 42t-5 42q-1 8 -3 17t-5 19.5t-4 16.5q-8 22 -35 22h-27q-12 -4 -18 -4q-14 0 -36 -6.5t-26 -7.5l-59 -17q-16 -5 -20 -8q-37 -26 -48 -63v-29z" />
<glyph unicode="x" horiz-adv-x="862" d="M0 1229q10 -35 12 -41q1 -3 4.5 -10.5t3.5 -12.5q2 -12 7 -23.5t13 -24.5t11 -21l49 -92q34 -62 43 -78q8 -13 31 -45q22 -31 29 -43q6 -11 17 -30t20 -35t18 -30q15 -22 35 -67q0 -4 -2 -6q-2 -14 -10 -37q-35 -103 -41 -123q-1 -3 -5 -13.5t-6 -15.5l-30 -78 q-8 -24 -15 -38q-5 -15 -17 -46t-17 -47q-6 -21 -13.5 -58.5t-9.5 -45.5l-6 -12q-2 -7 -7.5 -20.5t-7.5 -20.5q-11 -23 5 -39q16 -19 39 -25q34 -7 73 -28q15 -10 37 -21q18 -5 25 2q20 25 22 31q9 21 17 59q2 8 5 25.5t5 25.5q11 32 34 95.5t35 95.5q20 57 33 104 q4 12 4 21q1 0 2 1t2 1q1 -1 9 -11t12 -16q28 -45 45 -74l4 -6q1 -2 10 -22t15 -29l51 -86q19 -32 51 -43l18 -10q54 -26 91 -35q17 -4 25 0.5t16 20.5q5 7 12 21.5t10 19.5q8 15 8 27q0 20 -20 36q-11 11 -13 14q-21 52 -28 64q-8 16 -35 61l-18 35q-5 9 -14.5 27.5 t-14.5 27.5l-29 56q-18 36 -20 39q-26 40 -41 82q-3 6 -6.5 12.5t-8.5 14.5t-8 13q-11 14 0 25l6 12q24 55 45 111l17 35q5 13 20 43t21 47q5 13 14 37.5t14 36.5q10 25 32 72t30 67q15 37 22 61l19 43q9 32 47 142q8 32 6 47q-2 11 -9.5 19.5t-17.5 8.5q-6 0 -11 1.5 t-10.5 5t-8.5 5.5t-9 8t-8 7q-4 3 -24 23l-19 14q-37 37 -63 53q-33 17 -56 17q-4 0 -8 -1t-12 -1t-12 -1q-15 -5 -17 -10q-19 -31 -26 -51q-14 -39 -21 -70q-4 -17 -14 -54t-14 -58q-15 -69 -33 -111q-11 -23 -12 -26l-19 -68l-24 -105q-1 -2 -2 -6t-2 -6q-1 2 -5.5 10 t-5.5 11q-18 38 -39 88q-8 18 -25.5 51.5t-25.5 50.5q-35 93 -74 152q-16 24 -34 26q-6 1 -11 1q-43 0 -65 -42q-19 -34 -53 -61q-23 -20 -43 -47q-6 -11 -14.5 -33t-10.5 -25v-28z" />
<glyph unicode="y" horiz-adv-x="718" d="M0 1354q4 -19 16 -23q4 0 4 -4q5 -12 14.5 -37t14.5 -37q5 -16 16.5 -45.5t16.5 -44.5l12 -37q4 -12 13.5 -35.5t13.5 -35.5q4 -11 11.5 -40.5t14.5 -45.5q3 -9 8.5 -29t8.5 -29q37 -99 41 -110l37 -101q8 -27 28 -77q4 -13 14.5 -36t14.5 -36q18 -47 33 -96v-11 q-3 -12 4 -22q2 -2 2 -8q1 -8 4 -24.5t4 -24.5q1 -18 4 -51.5t4 -49.5q3 -21 0 -43q0 -23 2 -28q2 -2 2 -11q2 -45 2 -133q0 -24 9 -35t32 -12q16 -2 52 -2q11 0 16 3t8 13q6 48 6 50v344q0 84 11 120q2 4 4 12t2 9l18 74q3 10 9.5 29.5t9.5 29.5q12 54 12 59q0 16 14 74 q3 18 12.5 49t12.5 41q33 123 35 133q13 69 22 90q6 11 10 37q13 56 21 101q5 30 8 39q1 10 5 28t5 25q1 5 2 16.5t2 16.5l7 73q0 18 -17 21q-4 3 -20 8q-27 8 -41 10q-5 1 -13 3t-14.5 3.5t-11.5 4.5q-10 4 -41 22q-33 14 -45 14q-5 0 -17 4h-18q-18 -10 -25 -32l-6 -43 q-2 -13 -5 -36.5t-5 -35.5q-1 -7 -4 -18t-4 -15q-1 -9 -2 -27.5t-2 -27.5q0 -21 -8 -58.5t-9 -54.5q0 -13 -3.5 -37t-4.5 -32q-11 -54 -14 -62v-14v-12q-2 -14 -6.5 -42.5t-6.5 -43.5q-1 -8 -4 -23.5t-4 -23.5q-1 0 -2 1t-2 1q0 8 -2 12l-12 82q-8 27 -10 43q-9 43 -15 84 q-3 17 -10 51.5t-10 52.5q-1 5 -4 15.5t-4 15.5q-14 49 -19 84q0 11 -4 31l-18 63q-10 25 -23 49q-8 12 -18 15q-16 5 -31 5q-33 0 -61 -26l-50 -41q-31 -24 -47 -55q-14 -25 -12 -47z" />
<glyph unicode="z" horiz-adv-x="716" d="M0 231q9 -66 35 -122q15 -30 39 -74q10 -20 12 -23q12 -15 31 -12q1 0 47 6q9 1 26.5 4t26.5 4l41 6q8 2 25.5 6.5t25.5 6.5q2 1 7.5 2t7.5 2q20 5 22 6q32 14 55 12h27q56 0 90 19q4 2 14 2q40 4 60 4q11 2 24.5 14.5t14.5 24.5q2 2 0 4q-5 30 -8 39q-7 11 -17 14 q-7 7 -20 10l-119 37q-60 17 -84 29q-6 4 -18 8t-13 4l-26 12q-21 11 -47 29q-1 1 -6 3.5t-7 4.5t-2 6q0 58 4 87q0 7 5 19t6 17q1 8 16 37q6 11 23.5 41.5t25.5 48.5q8 19 27 53t22 40q5 8 22 37t25 46q36 70 54 107q38 80 96 147q15 15 82 93q30 40 30 88v98q-4 70 -4 84 q-2 38 -30 78q-2 2 -5.5 7t-5.5 7q-5 10 -8 10q-9 0 -22 9q-23 10 -45 10h-9q-55 0 -186 -21q-21 -3 -37 -10q-116 -38 -145 -49q-21 -8 -59 -23.5t-54 -21.5h-4q-21 5 -47 -10q-32 -13 -32 -47q0 -5 1 -11q0 -8 6 -14l19 -21q13 -13 33 -20q26 -4 86 -16q64 -14 114 -19 q50 -4 76 -16q20 -8 33 -8q30 -2 57 -29q10 -12 6 -31q-2 -8 -10 -20l-45 -68l-4 -8q-22 -26 -33 -41q-2 -4 -7.5 -14.5t-8.5 -14.5q-27 -39 -43 -96q-17 -59 -74 -160q-10 -18 -36 -52t-36 -54q-44 -82 -57 -113q-2 -4 -17.5 -36t-19.5 -50q-2 -7 -6.5 -20.5t-7 -24.5 t-2.5 -22q0 -5 -4 -9q-29 -37 -29 -75v-7z" />
<glyph unicode="{" horiz-adv-x="512" d="M17.5 787.5q-6.5 -22.5 5.5 -42.5q10 -14 26 -14q37 0 55 2q11 0 27 4q-4 -28 -4 -39q-2 -74 -2 -221q-1 -36 -1 -107t-1 -106q0 -95 16 -153q9 -36 19 -50q10 -18 41 -49q10 -10 34 -26l27 -13q68 -33 127 -10q2 2 8 2q24 4 66 25q27 16 24 53q-4 37 -32 43 q-51 11 -82 -8q-7 -4 -21 -8h-35q-8 0 -24 4q-7 4 -47 24q-28 13 -31 43q-4 104 -8 154v43q-1 16 -2.5 44.5t-2.5 52t-1 44.5q0 23 10 135q1 20 4 58.5t4 58.5q3 54 -35 82q1 2 4 5t4.5 5.5t2.5 5.5q9 15 12 33q5 26 8 31q4 12 2 16q-2 13 -7 37.5t-7 36.5q0 3 -2 8.5 t-2 7.5v271q0 12 2 16q21 46 26 55q6 13 14.5 27t18.5 30t16 25q21 38 60 66q3 2 9.5 7t12.5 8t13 3q14 2 32 17q17 12 9 28q-2 4 -2 13q5 22 -19 37h-8q-26 -8 -33 -13q-47 -17 -82 -33q-99 -50 -106 -137q-2 -14 -9.5 -40t-9.5 -36q-1 -5 -1 -15t-1 -15q-4 -12 -14 -64 q-12 -37 -12 -112q3 -19 0 -37q0 -66 10 -99q12 -33 16 -106q4 -14 -8 -23q-45 -38 -86 -53q-21 -9 -27.5 -31.5z" />
<glyph unicode="|" />
<glyph unicode="}" horiz-adv-x="464" d="M23 1563q3 -22 26 -19q19 0 29 -6h8q9 4 18 0q6 -2 14 -7.5t11 -6.5q20 -7 33 -37q2 -2 5 -8.5t5 -8.5q15 -12 21 -30l6 -8q9 -13 18 -48q1 -4 2 -13t2 -13l19 -78q12 -48 6 -96v-10q2 -10 2 -33q0 -38 -1 -114t-1 -114v-10q15 -53 30 -102q1 -2 13 -21q15 -15 16 -18 q1 -4 0 -8t-3 -9.5t-3 -9.5q-4 -36 -4 -59q0 -31 -0.5 -90.5t-1 -97t1.5 -89.5t6 -96l6 -141q0 -8 1 -25t1 -26q0 -7 1 -21.5t1 -21.5q0 -12 -10 -23t-22 -14q-2 0 -7 -1t-8 -1t-11.5 -1.5t-13 -1.5h-11.5t-13 2t-12 5q-5 2 -17 4t-18 4q-27 7 -33 -18l-6 -21q-5 -19 7 -34 t32 -15q12 3 22 -4q2 -2 11 -2h32q5 1 16 1t19.5 1.5t14.5 5.5q4 2 11.5 4t8.5 2q25 10 27 12q50 40 47 97q-1 23 -2 68.5t-2 68.5q0 21 -4 61l-7 133q-2 23 -2 70v217q0 8 4 23t5 20q4 11 12 8h25q38 3 38 45q0 40 -41 43q-8 0 -24.5 2t-24.5 2q-17 3 -20 19l-7 17.5 t-7.5 19.5t-5.5 17.5t-4.5 20t-0.5 19.5q0 3 -1 9.5t-1 9.5q0 1 1 4.5t1 5.5q4 24 4 35q0 7 -3 21.5t-3 17.5q0 121 -2 182q-1 26 -4 75.5t-4 73.5q0 3 -1 8.5t-1 8.5q-14 70 -51 143q-17 44 -56 49q-16 3 -28 8q-39 13 -70 11q-4 0 -9 1t-11 2.5t-9 2.5h-12q-24 -8 -26 -21 q-3 -16 0 -28z" />
<glyph unicode="~" />
<glyph unicode="&#xa1;" horiz-adv-x="370" d="M39 -221q-5 -45 2 -109q6 -36 43 -49q13 -5 45 -14h23h6q6 1 18.5 4t18.5 4q8 0 20 4q52 6 53 6q17 2 31 16t14 31q6 47 6 90q0 4 -6 64q-1 16 -1 44t-1 51t-4 44q-7 84 4 152q7 34 -2 63q-2 6 -2 19q0 36 -1 106.5t-1 106.5v49q3 9 0.5 56t-2.5 56q0 5 -2 7 q-5 16 -6.5 47t-5.5 45q-3 9 -8 88q-1 18 -1 53t-1 53q0 12 -7 23q-18 37 -26 49q-24 34 -64 43q-13 4 -24.5 -3t-16.5 -22q-2 -8 -2 -28q0 -35 -2 -51q-8 -43 0 -125q0 -13 -4 -21q-18 -36 -18 -55q0 -33 -19 -88l-12 -56q-1 -13 -3 -36.5t-3 -36.5q-1 -14 -2.5 -39 t-2.5 -45t-1 -37l2 -49q1 -49 -2 -49q-1 -27 -15 -115q-1 -9 -4.5 -37t-3.5 -43q-1 -25 -1 -75t-1 -76q0 -63 -8 -115zM72 1198q-7 -12 1.5 -33t22.5 -35q23 -23 27 -28q29 -26 70 -10q8 4 14 4l55 24q15 10 23 41l6 72q-10 35 -51 39q-36 4 -58 4q-27 0 -41 -4 q-21 -3 -30.5 -9.5t-12.5 -25.5q0 -5 -5 -12.5t-12 -15.5t-9 -11z" />
<glyph unicode="&#xa2;" />
<glyph unicode="&#xa3;" />
<glyph unicode="&#xa4;" />
<glyph unicode="&#xa5;" />
<glyph unicode="&#xa6;" />
<glyph unicode="&#xa7;" />
<glyph unicode="&#xa8;" />
<glyph unicode="&#xa9;" />
<glyph unicode="&#xab;" horiz-adv-x="423" d="M43 536.5q3 -12.5 16 -18.5q6 -2 23 -10q30 -18 35 -23t16 -14.5t19.5 -17.5t13.5 -17q8 -9 17 -8t14 12q4 6 4 23q1 4 1.5 18t2.5 21q3 12 -2.5 22t-16.5 15q-16 8 -34 20q10 4 22 12q42 29 35 70q-4 18 -16 21q-5 0 -9 8q-7 14 -20 4q-18 -12 -21 -15q-6 -6 -26.5 -25 t-30.5 -30q-19 -16 -37 -45q-9 -10 -6 -22.5zM238 520q12 -14 41 -43q33 -29 53 -39q15 -6 25 0t12 21q3 27 -23 49q-5 5 -16.5 14.5t-16.5 14.5l29 22q10 8 31 29q12 12 8 33q-3 14 -14.5 18t-20.5 -6q-2 0 -4 -2q0 4 -2 6q-7 18 -23 8l-6 -6q-24 -20 -35 -31 q-12 -10 -32 -30q-34 -27 -6 -58z" />
<glyph unicode="&#xac;" />
<glyph unicode="&#xad;" horiz-adv-x="305" d="M23 596q1 -6 2 -18.5t2 -18.5q3 -17 10 -23t24 -8q1 0 70 -6h80q6 0 31 10q4 1 24 11q14 6 17 18q0 23 -2 35q-3 21 -27 18q-25 0 -104 9l-15 6h-20q-34 -17 -62 -17q-8 0 -20 -4q-10 -3 -10 -12z" />
<glyph unicode="&#xae;" horiz-adv-x="1138" d="M18 1198q-2 -22 0.5 -46t7 -53t5.5 -46l2 -15q1 -39 4 -114t4 -111q1 -39 1 -116t1 -115q0 -4 6 -52q1 -12 2 -36t2 -37q1 -16 4 -45t4 -45v-70q0 -80 15 -139q26 -104 145 -158q10 -4 49 -14l95 -19q139 -31 278 -28q28 0 81.5 -3.5t63.5 -3.5q92 -3 142 33q4 0 8 4 q71 33 96 109q2 5 14 39.5t17 54.5q4 12 4 39q1 7 1.5 28.5t2.5 32.5t23 72q4 17 8 55q1 17 0 50.5t0 50.5q1 16 5 46t5 46q1 22 1 65.5t1 65.5q0 7 1 22t1 23q2 10 2 35q-4 250 -8 379q-4 101 -18 141q-20 58 -97 104q-18 11 -45 11q-37 0 -84 14q-43 10 -75 8q-1 0 -142 6 q0 2 -4 2h-74q-14 -1 -42.5 -4t-43.5 -4q-24 -1 -71.5 -2t-71.5 -2q-100 -3 -168 -53q-42 -32 -125 -119q-29 -29 -33 -86zM244 1137q0 14 8 20q2 1 8 21q0 21 27 41q33 25 53 28q36 8 55 8q31 2 402 2q29 0 45 -2q19 -1 33 -11.5t14 -22.5v-37q-2 -68 2.5 -169t15.5 -151 q15 -75 17 -86q2 -33 2 -98v-78q-3 -40 -9 -116t-8 -107q-1 -19 -4 -107.5t-4 -107.5q0 -28 -41 -43q-16 -5 -48.5 -17.5t-49.5 -17.5q-22 -7 -197.5 -5.5t-195.5 9.5q-75 31 -78 94q-2 26 -3.5 126t-2.5 114q-4 112 -11 154q-7 50 -11 126t-6 182.5t-3 127.5q0 20 -10 123z M436 512q0 -7 1 -20.5t1 -20.5q2 -14 2 -43q0 -8 2 -10q0 -4 4 -8q5 -2 5 -9q1 -10 -9 -67q-6 -21 0 -39l9 -33q4 -12 8 -16q19 -23 41 -25l8 -4h6q3 2 9 5t9 5q9 5 13 19q7 20 4 51q-4 38 0 59q2 8 2 27q1 2 1 6.5t1 7.5q2 11 2.5 34t1.5 30q0 26 4 84q1 -2 4 -5t4 -5 l13 -23q2 -3 6 -10t6 -10q0 -3 4 -7q8 -3 8 -14q2 -15 12.5 -40t12.5 -32q11 -23 14 -41l6 -22q9 -18 13 -49q0 -19 14 -37q6 -6 8 -10q10 -18 33 -15q10 3 37 21l12 10l8 8v15q-8 28 -10 40q-4 16 -4 25q-7 48 -19 78q-5 11 -16 32t-16 33q-1 2 -6 27q-4 18 -9 29 q-4 12 -4 18l-4 4q-7 10 0 17q6 6 31 26l26 25q10 10 17 24q2 4 2 13v125q0 4 4 20v8q3 40 0 82q0 6 -1 19.5t-1 19.5v10q0 36 -2 54q0 10 -8 26q-3 7 -11 17t-10 14q-2 2 -6 2q-12 0 -16 6q-4 4 -8 4q-3 1 -9.5 2t-9.5 2h-47q-4 -2 -12 -2l-68 -12q-13 -3 -29 -12 q-35 -16 -53 -29q-5 -3 -10.5 -7t-11.5 -9.5t-9 -8.5q-2 -2 -2 -6q-2 -10 -2 -30v-4q0 -3 1 -9.5t1 -9.5t-3 -17.5t-3 -21.5q-3 -19 0 -41v-49q1 -16 2 -48t2 -48q3 -42 -4 -96q-2 -4 -2 -15v-94zM545 676v18h2q0 109 2 164q0 10 2 16q0 4 1 13.5t1 13.5q0 12 10 19l15 12 l12 6l35 10q3 2 10 5t10 5q7 5 14 2t7 -12q3 -24 -4 -51v-20q-5 -45 -5 -54q-1 -15 -2 -45t-2 -45v-24q2 -4 2 -15q2 -4 2 -10q0 -2 -1 -6.5t-1 -7.5q0 -5 -5 -9t-11 -4q-2 0 -14 -4q-15 -7 -25 -10q-6 -5 -25 -14q-7 -5 -16 -2q-9 0 -12 10q0 27 -2 39z" />
<glyph unicode="&#xaf;" />
<glyph unicode="&#xb0;" />
<glyph unicode="&#xb1;" />
<glyph unicode="&#xb4;" />
<glyph unicode="&#xb6;" />
<glyph unicode="&#xb7;" horiz-adv-x="241" d="M31 705q0 -22 6 -43q8 -36 47 -39q17 0 35 -11q30 -20 53 9q3 4 25 32q23 29 6 74q-1 2 -2 7t-2 7q-4 8 -12.5 28t-14.5 30q-9 15 -39 24h-67q-31 -12 -35 -57v-61z" />
<glyph unicode="&#xb8;" />
<glyph unicode="&#xbb;" horiz-adv-x="317" d="M29 602q1 -1 4.5 -9.5t7.5 -10.5q15 -12 29 -17q4 -2 14 -5t14 -5l-35 -29q-2 -1 -6 -4t-6 -4q-18 -6 -18 -26q1 -3 2 -10.5t2 -10.5q1 -7 7.5 -10t12.5 2q2 2 27 22q5 4 27.5 23.5t35.5 28.5q11 11 9 18q0 14 -4 20q-4 7 -15 11q-6 4 -22 8l-52 24q-15 8 -21.5 5.5 t-12.5 -17.5v-4zM137 639q-9 -25 6 -43l58 -55l-4 -4l-43 -35q-23 -20 -9 -45q5 -11 14.5 -13t18.5 5q61 43 96 73q14 9 14 27.5t-14 28.5q-35 25 -45 30q-5 3 -15 8.5t-15.5 9t-13 9.5t-13.5 12q-8 9 -19 6t-16 -14z" />
<glyph unicode="&#xbf;" horiz-adv-x="753" d="M37 504q0 -101 2 -150q0 -38 6 -75q1 -12 5 -35.5t5 -36.5q2 -25 2 -76v-20q7 -41 35 -91q15 -22 33 -30q32 -19 72 -29q14 -3 38.5 -12t36.5 -12q40 -9 74 -15q4 -1 12 -2t11 -2h18q2 2 6 2q5 1 15.5 2t15.5 2q57 15 106 45q19 8 29 15q23 16 64 57q25 25 41 57 q28 49 34 80q11 49 11 53q3 43 0 84q0 10 -9 37q-2 4 -24 49l2 2q10 9 9 20t-13 17q-20 4 -33 4q-53 -8 -76 -14q-27 -10 -51 -10h-25q-18 0 -24 -19q-4 -17 0 -26q6 -20 6 -64q0 -12 -6 -18q-31 -34 -59 -39q-30 -3 -60 0q-7 0 -10 6q0 1 -3 14.5t-3 20.5q-2 36 6 102 q2 12 5 38t5 38q2 19 23 62q0 2 2 4q8 12 28 36q43 49 68 64q31 22 37 59q4 20 4 29q0 7 1 20.5t1 20.5v66v22q-1 6 -3 18.5t-3 18.5q-4 34 -10 43q-2 2 -2 6q0 6 -5 31q-6 60 -6 63v80q-3 34 -32 37q-59 4 -80 -2q-23 -6 -66 -6q-23 0 -33 -19q-5 -7 -8 -20q0 -1 -3 -17 t-3 -24q-1 -16 -2 -46t-2 -46v-137q0 -33 14 -52q-12 -12 -55 -36q-44 -20 -94 -78q-40 -47 -60 -88q-20 -36 -20 -78zM250 1313q-7 -53 18 -84q1 -1 8 -15q9 -15 27 -18q12 -4 39 -4h12q25 0 45 14l15 6q21 7 24 23q3 9 8 39q0 1 1.5 3t1.5 3q8 8 10 14q4 20 2 31 q0 17 -4 45q-6 25 -31 25t-43 -6q-41 -12 -119 -52q-14 -11 -14 -24z" />
<glyph unicode="&#xd7;" />
<glyph unicode="&#xf7;" />
<glyph unicode="&#x2c6;" />
<glyph unicode="&#x2dc;" />
<glyph unicode="&#x2000;" horiz-adv-x="901" />
<glyph unicode="&#x2001;" horiz-adv-x="1802" />
<glyph unicode="&#x2002;" horiz-adv-x="901" />
<glyph unicode="&#x2003;" horiz-adv-x="1802" />
<glyph unicode="&#x2004;" horiz-adv-x="600" />
<glyph unicode="&#x2005;" horiz-adv-x="450" />
<glyph unicode="&#x2006;" horiz-adv-x="300" />
<glyph unicode="&#x2007;" horiz-adv-x="300" />
<glyph unicode="&#x2008;" horiz-adv-x="225" />
<glyph unicode="&#x2009;" horiz-adv-x="360" />
<glyph unicode="&#x200a;" horiz-adv-x="100" />
<glyph unicode="&#x2010;" horiz-adv-x="305" d="M23 596q1 -6 2 -18.5t2 -18.5q3 -17 10 -23t24 -8q1 0 70 -6h80q6 0 31 10q4 1 24 11q14 6 17 18q0 23 -2 35q-3 21 -27 18q-25 0 -104 9l-15 6h-20q-34 -17 -62 -17q-8 0 -20 -4q-10 -3 -10 -12z" />
<glyph unicode="&#x2011;" horiz-adv-x="305" d="M23 596q1 -6 2 -18.5t2 -18.5q3 -17 10 -23t24 -8q1 0 70 -6h80q6 0 31 10q4 1 24 11q14 6 17 18q0 23 -2 35q-3 21 -27 18q-25 0 -104 9l-15 6h-20q-34 -17 -62 -17q-8 0 -20 -4q-10 -3 -10 -12z" />
<glyph unicode="&#x2012;" horiz-adv-x="305" d="M23 596q1 -6 2 -18.5t2 -18.5q3 -17 10 -23t24 -8q1 0 70 -6h80q6 0 31 10q4 1 24 11q14 6 17 18q0 23 -2 35q-3 21 -27 18q-25 0 -104 9l-15 6h-20q-34 -17 -62 -17q-8 0 -20 -4q-10 -3 -10 -12z" />
<glyph unicode="&#x2013;" d="M391 567q-4 -17 8 -20q6 -2 17.5 -9.5t17.5 -9.5q2 -2 6 -2q36 -4 54 -4q1 -2 38.5 -1t38.5 1h45q93 0 136 8q10 2 39.5 8t44.5 9q29 3 26 37q-3 24 -31 24l-122 -6q-56 0 -166 -4q-15 0 -44 -2t-44 -2q-19 0 -47 -8q-14 -3 -17 -19z" />
<glyph unicode="&#x2014;" horiz-adv-x="692" d="M25 559q-3 -13 4.5 -23.5t23.5 -9.5q14 1 29.5 1t35 -0.5t29.5 -0.5l12 -4t15 -4q20 -8 31 -8q20 -2 57 6q36 4 55 4q34 -3 72 4q6 1 13 1t14.5 -0.5t11.5 -0.5q58 4 186 8q7 0 27 5q21 3 21 26q0 27 -29 33q-10 4 -33 4q-23 2 -63 14h-197q-13 0 -21 -2l-67 -12 q-6 -1 -18.5 -2t-18.5 -2q-10 -1 -30.5 -4t-30.5 -4q-9 -1 -28 -2t-28 -2q-29 -4 -51 2q-12 4 -14 -8l-4.5 -9t-3.5 -10z" />
<glyph unicode="&#x2018;" horiz-adv-x="217" d="M25 1423q1 -4 2.5 -23.5t3.5 -29.5q6 -30 18.5 -41t42.5 -14q42 -3 68 35q6 8 14.5 24.5t9.5 18.5q13 26 4 51q-10 26 -32 26h-33q-8 -2 -10.5 1t-1.5 12q4 20 8 28q17 42 -4 68q-6 8 -15.5 10t-17.5 -4q-46 -30 -51 -74q-1 -8 -6 -88z" />
<glyph unicode="&#x2019;" horiz-adv-x="217" d="M29 1499q10 -24 32 -24q15 -3 33 0q9 0 11 -2t1 -11q-4 -20 -8 -30q-17 -40 4 -66q6 -9 15.5 -11.5t17.5 3.5q46 30 51 74q3 22 7 88q0 2 -2.5 22.5t-4.5 32.5q-6 29 -19 40t-42 13q-42 3 -68 -35q-2 -2 -24 -41q-12 -28 -4 -53z" />
<glyph unicode="&#x201a;" d="M18 55q-3 -23 9.5 -38t35.5 -17h35q8 2 11 -0.5t2 -9.5q-3 -20 -11 -33q-15 -31 -2 -61q8 -14 20.5 -19t24.5 2q55 32 60 80q0 3 6 84h-2v27q0 4 -1 13t-1 13q-3 27 -14 41t-35 21q-40 12 -76 -8q-32 -21 -60 -82q-2 -4 -2 -13z" />
<glyph unicode="&#x201c;" horiz-adv-x="432" d="M25 1407q1 -4 2.5 -23.5t3.5 -31.5q4 -29 17.5 -40.5t43.5 -13.5q42 -3 68 35l24 43q13 26 4 51q-10 27 -32 27h-33q-9 -1 -11.5 0.5t-0.5 9.5q0 11 8 31q17 38 -4 68q-6 8 -15.5 10t-17.5 -4q-46 -30 -51 -74q-1 -8 -6 -88zM227 1427q0 -10 4 -26q2 -25 12 -39t33 -21 q38 -12 72 9q37 25 58 80q2 4 2 10q3 23 -8.5 37.5t-34.5 15.5h-33q-8 -2 -11 0.5t-2 9.5q3 17 9 31q18 32 4 57q-8 14 -20 19t-23 -2q-50 -27 -58 -76q-4 -54 -4 -80v-25z" />
<glyph unicode="&#x201d;" horiz-adv-x="456" d="M35 1470q-3 -23 9 -38t34 -15q4 -1 10 -1t13 0.5t10 0.5q6 0 8.5 -0.5t3.5 -3t0 -8.5q-7 -26 -8 -29q-15 -31 -4 -59q8 -12 20 -17.5t23 0.5q52 32 57 78l6 78h-2v27q0 10 -4 26q-2 25 -12 39t-33 21q-40 10 -72 -10q-30 -19 -57 -78q-2 -4 -2 -11zM254 1481 q11 -25 33 -25h32q9 2 11.5 -0.5t1.5 -11.5q0 -13 -8 -29q-17 -41 4 -67q16 -20 32 -7q47 31 52 74q1 8 6 88q-1 4 -2.5 23.5t-3.5 29.5q-4 30 -18 41.5t-44 14.5q-41 3 -67 -37q-11 -16 -25 -41q-13 -26 -4 -53z" />
<glyph unicode="&#x201e;" d="M18 55q0 9 2 13q28 61 60 82q36 20 76 8q24 -7 35 -21t14 -41q0 -4 1 -13t1 -13v-27h2q-6 -81 -6 -84q-5 -48 -60 -80q-12 -7 -24.5 -2t-20.5 19q-13 30 2 61q8 13 11 33q1 7 -2 9.5t-11 0.5h-35q-23 2 -35.5 17t-9.5 38z" />
<glyph unicode="&#x2022;" horiz-adv-x="348" d="M20 475q1 -1 2.5 -4t2.5 -4q9 -35 43 -43q82 -16 186 -6q28 3 48 23.5t26 50.5q6 46 -19 88q-5 7 -24 45q-8 18 -23 41q-11 19 -37 22q-48 7 -116 -10q-17 -3 -29 -27q-7 -18 -22.5 -51.5t-22.5 -50.5q-3 -8 -7.5 -24.5t-7.5 -24.5v-25z" />
<glyph unicode="&#x2026;" horiz-adv-x="1474" d="M43 35q-7 -22 12 -53q8 -9 18 -19t22 -21.5t18 -17.5q36 -16 77 19l54 51q19 22 32 43q22 37 -8 74q-17 17 -20 39q-9 42 -53 36l-50 -6q-47 -6 -67 -57q-1 -3 -4 -8.5t-4 -8.5q-25 -62 -27 -71zM659 0q1 -21 17.5 -36.5t40.5 -20.5q34 -5 69 16q5 3 35 18q25 12 33 19 q14 7 18 29q5 41 -8 92q-2 11 -20 22q-10 4 -38.5 16.5t-43.5 18.5q-7 4 -21.5 7.5t-17.5 4.5h-18q-1 -1 -4.5 -2t-4.5 -2q-26 -7 -32 -32q-14 -70 -5 -150zM1147 100q-11 -18 0.5 -44.5t30.5 -45.5q6 -5 36 -35q34 -37 89 -14l18 6q54 22 72 31q19 11 30 53l7 92 q-12 45 -66 52q-50 4 -74 4q-16 2 -53 -2q-20 -5 -28.5 -8.5t-16.5 -13.5t-10 -28q-1 -10 -17.5 -28t-17.5 -19z" />
<glyph unicode="&#x202f;" horiz-adv-x="360" />
<glyph unicode="&#x2039;" horiz-adv-x="204" d="M26 574.5q-2 -15.5 11 -29.5q12 -14 41 -43q37 -33 53 -39q15 -6 25.5 -0.5t11.5 20.5q0 26 -23 49q-4 4 -34 29q25 20 28 23q15 10 33 28q11 14 8 33q-3 14 -14.5 18t-22.5 -6l-2 -2q0 1 -1 3.5t-1 3.5q-6 14 -22 8l-6 -6q-6 -5 -18.5 -15.5t-18.5 -15.5l-31 -31 q-15 -12 -17 -27.5z" />
<glyph unicode="&#x203a;" horiz-adv-x="204" d="M29 631q-9 -25 6 -43l57 -56l-4 -4q-7 -6 -21.5 -17t-21.5 -17q-23 -19 -8 -45q5 -11 14.5 -13.5t18.5 4.5q70 53 96 74q14 10 14 27t-14 28q-40 28 -45 31t-15 8.5t-16 9t-13.5 9.5t-13.5 12q-8 9 -18.5 6t-15.5 -14z" />
<glyph unicode="&#x205f;" horiz-adv-x="450" />
<glyph unicode="&#x20ac;" />
<glyph unicode="&#x2122;" horiz-adv-x="2000" d="M2 1348q3 -18 14.5 -31.5t24.5 -13.5q37 -3 74 0q20 1 58.5 5t57.5 5q39 2 121 2q0 -4 1 -13.5t1 -13.5q5 -134 8 -160q9 -86 -6 -172q-5 -33 4 -71q2 -8 2 -21q0 -44 1.5 -131t1.5 -131v-37q-5 -9 -1.5 -63.5t3.5 -63.5q0 -6 2 -8q7 -18 9 -53.5t5 -50.5q5 -21 10 -101 q0 -80 2 -121q0 -14 6 -26q18 -33 33 -55q24 -38 70 -50q15 -5 29 3.5t18 25.5q4 22 2 33q0 39 4 59q9 54 -2 142q0 14 4 22q23 41 23 64q0 34 20 100q9 31 12 59q9 76 15 146v110v82q2 14 11 87t13 112q4 35 4 104q0 86 2 129q0 13 5 70q1 0 3 1t3 1q102 0 153 -2 q43 0 66 -14q3 -2 18 -7l43 -6q14 -3 21 11q4 12 4 18q4 100 -10 158q-10 43 -52 43q-12 -2 -41 2q-78 12 -84 12h-243q-25 0 -37 -4q-15 -5 -30 -8t-39.5 -5t-30.5 -3l-113 -15q-28 -8 -45 -8q-22 -1 -46.5 -1t-55 0.5t-46.5 0.5q-12 0 -24 -6q-25 -9 -47 -25 q-29 -16 -29 -47q-4 -47 0 -69zM1024 1384q2 -20 7 -58t7 -58l6 -107q1 -12 2.5 -37.5t2.5 -38.5q2 -15 8 -45.5t8 -46.5l6 -35q5 -31 29 -71q8 -12 8 -27q2 -37 -16 -94q-10 -41 -2 -74q3 -15 7 -46t7 -46q1 -6 7 -25.5t7 -29.5q7 -102 -6 -164q-11 -43 -8 -94 q3 -35 20 -82q12 -37 15 -76q6 -52 35 -94q30 -43 69 -45q6 -1 18.5 -6.5t16.5 -6.5q19 -7 31 13q22 34 18 98q-2 29 -2 84q0 61 2 92q6 77 -6 154q-12 63 4 131q6 27 14 74q3 13 9 26q1 6 9.5 18t10.5 17q8 -29 10 -39q8 -57 6 -84q-3 -62 33 -96q17 -15 29 -66 q8 -34 16 -49q2 -5 21 -24l30 -31q15 -17 34.5 -13.5t27.5 21.5q13 27 16 51q2 14 4 42t4 42q2 12 15 29q11 16 24 65q11 46 23 70q5 11 28 47t29 56q0 2 2 4v2q14 -49 11 -86q-1 -19 -4.5 -58.5t-4.5 -60.5q0 -17 2 -25q13 -48 17 -131q1 -16 1 -47.5t1 -46.5q2 -25 14 -70 q14 -45 43 -116q19 -48 51 -86q10 -10 37 -12.5t39 5.5q7 5 12 19q2 11 9.5 49t9.5 59q1 14 -4 78q-8 119 -10 174q-1 17 8 84q4 74 2 111q-2 35 -2 106q0 53 2 82q0 34 14 78q2 8 -5.5 26t-6.5 27q3 15 0 43.5t0 42.5l18 127q0 9 2 15q1 10 2 31.5t2 31.5q-4 16 -4 23 q0 46 -2 71q0 22 -4 62q-2 20 -2 59q0 57 -14 84q-7 18 -15 31q-9 16 -28 22q-48 14 -64 13q-3 0 -11.5 4.5t-10.5 5.5q-5 2 -21 11t-24 12q-5 0 -15.5 1t-15.5 1l-35 -13q-20 -12 -26 -32q-3 -3 -7 -11q-6 -6 -8 -10q-9 -35 -20 -88q-3 -14 -8.5 -42.5t-8.5 -43.5 q-14 -88 -26 -145q-10 -73 -15 -91q-7 -20 -20 -88q-12 -73 -21 -147q-6 -58 -28 -117l-4 -8q-18 29 -23 51q-30 113 -35 135q-4 16 -10 49t-10 50q-3 14 -11.5 38.5t-11.5 38.5l-6 21q-4 17 -22 84q0 1 -17 65l-18 58q0 2 -1 7t-1 7q-7 87 -64 131q-7 7 -22.5 20.5 t-22.5 20.5q-24 28 -76 35q-45 7 -104 -27q-14 -10 -27 -39q-9 -18 -12 -40q-1 -7 -2 -22.5t-2 -23.5z" />
<glyph unicode="&#x25fc;" horiz-adv-x="1638" d="M0 0v1638h1638v-1638h-1638z" />
</font>
</defs>
</svg>
