<?xml version="1.0" standalone="no"?>
<!DOCTYPE svg PUBLIC "-//W3C//DTD SVG 1.1//EN" "http://www.w3.org/Graphics/SVG/1.1/DTD/svg11.dtd" >
<svg xmlns="http://www.w3.org/2000/svg">
<metadata></metadata>
<defs>
<font id="divonaregular" horiz-adv-x="733" >
<font-face units-per-em="2048" ascent="1638" descent="-410" />
<missing-glyph horiz-adv-x="500" />
<glyph horiz-adv-x="2048" />
<glyph horiz-adv-x="2048" />
<glyph unicode="&#xd;" />
<glyph unicode=" " />
<glyph unicode="!" horiz-adv-x="864" d="M299 119q0 59 33 106q39 55 96 56q57 0 94 -51.5t37 -110.5q0 -61 -38 -110.5t-95 -49.5q-55 0 -94 53q-33 47 -33 107zM332 1470q0 209 100 209q111 0 111 -186q0 -207 -31 -500q-27 -250 -53 -499h-64q-63 760 -63 976z" />
<glyph unicode="&#x22;" horiz-adv-x="1024" d="M268 1550q0 129 72 129t72 -131q0 -121 -21 -329q-27 -260 -61 -283q-31 23 -49 285q-12 186 -13 329zM600 1554q0 125 68 125q77 0 77 -131q0 -113 -24 -331q-29 -262 -59 -281q-35 25 -52 287q-10 172 -10 331z" />
<glyph unicode="#" horiz-adv-x="1394" d="M121 541v131h270l47 340h-256v131h273l73 499h129l-69 -499h315l72 499h127l-68 -499h228v-131h-248l-45 -340h233v-131h-254l-74 -541h-126l71 541h-321l-78 -541h-127l80 541h-252zM518 672h324l43 340h-316z" />
<glyph unicode="$" horiz-adv-x="1394" d="M188 319q0 74 49.5 133.5t118.5 59.5q27 0 27 -20q0 -23 -15.5 -70t-15.5 -72q0 -109 78 -205q80 -102 184 -102q14 0 48 4v703q-205 88 -291 176q-121 119 -121 309q0 178 119 297q113 115 293 135v152h75v-152q373 0 373 -237q0 -66 -35 -113q-37 -53 -100 -53 q-25 0 -25 22q0 20 10.5 60t10.5 61q0 82 -78 137q-70 49 -156 49v-647q209 -94 310 -186q145 -136 145 -318q0 -197 -128 -321.5t-327 -143.5v-210h-75v208q-193 0 -320 76q-154 90 -154 268zM434 1309q1 -220 228 -326v608q-109 -14 -168.5 -92t-59.5 -190zM737 51 q269 62 269 324q0 229 -269 342v-666z" />
<glyph unicode="%" horiz-adv-x="2457" d="M336 1280q0 172 110.5 285.5t282.5 113.5q162 0 266 -116q99 -113 99 -279q0 -170 -105.5 -284.5t-275.5 -114.5q-180 0 -278.5 107.5t-98.5 287.5zM512 1233q0 -111 45 -189q53 -96 156 -96q202 0 202 336q0 123 -38 213q-51 119 -158 119q-207 0 -207 -383zM670 -45 l936 1735h112l-938 -1735h-110zM1339 360q0 172 110 286t282 114q164 0 265 -114.5t101 -280.5q0 -170 -106.5 -285t-276.5 -115q-178 0 -278 111q-96 104 -97 284zM1518 322q0 -115 41 -195q53 -100 155 -100q207 0 207 344q0 123 -39 209q-53 117 -160 116 q-205 0 -204 -374z" />
<glyph unicode="&#x26;" horiz-adv-x="1880" d="M127 399q0 186 121 320q96 104 289 192q-156 143 -156 353q0 170 101.5 274t271.5 104q117 0 198.5 -90t81.5 -209q0 -227 -282 -376q178 -211 245 -283q141 -150 283 -244q45 90 88 178q57 127 57 181q0 164 -69 260q-80 111 -238 96l-2 37q176 49 209 49q74 0 131 -154 q47 -129 47 -223q0 -195 -180 -481q18 -31 46 -52.5t56 -43.5q70 -70 142 -140q100 -86 168 -81v-66h-326q-53 102 -72 131q-33 47 -98 107q-143 -143 -242 -199q-131 -74 -299 -74q-238 0 -389 96q-182 113 -182 338zM326 487q0 -182 125 -288q117 -100 303 -101 q152 0 239 39q74 31 201 142l-623 585q-246 -133 -245 -377zM518 1343q0 -170 195 -342q198 133 198 340q0 100 -37 164q-45 80 -137 80q-219 0 -219 -242z" />
<glyph unicode="'" d="M291 1550q0 129 69 129q74 0 74 -131q0 -117 -20 -329q-27 -260 -60 -283q-33 23 -51 285q-12 182 -12 329z" />
<glyph unicode="(" d="M215 549q0 721 229 1296l66 -8q-158 -465 -158 -1028q0 -655 146 -1169l-129 -142q-154 510 -154 1051z" />
<glyph unicode=")" d="M217 -496q154 449 154 1031q0 662 -142 1165l129 143q152 -508 152 -1055q0 -715 -231 -1292z" />
<glyph unicode="*" horiz-adv-x="1394" d="M330 1368l6 21h280l64 253h27l61 -256l268 3l15 -27l-228 -129l80 -258l-20 -19l-199 183l-203 -178l-26 14l100 252z" />
<glyph unicode="+" horiz-adv-x="1394" d="M186 618v121h447v461h117v-461h444v-121h-444v-460h-117v460h-447z" />
<glyph unicode="," d="M174 -467q102 231 135 330q61 195 51 348l164 45l23 -6q4 -22 4 -49q0 -135 -105 -346q-90 -162 -180 -326z" />
<glyph unicode="-" horiz-adv-x="864" d="M109 584v166l639 -2v-164h-639z" />
<glyph unicode="." d="M233 121q0 59 37 112.5t95 53.5q57 0 93 -53.5t36 -112.5q0 -61 -35 -109q-37 -55 -97 -55q-57 0 -96 55q-33 49 -33 109z" />
<glyph unicode="/" horiz-adv-x="997" d="M117 -502l641 2349h112l-637 -2349h-116z" />
<glyph unicode="0" horiz-adv-x="1394" d="M141 760q0 397 88 606q131 313 469 313q326 0 451 -256q90 -180 90 -542q0 -399 -90 -609q-133 -307 -479 -307q-317 0 -443 256q-86 180 -86 539zM338 860q0 -338 39 -500q78 -315 309 -315q229 0 309 309q45 170 45 494q0 303 -47 465q-80 283 -303 282 q-223 0 -305 -276q-47 -164 -47 -459z" />
<glyph unicode="1" horiz-adv-x="763" d="M152 0v66l133 38v1358q-20 16 -41 35q-10 10 -74 10v64q94 8 139 33q57 37 113 75l49 -18v-1557l133 -38v-66h-452z" />
<glyph unicode="2" horiz-adv-x="1394" d="M135 0l15 86q287 160 475 436q205 295 204 604q0 158 -63 269q-78 135 -225 135q-276 0 -277 -303q0 -63 15 -160l-62 -20q-31 94 -31 186q0 190 122 318t313 128q209 0 315 -141q96 -125 96 -342q0 -295 -213 -584q-96 -129 -434 -465h702q14 33 54 74q35 35 51 88 l53 -8l-74 -301h-1036z" />
<glyph unicode="3" horiz-adv-x="1359" d="M133 319q43 94 178 220l35 -35q-61 -80 -61 -166q0 -133 121 -225q113 -86 251 -86q147 0 253 110.5t106 259.5q0 176 -95.5 279.5t-271.5 103.5q-98 0 -188 -41l-12 15l8 102q197 0 323 98q137 109 138 301q0 295 -283 295q-252 0 -254 -311l-59 6q0 203 116.5 318.5 t319.5 115.5q164 0 261 -99t97 -263q0 -137 -92 -256q-86 -111 -219 -166q217 -47 299 -117q110 -90 110 -291q0 -229 -176 -378q-166 -143 -399 -144q-201 0 -321.5 83t-184.5 271z" />
<glyph unicode="4" horiz-adv-x="1394" d="M123 518q338 565 760 1145l98 -6v-1108h276v-137h-276v-412h-188v412h-631zM238 549h555v868q-143 -213 -285 -428q-162 -250 -270 -440z" />
<glyph unicode="5" horiz-adv-x="1273" d="M139 205q0 45 34 109.5t71 64.5q8 0 30 -12q-12 -33 -12 -68q0 -125 94 -203q88 -72 217 -71q164 0 267 118q96 111 96 279q0 193 -112.5 322.5t-303.5 129.5q-158 0 -272 -67l-37 18q82 375 90 408q49 231 76 409h667l-6 -147h-583q-47 -125 -136 -532q131 57 316 57 q217 0 351 -134t134 -351q0 -262 -170 -416t-434 -154q-121 0 -237 62q-139 70 -140 178z" />
<glyph unicode="6" horiz-adv-x="1345" d="M139 567q0 418 281 762q297 369 704 369v-53q-365 -141 -575.5 -443.5t-210.5 -691.5q0 -170 90 -317q102 -172 260 -173q147 0 236 130q78 113 77 268q0 184 -81 305q-94 141 -273 141q-61 0 -141 -45l-21 39q84 74 127 98q70 39 156 39q201 0 317 -143 q107 -131 107 -338q0 -248 -155.5 -398.5t-405.5 -150.5q-227 0 -367 193q-125 172 -125 409z" />
<glyph unicode="7" horiz-adv-x="1318" d="M137 1462q27 84 76 252h41l25 -53q129 -16 286 -21q111 -4 287 -2q248 4 287 4l18 -51q-252 -373 -463 -809q-250 -516 -309 -868l-76 31q57 569 598 1521q-92 0 -372 -4q-236 -2 -398 0z" />
<glyph unicode="8" horiz-adv-x="1290" d="M156 381q0 293 323 436q-268 133 -268 412q0 190 127 320t317 130q180 0 293 -100t113 -279q0 -281 -313 -413q182 -94 262 -176q114 -121 114 -287q0 -219 -147 -342q-137 -117 -361 -117q-209 0 -329 103q-131 109 -131 313zM311 381q0 -160 89 -257t247 -97 q147 0 229 87t82 234q0 139 -149 262q-47 37 -270 170q-227 -125 -228 -399zM360 1305q0 -137 109 -240q63 -59 229 -152q102 53 161 159.5t59 227.5q0 139 -68 224q-74 92 -209 92q-127 0 -204 -90t-77 -221z" />
<glyph unicode="9" horiz-adv-x="1366" d="M139 -27q356 131 604 418q268 315 269 672q0 201 -72 354q-94 199 -270 199q-162 0 -250 -135q-76 -117 -76 -287q0 -188 90 -317q104 -147 285 -148q66 0 127 21l8 -50l-154 -82q-84 -12 -110 -12q-201 0 -314 144q-106 133 -106 337q0 238 135 408q147 184 379 184 q250 0 391 -159q135 -154 135 -406q0 -444 -313 -780q-293 -313 -743 -414z" />
<glyph unicode=":" d="M233 119q0 59 37 110.5t95 51.5q57 0 93 -51.5t36 -110.5q0 -61 -36 -110.5t-96 -49.5q-57 0 -93 50t-36 110zM233 1024q0 59 37 110.5t95 51.5q57 0 93 -51.5t36 -110.5t-36 -110.5t-96 -51.5q-57 0 -93 51.5t-36 110.5z" />
<glyph unicode=";" d="M102 -467q96 213 121 291q49 147 49 297q0 43 -4 88l185 43l24 -6q4 -20 4 -49q0 -133 -104 -342q-90 -164 -182 -326zM236 1022q0 59 37.5 110.5t95.5 51.5q57 0 92 -51.5t35 -110.5t-35 -107q-37 -53 -94 -53t-97 53q-35 47 -34 107z" />
<glyph unicode="&#x3c;" horiz-adv-x="1394" d="M215 508v121l952 442v-139l-782 -361l782 -378v-146z" />
<glyph unicode="=" horiz-adv-x="1394" d="M186 344v121h1008v-121h-1008zM186 659v121h1008v-121h-1008z" />
<glyph unicode="&#x3e;" horiz-adv-x="1394" d="M215 47v143l782 363l-782 377v141l952 -463v-121z" />
<glyph unicode="?" horiz-adv-x="884" d="M125 1374q47 80 92 162q39 63 88 86q57 25 170 25q119 0 193 -54q82 -61 82 -176q0 -119 -91 -250q-82 -106 -165 -213q-88 -123 -88 -221q0 -94 53 -150.5t139 -56.5q29 0 57 6l11 -32q-74 -59 -226 -125q-72 0 -127 100q-49 86 -49 166q0 109 123 268q90 117 125 178 q57 106 57 207q0 193 -190 193q-23 0 -113 -68q-57 -43 -116 -86zM317 119q0 59 35 106q39 55 97 56q55 0 94 -56q32 -47 32 -106q0 -61 -34.5 -110.5t-94.5 -49.5q-57 0 -93 50t-36 110z" />
<glyph unicode="@" horiz-adv-x="1804" d="M123 823q0 350 223 598q229 258 576 258q317 0 529 -200.5t212 -515.5q0 -229 -147 -428q-160 -217 -381 -218q-70 0 -121 36t-58 102q-129 -135 -272 -136q-123 0 -197 101q-66 90 -65 217q0 242 131 448q152 238 377 238q186 0 221 -145l37 114h174q-76 -217 -150 -434 q-111 -332 -110 -405q0 -66 59 -66q168 0 293 213q111 188 111 371q0 262 -183.5 435t-447.5 173q-307 0 -510 -221q-197 -213 -197 -524q0 -324 189 -541q197 -227 514 -227q199 0 366.5 101t255.5 275h88q-82 -217 -279.5 -347t-432.5 -130q-352 0 -582 256 q-223 246 -223 602zM588 522q0 -63 34.5 -104t94.5 -41q168 0 270 307q41 109 80 217q45 135 45 223q0 143 -131 144q-166 0 -289 -299q-104 -250 -104 -447z" />
<glyph unicode="A" horiz-adv-x="1826" d="M131 0v76l141 39l564 1558h106l596 -1558l137 -39v-76h-415v76l53 39l-180 495h-560l-165 -495l55 -39v-76h-332zM612 721h475l-245 653z" />
<glyph unicode="B" horiz-adv-x="1394" d="M121 0v76l168 39v1409l-168 41v73h559q225 0 336 -63q141 -84 141 -293q0 -285 -305 -414q55 -4 80 -4q145 0 242 -137q86 -122 86 -272q0 -213 -133.5 -334t-348.5 -121h-657zM496 121q164 -47 247 -47q308 0 308 344q0 195 -127 301q-119 96 -318 96q-37 0 -110 -14 v-680zM496 885q246 6 325 49q127 68 127 289q0 342 -332 342q-39 0 -120 -11v-669z" />
<glyph unicode="C" horiz-adv-x="1755" d="M135 831q0 408 217 625t625 217q293 0 584 -82l22 -374h-67q-41 358 -551 358q-625 0 -625 -637q0 -340 170 -590q194 -282 518 -282h2q375 0 526 274l48 -41l-156 -270q-229 -63 -444 -64q-422 0 -645.5 223.5t-223.5 642.5z" />
<glyph unicode="D" horiz-adv-x="1906" d="M139 0v76l168 39v1409l-168 41v73h760q399 0 617 -180q233 -195 233 -588q0 -420 -228.5 -645t-650.5 -225h-731zM514 129q258 -41 389 -41q309 0 471 197q152 182 152 497q0 772 -738 772q-158 0 -274 -12v-1413z" />
<glyph unicode="E" horiz-adv-x="1406" d="M129 0v76l170 39v1409l-170 41v73h946l31 -301h-64l-57 176h-481v-614h401l43 119h58q-10 -94 -10 -184t10 -175h-58l-41 129h-403v-653h604l88 201h70l-86 -336h-1051z" />
<glyph unicode="F" horiz-adv-x="1259" d="M119 0v76l190 39v1409l-190 41v73h983l26 -313h-67l-53 188h-494v-614h442l39 119h60q-10 -94 -10 -184t10 -175h-60l-37 129h-444v-673l76 -39v-76h-471z" />
<glyph unicode="G" horiz-adv-x="1863" d="M131 829q0 399 236 625q229 219 630 219q121 0 287 -24q143 -23 285 -47l20 -361h-67v10q0 169 -193 256q-152 68 -352 68q-625 0 -625 -666q0 -373 197 -610q213 -254 577 -254q82 0 238 33v393l-168 39v74h520v-74l-157 -39v-324h83v-71q-240 -61 -294 -74 q-170 -37 -299 -37q-420 0 -664 221q-254 229 -254 643z" />
<glyph unicode="H" horiz-adv-x="1904" d="M137 0v76l170 39v1409l-170 41v73h428v-73l-53 -41v-613h864v613l-55 41v73h430v-73l-170 -41v-1409l170 -39v-76h-430v76l55 39v684h-864v-684l53 -39v-76h-428z" />
<glyph unicode="I" horiz-adv-x="792" d="M121 0v76l168 39v1409l-168 41v73h543v-73l-168 -41v-1409l168 -39v-76h-543z" />
<glyph unicode="J" horiz-adv-x="780" d="M111 -444q176 252 176 561v1407l-168 41v73h543v-73l-168 -41v-1364q0 -123 -123 -344q-102 -186 -213 -312z" />
<glyph unicode="K" horiz-adv-x="1667" d="M133 0v76l168 39v1409l-168 41v73h428v-73l-53 -41v-686q76 0 94 6q43 10 72 57l383 623q-23 6 -29 20.5t-29 20.5v73h369v-73l-180 -41l-408 -658l447 -559q109 -139 123 -151q80 -80 170 -82v-74h-455v76q53 14 53 28q0 10 2 11l-502 637h-110v-637l53 -39v-76h-428z " />
<glyph unicode="L" horiz-adv-x="1386" d="M125 0v76l170 39v1409l-170 41v73h428v-73l-53 -41v-1389h555l125 242h67l-96 -377h-1026z" />
<glyph unicode="M" horiz-adv-x="2297" d="M145 0v76l142 39l129 1409l-187 41v73h424l482 -1214l469 1214h413v-73l-176 -41l133 -1409l156 -39v-76h-416v76l53 39l-114 1329l-11 -12l-544 -1420q-70 158 -140 318q-98 225 -434 1079l-8 -8l-113 -1286l46 -39v-76h-304z" />
<glyph unicode="N" horiz-adv-x="1998" d="M139 0v76l170 39v1409l-170 41v73h346l1069 -1288v1174l-55 41v73h342v-73l-170 -41v-1538h-102q-346 422 -1143 1374v-1245l63 -39v-76h-350z" />
<glyph unicode="O" horiz-adv-x="1871" d="M135 799q0 381 184 616q203 258 576 258q403 0 621 -260q202 -241 202 -653q0 -354 -205 -572q-211 -223 -565 -223q-387 0 -602 225q-211 219 -211 609zM356 907q0 -348 125 -577q160 -285 480 -285q289 0 425 240q107 190 107 501t-145 539q-168 264 -461 264 q-274 0 -414 -213q-117 -180 -117 -469z" />
<glyph unicode="P" horiz-adv-x="1376" d="M123 0v76l182 39v1409l-182 41v73h612h2q504 0 504 -405q0 -233 -137 -389q-143 -162 -373 -162q-68 0 -147 16v68l6 8q82 -14 106 -14q338 0 338 432q0 203 -116 289q-99 73 -304 73h-6q-31 0 -98 -10v-1429l82 -39v-76h-469z" />
<glyph unicode="Q" horiz-adv-x="1869" d="M137 852q0 369 205 592q213 229 580 229q377 0 591 -264q201 -244 201 -629q0 -575 -485 -770q131 -115 217 -166q119 -72 254 -100l-25 -59q-360 0 -678 282q-860 0 -860 885zM358 907q0 -338 127 -569q158 -289 469 -289l105 125l90 -96q342 164 342 690 q0 311 -141 545q-165 278 -455 278h-2q-274 0 -416 -215q-119 -180 -119 -469z" />
<glyph unicode="R" horiz-adv-x="1669" d="M127 0v76l180 39v1409l-180 41v73h661q188 0 303 -104t115 -291q0 -285 -270 -487q229 -354 268 -408q195 -271 324 -330l-21 -63q-123 31 -250 68q-109 33 -509 684q-98 -8 -236 -9v-583l55 -39v-76h-440zM512 797q137 -2 150 -2q201 0 270 72.5t69 275.5 q0 413 -368 413h-2q-66 0 -119 -14v-745z" />
<glyph unicode="S" horiz-adv-x="1228" d="M129 426l66 16q55 -397 385 -397q152 0 236.5 80t84.5 229q0 160 -188 277q-174 102 -348 205q-186 150 -187 391q0 205 139 329q133 117 342 117q59 0 158 -20q119 -27 156 -31l26 -313l-63 -11q-27 137 -88 203q-72 74 -205 74q-127 0 -202.5 -82t-75.5 -209 q0 -186 186 -309q176 -94 350 -191q186 -122 186 -317q0 -231 -131 -366.5t-364 -135.5q-283 0 -440 121z" />
<glyph unicode="T" horiz-adv-x="1748" d="M156 1288l20 350h1409l19 -350h-74l-49 217q-88 0 -256 4q-174 4 -254 4v-1398l196 -39v-76h-600v76l199 39v1398q-82 0 -244 -4t-241 -4l-50 -217h-75z" />
<glyph unicode="U" horiz-adv-x="1925" d="M133 1565v73h428v-73l-53 -41v-856q0 -586 455 -586q274 0 387 188q88 150 88 443v811l-54 41v73h388v-73l-168 -41v-733q0 -395 -127 -592q-156 -240 -531 -240q-307 0 -475 157.5t-168 463.5v944z" />
<glyph unicode="V" horiz-adv-x="1748" d="M135 1565v73h428v-73l-55 -41l426 -1186l403 1186l-55 41v73h313v-73l-127 -41q-180 -453 -534 -1542h-86l-545 1542z" />
<glyph unicode="W" horiz-adv-x="2365" d="M143 1565v73h375v-73l-43 -41l299 -1180q94 293 187 586q104 338 163 594h158q63 -256 336 -1176l336 1176l-64 41v73h310v-73l-125 -41l-457 -1542h-109l-352 1224l-385 -1224h-104l-400 1542z" />
<glyph unicode="X" horiz-adv-x="1673" d="M113 0v76l139 37l450 704l-434 707l-141 41v73h434v-73l-57 -41l323 -525l320 525l-55 41v73h362v-73l-160 -41l-401 -629l489 -782l162 -37v-76h-454v76l55 39l-373 594l-375 -594l56 -39v-76h-340z" />
<glyph unicode="Y" horiz-adv-x="1699" d="M123 1565v73h452v-73q-20 -18 -55 -41l395 -693l347 693l-56 41v73h353v-73l-150 -41l-444 -838v-571l211 -39v-76h-629v76l213 39v575l-469 834z" />
<glyph unicode="Z" horiz-adv-x="1699" d="M123 0v41q371 498 1075 1460h-479q-80 0 -225 -6q-158 -6 -228 -6l-69 -195h-74l51 344h1329v-43q-553 -729 -1069 -1460h535q74 0 223 7.5t219 7.5l82 210h70l-52 -360h-1388z" />
<glyph unicode="[" d="M193 -502v2349h339v-67l-198 -31v-2152l198 -37v-62h-339z" />
<glyph unicode="\" d="M0 1847h133l592 -1847h-125z" />
<glyph unicode="]" d="M193 -440l202 37v2152l-202 31v67h339v-2349h-339v62z" />
<glyph unicode="^" horiz-adv-x="1394" d="M266 883l371 759h115l362 -759h-119l-303 626l-303 -626h-123z" />
<glyph unicode="_" horiz-adv-x="1261" d="M57 -190h1135v-127h-1135v127z" />
<glyph unicode="`" d="M123 1589q0 70 67 70l39 -8q88 -68 195 -185q90 -100 178 -200h-67l-369 247q-43 29 -43 76z" />
<glyph unicode="a" horiz-adv-x="1218" d="M113 207q0 98 71 225q111 195 557 277v106q0 100 -47 170q-55 78 -151 78q-133 0 -181 -64q-20 -41 -53 -127q-27 -10 -164 -38l-14 8q10 160 186 258q147 82 326 82q133 0 210 -82t77 -217v-719l164 -39v-47q-139 -29 -349 -103q-11 32 -11 87q0 37 5 85 q-215 -172 -391 -172q-100 0 -167.5 64.5t-67.5 167.5zM311 242q0 -68 49.5 -105t120.5 -37q98 1 260 107v448q-145 -37 -262 -98q-66 -35 -117 -135t-51 -180z" />
<glyph unicode="b" horiz-adv-x="1386" d="M115 1524v63q190 25 336 94l51 -14v-1350q0 -121 64.5 -200.5t183.5 -79.5q321 0 321 499q0 214 -74 338q-92 158 -286 158q-39 0 -148 -39l-20 49l180 129q84 10 108 11q215 0 332 -207q97 -171 97 -402q0 -281 -151 -439.5t-429 -158.5q-125 0 -250 78l-106 -84l-37 17 q0 74 13 228.5t13 231.5v1033q-84 45 -198 45z" />
<glyph unicode="c" horiz-adv-x="1212" d="M115 528q0 289 108 457q129 201 402 201q113 0 241 -66q152 -74 160 -172l6 -74l-170 -57q-37 289 -241 289q-307 0 -308 -565q0 -184 93 -297q98 -121 278 -121q127 0 211 61q68 47 143 170l49 -28q-78 -195 -167 -269q-104 -82 -304 -82q-254 0 -383 154 q-119 141 -118 399z" />
<glyph unicode="d" horiz-adv-x="1363" d="M121 549q0 242 133 422q146 198 379 198h2q109 0 254 -67v377q-86 45 -176 45v63q156 20 315 94l45 -14v-1225q0 -55 -4 -120.5t-4 -79.5q0 -55 29.5 -72.5t136.5 -32.5v-63q-82 -18 -328 -99l-14 11v176q-254 -186 -357 -187q-178 0 -303 205q-109 178 -108 369z M309 647q0 -186 76 -338q96 -186 264 -186h2q116 0 238 110v613q0 117 -82 187.5t-199 70.5q-147 0 -231 -164q-68 -131 -68 -293z" />
<glyph unicode="e" horiz-adv-x="1218" d="M115 565q0 258 118 428q135 193 383 193q188 0 306 -96q63 -51 112 -162t49 -195q0 -43 7 -94l-97 2h-698q0 -219 96 -358q111 -160 320 -160q207 0 338 145l45 -59q-131 -141 -215 -184q-96 -49 -263 -50q-244 0 -378 179q-123 162 -123 411zM301 705h586q0 164 -70 278 q-82 135 -235 135q-131 0 -213 -147q-68 -125 -68 -266z" />
<glyph unicode="f" horiz-adv-x="897" d="M121 0v66l145 38v758h-108v113h104q0 240 94 444q117 264 324 264h4q57 0 98 -26l-63 -178q-88 63 -150 63q-118 0 -118 -231q0 -59 2 -171t2 -165h262v-113h-264v-758l100 -38v-66h-432z" />
<glyph unicode="g" horiz-adv-x="1193" d="M92 -231q0 221 199 221q68 0 151 -51q-217 -23 -217 -144q0 -117 70 -162q51 -32 165 -32h7q143 0 258 57q145 70 145 199q0 137 -200 178q-188 27 -375 53q-203 47 -203 195q0 90 76 127q33 16 154 39q-84 23 -146 133q-57 100 -57 196q0 178 104.5 293t282.5 115 q84 0 195.5 -36t132.5 -36q33 0 247 14q11 -26 11 -59t-11 -72q-106 2 -209 33q66 -94 66 -225q0 -188 -182 -289q-147 -80 -350 -80q-41 -20 -82 -39q-57 -31 -58 -59q0 -111 193 -137q342 -47 364 -56q197 -66 205 -270v-18v-5q0 -158 -242 -247q-184 -66 -385 -66 q-113 0 -204 58q-104 66 -105 172zM295 838q0 -104 43 -209q53 -131 139 -131q115 0 197 67t82 180q0 373 -256 373q-100 0 -158 -94q-47 -80 -47 -186z" />
<glyph unicode="h" horiz-adv-x="1441" d="M106 1524v63q143 18 302 94l51 -14v-696q158 123 159 123q108 75 173 75h2q197 0 291 -85t94 -281v-699l143 -38v-66h-397v66l63 38l2 504q0 211 -22 275q-45 137 -211 137q-143 0 -297 -109v-807l63 -38v-66h-395v66l143 38v1375q-84 45 -164 45z" />
<glyph unicode="i" horiz-adv-x="749" d="M121 1042v64q141 18 301 94l49 -14l2 -1082q49 -14 148 -38v-66h-482v66l146 38l-2 893q-82 43 -162 45zM258 1528q0 51 27 94q33 51 80 51q51 0 86 -47q28 -43 28 -98q0 -49 -32.5 -89t-81.5 -40q-45 0 -76 41t-31 88z" />
<glyph unicode="j" horiz-adv-x="567" d="M98 1044v64q156 20 312 94l49 -14l4 -1172q0 -86 -113 -268q-37 -61 -174 -258l-51 33q88 147 111 198q38 94 38 218v6l-2 1054q-84 45 -174 45zM238 1536q0 53 29.5 95t78.5 42t81 -43t32 -94t-31 -94t-82 -43q-47 0 -77.5 44t-30.5 93z" />
<glyph unicode="k" horiz-adv-x="1419" d="M111 1524v63q141 18 301 94l49 -14v-1110l434 506l-45 41v65h369v-65l-168 -39l-404 -475q111 -100 324 -305q49 -49 149 -144q74 -61 158 -78v-63h-248l-569 545v-441l59 -38v-66h-405v66l157 38v1375q-82 45 -161 45z" />
<glyph unicode="l" horiz-adv-x="755" d="M125 1524v63q141 18 301 94l49 -14v-1563l148 -38v-66h-482v66l146 38v1375q-82 45 -162 45z" />
<glyph unicode="m" horiz-adv-x="2244" d="M139 1014v63q125 16 291 94l47 -14v-201q164 131 187 148q117 78 213 78q225 0 333 -207q74 66 148 131q94 80 170 80q178 0 291.5 -102.5t113.5 -278.5v-701l148 -36v-68h-398v68l64 36v486q0 217 -27 295q-51 149 -221 149h-2q-123 0 -289 -121l-2 -833l-186 -80 q4 598 4 608q0 203 -29 283q-51 143 -217 143q-129 0 -301 -121v-809l62 -36v-68h-396v68l148 36v865q-84 45 -152 45z" />
<glyph unicode="n" horiz-adv-x="1447" d="M109 1014v63q143 18 303 94l49 -14v-184q272 213 334 213q387 0 387 -381v-701l143 -36v-68h-399v68l63 36v512q0 205 -22 275q-45 143 -207 143q-127 0 -299 -121v-809l63 -36v-68h-395v68l145 36v865q-86 45 -165 45z" />
<glyph unicode="o" horiz-adv-x="1316" d="M115 561q0 274 129 440q143 184 409 185q268 0 408 -176q127 -160 127 -432q0 -279 -135 -435q-143 -168 -416 -168q-254 0 -393 170q-129 158 -129 416zM313 616q0 -213 70 -370q90 -209 274 -209q330 0 330 465q0 236 -63 393q-90 223 -293 223q-178 0 -258 -174 q-59 -127 -60 -328z" />
<glyph unicode="p" horiz-adv-x="1357" d="M119 1026v64q143 18 301 94l51 -15v-174q78 61 156 125q96 66 182 66q203 0 319 -203q99 -168 99 -385q0 -264 -117 -428q-131 -184 -387 -184q-111 0 -252 61v-403l104 -43v-62h-434v62l142 43v1337q-84 45 -164 45zM471 203q162 -152 287 -152q152 0 231 133 q66 111 66 277q0 203 -78 366q-100 207 -283 207q-55 0 -119 -37q-10 -6 -104 -75v-719z" />
<glyph unicode="q" horiz-adv-x="1368" d="M121 541q0 252 145 440q160 205 406 205q104 0 276 -84l105 88l30 -23q0 -51 -6 -161.5t-6 -167.5v-1194l143 -43v-62h-430v62l99 43v1175q0 129 -56 209q-66 90 -188 90q-166 0 -264 -157q-84 -135 -84 -312q0 -223 84 -358q102 -166 311 -166q55 0 137 33l19 -54 q-133 -82 -137 -84q-84 -43 -154 -43q-209 0 -328 185q-102 160 -102 379z" />
<glyph unicode="r" horiz-adv-x="1042" d="M86 0v66l168 38v865q-84 45 -162 45v63q139 18 299 94l49 -14v-307q123 197 127 203q96 129 185 129q124 0 192 -80l-31 -180q-43 23 -86 47q-51 26 -89 26h-3q-109 0 -202 -99t-93 -210v-582l103 -38v-66h-457z" />
<glyph unicode="s" horiz-adv-x="1026" d="M111 336h82q0 -121 88 -202t208 -81q106 0 175 47q78 55 77 158q0 125 -157 188q-147 57 -293 113q-158 92 -158 285q0 143 112.5 242.5t260.5 99.5q176 0 321 -123l-4 -221h-73q0 106 -68 185t-172 79q-219 0 -219 -203q0 -109 217 -209q158 -66 315 -129 q84 -43 84 -221q0 -176 -129 -276q-119 -92 -301 -93q-184 0 -338 74z" />
<glyph unicode="t" horiz-adv-x="960" d="M113 1061v65q207 86 288 387h52v-342h331v-110h-331l-2 -694q0 -250 184 -250q102 0 176 76l29 -54q-49 -39 -142 -125q-46 -32 -167 -32h-7q-262 0 -260 290v789h-151z" />
<glyph unicode="u" horiz-adv-x="1484" d="M117 1104v65h348v-831q0 -104 61.5 -159.5t167.5 -55.5q80 0 162 35q45 18 148 80v827l-64 39v65h250v-1007l166 -27v-51q-68 -14 -336 -104l-16 18v180q-94 -63 -187 -129q-121 -74 -207 -74q-334 0 -334 308v782z" />
<glyph unicode="v" horiz-adv-x="1470" d="M113 1104v65h413v-65l-59 -39l307 -797l297 797l-61 39v65h333v-65l-143 -39q-27 -61 -418 -1090h-88l-436 1090q-49 12 -145 39z" />
<glyph unicode="w" horiz-adv-x="2125" d="M123 1104v65h430v-65l-61 -39l264 -784l309 843h57l305 -852l279 793l-64 39v65h349v-65l-142 -39l-440 -1090h-68l-297 811l-305 -811h-67l-402 1090z" />
<glyph unicode="x" horiz-adv-x="1413" d="M111 0v68l143 36l362 453l-344 508l-147 39v65h438v-65l-59 -39l219 -365l244 365l-64 39v65h342v-65l-143 -39l-322 -440l371 -521l139 -36v-68h-428v68l60 38l-256 371l-275 -371l62 -38v-68h-342z" />
<glyph unicode="y" horiz-adv-x="1454" d="M109 1104v65h415v-65l-61 -39l319 -803q170 440 258 803l-61 39v65h352v-65l-147 -39q-94 -279 -189 -557q-117 -328 -237 -547q-154 -281 -352 -463q-82 12 -148 41q92 76 213 219q127 152 207 289l-424 1018z" />
<glyph unicode="z" horiz-adv-x="1247" d="M113 0v43q150 174 391 485q279 356 387 490h-631l-37 -174h-57l22 325h934v-43q-172 -186 -397 -479q-186 -250 -375 -500q113 0 330 7q229 8 328 8l49 178h63l-43 -340h-964z" />
<glyph unicode="{" d="M135 666q168 18 168 376q0 80 -9 207t-9 154q0 201 53 303q72 141 252 141q-104 -47 -141 -184q-25 -88 -25 -244q0 -90 11 -213t11 -166q0 -98 -34 -178q-43 -90 -150 -198q178 -51 178 -381q0 -66 -6 -196t-6 -196q0 -324 158 -393q-176 2 -244 121q-53 88 -53 277 q0 18 9 148t9 218q0 403 -172 404z" />
<glyph unicode="|" d="M305 0v1847h115v-1847h-115z" />
<glyph unicode="}" d="M135 1847q180 0 252 -141q53 -102 53 -303q0 -27 -9 -154t-9 -207q0 -358 168 -376q-172 0 -172 -404q0 -88 9 -218t9 -148q0 -188 -53 -277q-68 -119 -244 -121q158 70 158 393q0 66 -6 196t-6 196q0 330 178 381q-106 109 -150 198q-35 80 -34 178q0 43 11 166t11 213 q0 156 -25 244q-37 137 -141 184z" />
<glyph unicode="~" horiz-adv-x="1394" d="M154 477q66 109 120 156q78 68 183 67q84 0 242.5 -72.5t240.5 -72.5q106 0 199 150l88 -56q-139 -213 -285 -213q-84 0 -243.5 74t-245.5 74q-113 0 -215 -166z" />
<glyph unicode="&#xa2;" horiz-adv-x="1394" d="M203 547q0 518 450 598v151h72v-151q129 0 231 -49q131 -59 131 -172l-4 -74l-168 -57l-26 20l6 68q0 186 -170 186v-936q160 0 244 55q74 49 159 193l50 -25q-92 -197 -101 -209q-51 -88 -121 -122q-80 -39 -231 -39v-209h-72v207q-451 57 -450 565zM389 631 q0 -375 264 -486v916q-264 -51 -264 -430z" />
<glyph unicode="&#xa3;" horiz-adv-x="1394" d="M90 96q0 102 88 162q76 51 184 51q29 0 216 -49q53 86 53 166t-64 192q0 2 -110 175h-328v73h281q-70 141 -80 166q-41 98 -41 178q0 201 106 330q115 139 312 139q125 0 221 -57q115 -68 114 -182q0 -70 -36 -133q-41 -76 -103 -76q-18 0 -18 31q0 14 6 42.5t6 41.5 q0 98 -53 178q-59 92 -152 92q-119 0 -182 -92q-51 -80 -51 -205q0 -84 69 -234q25 -49 121 -219h418v-73h-375q74 -117 74 -224q0 -117 -127 -331q274 -96 354 -97q74 0 150 92q63 74 94 160l55 -14q-49 -137 -125 -246q-104 -154 -202 -153q-127 0 -422 116 q-119 -131 -273 -131q-180 0 -180 131zM152 109q0 -86 110 -86q74 0 215 96q-166 61 -219 61t-92 -35z" />
<glyph unicode="&#xa7;" horiz-adv-x="1394" d="M215 690q0 127 57 223q47 76 156 170q-125 117 -125 299q0 193 117 329t307 136q266 0 266 -114q0 -123 -45 -150q-31 10 -53 62q-14 41 -29 81q-47 51 -149 52q-137 0 -217 -81t-80 -218q0 -152 194 -287q178 -113 359 -225q194 -144 194 -316q0 -211 -213 -401 q121 -98 121 -281q0 -190 -123 -313t-313 -123q-358 0 -358 184q0 121 100 123q2 -248 270 -248q123 0 208 80t85 201q0 160 -188 289q-176 106 -353 213q-188 137 -188 315zM334 786q0 -86 119 -194q86 -80 245 -180q111 -66 220 -133q118 130 118 249q0 113 -61 185 q-41 51 -156 121l-356 219q-129 -109 -129 -267z" />
<glyph unicode="&#xa8;" d="M53 1468q0 47 33 86t78 39q47 0 82 -39t35 -86q0 -49 -34 -83.5t-83 -34.5q-47 0 -79 34.5t-32 83.5zM444 1468q0 49 35 87t84 38t79 -38t30 -87q0 -47 -31 -82.5t-78 -35.5q-49 0 -84 35.5t-35 82.5z" />
<glyph unicode="&#xa9;" horiz-adv-x="1902" d="M125 819q0 354 225 604q233 256 586 256q356 0 589.5 -251t233.5 -609q0 -354 -233 -602q-240 -252 -592 -252q-344 0 -580 258q-229 248 -229 596zM242 823q0 -324 190 -536q197 -221 516 -221q309 0 506 229q186 217 186 528q0 319 -190 535q-199 221 -514 221 q-309 0 -506 -225q-188 -215 -188 -531zM451 819q0 233 134 381t365 148q145 0 346 -70v-264h-65q0 117 -72 190.5t-188 73.5q-168 0 -258 -137q-80 -117 -80 -295t88 -309q98 -150 268 -150q172 0 277 178l55 -16q-43 -115 -162 -180q-109 -61 -237 -62q-215 0 -347 150 q-125 143 -124 362z" />
<glyph unicode="&#xad;" horiz-adv-x="864" d="M109 584v166l639 -2v-164h-639z" />
<glyph unicode="&#xae;" horiz-adv-x="1902" d="M125 819q0 354 225 604q233 256 586 256q356 0 589.5 -251t233.5 -609q0 -354 -233 -602q-240 -252 -592 -252q-344 0 -580 258q-229 248 -229 596zM242 823q0 -324 190 -536q197 -221 516 -221q309 0 506 229q186 217 186 528q0 319 -190 535q-199 221 -514 221 q-309 0 -506 -225q-188 -215 -188 -531zM545 330v41q59 0 78 8q35 14 34 63v785q0 49 -34 61q-16 6 -78 6v43h391q170 0 256 -39q123 -59 123 -208q0 -111 -79 -188t-189 -77l16 -16q78 0 135 -113q45 -104 92 -209q57 -115 137 -116v-41h-61q-150 0 -219 121 q-49 113 -100 223q-72 121 -232 121v-353q0 -49 35 -63q18 -8 78 -8v-41h-383zM815 848h39q147 0 217 39q92 53 92 188q0 219 -229 219q-82 0 -100.5 -16t-18.5 -96v-334z" />
<glyph unicode="&#xb0;" horiz-adv-x="1024" d="M168 1323q0 147 97 251.5t243 104.5q143 0 240.5 -105.5t97.5 -250.5t-96.5 -248.5t-241.5 -103.5q-143 0 -241.5 104.5t-98.5 247.5zM254 1323q0 -106 73.5 -185t180.5 -79q109 0 181.5 77.5t72.5 186.5q0 111 -74 188.5t-182 77.5q-109 0 -180.5 -78.5t-71.5 -187.5z " />
<glyph unicode="&#xb4;" d="M123 1266q102 113 203 225q160 168 213 168q63 0 63 -70q0 -47 -43 -76l-366 -247h-70z" />
<glyph unicode="&#xb5;" horiz-adv-x="1484" d="M121 -285l164 27l2 1323l-160 39v65h348v-831q0 -104 61.5 -159.5t168.5 -55.5q80 0 161 35q45 18 148 80v827l-64 39v65h250v-1007l166 -27v-51q-68 -14 -334 -104l-18 18v180q-94 -63 -187 -129q-121 -74 -206 -74q-86 0 -152 21l4 -418l-18 -18q-111 41 -334 104v51z " />
<glyph unicode="&#xb6;" horiz-adv-x="1894" d="M145 1227q0 113 64 223l98 172q143 246 600 246q358 0 572 -142q252 -168 252 -507q0 -207 -99 -375l-98 -172q-35 -59 -156 -146q-108 -79 -184 -110v-836h-90v787q-104 -53 -215 -99v-688h-90v653q-80 -27 -246 -69l59 -96l-333 47l223 303l20 -154q180 49 277 84 l4 340q-233 0 -436 152q-221 162 -222 387zM244 1382q0 -160 97 -283.5t255 -158.5q72 -14 168 -12h33v774q-356 -2 -531 -182q-23 -68 -22 -138zM887 385q74 35 217 107l2 1177l-211 29zM1194 541q98 41 233 153q145 119 183 203q47 104 47 227q0 201 -146 336 q-86 82 -317 201v-1120z" />
<glyph unicode="&#xc4;" horiz-adv-x="1826" d="M131 0v76l141 39l564 1558h106l596 -1558l139 -39v-76h-417v76l53 39l-187 495h-553l-163 -495l55 -39v-76h-334zM612 721h471l-245 649zM678 1872q0 37 19.5 70.5t54.5 33.5t55 -33.5t20 -70.5t-18 -68q-23 -37 -57 -37q-35 0 -58 37q-16 31 -16 68zM942 1876 q0 37 19.5 70.5t54.5 33.5t55.5 -33.5t20.5 -70.5t-19 -68q-23 -37 -57 -36q-35 0 -58 36q-16 31 -16 68z" />
<glyph unicode="&#xc5;" horiz-adv-x="1826" d="M131 0v76l141 39l564 1558h106l596 -1558l139 -39v-76h-417v76l53 39l-187 495h-553l-163 -495l55 -39v-76h-334zM612 721h471l-245 649zM766 1944q0 57 36 104t93 47t93 -47t36 -104q0 -59 -36 -106.5t-93 -47.5t-93 47t-36 107zM813 1942q0 -37 22.5 -67t59.5 -30 t59.5 30t22.5 67q0 39 -22.5 68.5t-59.5 29.5t-59.5 -30t-22.5 -68z" />
<glyph unicode="&#xc6;" horiz-adv-x="2457" d="M119 0v76l174 39l956 1527h879l37 -360h-76l-61 236h-506v-617h428l43 176h61q-14 -229 0 -471h-61l-41 185h-430v-654h618l98 262h74l-84 -399h-1147v76l224 39v676h-449l-416 -676l228 -39v-76h-549zM924 901h381v602q-90 -135 -381 -602z" />
<glyph unicode="&#xc7;" horiz-adv-x="1755" d="M135 831q0 408 217 625t625 217q293 0 584 -82l22 -374h-67q-41 358 -551 358q-625 0 -625 -637q0 -340 170 -590q195 -283 520 -282q375 0 526 274l48 -41l-156 -270q-229 -63 -444 -64q-422 0 -645.5 223.5t-223.5 642.5zM907 -621l84 144q43 -10 84 -10q43 0 74 12 l2 24q6 92 -68 138q-61 39 -157 39q2 2 47 157q121 -18 178 -49q88 -49 88 -147q0 -59 -37 -126t-76 -134q-43 -60 -125 -60q-43 0 -94 12z" />
<glyph unicode="&#xc9;" horiz-adv-x="1406" d="M129 0v76l170 39v1409l-170 41v73h946l31 -311h-64l-57 186h-481v-614h401l43 129h58q-14 -123 -15 -194q0 -74 15 -185h-58l-41 139h-403v-653h604l88 211h70l-86 -346h-1051zM410 1774l436 196l-12 -106l-390 -150z" />
<glyph unicode="&#xd1;" horiz-adv-x="1998" d="M139 0v76l170 39v1409l-170 41v73h346l1069 -1288v1174l-55 41v73h342v-73l-170 -41v-1538h-102q-346 422 -1143 1374v-1245l63 -39v-76h-350zM651 1710q127 135 240 270l203 -149l192 106l-199 -208l-196 149z" />
<glyph unicode="&#xd6;" horiz-adv-x="1871" d="M135 799q0 381 184 616q203 258 576 258q403 0 621 -260q202 -241 202 -653q0 -354 -207 -572q-209 -223 -563 -223q-387 0 -602 225q-211 219 -211 609zM356 907q0 -348 125 -577q160 -285 480 -285q289 0 425 240q107 190 107 501t-145 539q-168 264 -461 264 q-274 0 -414 -213q-117 -180 -117 -469zM690 1870q0 37 19.5 70.5t54.5 33.5t55.5 -33.5t20.5 -70.5t-19 -68q-23 -37 -57 -37q-35 0 -57 37q-16 31 -17 68zM954 1874q0 37 19.5 70.5t54.5 33.5t55.5 -33.5t20.5 -70.5t-19 -68q-23 -37 -57 -37q-35 0 -57 37q-16 31 -17 68z " />
<glyph unicode="&#xd8;" horiz-adv-x="2060" d="M150 -20l229 237q-203 242 -203 627q0 371 221 603t590 232q381 0 602 -215l246 254l55 -59l-243 -252q207 -217 206 -614q0 -379 -222 -602.5t-601 -223.5q-391 0 -596 191l-229 -236zM410 922q0 -342 118 -553l930 956q-197 270 -477 270q-287 0 -438 -198 q-133 -178 -133 -475zM567 299q106 -131 219 -190q121 -63 283 -64q547 0 547 776q0 227 -117 441z" />
<glyph unicode="&#xdc;" horiz-adv-x="1925" d="M133 1565v73h428v-73l-53 -41v-856q0 -586 455 -586q274 0 387 188q88 150 88 443v811l-54 41v73h388v-73l-168 -41v-733q0 -395 -127 -592q-156 -240 -531 -240q-307 0 -475 157.5t-168 463.5v944zM762 1851q0 37 19.5 71t54.5 34t55 -34t20 -71t-18 -67 q-23 -37 -57 -37q-35 0 -58 37q-16 31 -16 67zM1026 1855q0 37 19.5 71t54.5 34t55.5 -34t20.5 -71t-19 -67q-23 -37 -57 -37q-35 0 -58 37q-16 31 -16 67z" />
<glyph unicode="&#xdf;" horiz-adv-x="1527" d="M123 0v66l194 38v840h-131v113h131q0 319 97 520q127 270 409 270q154 0 256 -78q115 -84 115 -233q0 -98 -68 -211q-16 -29 -125 -178q-68 -92 -67 -139q0 -66 117 -172q188 -172 219 -209q119 -138 119 -279q0 -160 -115 -266.5t-279 -106.5q-106 0 -178 54 q-80 57 -94 157l49 15q53 -164 236 -164q92 0 147 72q47 68 47 163q0 94 -110 234q-25 31 -207 225q-113 119 -113 166q0 51 74 154q117 164 137 198q74 127 74 240q0 115 -60 194q-63 88 -174 89q-197 0 -270 -166q-47 -111 -47 -340v-1162l166 -38v-66h-549z" />
<glyph unicode="&#xe0;" horiz-adv-x="1218" d="M113 207q0 98 71 225q111 195 557 277v106q0 100 -47 170q-55 78 -151 78q-133 0 -181 -64q-20 -41 -53 -127q-27 -10 -164 -38l-14 8q10 160 186 258q147 82 326 82q133 0 210 -82t77 -217v-719l164 -39v-47q-139 -29 -349 -103q-18 53 -6 172q-215 -172 -391 -172 q-100 0 -167.5 64.5t-67.5 167.5zM311 242q0 -68 49.5 -105t120.5 -37q98 1 260 107v448q-145 -37 -262 -98q-66 -35 -117 -135t-51 -180zM383 1497l436 -197l-35 -59l-389 150z" />
<glyph unicode="&#xe1;" horiz-adv-x="1218" d="M113 207q0 98 71 225q111 195 557 277v106q0 100 -47 170q-55 78 -151 78q-133 0 -181 -64q-20 -41 -53 -127q-27 -10 -164 -38l-14 8q10 160 186 258q147 82 326 82q133 0 210 -82t77 -217v-719l164 -39v-47q-139 -29 -349 -103q-18 53 -6 172q-215 -172 -391 -172 q-100 0 -167.5 64.5t-67.5 167.5zM311 242q0 -68 49.5 -105t120.5 -37q98 1 260 107v448q-145 -37 -262 -98q-66 -35 -117 -135t-51 -180zM317 1284l437 197l-13 -107l-389 -149z" />
<glyph unicode="&#xe2;" horiz-adv-x="1218" d="M113 207q0 98 71 225q111 195 557 277v106q0 100 -47 170q-55 78 -151 78q-133 0 -181 -64q-20 -41 -53 -127q-27 -10 -164 -38l-14 8q10 160 186 258q147 82 326 82q133 0 210 -82t77 -217v-719l164 -39v-47q-139 -29 -349 -103q-18 53 -6 172q-215 -172 -391 -172 q-100 0 -167.5 64.5t-67.5 167.5zM309 1272l264 227l277 -196l-49 -43l-228 114l-208 -137zM311 242q0 -68 49.5 -105t120.5 -37q98 1 260 107v448q-145 -37 -262 -98q-66 -35 -117 -135t-51 -180z" />
<glyph unicode="&#xe3;" horiz-adv-x="1218" d="M113 207q0 98 71 225q111 195 557 277v106q0 100 -47 170q-55 78 -151 78q-133 0 -181 -64q-20 -41 -53 -127q-27 -10 -164 -38l-14 8q10 160 186 258q147 82 326 82q133 0 210 -82t77 -217v-719l164 -39v-47q-139 -29 -349 -103q-18 53 -6 172q-215 -172 -391 -172 q-100 0 -167.5 64.5t-67.5 167.5zM227 1253q127 135 240 271l203 -150l192 107l-198 -209l-197 149zM311 242q0 -68 49.5 -105t120.5 -37q98 1 260 107v448q-145 -37 -262 -98q-66 -35 -117 -135t-51 -180z" />
<glyph unicode="&#xe4;" horiz-adv-x="1218" d="M113 207q0 98 71 225q111 195 557 277v106q0 100 -47 170q-55 78 -151 78q-133 0 -181 -64q-20 -41 -53 -127q-27 -10 -164 -38l-14 8q10 160 186 258q147 82 326 82q133 0 210 -82t77 -217v-719l164 -39v-47q-139 -29 -349 -103q-18 53 -6 172q-215 -172 -391 -172 q-100 0 -167.5 64.5t-67.5 167.5zM311 242q0 -68 49.5 -105t120.5 -37q98 1 260 107v448q-145 -37 -262 -98q-66 -35 -117 -135t-51 -180zM332 1409q0 37 19.5 70.5t54.5 33.5t55 -33.5t20 -70.5t-18 -68q-23 -37 -57 -36q-35 0 -58 36q-16 31 -16 68zM596 1413 q0 37 19.5 71t54.5 34t55 -34t20 -71t-18 -67q-23 -37 -57 -37q-35 0 -58 37q-16 31 -16 67z" />
<glyph unicode="&#xe5;" horiz-adv-x="1218" d="M113 207q0 98 71 225q111 195 557 277v106q0 100 -47 170q-55 78 -151 78q-133 0 -181 -64q-20 -41 -53 -127q-27 -10 -164 -38l-14 8q10 160 186 258q147 82 326 82q133 0 210 -82t77 -217v-719l164 -39v-47q-139 -29 -349 -103q-18 53 -6 172q-215 -172 -391 -172 q-100 0 -167.5 64.5t-67.5 167.5zM311 242q0 -68 49.5 -105t120.5 -37q98 1 260 107v448q-145 -37 -262 -98q-66 -35 -117 -135t-51 -180zM475 1413q0 57 36 104.5t93 47.5t93 -47.5t36 -104.5q0 -59 -35.5 -106t-93.5 -47q-57 0 -93 47t-36 106zM522 1411q0 -37 22.5 -66.5 t59.5 -29.5t59.5 29.5t22.5 66.5q0 39 -22.5 68.5t-59.5 29.5t-59.5 -29.5t-22.5 -68.5z" />
<glyph unicode="&#xe7;" horiz-adv-x="1212" d="M115 528q0 289 108 457q129 201 402 201q113 0 241 -66q152 -74 160 -172l6 -74l-170 -57q-37 289 -241 289q-307 0 -308 -565q0 -184 93 -297q98 -121 278 -121q127 0 211 61q68 47 143 170l49 -28q-78 -195 -167 -269q-104 -82 -304 -82q-254 0 -383 154 q-119 141 -118 399zM498 -594l82 145q45 -12 84 -12q45 0 75 15l2 24q4 90 -69 137q-59 37 -158 37q4 4 49 160q119 -18 176 -51q90 -49 90 -146q0 -61 -36 -125q-39 -70 -76 -137q-45 -59 -127 -59q-43 0 -92 12z" />
<glyph unicode="&#xe8;" horiz-adv-x="1218" d="M115 565q0 258 118 428q135 193 383 193q188 0 306 -96q63 -51 112 -162t49 -195q0 -43 7 -94l-97 2h-698q0 -219 96 -358q111 -160 320 -160q207 0 338 145l45 -59q-131 -141 -215 -184q-96 -49 -263 -50q-244 0 -378 179q-123 162 -123 411zM301 705h586q0 164 -70 278 q-82 135 -235 135q-131 0 -213 -147q-68 -125 -68 -266zM383 1497l436 -197l-35 -59l-389 150z" />
<glyph unicode="&#xe9;" horiz-adv-x="1218" d="M115 565q0 258 118 428q135 193 383 193q188 0 306 -96q63 -51 112 -162t49 -195q0 -43 7 -94l-97 2h-698q0 -219 96 -358q111 -160 320 -160q207 0 338 145l45 -59q-131 -141 -215 -184q-96 -49 -263 -50q-244 0 -378 179q-123 162 -123 411zM301 705h586q0 164 -70 278 q-82 135 -235 135q-131 0 -213 -147q-68 -125 -68 -266zM395 1296l436 197l-12 -107l-389 -149z" />
<glyph unicode="&#xea;" horiz-adv-x="1218" d="M115 565q0 258 118 428q135 193 383 193q188 0 306 -96q63 -51 112 -162t49 -195q0 -43 7 -94l-97 2h-698q0 -219 96 -358q111 -160 320 -160q207 0 338 145l45 -59q-131 -141 -215 -184q-96 -49 -263 -50q-244 0 -378 179q-123 162 -123 411zM301 705h586q0 164 -70 278 q-82 135 -235 135q-131 0 -213 -147q-68 -125 -68 -266zM340 1278l264 227l277 -196l-50 -43l-227 114l-209 -137z" />
<glyph unicode="&#xeb;" horiz-adv-x="1218" d="M115 565q0 258 118 428q135 193 383 193q188 0 306 -96q63 -51 112 -162t49 -195q0 -43 7 -94l-97 2h-698q0 -219 96 -358q111 -160 320 -160q207 0 338 145l45 -59q-131 -141 -215 -184q-96 -49 -263 -50q-244 0 -378 179q-123 162 -123 411zM301 705h586q0 164 -70 278 q-82 135 -235 135q-131 0 -213 -147q-68 -125 -68 -266zM422 1409q0 37 19.5 70.5t54.5 33.5t55 -33.5t20 -70.5t-18 -68q-23 -37 -57 -36q-35 0 -58 36q-16 31 -16 68zM686 1413q0 37 19.5 71t54.5 34t55.5 -34t20.5 -71t-19 -67q-23 -37 -57 -37q-35 0 -58 37 q-16 31 -16 67z" />
<glyph unicode="&#xec;" horiz-adv-x="749" d="M121 1042v64q141 18 301 94l49 -14l2 -1082q49 -14 148 -38v-66h-482v66l146 38l-2 893q-82 43 -162 45zM258 1528q0 51 27 94q33 51 80 51q51 0 86 -47q28 -43 28 -98q0 -49 -32.5 -89t-81.5 -40q-45 0 -76 41t-31 88z" />
<glyph unicode="&#xed;" horiz-adv-x="749" d="M121 1042v64q141 18 301 94l49 -14l2 -1082q49 -14 148 -38v-66h-482v66l146 38l-2 893q-82 43 -162 45zM199 1337l436 197l-12 -107l-390 -149z" />
<glyph unicode="&#xee;" horiz-adv-x="749" d="M78 1284l264 227l276 -196l-49 -43l-227 114l-209 -137zM121 1042v64q141 18 301 94l49 -14l2 -1082q49 -14 148 -38v-66h-482v66l146 38l-2 893q-82 43 -162 45z" />
<glyph unicode="&#xef;" horiz-adv-x="749" d="M121 1042v64q141 18 301 94l49 -14l2 -1082q49 -14 148 -38v-66h-482v66l146 38l-2 893q-82 43 -162 45zM178 1423q0 37 19.5 71t54.5 34t55.5 -34t20.5 -71t-19 -67q-23 -37 -57 -37q-35 0 -57 37q-16 31 -17 67zM442 1427q0 37 19.5 71t54.5 34t55.5 -34t20.5 -71 t-19 -67q-23 -37 -57 -37q-35 0 -57 37q-16 31 -17 67z" />
<glyph unicode="&#xf1;" horiz-adv-x="1447" d="M109 1014v63q143 18 303 94l49 -14v-184q272 213 334 213q387 0 387 -381v-701l143 -36v-68h-399v68l63 36v512q0 205 -22 275q-45 143 -207 143q-127 0 -299 -121v-809l63 -36v-68h-395v68l145 36v865q-86 45 -165 45zM408 1253q127 135 239 271l203 -150l192 107 l-198 -209l-197 149z" />
<glyph unicode="&#xf2;" horiz-adv-x="1316" d="M115 561q0 274 129 440q143 184 409 185q268 0 408 -176q127 -160 127 -432q0 -279 -135 -435q-143 -168 -416 -168q-254 0 -393 170q-129 158 -129 416zM313 616q0 -213 70 -370q90 -209 274 -209q330 0 330 465q0 236 -63 393q-90 223 -293 223q-178 0 -258 -174 q-59 -127 -60 -328zM383 1497l436 -197l-35 -59l-389 150z" />
<glyph unicode="&#xf3;" horiz-adv-x="1316" d="M115 561q0 274 129 440q143 184 409 185q268 0 408 -176q127 -160 127 -432q0 -279 -135 -435q-143 -168 -416 -168q-254 0 -393 170q-129 158 -129 416zM313 616q0 -213 70 -370q90 -209 274 -209q330 0 330 465q0 236 -63 393q-90 223 -293 223q-178 0 -258 -174 q-59 -127 -60 -328zM432 1300l436 197l-12 -106l-389 -150z" />
<glyph unicode="&#xf4;" horiz-adv-x="1316" d="M115 561q0 274 129 440q143 184 409 185q268 0 408 -176q127 -160 127 -432q0 -279 -135 -435q-143 -168 -416 -168q-254 0 -393 170q-129 158 -129 416zM313 616q0 -213 70 -370q90 -209 274 -209q330 0 330 465q0 236 -63 393q-90 223 -293 223q-178 0 -258 -174 q-59 -127 -60 -328zM395 1272l264 227l277 -196l-49 -43l-228 114l-208 -137z" />
<glyph unicode="&#xf5;" horiz-adv-x="1316" d="M115 561q0 274 129 440q143 184 409 185q268 0 408 -176q127 -160 127 -432q0 -279 -135 -435q-143 -168 -416 -168q-254 0 -393 170q-129 158 -129 416zM313 616q0 -213 70 -370q90 -209 274 -209q330 0 330 465q0 236 -63 393q-90 223 -293 223q-178 0 -258 -174 q-59 -127 -60 -328zM354 1253q127 135 240 271l203 -150l192 107l-198 -209l-197 149z" />
<glyph unicode="&#xf6;" horiz-adv-x="1316" d="M115 561q0 274 129 440q143 184 409 185q268 0 408 -176q127 -160 127 -432q0 -279 -135 -435q-143 -168 -416 -168q-254 0 -393 170q-129 158 -129 416zM313 616q0 -213 70 -370q90 -209 274 -209q330 0 330 465q0 236 -63 393q-90 223 -293 223q-178 0 -258 -174 q-59 -127 -60 -328zM424 1415q0 37 19.5 71t54.5 34t55 -34t20 -71t-18 -67q-23 -37 -57 -37q-35 0 -58 37q-16 31 -16 67zM688 1419q0 37 19.5 71t54.5 34t55.5 -34t20.5 -71t-19 -67q-23 -37 -57 -37q-35 0 -57 37q-16 31 -17 67z" />
<glyph unicode="&#xf9;" horiz-adv-x="1484" d="M117 1104v65h348v-831q0 -104 61.5 -159.5t167.5 -55.5q80 0 162 35q45 18 148 80v827l-64 39v65h250v-1007l166 -27v-51q-68 -14 -336 -104l-16 18v180q-94 -63 -187 -129q-121 -74 -207 -74q-334 0 -334 308v782zM430 1503l436 -196l-35 -60l-389 150z" />
<glyph unicode="&#xfa;" horiz-adv-x="1484" d="M117 1104v65h348v-831q0 -104 61.5 -159.5t167.5 -55.5q80 0 162 35q45 18 148 80v827l-64 39v65h250v-1007l166 -27v-51q-68 -14 -336 -104l-16 18v180q-94 -63 -187 -129q-121 -74 -207 -74q-334 0 -334 308v782zM485 1300l437 197l-13 -106l-389 -150z" />
<glyph unicode="&#xfb;" horiz-adv-x="1484" d="M117 1104v65h348v-831q0 -104 61.5 -159.5t167.5 -55.5q80 0 162 35q45 18 148 80v827l-64 39v65h250v-1007l166 -27v-51q-68 -14 -336 -104l-16 18v180q-94 -63 -187 -129q-121 -74 -207 -74q-334 0 -334 308v782zM399 1278l265 227l276 -196l-49 -43l-227 114 l-209 -137z" />
<glyph unicode="&#xfc;" horiz-adv-x="1484" d="M117 1104v65h348v-831q0 -104 61.5 -159.5t167.5 -55.5q80 0 162 35q45 18 148 80v827l-64 39v65h250v-1007l166 -27v-51q-68 -14 -336 -104l-16 18v180q-94 -63 -187 -129q-121 -74 -207 -74q-334 0 -334 308v782zM487 1403q0 37 19.5 70.5t54.5 33.5t55.5 -33.5 t20.5 -70.5t-19 -68q-23 -37 -57 -37q-35 0 -57 37q-16 31 -17 68zM752 1407q0 37 19.5 70.5t53.5 33.5q35 0 55.5 -33.5t20.5 -70.5t-18 -68q-23 -37 -58 -36q-35 0 -57 36q-16 31 -16 68z" />
<glyph unicode="&#x2000;" horiz-adv-x="1047" />
<glyph unicode="&#x2001;" horiz-adv-x="2095" />
<glyph unicode="&#x2002;" horiz-adv-x="1047" />
<glyph unicode="&#x2003;" horiz-adv-x="2095" />
<glyph unicode="&#x2004;" horiz-adv-x="698" />
<glyph unicode="&#x2005;" horiz-adv-x="523" />
<glyph unicode="&#x2006;" horiz-adv-x="349" />
<glyph unicode="&#x2007;" horiz-adv-x="349" />
<glyph unicode="&#x2008;" horiz-adv-x="261" />
<glyph unicode="&#x2009;" horiz-adv-x="419" />
<glyph unicode="&#x200a;" horiz-adv-x="116" />
<glyph unicode="&#x2010;" horiz-adv-x="864" d="M109 584v166l639 -2v-164h-639z" />
<glyph unicode="&#x2011;" horiz-adv-x="864" d="M109 584v166l639 -2v-164h-639z" />
<glyph unicode="&#x2012;" horiz-adv-x="864" d="M109 584v166l639 -2v-164h-639z" />
<glyph unicode="&#x2013;" horiz-adv-x="1249" d="M109 584v166l1024 -2v-164h-1024z" />
<glyph unicode="&#x2014;" horiz-adv-x="2273" d="M109 584v166l2048 -2v-164h-2048z" />
<glyph unicode="&#x2018;" d="M217 1548q0 131 74 131q72 0 71 -129q0 -33 36 -221t36 -256q0 -47 -12 -55q-39 25 -122 242t-83 288z" />
<glyph unicode="&#x2019;" d="M217 1073q0 68 37 256.5t37 220.5q0 129 69 129q74 0 74 -131q0 -72 -83 -289t-120 -241q-14 8 -14 55z" />
<glyph unicode="&#x201c;" horiz-adv-x="1024" d="M195 1548q0 131 77 131q68 0 68 -125q0 -33 38 -224t38 -259q-1 -43 -15 -53q-37 20 -121.5 239.5t-84.5 290.5zM528 1548q0 131 72 131t72 -129q0 -35 36.5 -225t36.5 -256q0 -43 -12 -51q-39 25 -122 241t-83 289z" />
<glyph unicode="&#x201d;" horiz-adv-x="1024" d="M195 1069q0 66 36.5 256.5t36.5 224.5q0 129 72 129t72 -131q0 -74 -83 -290t-122 -240q-12 8 -12 51zM524 1071q0 68 38 259.5t38 223.5q0 125 68 125q77 0 77 -131q0 -72 -85 -291t-121 -239q-14 10 -15 53z" />
<glyph unicode="&#x2022;" horiz-adv-x="944" d="M147 1040l320 234l319 -234l-122 -381h-394z" />
<glyph unicode="&#x202f;" horiz-adv-x="419" />
<glyph unicode="&#x205f;" horiz-adv-x="523" />
<glyph unicode="&#x2122;" horiz-adv-x="2076" d="M150 1454v188h663v-188h-45q0 104 -70 129q-31 12 -159 12v-655q0 -66 112 -66v-38h-346v38q111 0 111 66v655h-47q-98 0 -133 -20q-45 -29 -48 -121h-38zM918 836v38q113 0 112 66v631q0 18 -18 31l-60 4v36h224l243 -606l234 606h241v-36q-31 0 -67 -7q-20 -14 -21 -34 v-592q0 -59 20.5 -79t80.5 -20v-38h-320v38q63 0 82 16.5t19 78.5v590h-23l-272 -723h-15l-280 723h-21v-619q0 -66 113 -66v-38h-272z" />
<glyph unicode="&#xe000;" horiz-adv-x="1167" d="M0 0v1167h1167v-1167h-1167z" />
</font>
</defs>
</svg>
